<?xml version="1.0" encoding="utf-8" standalone="no"?>
<!DOCTYPE svg PUBLIC "-//W3C//DTD SVG 1.1//EN"
  "http://www.w3.org/Graphics/SVG/1.1/DTD/svg11.dtd">
<svg xmlns:xlink="http://www.w3.org/1999/xlink" width="504pt" height="504pt" viewBox="0 0 504 504" xmlns="http://www.w3.org/2000/svg" version="1.1">
 <metadata>
  <rdf:RDF xmlns:dc="http://purl.org/dc/elements/1.1/" xmlns:cc="http://creativecommons.org/ns#" xmlns:rdf="http://www.w3.org/1999/02/22-rdf-syntax-ns#">
   <cc:Work>
    <dc:type rdf:resource="http://purl.org/dc/dcmitype/StillImage"/>
    <dc:date>2025-01-24T12:05:43.116375</dc:date>
    <dc:format>image/svg+xml</dc:format>
    <dc:creator>
     <cc:Agent>
      <dc:title>Matplotlib v3.9.2, https://matplotlib.org/</dc:title>
     </cc:Agent>
    </dc:creator>
   </cc:Work>
  </rdf:RDF>
 </metadata>
 <defs>
  <style type="text/css">*{stroke-linejoin: round; stroke-linecap: butt}</style>
 </defs>
 <g id="figure_1">
  <g id="patch_1">
   <path d="M 0 504 
L 504 504 
L 504 0 
L 0 0 
z
" style="fill: #ffffff"/>
  </g>
  <g id="axes_1">
   <g id="patch_2">
    <path d="M 110.006985 429.52 
L 475.11 429.52 
L 475.11 17.96 
L 110.006985 17.96 
z
" style="fill: #ffffff"/>
   </g>
   <g id="PolyCollection_1">
    <path d="M 110.006985 104.690878 
L 110.006985 130.828101 
L 115.248978 131.570354 
L 120.490918 132.720722 
L 125.732911 134.246676 
L 130.974851 136.117613 
L 136.216844 138.30488 
L 141.458784 140.781538 
L 146.700777 143.522444 
L 151.942718 146.503972 
L 157.18471 149.70415 
L 162.426911 153.102516 
L 167.668748 156.679506 
L 172.910584 160.417479 
L 178.15242 164.299813 
L 183.394778 168.311465 
L 188.636614 172.437308 
L 193.87845 176.664456 
L 199.120286 180.98063 
L 204.362644 185.374929 
L 209.60448 189.836022 
L 214.846316 194.354724 
L 220.088152 198.9222 
L 225.33051 203.530815 
L 230.572346 208.172249 
L 235.814182 212.84021 
L 241.056018 217.528559 
L 246.298376 222.232196 
L 251.540212 226.945153 
L 256.782048 231.663363 
L 262.023884 236.382759 
L 267.266242 241.100177 
L 272.508078 245.811446 
L 277.749914 250.514183 
L 282.99175 255.205878 
L 288.234108 259.88481 
L 293.475944 264.548157 
L 298.71778 269.19477 
L 303.959617 273.823283 
L 309.201974 278.433022 
L 314.44381 283.022146 
L 319.685647 287.590385 
L 324.927483 292.137184 
L 330.16984 296.662598 
L 335.411677 301.165473 
L 340.653513 305.64614 
L 345.895349 310.10459 
L 351.137707 314.54136 
L 356.379543 318.955755 
L 361.621379 323.348484 
L 366.863215 327.719886 
L 372.105573 332.07079 
L 377.347409 336.40078 
L 382.589245 340.710782 
L 387.831081 345.001326 
L 393.073439 349.273393 
L 398.315275 353.526712 
L 403.557111 357.762308 
L 408.798947 361.980787 
L 414.041305 366.183183 
L 419.283141 370.369274 
L 424.524977 374.540095 
L 429.766813 378.696255 
L 435.009171 382.838766 
L 440.251007 386.967392 
L 445.492843 391.083123 
L 450.73468 395.186517 
L 455.977037 399.278522 
L 461.218873 403.358846 
L 466.46071 407.428397 
L 471.702546 411.487655 
L 476.944903 415.537479 
L 482.18674 419.577496 
L 487.428576 423.608519 
L 492.670412 427.630934 
L 497.91277 431.645502 
L 503.154606 435.651762 
L 508.396442 439.650427 
L 513.638278 443.641787 
L 518.880636 447.626507 
L 524.122472 451.604039 
L 529.364308 455.575002 
L 534.606144 459.539599 
L 539.848502 463.498406 
L 545.090338 467.450796 
L 550.332174 471.397308 
L 555.57401 475.338068 
L 560.816368 479.273578 
L 566.058204 483.203147 
L 571.30004 487.127247 
L 576.541876 491.045944 
L 581.784234 494.95968 
L 587.02607 498.867718 
L 592.267906 502.770479 
L 597.509743 506.667985 
L 602.7521 510.560637 
L 607.993936 514.447665 
L 613.235773 518.329458 
L 618.477609 522.20601 
L 623.719966 526.077696 
L 628.961803 529.943732 
L 634.206247 533.806406 
L 639.448083 537.661859 
L 644.689919 541.511993 
L 649.931755 545.35679 
L 655.173591 549.19623 
L 660.415427 553.030296 
L 665.657263 556.858971 
L 670.8991 560.682241 
L 676.140936 564.500096 
L 681.382772 568.312528 
L 686.624608 572.119533 
L 691.866444 575.921113 
L 697.10828 579.717271 
L 702.350116 583.508019 
L 707.591953 587.293372 
L 712.833789 591.07335 
L 718.075625 594.84798 
L 723.317461 598.617294 
L 728.559297 602.38133 
L 733.801133 606.140132 
L 739.042969 609.893751 
L 744.284806 613.642241 
L 749.526642 617.385665 
L 754.768478 621.124091 
L 760.010314 624.85759 
L 765.25215 628.586243 
L 770.493986 632.310134 
L 775.735822 636.029351 
L 780.977658 639.743989 
L 786.219495 643.454146 
L 791.461331 647.159926 
L 796.703167 650.861435 
L 801.945003 654.558785 
L 807.186839 658.252089 
L 812.428675 661.941465 
L 817.670511 665.627033 
L 822.912348 669.308914 
L 828.154184 672.987233 
L 833.39602 676.662114 
L 838.637856 680.333684 
L 843.884908 684.005719 
L 849.126744 687.671045 
L 854.36858 691.333441 
L 859.610416 694.993034 
L 864.852252 698.649948 
L 870.094089 702.304308 
L 875.335925 705.956234 
L 880.577761 709.605848 
L 885.819597 713.253267 
L 891.061433 716.898603 
L 896.303269 720.541968 
L 901.545105 724.18347 
L 906.786942 727.823211 
L 912.028778 731.46129 
L 917.270614 735.097801 
L 922.51245 738.732834 
L 927.754286 742.366473 
L 932.996122 745.998796 
L 938.237958 749.629877 
L 943.479795 753.259783 
L 948.721631 756.888576 
L 953.963467 760.516311 
L 959.205303 764.143038 
L 964.447139 767.7688 
L 969.688975 771.393634 
L 974.930811 775.017569 
L 980.172648 778.64063 
L 985.414484 782.262835 
L 990.65632 785.884196 
L 995.898156 789.504716 
L 1001.139992 793.124396 
L 1006.381828 796.743228 
L 1011.623664 800.361199 
L 1016.865501 803.97829 
L 1022.107337 807.594478 
L 1027.349173 811.209734 
L 1032.591009 814.824021 
L 1037.832845 818.437302 
L 1043.074681 822.049532 
L 1048.316517 825.660663 
L 1053.563569 829.274236 
L 1058.805405 832.883009 
L 1064.047242 836.490517 
L 1069.289078 840.0967 
L 1074.530914 843.701492 
L 1079.77275 847.304828 
L 1085.014586 850.906641 
L 1090.256422 854.506862 
L 1095.498258 858.105422 
L 1100.740095 861.702251 
L 1105.981931 865.29728 
L 1111.223767 868.89044 
L 1116.465603 872.481664 
L 1121.707439 876.070885 
L 1126.949275 879.658039 
L 1132.191111 883.243066 
L 1137.432948 886.825905 
L 1142.674784 890.406502 
L 1147.91662 893.984805 
L 1153.158456 897.560767 
L 1153.158456 892.980233 
L 1153.158456 892.980233 
L 1147.91662 889.409819 
L 1142.674784 885.835429 
L 1137.432948 882.261866 
L 1132.191111 878.689312 
L 1126.949275 875.117057 
L 1121.707439 871.539206 
L 1116.465603 867.960441 
L 1111.223767 864.377953 
L 1105.981931 860.793655 
L 1100.740095 857.204858 
L 1095.498258 853.609841 
L 1090.256422 850.013386 
L 1085.014586 846.416079 
L 1079.77275 842.81805 
L 1074.530914 839.219356 
L 1069.289078 835.620974 
L 1064.047242 832.022589 
L 1058.805405 828.423223 
L 1053.563569 824.820245 
L 1048.316517 821.21071 
L 1043.074681 817.602759 
L 1037.832845 813.993837 
L 1032.591009 810.380506 
L 1027.349173 806.766906 
L 1022.107337 803.150554 
L 1016.865501 799.533038 
L 1011.623664 795.919176 
L 1006.381828 792.300422 
L 1001.139992 788.683586 
L 995.898156 785.06515 
L 990.65632 781.447817 
L 985.414484 777.824199 
L 980.172648 774.198239 
L 974.930811 770.571019 
L 969.688975 766.942967 
L 964.447139 763.312644 
L 959.205303 759.679023 
L 953.963467 756.045893 
L 948.721631 752.411745 
L 943.479795 748.777649 
L 938.237958 745.142032 
L 932.996122 741.505505 
L 927.754286 737.865719 
L 922.51245 734.22661 
L 917.270614 730.583249 
L 912.028778 726.93414 
L 906.786942 723.282865 
L 901.545105 719.63088 
L 896.303269 715.974766 
L 891.061433 712.315783 
L 885.819597 708.657628 
L 880.577761 704.995208 
L 875.335925 701.334969 
L 870.094089 697.667697 
L 864.852252 693.997863 
L 859.610416 690.32438 
L 854.36858 686.64635 
L 849.126744 682.963851 
L 843.884908 679.276027 
L 838.637856 675.580569 
L 833.39602 671.883365 
L 828.154184 668.183207 
L 822.912348 664.444462 
L 817.670511 660.670269 
L 812.428675 657.007424 
L 807.186839 653.302514 
L 801.945003 649.575799 
L 796.703167 645.821568 
L 791.461331 642.039932 
L 786.219495 638.32769 
L 780.977658 634.605289 
L 775.735822 630.87454 
L 770.493986 627.101787 
L 765.25215 623.313311 
L 760.010314 619.578018 
L 754.768478 615.828404 
L 749.526642 612.074634 
L 744.284806 608.291463 
L 739.042969 604.500406 
L 733.801133 600.696272 
L 728.559297 596.887682 
L 723.317461 593.069841 
L 718.075625 589.244609 
L 712.833789 585.412058 
L 707.591953 581.571286 
L 702.350116 577.723219 
L 697.10828 573.867338 
L 691.866444 570.00509 
L 686.624608 566.133312 
L 681.382772 562.254388 
L 676.140936 558.368298 
L 670.8991 554.476443 
L 665.657263 550.573656 
L 660.415427 546.660828 
L 655.173591 542.73842 
L 649.931755 538.795497 
L 644.689919 534.847052 
L 639.448083 530.887529 
L 634.206247 526.953471 
L 628.961803 522.980843 
L 623.719966 519.000809 
L 618.477609 515.01037 
L 613.235773 511.013485 
L 607.993936 507.01256 
L 602.7521 502.982048 
L 597.509743 498.947732 
L 592.267906 494.908689 
L 587.02607 490.854575 
L 581.784234 486.778375 
L 576.541876 482.674481 
L 571.30004 478.584612 
L 566.058204 474.468203 
L 560.816368 470.338097 
L 555.57401 466.18279 
L 550.332174 462.013563 
L 545.090338 457.825803 
L 539.848502 453.611344 
L 534.606144 449.366673 
L 529.364308 445.08985 
L 524.122472 440.771805 
L 518.880636 436.407324 
L 513.638278 431.999026 
L 508.396442 427.525274 
L 503.154606 422.982536 
L 497.91277 418.398159 
L 492.670412 413.767707 
L 487.428576 409.104344 
L 482.18674 404.406695 
L 476.944903 399.695768 
L 471.702546 394.995436 
L 466.46071 390.300889 
L 461.218873 385.644436 
L 455.977037 380.971963 
L 450.73468 376.314095 
L 445.492843 371.669865 
L 440.251007 367.050823 
L 435.009171 362.436369 
L 429.766813 357.813439 
L 424.524977 353.183548 
L 419.283141 348.545816 
L 414.041305 343.922784 
L 408.798947 339.295974 
L 403.557111 334.65594 
L 398.315275 329.997818 
L 393.073439 325.316401 
L 387.831081 320.658323 
L 382.589245 315.758485 
L 377.347409 311.273385 
L 372.105573 306.563537 
L 366.863215 301.822566 
L 361.621379 297.074964 
L 356.379543 292.317064 
L 351.137707 287.54557 
L 345.895349 282.732283 
L 340.653513 277.884907 
L 335.411677 273.021565 
L 330.16984 268.167274 
L 324.927483 263.284243 
L 319.685647 258.36261 
L 314.44381 253.40239 
L 309.201974 248.434015 
L 303.959617 243.47212 
L 298.71778 238.508811 
L 293.475944 233.50766 
L 288.234108 228.449716 
L 282.99175 223.413684 
L 277.749914 218.380428 
L 272.508078 213.385464 
L 267.266242 208.378793 
L 262.023884 203.348631 
L 256.782048 198.294054 
L 251.540212 193.328991 
L 246.298376 188.420502 
L 241.056018 183.576502 
L 235.814182 178.7678 
L 230.572346 173.990372 
L 225.33051 169.274013 
L 220.088152 164.679285 
L 214.846316 160.215285 
L 209.60448 155.88416 
L 204.362644 151.644365 
L 199.120286 147.488099 
L 193.87845 143.461951 
L 188.636614 139.5802 
L 183.394778 135.877132 
L 178.15242 132.360601 
L 172.910584 129.009889 
L 167.668748 125.806012 
L 162.426911 122.756054 
L 157.18471 119.870045 
L 151.942718 117.171153 
L 146.700777 114.689729 
L 141.458784 112.442881 
L 136.216844 110.446765 
L 130.974851 108.7313 
L 125.732911 107.29537 
L 120.490918 106.149214 
L 115.248978 105.286562 
L 110.006985 104.690878 
z
" clip-path="url(#pa106a6cc9c)" style="fill: #ff0000; fill-opacity: 0.2; stroke: #ff0000; stroke-width: 1.5"/>
   </g>
   <g id="line2d_1">
    <path d="M 110.006985 130.828101 
L 115.248978 131.570354 
L 120.490918 132.720722 
L 125.732911 134.246676 
L 130.974851 136.117613 
L 136.216844 138.30488 
L 141.458784 140.781538 
L 146.700777 143.522444 
L 151.942718 146.503972 
L 157.18471 149.70415 
L 162.426911 153.102516 
L 167.668748 156.679506 
L 172.910584 160.417479 
L 183.394778 168.311465 
L 193.87845 176.664456 
L 204.362644 185.374929 
L 214.846316 194.354724 
L 230.572346 208.172249 
L 251.540212 226.945153 
L 293.475944 264.548157 
L 314.44381 283.022146 
L 335.411677 301.165473 
L 356.379543 318.955755 
L 377.347409 336.40078 
L 398.315275 353.526712 
L 419.283141 370.369274 
L 445.492843 391.083123 
L 471.702546 411.487655 
L 503.154606 435.651762 
L 505 437.059496 
L 505 437.059496 
" clip-path="url(#pa106a6cc9c)" style="fill: none; stroke: #0000ff; stroke-width: 1.5; stroke-linecap: square"/>
   </g>
   <g id="LineCollection_1">
    <path d="M 167.380316 111.099992 
L 167.380316 78.196269 
" clip-path="url(#pa106a6cc9c)" style="fill: none; stroke: #0000ff; stroke-width: 1.5"/>
    <path d="M 177.811831 120.22502 
L 177.811831 90.124686 
" clip-path="url(#pa106a6cc9c)" style="fill: none; stroke: #0000ff; stroke-width: 1.5"/>
    <path d="M 188.243346 132.510491 
L 188.243346 102.733834 
" clip-path="url(#pa106a6cc9c)" style="fill: none; stroke: #0000ff; stroke-width: 1.5"/>
    <path d="M 198.67486 145.12234 
L 198.67486 115.481494 
" clip-path="url(#pa106a6cc9c)" style="fill: none; stroke: #0000ff; stroke-width: 1.5"/>
    <path d="M 209.106375 155.945234 
L 209.106375 126.447426 
" clip-path="url(#pa106a6cc9c)" style="fill: none; stroke: #0000ff; stroke-width: 1.5"/>
    <path d="M 227.361526 175.71346 
L 227.361526 158.265382 
" clip-path="url(#pa106a6cc9c)" style="fill: none; stroke: #0000ff; stroke-width: 1.5"/>
    <path d="M 253.440312 206.5434 
L 253.440312 188.76602 
" clip-path="url(#pa106a6cc9c)" style="fill: none; stroke: #0000ff; stroke-width: 1.5"/>
    <path d="M 279.519099 235.16668 
L 279.519099 216.79399 
" clip-path="url(#pa106a6cc9c)" style="fill: none; stroke: #0000ff; stroke-width: 1.5"/>
    <path d="M 305.597886 261.665007 
L 305.597886 244.512505 
" clip-path="url(#pa106a6cc9c)" style="fill: none; stroke: #0000ff; stroke-width: 1.5"/>
    <path d="M 331.676673 287.506796 
L 331.676673 270.899971 
" clip-path="url(#pa106a6cc9c)" style="fill: none; stroke: #0000ff; stroke-width: 1.5"/>
    <path d="M 357.75546 313.263086 
L 357.75546 296.863878 
" clip-path="url(#pa106a6cc9c)" style="fill: none; stroke: #0000ff; stroke-width: 1.5"/>
    <path d="M 383.834246 335.806777 
L 383.834246 323.55692 
" clip-path="url(#pa106a6cc9c)" style="fill: none; stroke: #0000ff; stroke-width: 1.5"/>
    <path d="M 409.913033 358.974497 
L 409.913033 347.109527 
" clip-path="url(#pa106a6cc9c)" style="fill: none; stroke: #0000ff; stroke-width: 1.5"/>
    <path d="M 435.99182 381.693777 
L 435.99182 369.181342 
" clip-path="url(#pa106a6cc9c)" style="fill: none; stroke: #0000ff; stroke-width: 1.5"/>
    <path d="M 462.070607 403.614702 
L 462.070607 390.806273 
" clip-path="url(#pa106a6cc9c)" style="fill: none; stroke: #0000ff; stroke-width: 1.5"/>
    <path d="M 488.149393 425.709606 
L 488.149393 412.972574 
" clip-path="url(#pa106a6cc9c)" style="fill: none; stroke: #0000ff; stroke-width: 1.5"/>
    <path clip-path="url(#pa106a6cc9c)" style="fill: none; stroke: #0000ff; stroke-width: 1.5"/>
    <path clip-path="url(#pa106a6cc9c)" style="fill: none; stroke: #0000ff; stroke-width: 1.5"/>
    <path clip-path="url(#pa106a6cc9c)" style="fill: none; stroke: #0000ff; stroke-width: 1.5"/>
    <path clip-path="url(#pa106a6cc9c)" style="fill: none; stroke: #0000ff; stroke-width: 1.5"/>
    <path clip-path="url(#pa106a6cc9c)" style="fill: none; stroke: #0000ff; stroke-width: 1.5"/>
    <path clip-path="url(#pa106a6cc9c)" style="fill: none; stroke: #0000ff; stroke-width: 1.5"/>
    <path clip-path="url(#pa106a6cc9c)" style="fill: none; stroke: #0000ff; stroke-width: 1.5"/>
    <path clip-path="url(#pa106a6cc9c)" style="fill: none; stroke: #0000ff; stroke-width: 1.5"/>
    <path clip-path="url(#pa106a6cc9c)" style="fill: none; stroke: #0000ff; stroke-width: 1.5"/>
    <path clip-path="url(#pa106a6cc9c)" style="fill: none; stroke: #0000ff; stroke-width: 1.5"/>
    <path clip-path="url(#pa106a6cc9c)" style="fill: none; stroke: #0000ff; stroke-width: 1.5"/>
    <path clip-path="url(#pa106a6cc9c)" style="fill: none; stroke: #0000ff; stroke-width: 1.5"/>
    <path clip-path="url(#pa106a6cc9c)" style="fill: none; stroke: #0000ff; stroke-width: 1.5"/>
    <path clip-path="url(#pa106a6cc9c)" style="fill: none; stroke: #0000ff; stroke-width: 1.5"/>
    <path clip-path="url(#pa106a6cc9c)" style="fill: none; stroke: #0000ff; stroke-width: 1.5"/>
    <path clip-path="url(#pa106a6cc9c)" style="fill: none; stroke: #0000ff; stroke-width: 1.5"/>
    <path clip-path="url(#pa106a6cc9c)" style="fill: none; stroke: #0000ff; stroke-width: 1.5"/>
    <path clip-path="url(#pa106a6cc9c)" style="fill: none; stroke: #0000ff; stroke-width: 1.5"/>
    <path clip-path="url(#pa106a6cc9c)" style="fill: none; stroke: #0000ff; stroke-width: 1.5"/>
    <path clip-path="url(#pa106a6cc9c)" style="fill: none; stroke: #0000ff; stroke-width: 1.5"/>
    <path clip-path="url(#pa106a6cc9c)" style="fill: none; stroke: #0000ff; stroke-width: 1.5"/>
    <path clip-path="url(#pa106a6cc9c)" style="fill: none; stroke: #0000ff; stroke-width: 1.5"/>
    <path clip-path="url(#pa106a6cc9c)" style="fill: none; stroke: #0000ff; stroke-width: 1.5"/>
    <path clip-path="url(#pa106a6cc9c)" style="fill: none; stroke: #0000ff; stroke-width: 1.5"/>
    <path clip-path="url(#pa106a6cc9c)" style="fill: none; stroke: #0000ff; stroke-width: 1.5"/>
   </g>
   <g id="line2d_2">
    <defs>
     <path id="mc3fd4d1a02" d="M 2.5 0 
L -2.5 -0 
" style="stroke: #0000ff; stroke-width: 0.5"/>
    </defs>
    <g clip-path="url(#pa106a6cc9c)">
     <use xlink:href="#mc3fd4d1a02" x="167.380316" y="111.099992" style="fill: #0000ff; stroke: #0000ff; stroke-width: 0.5"/>
     <use xlink:href="#mc3fd4d1a02" x="177.811831" y="120.22502" style="fill: #0000ff; stroke: #0000ff; stroke-width: 0.5"/>
     <use xlink:href="#mc3fd4d1a02" x="188.243346" y="132.510491" style="fill: #0000ff; stroke: #0000ff; stroke-width: 0.5"/>
     <use xlink:href="#mc3fd4d1a02" x="198.67486" y="145.12234" style="fill: #0000ff; stroke: #0000ff; stroke-width: 0.5"/>
     <use xlink:href="#mc3fd4d1a02" x="209.106375" y="155.945234" style="fill: #0000ff; stroke: #0000ff; stroke-width: 0.5"/>
     <use xlink:href="#mc3fd4d1a02" x="227.361526" y="175.71346" style="fill: #0000ff; stroke: #0000ff; stroke-width: 0.5"/>
     <use xlink:href="#mc3fd4d1a02" x="253.440312" y="206.5434" style="fill: #0000ff; stroke: #0000ff; stroke-width: 0.5"/>
     <use xlink:href="#mc3fd4d1a02" x="279.519099" y="235.16668" style="fill: #0000ff; stroke: #0000ff; stroke-width: 0.5"/>
     <use xlink:href="#mc3fd4d1a02" x="305.597886" y="261.665007" style="fill: #0000ff; stroke: #0000ff; stroke-width: 0.5"/>
     <use xlink:href="#mc3fd4d1a02" x="331.676673" y="287.506796" style="fill: #0000ff; stroke: #0000ff; stroke-width: 0.5"/>
     <use xlink:href="#mc3fd4d1a02" x="357.75546" y="313.263086" style="fill: #0000ff; stroke: #0000ff; stroke-width: 0.5"/>
     <use xlink:href="#mc3fd4d1a02" x="383.834246" y="335.806777" style="fill: #0000ff; stroke: #0000ff; stroke-width: 0.5"/>
     <use xlink:href="#mc3fd4d1a02" x="409.913033" y="358.974497" style="fill: #0000ff; stroke: #0000ff; stroke-width: 0.5"/>
     <use xlink:href="#mc3fd4d1a02" x="435.99182" y="381.693777" style="fill: #0000ff; stroke: #0000ff; stroke-width: 0.5"/>
     <use xlink:href="#mc3fd4d1a02" x="462.070607" y="403.614702" style="fill: #0000ff; stroke: #0000ff; stroke-width: 0.5"/>
     <use xlink:href="#mc3fd4d1a02" x="488.149393" y="425.709606" style="fill: #0000ff; stroke: #0000ff; stroke-width: 0.5"/>
     <use xlink:href="#mc3fd4d1a02" x="514.22818" y="446.448721" style="fill: #0000ff; stroke: #0000ff; stroke-width: 0.5"/>
     <use xlink:href="#mc3fd4d1a02" x="540.306967" y="467.554877" style="fill: #0000ff; stroke: #0000ff; stroke-width: 0.5"/>
     <use xlink:href="#mc3fd4d1a02" x="566.385754" y="487.573841" style="fill: #0000ff; stroke: #0000ff; stroke-width: 0.5"/>
     <use xlink:href="#mc3fd4d1a02" x="592.46454" y="507.409639" style="fill: #0000ff; stroke: #0000ff; stroke-width: 0.5"/>
     <use xlink:href="#mc3fd4d1a02" x="618.543327" y="526.484471" style="fill: #0000ff; stroke: #0000ff; stroke-width: 0.5"/>
     <use xlink:href="#mc3fd4d1a02" x="657.661507" y="556.320448" style="fill: #0000ff; stroke: #0000ff; stroke-width: 0.5"/>
     <use xlink:href="#mc3fd4d1a02" x="709.819081" y="594.207967" style="fill: #0000ff; stroke: #0000ff; stroke-width: 0.5"/>
     <use xlink:href="#mc3fd4d1a02" x="761.976654" y="629.818804" style="fill: #0000ff; stroke: #0000ff; stroke-width: 0.5"/>
     <use xlink:href="#mc3fd4d1a02" x="814.134228" y="665.649817" style="fill: #0000ff; stroke: #0000ff; stroke-width: 0.5"/>
     <use xlink:href="#mc3fd4d1a02" x="866.291802" y="703.332059" style="fill: #0000ff; stroke: #0000ff; stroke-width: 0.5"/>
     <use xlink:href="#mc3fd4d1a02" x="918.449375" y="738.38765" style="fill: #0000ff; stroke: #0000ff; stroke-width: 0.5"/>
     <use xlink:href="#mc3fd4d1a02" x="970.606949" y="772.952793" style="fill: #0000ff; stroke: #0000ff; stroke-width: 0.5"/>
     <use xlink:href="#mc3fd4d1a02" x="1022.764522" y="807.753417" style="fill: #0000ff; stroke: #0000ff; stroke-width: 0.5"/>
     <use xlink:href="#mc3fd4d1a02" x="1074.922096" y="841.89912" style="fill: #0000ff; stroke: #0000ff; stroke-width: 0.5"/>
     <use xlink:href="#mc3fd4d1a02" x="1127.079669" y="875.535872" style="fill: #0000ff; stroke: #0000ff; stroke-width: 0.5"/>
     <use xlink:href="#mc3fd4d1a02" x="1179.237243" y="908.419949" style="fill: #0000ff; stroke: #0000ff; stroke-width: 0.5"/>
     <use xlink:href="#mc3fd4d1a02" x="1231.394816" y="940.696521" style="fill: #0000ff; stroke: #0000ff; stroke-width: 0.5"/>
     <use xlink:href="#mc3fd4d1a02" x="1283.55239" y="973.07013" style="fill: #0000ff; stroke: #0000ff; stroke-width: 0.5"/>
     <use xlink:href="#mc3fd4d1a02" x="1335.709963" y="998.890894" style="fill: #0000ff; stroke: #0000ff; stroke-width: 0.5"/>
     <use xlink:href="#mc3fd4d1a02" x="1387.867537" y="1034.538466" style="fill: #0000ff; stroke: #0000ff; stroke-width: 0.5"/>
     <use xlink:href="#mc3fd4d1a02" x="1440.02511" y="1063.797185" style="fill: #0000ff; stroke: #0000ff; stroke-width: 0.5"/>
     <use xlink:href="#mc3fd4d1a02" x="1492.182684" y="1093.760215" style="fill: #0000ff; stroke: #0000ff; stroke-width: 0.5"/>
     <use xlink:href="#mc3fd4d1a02" x="1544.340257" y="1120.462073" style="fill: #0000ff; stroke: #0000ff; stroke-width: 0.5"/>
     <use xlink:href="#mc3fd4d1a02" x="1596.497831" y="1146.159944" style="fill: #0000ff; stroke: #0000ff; stroke-width: 0.5"/>
     <use xlink:href="#mc3fd4d1a02" x="1648.655405" y="1174.307725" style="fill: #0000ff; stroke: #0000ff; stroke-width: 0.5"/>
    </g>
   </g>
   <g id="line2d_3">
    <g clip-path="url(#pa106a6cc9c)">
     <use xlink:href="#mc3fd4d1a02" x="167.380316" y="78.196269" style="fill: #0000ff; stroke: #0000ff; stroke-width: 0.5"/>
     <use xlink:href="#mc3fd4d1a02" x="177.811831" y="90.124686" style="fill: #0000ff; stroke: #0000ff; stroke-width: 0.5"/>
     <use xlink:href="#mc3fd4d1a02" x="188.243346" y="102.733834" style="fill: #0000ff; stroke: #0000ff; stroke-width: 0.5"/>
     <use xlink:href="#mc3fd4d1a02" x="198.67486" y="115.481494" style="fill: #0000ff; stroke: #0000ff; stroke-width: 0.5"/>
     <use xlink:href="#mc3fd4d1a02" x="209.106375" y="126.447426" style="fill: #0000ff; stroke: #0000ff; stroke-width: 0.5"/>
     <use xlink:href="#mc3fd4d1a02" x="227.361526" y="158.265382" style="fill: #0000ff; stroke: #0000ff; stroke-width: 0.5"/>
     <use xlink:href="#mc3fd4d1a02" x="253.440312" y="188.76602" style="fill: #0000ff; stroke: #0000ff; stroke-width: 0.5"/>
     <use xlink:href="#mc3fd4d1a02" x="279.519099" y="216.79399" style="fill: #0000ff; stroke: #0000ff; stroke-width: 0.5"/>
     <use xlink:href="#mc3fd4d1a02" x="305.597886" y="244.512505" style="fill: #0000ff; stroke: #0000ff; stroke-width: 0.5"/>
     <use xlink:href="#mc3fd4d1a02" x="331.676673" y="270.899971" style="fill: #0000ff; stroke: #0000ff; stroke-width: 0.5"/>
     <use xlink:href="#mc3fd4d1a02" x="357.75546" y="296.863878" style="fill: #0000ff; stroke: #0000ff; stroke-width: 0.5"/>
     <use xlink:href="#mc3fd4d1a02" x="383.834246" y="323.55692" style="fill: #0000ff; stroke: #0000ff; stroke-width: 0.5"/>
     <use xlink:href="#mc3fd4d1a02" x="409.913033" y="347.109527" style="fill: #0000ff; stroke: #0000ff; stroke-width: 0.5"/>
     <use xlink:href="#mc3fd4d1a02" x="435.99182" y="369.181342" style="fill: #0000ff; stroke: #0000ff; stroke-width: 0.5"/>
     <use xlink:href="#mc3fd4d1a02" x="462.070607" y="390.806273" style="fill: #0000ff; stroke: #0000ff; stroke-width: 0.5"/>
     <use xlink:href="#mc3fd4d1a02" x="488.149393" y="412.972574" style="fill: #0000ff; stroke: #0000ff; stroke-width: 0.5"/>
     <use xlink:href="#mc3fd4d1a02" x="514.22818" y="433.242484" style="fill: #0000ff; stroke: #0000ff; stroke-width: 0.5"/>
     <use xlink:href="#mc3fd4d1a02" x="540.306967" y="454.133803" style="fill: #0000ff; stroke: #0000ff; stroke-width: 0.5"/>
     <use xlink:href="#mc3fd4d1a02" x="566.385754" y="473.648162" style="fill: #0000ff; stroke: #0000ff; stroke-width: 0.5"/>
     <use xlink:href="#mc3fd4d1a02" x="592.46454" y="493.376003" style="fill: #0000ff; stroke: #0000ff; stroke-width: 0.5"/>
     <use xlink:href="#mc3fd4d1a02" x="618.543327" y="512.924616" style="fill: #0000ff; stroke: #0000ff; stroke-width: 0.5"/>
     <use xlink:href="#mc3fd4d1a02" x="657.661507" y="542.690618" style="fill: #0000ff; stroke: #0000ff; stroke-width: 0.5"/>
     <use xlink:href="#mc3fd4d1a02" x="709.819081" y="580.216108" style="fill: #0000ff; stroke: #0000ff; stroke-width: 0.5"/>
     <use xlink:href="#mc3fd4d1a02" x="761.976654" y="614.935604" style="fill: #0000ff; stroke: #0000ff; stroke-width: 0.5"/>
     <use xlink:href="#mc3fd4d1a02" x="814.134228" y="650.770976" style="fill: #0000ff; stroke: #0000ff; stroke-width: 0.5"/>
     <use xlink:href="#mc3fd4d1a02" x="866.291802" y="688.074071" style="fill: #0000ff; stroke: #0000ff; stroke-width: 0.5"/>
     <use xlink:href="#mc3fd4d1a02" x="918.449375" y="722.751513" style="fill: #0000ff; stroke: #0000ff; stroke-width: 0.5"/>
     <use xlink:href="#mc3fd4d1a02" x="970.606949" y="756.753706" style="fill: #0000ff; stroke: #0000ff; stroke-width: 0.5"/>
     <use xlink:href="#mc3fd4d1a02" x="1022.764522" y="791.371457" style="fill: #0000ff; stroke: #0000ff; stroke-width: 0.5"/>
     <use xlink:href="#mc3fd4d1a02" x="1074.922096" y="825.086049" style="fill: #0000ff; stroke: #0000ff; stroke-width: 0.5"/>
     <use xlink:href="#mc3fd4d1a02" x="1127.079669" y="857.568834" style="fill: #0000ff; stroke: #0000ff; stroke-width: 0.5"/>
     <use xlink:href="#mc3fd4d1a02" x="1179.237243" y="889.970019" style="fill: #0000ff; stroke: #0000ff; stroke-width: 0.5"/>
     <use xlink:href="#mc3fd4d1a02" x="1231.394816" y="921.071078" style="fill: #0000ff; stroke: #0000ff; stroke-width: 0.5"/>
     <use xlink:href="#mc3fd4d1a02" x="1283.55239" y="953.312383" style="fill: #0000ff; stroke: #0000ff; stroke-width: 0.5"/>
     <use xlink:href="#mc3fd4d1a02" x="1335.709963" y="978.205277" style="fill: #0000ff; stroke: #0000ff; stroke-width: 0.5"/>
     <use xlink:href="#mc3fd4d1a02" x="1387.867537" y="1010.961923" style="fill: #0000ff; stroke: #0000ff; stroke-width: 0.5"/>
     <use xlink:href="#mc3fd4d1a02" x="1440.02511" y="1039.316639" style="fill: #0000ff; stroke: #0000ff; stroke-width: 0.5"/>
     <use xlink:href="#mc3fd4d1a02" x="1492.182684" y="1066.70998" style="fill: #0000ff; stroke: #0000ff; stroke-width: 0.5"/>
     <use xlink:href="#mc3fd4d1a02" x="1544.340257" y="1094.402465" style="fill: #0000ff; stroke: #0000ff; stroke-width: 0.5"/>
     <use xlink:href="#mc3fd4d1a02" x="1596.497831" y="1119.407476" style="fill: #0000ff; stroke: #0000ff; stroke-width: 0.5"/>
     <use xlink:href="#mc3fd4d1a02" x="1648.655405" y="1144.376532" style="fill: #0000ff; stroke: #0000ff; stroke-width: 0.5"/>
    </g>
   </g>
   <g id="line2d_4">
    <defs>
     <path id="md4f2846603" d="M 0 2.083333 
C 0.552506 2.083333 1.082458 1.86382 1.473139 1.473139 
C 1.86382 1.082458 2.083333 0.552506 2.083333 0 
C 2.083333 -0.552506 1.86382 -1.082458 1.473139 -1.473139 
C 1.082458 -1.86382 0.552506 -2.083333 0 -2.083333 
C -0.552506 -2.083333 -1.082458 -1.86382 -1.473139 -1.473139 
C -1.86382 -1.082458 -2.083333 -0.552506 -2.083333 0 
C -2.083333 0.552506 -1.86382 1.082458 -1.473139 1.473139 
C -1.082458 1.86382 -0.552506 2.083333 0 2.083333 
z
" style="stroke: #000000; stroke-width: 0.5"/>
    </defs>
    <g clip-path="url(#pa106a6cc9c)">
     <use xlink:href="#md4f2846603" x="167.380316" y="93.460497" style="fill: #0000ff; stroke: #000000; stroke-width: 0.5"/>
     <use xlink:href="#md4f2846603" x="177.811831" y="104.180407" style="fill: #0000ff; stroke: #000000; stroke-width: 0.5"/>
     <use xlink:href="#md4f2846603" x="188.243346" y="116.648928" style="fill: #0000ff; stroke: #000000; stroke-width: 0.5"/>
     <use xlink:href="#md4f2846603" x="198.67486" y="129.337515" style="fill: #0000ff; stroke: #000000; stroke-width: 0.5"/>
     <use xlink:href="#md4f2846603" x="209.106375" y="140.241188" style="fill: #0000ff; stroke: #000000; stroke-width: 0.5"/>
     <use xlink:href="#md4f2846603" x="227.361526" y="166.65463" style="fill: #0000ff; stroke: #000000; stroke-width: 0.5"/>
     <use xlink:href="#md4f2846603" x="253.440312" y="197.307175" style="fill: #0000ff; stroke: #000000; stroke-width: 0.5"/>
     <use xlink:href="#md4f2846603" x="279.519099" y="225.60916" style="fill: #0000ff; stroke: #000000; stroke-width: 0.5"/>
     <use xlink:href="#md4f2846603" x="305.597886" y="252.765201" style="fill: #0000ff; stroke: #000000; stroke-width: 0.5"/>
     <use xlink:href="#md4f2846603" x="331.676673" y="278.90007" style="fill: #0000ff; stroke: #000000; stroke-width: 0.5"/>
     <use xlink:href="#md4f2846603" x="357.75546" y="304.767698" style="fill: #0000ff; stroke: #000000; stroke-width: 0.5"/>
     <use xlink:href="#md4f2846603" x="383.834246" y="329.516744" style="fill: #0000ff; stroke: #000000; stroke-width: 0.5"/>
     <use xlink:href="#md4f2846603" x="409.913033" y="352.887116" style="fill: #0000ff; stroke: #000000; stroke-width: 0.5"/>
     <use xlink:href="#md4f2846603" x="435.99182" y="375.265305" style="fill: #0000ff; stroke: #000000; stroke-width: 0.5"/>
     <use xlink:href="#md4f2846603" x="462.070607" y="397.029991" style="fill: #0000ff; stroke: #000000; stroke-width: 0.5"/>
     <use xlink:href="#md4f2846603" x="488.149393" y="419.1626" style="fill: #0000ff; stroke: #000000; stroke-width: 0.5"/>
     <use xlink:href="#md4f2846603" x="514.22818" y="439.653727" style="fill: #0000ff; stroke: #000000; stroke-width: 0.5"/>
     <use xlink:href="#md4f2846603" x="540.306967" y="460.646175" style="fill: #0000ff; stroke: #000000; stroke-width: 0.5"/>
     <use xlink:href="#md4f2846603" x="566.385754" y="480.397664" style="fill: #0000ff; stroke: #000000; stroke-width: 0.5"/>
     <use xlink:href="#md4f2846603" x="592.46454" y="500.176166" style="fill: #0000ff; stroke: #000000; stroke-width: 0.5"/>
     <use xlink:href="#md4f2846603" x="618.543327" y="519.502261" style="fill: #0000ff; stroke: #000000; stroke-width: 0.5"/>
     <use xlink:href="#md4f2846603" x="657.661507" y="549.301158" style="fill: #0000ff; stroke: #000000; stroke-width: 0.5"/>
     <use xlink:href="#md4f2846603" x="709.819081" y="586.996669" style="fill: #0000ff; stroke: #000000; stroke-width: 0.5"/>
     <use xlink:href="#md4f2846603" x="761.976654" y="622.133542" style="fill: #0000ff; stroke: #000000; stroke-width: 0.5"/>
     <use xlink:href="#md4f2846603" x="814.134228" y="657.966877" style="fill: #0000ff; stroke: #000000; stroke-width: 0.5"/>
     <use xlink:href="#md4f2846603" x="866.291802" y="695.446986" style="fill: #0000ff; stroke: #000000; stroke-width: 0.5"/>
     <use xlink:href="#md4f2846603" x="918.449375" y="730.300662" style="fill: #0000ff; stroke: #000000; stroke-width: 0.5"/>
     <use xlink:href="#md4f2846603" x="970.606949" y="764.564634" style="fill: #0000ff; stroke: #000000; stroke-width: 0.5"/>
     <use xlink:href="#md4f2846603" x="1022.764522" y="799.267274" style="fill: #0000ff; stroke: #000000; stroke-width: 0.5"/>
     <use xlink:href="#md4f2846603" x="1074.922096" y="833.181697" style="fill: #0000ff; stroke: #000000; stroke-width: 0.5"/>
     <use xlink:href="#md4f2846603" x="1127.079669" y="866.197371" style="fill: #0000ff; stroke: #000000; stroke-width: 0.5"/>
     <use xlink:href="#md4f2846603" x="1179.237243" y="898.820685" style="fill: #0000ff; stroke: #000000; stroke-width: 0.5"/>
     <use xlink:href="#md4f2846603" x="1231.394816" y="930.460347" style="fill: #0000ff; stroke: #000000; stroke-width: 0.5"/>
     <use xlink:href="#md4f2846603" x="1283.55239" y="962.762082" style="fill: #0000ff; stroke: #000000; stroke-width: 0.5"/>
     <use xlink:href="#md4f2846603" x="1335.709963" y="988.077712" style="fill: #0000ff; stroke: #000000; stroke-width: 0.5"/>
     <use xlink:href="#md4f2846603" x="1387.867537" y="1022.139411" style="fill: #0000ff; stroke: #000000; stroke-width: 0.5"/>
     <use xlink:href="#md4f2846603" x="1440.02511" y="1050.898483" style="fill: #0000ff; stroke: #000000; stroke-width: 0.5"/>
     <use xlink:href="#md4f2846603" x="1492.182684" y="1079.431527" style="fill: #0000ff; stroke: #000000; stroke-width: 0.5"/>
     <use xlink:href="#md4f2846603" x="1544.340257" y="1106.686351" style="fill: #0000ff; stroke: #000000; stroke-width: 0.5"/>
     <use xlink:href="#md4f2846603" x="1596.497831" y="1131.997693" style="fill: #0000ff; stroke: #000000; stroke-width: 0.5"/>
     <use xlink:href="#md4f2846603" x="1648.655405" y="1158.358795" style="fill: #0000ff; stroke: #000000; stroke-width: 0.5"/>
    </g>
   </g>
   <g id="patch_3">
    <path d="M 110.006985 429.52 
L 110.006985 17.96 
" style="fill: none; stroke: #000000; stroke-width: 2; stroke-linejoin: miter; stroke-linecap: square"/>
   </g>
   <g id="patch_4">
    <path d="M 475.11 429.52 
L 475.11 17.96 
" style="fill: none; stroke: #000000; stroke-width: 2; stroke-linejoin: miter; stroke-linecap: square"/>
   </g>
   <g id="patch_5">
    <path d="M 110.006985 429.52 
L 475.11 429.52 
" style="fill: none; stroke: #000000; stroke-width: 2; stroke-linejoin: miter; stroke-linecap: square"/>
   </g>
   <g id="patch_6">
    <path d="M 110.006985 17.96 
L 475.11 17.96 
" style="fill: none; stroke: #000000; stroke-width: 2; stroke-linejoin: miter; stroke-linecap: square"/>
   </g>
   <g id="matplotlib.axis_1">
    <g id="xtick_1">
     <g id="line2d_5">
      <defs>
       <path id="mca44c96f98" d="M 0 5 
L 0 -5 
" style="stroke: #000000; stroke-width: 2"/>
      </defs>
      <g>
       <use xlink:href="#mca44c96f98" x="110.006985" y="429.52" style="stroke: #000000; stroke-width: 2"/>
      </g>
     </g>
     <g id="line2d_6">
      <g>
       <use xlink:href="#mca44c96f98" x="110.006985" y="17.96" style="stroke: #000000; stroke-width: 2"/>
      </g>
     </g>
     <g id="text_1">
      <!-- 0.0 -->
      <g transform="translate(94.10386 453.716875) scale(0.2 -0.2)">
       <defs>
        <path id="DejaVuSans-30" d="M 2034 4250 
Q 1547 4250 1301 3770 
Q 1056 3291 1056 2328 
Q 1056 1369 1301 889 
Q 1547 409 2034 409 
Q 2525 409 2770 889 
Q 3016 1369 3016 2328 
Q 3016 3291 2770 3770 
Q 2525 4250 2034 4250 
z
M 2034 4750 
Q 2819 4750 3233 4129 
Q 3647 3509 3647 2328 
Q 3647 1150 3233 529 
Q 2819 -91 2034 -91 
Q 1250 -91 836 529 
Q 422 1150 422 2328 
Q 422 3509 836 4129 
Q 1250 4750 2034 4750 
z
" transform="scale(0.015625)"/>
        <path id="DejaVuSans-2e" d="M 684 794 
L 1344 794 
L 1344 0 
L 684 0 
L 684 794 
z
" transform="scale(0.015625)"/>
       </defs>
       <use xlink:href="#DejaVuSans-30"/>
       <use xlink:href="#DejaVuSans-2e" x="63.623047"/>
       <use xlink:href="#DejaVuSans-30" x="95.410156"/>
      </g>
     </g>
    </g>
    <g id="xtick_2">
     <g id="line2d_7">
      <g>
       <use xlink:href="#mca44c96f98" x="162.164559" y="429.52" style="stroke: #000000; stroke-width: 2"/>
      </g>
     </g>
     <g id="line2d_8">
      <g>
       <use xlink:href="#mca44c96f98" x="162.164559" y="17.96" style="stroke: #000000; stroke-width: 2"/>
      </g>
     </g>
     <g id="text_2">
      <!-- 0.1 -->
      <g transform="translate(146.261434 453.716875) scale(0.2 -0.2)">
       <defs>
        <path id="DejaVuSans-31" d="M 794 531 
L 1825 531 
L 1825 4091 
L 703 3866 
L 703 4441 
L 1819 4666 
L 2450 4666 
L 2450 531 
L 3481 531 
L 3481 0 
L 794 0 
L 794 531 
z
" transform="scale(0.015625)"/>
       </defs>
       <use xlink:href="#DejaVuSans-30"/>
       <use xlink:href="#DejaVuSans-2e" x="63.623047"/>
       <use xlink:href="#DejaVuSans-31" x="95.410156"/>
      </g>
     </g>
    </g>
    <g id="xtick_3">
     <g id="line2d_9">
      <g>
       <use xlink:href="#mca44c96f98" x="214.322132" y="429.52" style="stroke: #000000; stroke-width: 2"/>
      </g>
     </g>
     <g id="line2d_10">
      <g>
       <use xlink:href="#mca44c96f98" x="214.322132" y="17.96" style="stroke: #000000; stroke-width: 2"/>
      </g>
     </g>
     <g id="text_3">
      <!-- 0.2 -->
      <g transform="translate(198.419007 453.716875) scale(0.2 -0.2)">
       <defs>
        <path id="DejaVuSans-32" d="M 1228 531 
L 3431 531 
L 3431 0 
L 469 0 
L 469 531 
Q 828 903 1448 1529 
Q 2069 2156 2228 2338 
Q 2531 2678 2651 2914 
Q 2772 3150 2772 3378 
Q 2772 3750 2511 3984 
Q 2250 4219 1831 4219 
Q 1534 4219 1204 4116 
Q 875 4013 500 3803 
L 500 4441 
Q 881 4594 1212 4672 
Q 1544 4750 1819 4750 
Q 2544 4750 2975 4387 
Q 3406 4025 3406 3419 
Q 3406 3131 3298 2873 
Q 3191 2616 2906 2266 
Q 2828 2175 2409 1742 
Q 1991 1309 1228 531 
z
" transform="scale(0.015625)"/>
       </defs>
       <use xlink:href="#DejaVuSans-30"/>
       <use xlink:href="#DejaVuSans-2e" x="63.623047"/>
       <use xlink:href="#DejaVuSans-32" x="95.410156"/>
      </g>
     </g>
    </g>
    <g id="xtick_4">
     <g id="line2d_11">
      <g>
       <use xlink:href="#mca44c96f98" x="266.479706" y="429.52" style="stroke: #000000; stroke-width: 2"/>
      </g>
     </g>
     <g id="line2d_12">
      <g>
       <use xlink:href="#mca44c96f98" x="266.479706" y="17.96" style="stroke: #000000; stroke-width: 2"/>
      </g>
     </g>
     <g id="text_4">
      <!-- 0.3 -->
      <g transform="translate(250.576581 453.716875) scale(0.2 -0.2)">
       <defs>
        <path id="DejaVuSans-33" d="M 2597 2516 
Q 3050 2419 3304 2112 
Q 3559 1806 3559 1356 
Q 3559 666 3084 287 
Q 2609 -91 1734 -91 
Q 1441 -91 1130 -33 
Q 819 25 488 141 
L 488 750 
Q 750 597 1062 519 
Q 1375 441 1716 441 
Q 2309 441 2620 675 
Q 2931 909 2931 1356 
Q 2931 1769 2642 2001 
Q 2353 2234 1838 2234 
L 1294 2234 
L 1294 2753 
L 1863 2753 
Q 2328 2753 2575 2939 
Q 2822 3125 2822 3475 
Q 2822 3834 2567 4026 
Q 2313 4219 1838 4219 
Q 1578 4219 1281 4162 
Q 984 4106 628 3988 
L 628 4550 
Q 988 4650 1302 4700 
Q 1616 4750 1894 4750 
Q 2613 4750 3031 4423 
Q 3450 4097 3450 3541 
Q 3450 3153 3228 2886 
Q 3006 2619 2597 2516 
z
" transform="scale(0.015625)"/>
       </defs>
       <use xlink:href="#DejaVuSans-30"/>
       <use xlink:href="#DejaVuSans-2e" x="63.623047"/>
       <use xlink:href="#DejaVuSans-33" x="95.410156"/>
      </g>
     </g>
    </g>
    <g id="xtick_5">
     <g id="line2d_13">
      <g>
       <use xlink:href="#mca44c96f98" x="318.637279" y="429.52" style="stroke: #000000; stroke-width: 2"/>
      </g>
     </g>
     <g id="line2d_14">
      <g>
       <use xlink:href="#mca44c96f98" x="318.637279" y="17.96" style="stroke: #000000; stroke-width: 2"/>
      </g>
     </g>
     <g id="text_5">
      <!-- 0.4 -->
      <g transform="translate(302.734154 453.716875) scale(0.2 -0.2)">
       <defs>
        <path id="DejaVuSans-34" d="M 2419 4116 
L 825 1625 
L 2419 1625 
L 2419 4116 
z
M 2253 4666 
L 3047 4666 
L 3047 1625 
L 3713 1625 
L 3713 1100 
L 3047 1100 
L 3047 0 
L 2419 0 
L 2419 1100 
L 313 1100 
L 313 1709 
L 2253 4666 
z
" transform="scale(0.015625)"/>
       </defs>
       <use xlink:href="#DejaVuSans-30"/>
       <use xlink:href="#DejaVuSans-2e" x="63.623047"/>
       <use xlink:href="#DejaVuSans-34" x="95.410156"/>
      </g>
     </g>
    </g>
    <g id="xtick_6">
     <g id="line2d_15">
      <g>
       <use xlink:href="#mca44c96f98" x="370.794853" y="429.52" style="stroke: #000000; stroke-width: 2"/>
      </g>
     </g>
     <g id="line2d_16">
      <g>
       <use xlink:href="#mca44c96f98" x="370.794853" y="17.96" style="stroke: #000000; stroke-width: 2"/>
      </g>
     </g>
     <g id="text_6">
      <!-- 0.5 -->
      <g transform="translate(354.891728 453.716875) scale(0.2 -0.2)">
       <defs>
        <path id="DejaVuSans-35" d="M 691 4666 
L 3169 4666 
L 3169 4134 
L 1269 4134 
L 1269 2991 
Q 1406 3038 1543 3061 
Q 1681 3084 1819 3084 
Q 2600 3084 3056 2656 
Q 3513 2228 3513 1497 
Q 3513 744 3044 326 
Q 2575 -91 1722 -91 
Q 1428 -91 1123 -41 
Q 819 9 494 109 
L 494 744 
Q 775 591 1075 516 
Q 1375 441 1709 441 
Q 2250 441 2565 725 
Q 2881 1009 2881 1497 
Q 2881 1984 2565 2268 
Q 2250 2553 1709 2553 
Q 1456 2553 1204 2497 
Q 953 2441 691 2322 
L 691 4666 
z
" transform="scale(0.015625)"/>
       </defs>
       <use xlink:href="#DejaVuSans-30"/>
       <use xlink:href="#DejaVuSans-2e" x="63.623047"/>
       <use xlink:href="#DejaVuSans-35" x="95.410156"/>
      </g>
     </g>
    </g>
    <g id="xtick_7">
     <g id="line2d_17">
      <g>
       <use xlink:href="#mca44c96f98" x="422.952426" y="429.52" style="stroke: #000000; stroke-width: 2"/>
      </g>
     </g>
     <g id="line2d_18">
      <g>
       <use xlink:href="#mca44c96f98" x="422.952426" y="17.96" style="stroke: #000000; stroke-width: 2"/>
      </g>
     </g>
     <g id="text_7">
      <!-- 0.6 -->
      <g transform="translate(407.049301 453.716875) scale(0.2 -0.2)">
       <defs>
        <path id="DejaVuSans-36" d="M 2113 2584 
Q 1688 2584 1439 2293 
Q 1191 2003 1191 1497 
Q 1191 994 1439 701 
Q 1688 409 2113 409 
Q 2538 409 2786 701 
Q 3034 994 3034 1497 
Q 3034 2003 2786 2293 
Q 2538 2584 2113 2584 
z
M 3366 4563 
L 3366 3988 
Q 3128 4100 2886 4159 
Q 2644 4219 2406 4219 
Q 1781 4219 1451 3797 
Q 1122 3375 1075 2522 
Q 1259 2794 1537 2939 
Q 1816 3084 2150 3084 
Q 2853 3084 3261 2657 
Q 3669 2231 3669 1497 
Q 3669 778 3244 343 
Q 2819 -91 2113 -91 
Q 1303 -91 875 529 
Q 447 1150 447 2328 
Q 447 3434 972 4092 
Q 1497 4750 2381 4750 
Q 2619 4750 2861 4703 
Q 3103 4656 3366 4563 
z
" transform="scale(0.015625)"/>
       </defs>
       <use xlink:href="#DejaVuSans-30"/>
       <use xlink:href="#DejaVuSans-2e" x="63.623047"/>
       <use xlink:href="#DejaVuSans-36" x="95.410156"/>
      </g>
     </g>
    </g>
    <g id="xtick_8">
     <g id="line2d_19">
      <g>
       <use xlink:href="#mca44c96f98" x="475.11" y="429.52" style="stroke: #000000; stroke-width: 2"/>
      </g>
     </g>
     <g id="line2d_20">
      <g>
       <use xlink:href="#mca44c96f98" x="475.11" y="17.96" style="stroke: #000000; stroke-width: 2"/>
      </g>
     </g>
     <g id="text_8">
      <!-- 0.7 -->
      <g transform="translate(459.206875 453.716875) scale(0.2 -0.2)">
       <defs>
        <path id="DejaVuSans-37" d="M 525 4666 
L 3525 4666 
L 3525 4397 
L 1831 0 
L 1172 0 
L 2766 4134 
L 525 4134 
L 525 4666 
z
" transform="scale(0.015625)"/>
       </defs>
       <use xlink:href="#DejaVuSans-30"/>
       <use xlink:href="#DejaVuSans-2e" x="63.623047"/>
       <use xlink:href="#DejaVuSans-37" x="95.410156"/>
      </g>
     </g>
    </g>
    <g id="text_9">
     <!-- $p_T\ [GeV]$ -->
     <g transform="translate(239.433493 481.87625) scale(0.25 -0.25)">
      <defs>
       <path id="DejaVuSans-70" d="M 1159 525 
L 1159 -1331 
L 581 -1331 
L 581 3500 
L 1159 3500 
L 1159 2969 
Q 1341 3281 1617 3432 
Q 1894 3584 2278 3584 
Q 2916 3584 3314 3078 
Q 3713 2572 3713 1747 
Q 3713 922 3314 415 
Q 2916 -91 2278 -91 
Q 1894 -91 1617 61 
Q 1341 213 1159 525 
z
M 3116 1747 
Q 3116 2381 2855 2742 
Q 2594 3103 2138 3103 
Q 1681 3103 1420 2742 
Q 1159 2381 1159 1747 
Q 1159 1113 1420 752 
Q 1681 391 2138 391 
Q 2594 391 2855 752 
Q 3116 1113 3116 1747 
z
" transform="scale(0.015625)"/>
       <path id="DejaVuSans-54" d="M -19 4666 
L 3928 4666 
L 3928 4134 
L 2272 4134 
L 2272 0 
L 1638 0 
L 1638 4134 
L -19 4134 
L -19 4666 
z
" transform="scale(0.015625)"/>
       <path id="DejaVuSans-5b" d="M 550 4863 
L 1875 4863 
L 1875 4416 
L 1125 4416 
L 1125 -397 
L 1875 -397 
L 1875 -844 
L 550 -844 
L 550 4863 
z
" transform="scale(0.015625)"/>
       <path id="DejaVuSans-47" d="M 3809 666 
L 3809 1919 
L 2778 1919 
L 2778 2438 
L 4434 2438 
L 4434 434 
Q 4069 175 3628 42 
Q 3188 -91 2688 -91 
Q 1594 -91 976 548 
Q 359 1188 359 2328 
Q 359 3472 976 4111 
Q 1594 4750 2688 4750 
Q 3144 4750 3555 4637 
Q 3966 4525 4313 4306 
L 4313 3634 
Q 3963 3931 3569 4081 
Q 3175 4231 2741 4231 
Q 1884 4231 1454 3753 
Q 1025 3275 1025 2328 
Q 1025 1384 1454 906 
Q 1884 428 2741 428 
Q 3075 428 3337 486 
Q 3600 544 3809 666 
z
" transform="scale(0.015625)"/>
       <path id="DejaVuSans-65" d="M 3597 1894 
L 3597 1613 
L 953 1613 
Q 991 1019 1311 708 
Q 1631 397 2203 397 
Q 2534 397 2845 478 
Q 3156 559 3463 722 
L 3463 178 
Q 3153 47 2828 -22 
Q 2503 -91 2169 -91 
Q 1331 -91 842 396 
Q 353 884 353 1716 
Q 353 2575 817 3079 
Q 1281 3584 2069 3584 
Q 2775 3584 3186 3129 
Q 3597 2675 3597 1894 
z
M 3022 2063 
Q 3016 2534 2758 2815 
Q 2500 3097 2075 3097 
Q 1594 3097 1305 2825 
Q 1016 2553 972 2059 
L 3022 2063 
z
" transform="scale(0.015625)"/>
       <path id="DejaVuSans-56" d="M 1831 0 
L 50 4666 
L 709 4666 
L 2188 738 
L 3669 4666 
L 4325 4666 
L 2547 0 
L 1831 0 
z
" transform="scale(0.015625)"/>
       <path id="DejaVuSans-5d" d="M 1947 4863 
L 1947 -844 
L 622 -844 
L 622 -397 
L 1369 -397 
L 1369 4416 
L 622 4416 
L 622 4863 
L 1947 4863 
z
" transform="scale(0.015625)"/>
      </defs>
      <use xlink:href="#DejaVuSans-70" transform="translate(0 0.015625)"/>
      <use xlink:href="#DejaVuSans-54" transform="translate(64.433594 -16.390625) scale(0.7)"/>
      <use xlink:href="#DejaVuSans-5b" transform="translate(139.190788 0.015625)"/>
      <use xlink:href="#DejaVuSans-47" transform="translate(178.20446 0.015625)"/>
      <use xlink:href="#DejaVuSans-65" transform="translate(255.694694 0.015625)"/>
      <use xlink:href="#DejaVuSans-56" transform="translate(317.218132 0.015625)"/>
      <use xlink:href="#DejaVuSans-5d" transform="translate(385.626335 0.015625)"/>
     </g>
    </g>
   </g>
   <g id="matplotlib.axis_2">
    <g id="ytick_1">
     <g id="line2d_21">
      <defs>
       <path id="m4ccd528740" d="M 5 0 
L -5 -0 
" style="stroke: #000000; stroke-width: 2"/>
      </defs>
      <g>
       <use xlink:href="#m4ccd528740" x="110.006985" y="404.181059" style="stroke: #000000; stroke-width: 2"/>
      </g>
     </g>
     <g id="line2d_22">
      <g>
       <use xlink:href="#m4ccd528740" x="475.11" y="404.181059" style="stroke: #000000; stroke-width: 2"/>
      </g>
     </g>
     <g id="text_10">
      <!-- $\mathdefault{10^{2}}$ -->
      <g transform="translate(65.806985 409.699809) scale(0.2 -0.2)">
       <use xlink:href="#DejaVuSans-31" transform="translate(0 0.765625)"/>
       <use xlink:href="#DejaVuSans-30" transform="translate(63.623047 0.765625)"/>
       <use xlink:href="#DejaVuSans-32" transform="translate(128.203125 39.046875) scale(0.7)"/>
      </g>
     </g>
    </g>
    <g id="ytick_2">
     <g id="line2d_23">
      <g>
       <use xlink:href="#m4ccd528740" x="110.006985" y="142.712302" style="stroke: #000000; stroke-width: 2"/>
      </g>
     </g>
     <g id="line2d_24">
      <g>
       <use xlink:href="#m4ccd528740" x="475.11" y="142.712302" style="stroke: #000000; stroke-width: 2"/>
      </g>
     </g>
     <g id="text_11">
      <!-- $\mathdefault{10^{3}}$ -->
      <g transform="translate(65.806985 148.231052) scale(0.2 -0.2)">
       <use xlink:href="#DejaVuSans-31" transform="translate(0 0.765625)"/>
       <use xlink:href="#DejaVuSans-30" transform="translate(63.623047 0.765625)"/>
       <use xlink:href="#DejaVuSans-33" transform="translate(128.203125 39.046875) scale(0.7)"/>
      </g>
     </g>
    </g>
    <g id="ytick_3">
     <g id="line2d_25">
      <defs>
       <path id="mb73b455041" d="M 3.5 0 
L -3.5 -0 
" style="stroke: #000000; stroke-width: 1.4"/>
      </defs>
      <g>
       <use xlink:href="#mb73b455041" x="110.006985" y="429.52" style="stroke: #000000; stroke-width: 1.4"/>
      </g>
     </g>
     <g id="line2d_26">
      <g>
       <use xlink:href="#mb73b455041" x="475.11" y="429.52" style="stroke: #000000; stroke-width: 1.4"/>
      </g>
     </g>
     <g id="text_12">
      <!-- $\mathdefault{8\times10^{1}}$ -->
      <g transform="translate(52.246985 433.383125) scale(0.14 -0.14)">
       <defs>
        <path id="DejaVuSans-38" d="M 2034 2216 
Q 1584 2216 1326 1975 
Q 1069 1734 1069 1313 
Q 1069 891 1326 650 
Q 1584 409 2034 409 
Q 2484 409 2743 651 
Q 3003 894 3003 1313 
Q 3003 1734 2745 1975 
Q 2488 2216 2034 2216 
z
M 1403 2484 
Q 997 2584 770 2862 
Q 544 3141 544 3541 
Q 544 4100 942 4425 
Q 1341 4750 2034 4750 
Q 2731 4750 3128 4425 
Q 3525 4100 3525 3541 
Q 3525 3141 3298 2862 
Q 3072 2584 2669 2484 
Q 3125 2378 3379 2068 
Q 3634 1759 3634 1313 
Q 3634 634 3220 271 
Q 2806 -91 2034 -91 
Q 1263 -91 848 271 
Q 434 634 434 1313 
Q 434 1759 690 2068 
Q 947 2378 1403 2484 
z
M 1172 3481 
Q 1172 3119 1398 2916 
Q 1625 2713 2034 2713 
Q 2441 2713 2670 2916 
Q 2900 3119 2900 3481 
Q 2900 3844 2670 4047 
Q 2441 4250 2034 4250 
Q 1625 4250 1398 4047 
Q 1172 3844 1172 3481 
z
" transform="scale(0.015625)"/>
        <path id="DejaVuSans-d7" d="M 4488 3438 
L 3059 2003 
L 4488 575 
L 4116 197 
L 2681 1631 
L 1247 197 
L 878 575 
L 2303 2003 
L 878 3438 
L 1247 3816 
L 2681 2381 
L 4116 3816 
L 4488 3438 
z
" transform="scale(0.015625)"/>
       </defs>
       <use xlink:href="#DejaVuSans-38" transform="translate(0 0.684375)"/>
       <use xlink:href="#DejaVuSans-d7" transform="translate(81.181641 0.684375)"/>
       <use xlink:href="#DejaVuSans-31" transform="translate(182.529297 0.684375)"/>
       <use xlink:href="#DejaVuSans-30" transform="translate(246.152344 0.684375)"/>
       <use xlink:href="#DejaVuSans-31" transform="translate(310.732422 38.965625) scale(0.7)"/>
      </g>
     </g>
    </g>
    <g id="ytick_4">
     <g id="line2d_27">
      <g>
       <use xlink:href="#mb73b455041" x="110.006985" y="325.47112" style="stroke: #000000; stroke-width: 1.4"/>
      </g>
     </g>
     <g id="line2d_28">
      <g>
       <use xlink:href="#mb73b455041" x="475.11" y="325.47112" style="stroke: #000000; stroke-width: 1.4"/>
      </g>
     </g>
     <g id="text_13">
      <!-- $\mathdefault{2\times10^{2}}$ -->
      <g transform="translate(52.246985 329.334245) scale(0.14 -0.14)">
       <use xlink:href="#DejaVuSans-32" transform="translate(0 0.765625)"/>
       <use xlink:href="#DejaVuSans-d7" transform="translate(81.181641 0.765625)"/>
       <use xlink:href="#DejaVuSans-31" transform="translate(182.529297 0.765625)"/>
       <use xlink:href="#DejaVuSans-30" transform="translate(246.152344 0.765625)"/>
       <use xlink:href="#DejaVuSans-32" transform="translate(310.732422 39.046875) scale(0.7)"/>
      </g>
     </g>
    </g>
    <g id="ytick_5">
     <g id="line2d_29">
      <g>
       <use xlink:href="#mb73b455041" x="110.006985" y="246.761181" style="stroke: #000000; stroke-width: 1.4"/>
      </g>
     </g>
     <g id="line2d_30">
      <g>
       <use xlink:href="#mb73b455041" x="475.11" y="246.761181" style="stroke: #000000; stroke-width: 1.4"/>
      </g>
     </g>
     <g id="text_14">
      <!-- $\mathdefault{4\times10^{2}}$ -->
      <g transform="translate(52.246985 250.624306) scale(0.14 -0.14)">
       <use xlink:href="#DejaVuSans-34" transform="translate(0 0.765625)"/>
       <use xlink:href="#DejaVuSans-d7" transform="translate(81.181641 0.765625)"/>
       <use xlink:href="#DejaVuSans-31" transform="translate(182.529297 0.765625)"/>
       <use xlink:href="#DejaVuSans-30" transform="translate(246.152344 0.765625)"/>
       <use xlink:href="#DejaVuSans-32" transform="translate(310.732422 39.046875) scale(0.7)"/>
      </g>
     </g>
    </g>
    <g id="ytick_6">
     <g id="line2d_31">
      <g>
       <use xlink:href="#mb73b455041" x="110.006985" y="200.718819" style="stroke: #000000; stroke-width: 1.4"/>
      </g>
     </g>
     <g id="line2d_32">
      <g>
       <use xlink:href="#mb73b455041" x="475.11" y="200.718819" style="stroke: #000000; stroke-width: 1.4"/>
      </g>
     </g>
     <g id="text_15">
      <!-- $\mathdefault{6\times10^{2}}$ -->
      <g transform="translate(52.246985 204.581944) scale(0.14 -0.14)">
       <use xlink:href="#DejaVuSans-36" transform="translate(0 0.765625)"/>
       <use xlink:href="#DejaVuSans-d7" transform="translate(81.181641 0.765625)"/>
       <use xlink:href="#DejaVuSans-31" transform="translate(182.529297 0.765625)"/>
       <use xlink:href="#DejaVuSans-30" transform="translate(246.152344 0.765625)"/>
       <use xlink:href="#DejaVuSans-32" transform="translate(310.732422 39.046875) scale(0.7)"/>
      </g>
     </g>
    </g>
    <g id="ytick_7">
     <g id="line2d_33">
      <g>
       <use xlink:href="#mb73b455041" x="110.006985" y="168.051242" style="stroke: #000000; stroke-width: 1.4"/>
      </g>
     </g>
     <g id="line2d_34">
      <g>
       <use xlink:href="#mb73b455041" x="475.11" y="168.051242" style="stroke: #000000; stroke-width: 1.4"/>
      </g>
     </g>
     <g id="text_16">
      <!-- $\mathdefault{8\times10^{2}}$ -->
      <g transform="translate(52.246985 171.914367) scale(0.14 -0.14)">
       <use xlink:href="#DejaVuSans-38" transform="translate(0 0.765625)"/>
       <use xlink:href="#DejaVuSans-d7" transform="translate(81.181641 0.765625)"/>
       <use xlink:href="#DejaVuSans-31" transform="translate(182.529297 0.765625)"/>
       <use xlink:href="#DejaVuSans-30" transform="translate(246.152344 0.765625)"/>
       <use xlink:href="#DejaVuSans-32" transform="translate(310.732422 39.046875) scale(0.7)"/>
      </g>
     </g>
    </g>
    <g id="ytick_8">
     <g id="line2d_35">
      <g>
       <use xlink:href="#mb73b455041" x="110.006985" y="64.002363" style="stroke: #000000; stroke-width: 1.4"/>
      </g>
     </g>
     <g id="line2d_36">
      <g>
       <use xlink:href="#mb73b455041" x="475.11" y="64.002363" style="stroke: #000000; stroke-width: 1.4"/>
      </g>
     </g>
     <g id="text_17">
      <!-- $\mathdefault{2\times10^{3}}$ -->
      <g transform="translate(52.246985 67.865488) scale(0.14 -0.14)">
       <use xlink:href="#DejaVuSans-32" transform="translate(0 0.765625)"/>
       <use xlink:href="#DejaVuSans-d7" transform="translate(81.181641 0.765625)"/>
       <use xlink:href="#DejaVuSans-31" transform="translate(182.529297 0.765625)"/>
       <use xlink:href="#DejaVuSans-30" transform="translate(246.152344 0.765625)"/>
       <use xlink:href="#DejaVuSans-33" transform="translate(310.732422 39.046875) scale(0.7)"/>
      </g>
     </g>
    </g>
    <g id="text_18">
     <!-- $(2\pi p_T)^{-1}dN/(dp_Td\eta_p)\ [GeV^{-2}]$ -->
     <g transform="translate(39.496985 403.615) rotate(-90) scale(0.25 -0.25)">
      <defs>
       <path id="DejaVuSans-28" d="M 1984 4856 
Q 1566 4138 1362 3434 
Q 1159 2731 1159 2009 
Q 1159 1288 1364 580 
Q 1569 -128 1984 -844 
L 1484 -844 
Q 1016 -109 783 600 
Q 550 1309 550 2009 
Q 550 2706 781 3412 
Q 1013 4119 1484 4856 
L 1984 4856 
z
" transform="scale(0.015625)"/>
       <path id="DejaVuSans-3c0" d="M 231 3500 
L 3584 3500 
L 3584 2925 
L 3144 2925 
L 3144 775 
Q 3144 550 3220 451 
Q 3297 353 3469 353 
Q 3516 353 3584 361 
Q 3653 369 3675 372 
L 3675 -44 
Q 3566 -84 3450 -103 
Q 3334 -122 3219 -122 
Q 2844 -122 2700 83 
Q 2556 288 2556 838 
L 2556 2925 
L 1266 2925 
L 1266 0 
L 678 0 
L 678 2925 
L 231 2925 
L 231 3500 
z
" transform="scale(0.015625)"/>
       <path id="DejaVuSans-29" d="M 513 4856 
L 1013 4856 
Q 1481 4119 1714 3412 
Q 1947 2706 1947 2009 
Q 1947 1309 1714 600 
Q 1481 -109 1013 -844 
L 513 -844 
Q 928 -128 1133 580 
Q 1338 1288 1338 2009 
Q 1338 2731 1133 3434 
Q 928 4138 513 4856 
z
" transform="scale(0.015625)"/>
       <path id="DejaVuSans-2212" d="M 678 2272 
L 4684 2272 
L 4684 1741 
L 678 1741 
L 678 2272 
z
" transform="scale(0.015625)"/>
       <path id="DejaVuSans-64" d="M 2906 2969 
L 2906 4863 
L 3481 4863 
L 3481 0 
L 2906 0 
L 2906 525 
Q 2725 213 2448 61 
Q 2172 -91 1784 -91 
Q 1150 -91 751 415 
Q 353 922 353 1747 
Q 353 2572 751 3078 
Q 1150 3584 1784 3584 
Q 2172 3584 2448 3432 
Q 2725 3281 2906 2969 
z
M 947 1747 
Q 947 1113 1208 752 
Q 1469 391 1925 391 
Q 2381 391 2643 752 
Q 2906 1113 2906 1747 
Q 2906 2381 2643 2742 
Q 2381 3103 1925 3103 
Q 1469 3103 1208 2742 
Q 947 2381 947 1747 
z
" transform="scale(0.015625)"/>
       <path id="DejaVuSans-4e" d="M 628 4666 
L 1478 4666 
L 3547 763 
L 3547 4666 
L 4159 4666 
L 4159 0 
L 3309 0 
L 1241 3903 
L 1241 0 
L 628 0 
L 628 4666 
z
" transform="scale(0.015625)"/>
       <path id="DejaVuSans-2f" d="M 1625 4666 
L 2156 4666 
L 531 -594 
L 0 -594 
L 1625 4666 
z
" transform="scale(0.015625)"/>
       <path id="DejaVuSans-3b7" d="M 3513 2113 
L 3513 -1331 
L 2938 -1331 
L 2938 2094 
Q 2938 2591 2744 2837 
Q 2550 3084 2163 3084 
Q 1697 3084 1428 2787 
Q 1159 2491 1159 1978 
L 1159 0 
L 581 0 
L 581 3500 
L 1159 3500 
L 1159 2956 
Q 1366 3272 1644 3428 
Q 1925 3584 2291 3584 
Q 2894 3584 3203 3213 
Q 3513 2838 3513 2113 
z
" transform="scale(0.015625)"/>
      </defs>
      <use xlink:href="#DejaVuSans-28" transform="translate(0 0.765625)"/>
      <use xlink:href="#DejaVuSans-32" transform="translate(39.013672 0.765625)"/>
      <use xlink:href="#DejaVuSans-3c0" transform="translate(102.636719 0.765625)"/>
      <use xlink:href="#DejaVuSans-70" transform="translate(162.841797 0.765625)"/>
      <use xlink:href="#DejaVuSans-54" transform="translate(227.275391 -15.640625) scale(0.7)"/>
      <use xlink:href="#DejaVuSans-29" transform="translate(272.768555 0.765625)"/>
      <use xlink:href="#DejaVuSans-2212" transform="translate(312.739258 39.046875) scale(0.7)"/>
      <use xlink:href="#DejaVuSans-31" transform="translate(371.391602 39.046875) scale(0.7)"/>
      <use xlink:href="#DejaVuSans-64" transform="translate(418.662109 0.765625)"/>
      <use xlink:href="#DejaVuSans-4e" transform="translate(482.138672 0.765625)"/>
      <use xlink:href="#DejaVuSans-2f" transform="translate(556.943359 0.765625)"/>
      <use xlink:href="#DejaVuSans-28" transform="translate(590.634766 0.765625)"/>
      <use xlink:href="#DejaVuSans-64" transform="translate(629.648438 0.765625)"/>
      <use xlink:href="#DejaVuSans-70" transform="translate(693.125 0.765625)"/>
      <use xlink:href="#DejaVuSans-54" transform="translate(757.558594 -15.640625) scale(0.7)"/>
      <use xlink:href="#DejaVuSans-64" transform="translate(803.051758 0.765625)"/>
      <use xlink:href="#DejaVuSans-3b7" transform="translate(866.52832 0.765625)"/>
      <use xlink:href="#DejaVuSans-70" transform="translate(930.864258 -15.640625) scale(0.7)"/>
      <use xlink:href="#DejaVuSans-29" transform="translate(978.032227 0.765625)"/>
      <use xlink:href="#DejaVuSans-5b" transform="translate(1046.309929 0.765625)"/>
      <use xlink:href="#DejaVuSans-47" transform="translate(1085.323601 0.765625)"/>
      <use xlink:href="#DejaVuSans-65" transform="translate(1162.813835 0.765625)"/>
      <use xlink:href="#DejaVuSans-56" transform="translate(1224.337272 0.765625)"/>
      <use xlink:href="#DejaVuSans-2212" transform="translate(1293.702507 39.046875) scale(0.7)"/>
      <use xlink:href="#DejaVuSans-32" transform="translate(1352.354851 39.046875) scale(0.7)"/>
      <use xlink:href="#DejaVuSans-5d" transform="translate(1399.625358 0.765625)"/>
     </g>
    </g>
   </g>
   <g id="legend_1">
    <g id="patch_7">
     <path d="M 302.51 122.02875 
L 461.11 122.02875 
Q 465.11 122.02875 465.11 118.02875 
L 465.11 31.96 
Q 465.11 27.96 461.11 27.96 
L 302.51 27.96 
Q 298.51 27.96 298.51 31.96 
L 298.51 118.02875 
Q 298.51 122.02875 302.51 122.02875 
z
" style="fill: #ffffff; opacity: 0.85; stroke: #000000; stroke-linejoin: miter"/>
    </g>
    <g id="patch_8">
     <path d="M 306.51 51.156875 
L 346.51 51.156875 
L 346.51 37.156875 
L 306.51 37.156875 
z
" style="fill: #ff0000; fill-opacity: 0.2; stroke: #ff0000; stroke-width: 1.5; stroke-linejoin: miter"/>
    </g>
    <g id="text_19">
     <!-- $\sigma_{DCC}\to\pi\,\pi$ -->
     <g transform="translate(362.51 51.156875) scale(0.2 -0.2)">
      <defs>
       <path id="DejaVuSans-3c3" d="M 1959 3044 
Q 1484 3044 1228 2700 
Q 959 2341 959 1747 
Q 959 1119 1226 758 
Q 1494 397 1959 397 
Q 2419 397 2687 759 
Q 2956 1122 2956 1747 
Q 2956 2319 2688 2700 
Q 2441 3044 1959 3044 
z
M 1959 3500 
L 3869 3500 
L 3869 2925 
L 3225 2925 
Q 3566 2438 3566 1747 
Q 3566 888 3138 400 
Q 2709 -91 1959 -91 
Q 1206 -91 781 400 
Q 353 888 353 1747 
Q 353 2613 781 3097 
Q 1134 3500 1959 3500 
z
" transform="scale(0.015625)"/>
       <path id="DejaVuSans-44" d="M 1259 4147 
L 1259 519 
L 2022 519 
Q 2988 519 3436 956 
Q 3884 1394 3884 2338 
Q 3884 3275 3436 3711 
Q 2988 4147 2022 4147 
L 1259 4147 
z
M 628 4666 
L 1925 4666 
Q 3281 4666 3915 4102 
Q 4550 3538 4550 2338 
Q 4550 1131 3912 565 
Q 3275 0 1925 0 
L 628 0 
L 628 4666 
z
" transform="scale(0.015625)"/>
       <path id="DejaVuSans-43" d="M 4122 4306 
L 4122 3641 
Q 3803 3938 3442 4084 
Q 3081 4231 2675 4231 
Q 1875 4231 1450 3742 
Q 1025 3253 1025 2328 
Q 1025 1406 1450 917 
Q 1875 428 2675 428 
Q 3081 428 3442 575 
Q 3803 722 4122 1019 
L 4122 359 
Q 3791 134 3420 21 
Q 3050 -91 2638 -91 
Q 1578 -91 968 557 
Q 359 1206 359 2328 
Q 359 3453 968 4101 
Q 1578 4750 2638 4750 
Q 3056 4750 3426 4639 
Q 3797 4528 4122 4306 
z
" transform="scale(0.015625)"/>
       <path id="DejaVuSans-2192" d="M 5050 2147 
L 5050 1866 
L 3822 638 
L 3447 1013 
L 4175 1741 
L 366 1741 
L 366 2272 
L 4175 2272 
L 3447 3000 
L 3822 3375 
L 5050 2147 
z
" transform="scale(0.015625)"/>
      </defs>
      <use xlink:href="#DejaVuSans-3c3" transform="translate(0 0.3125)"/>
      <use xlink:href="#DejaVuSans-44" transform="translate(64.335938 -16.09375) scale(0.7)"/>
      <use xlink:href="#DejaVuSans-43" transform="translate(118.237305 -16.09375) scale(0.7)"/>
      <use xlink:href="#DejaVuSans-43" transform="translate(167.114258 -16.09375) scale(0.7)"/>
      <use xlink:href="#DejaVuSans-2192" transform="translate(236.28418 0.3125)"/>
      <use xlink:href="#DejaVuSans-3c0" transform="translate(337.631836 0.3125)"/>
      <use xlink:href="#DejaVuSans-3c0" transform="translate(412.469368 0.3125)"/>
     </g>
    </g>
    <g id="line2d_37">
     <path d="M 312.51 73.513125 
L 340.51 73.513125 
" style="fill: none; stroke: #0000ff; stroke-width: 1.5; stroke-linecap: square"/>
    </g>
    <g id="text_20">
     <!-- Fluidum -->
     <g transform="translate(362.51 80.513125) scale(0.2 -0.2)">
      <defs>
       <path id="DejaVuSans-46" d="M 628 4666 
L 3309 4666 
L 3309 4134 
L 1259 4134 
L 1259 2759 
L 3109 2759 
L 3109 2228 
L 1259 2228 
L 1259 0 
L 628 0 
L 628 4666 
z
" transform="scale(0.015625)"/>
       <path id="DejaVuSans-6c" d="M 603 4863 
L 1178 4863 
L 1178 0 
L 603 0 
L 603 4863 
z
" transform="scale(0.015625)"/>
       <path id="DejaVuSans-75" d="M 544 1381 
L 544 3500 
L 1119 3500 
L 1119 1403 
Q 1119 906 1312 657 
Q 1506 409 1894 409 
Q 2359 409 2629 706 
Q 2900 1003 2900 1516 
L 2900 3500 
L 3475 3500 
L 3475 0 
L 2900 0 
L 2900 538 
Q 2691 219 2414 64 
Q 2138 -91 1772 -91 
Q 1169 -91 856 284 
Q 544 659 544 1381 
z
M 1991 3584 
L 1991 3584 
z
" transform="scale(0.015625)"/>
       <path id="DejaVuSans-69" d="M 603 3500 
L 1178 3500 
L 1178 0 
L 603 0 
L 603 3500 
z
M 603 4863 
L 1178 4863 
L 1178 4134 
L 603 4134 
L 603 4863 
z
" transform="scale(0.015625)"/>
       <path id="DejaVuSans-6d" d="M 3328 2828 
Q 3544 3216 3844 3400 
Q 4144 3584 4550 3584 
Q 5097 3584 5394 3201 
Q 5691 2819 5691 2113 
L 5691 0 
L 5113 0 
L 5113 2094 
Q 5113 2597 4934 2840 
Q 4756 3084 4391 3084 
Q 3944 3084 3684 2787 
Q 3425 2491 3425 1978 
L 3425 0 
L 2847 0 
L 2847 2094 
Q 2847 2600 2669 2842 
Q 2491 3084 2119 3084 
Q 1678 3084 1418 2786 
Q 1159 2488 1159 1978 
L 1159 0 
L 581 0 
L 581 3500 
L 1159 3500 
L 1159 2956 
Q 1356 3278 1631 3431 
Q 1906 3584 2284 3584 
Q 2666 3584 2933 3390 
Q 3200 3197 3328 2828 
z
" transform="scale(0.015625)"/>
      </defs>
      <use xlink:href="#DejaVuSans-46"/>
      <use xlink:href="#DejaVuSans-6c" x="57.519531"/>
      <use xlink:href="#DejaVuSans-75" x="85.302734"/>
      <use xlink:href="#DejaVuSans-69" x="148.681641"/>
      <use xlink:href="#DejaVuSans-64" x="176.464844"/>
      <use xlink:href="#DejaVuSans-75" x="239.941406"/>
      <use xlink:href="#DejaVuSans-6d" x="303.320312"/>
     </g>
    </g>
    <g id="LineCollection_2">
     <path d="M 312.51 112.869375 
L 312.51 92.869375 
" style="fill: none; stroke: #0000ff; stroke-width: 1.5"/>
     <path d="M 340.51 112.869375 
L 340.51 92.869375 
" style="fill: none; stroke: #0000ff; stroke-width: 1.5"/>
    </g>
    <g id="line2d_38">
     <g>
      <use xlink:href="#mc3fd4d1a02" x="312.51" y="112.869375" style="fill: #0000ff; stroke: #0000ff; stroke-width: 0.5"/>
      <use xlink:href="#mc3fd4d1a02" x="340.51" y="112.869375" style="fill: #0000ff; stroke: #0000ff; stroke-width: 0.5"/>
     </g>
    </g>
    <g id="line2d_39">
     <g>
      <use xlink:href="#mc3fd4d1a02" x="312.51" y="92.869375" style="fill: #0000ff; stroke: #0000ff; stroke-width: 0.5"/>
      <use xlink:href="#mc3fd4d1a02" x="340.51" y="92.869375" style="fill: #0000ff; stroke: #0000ff; stroke-width: 0.5"/>
     </g>
    </g>
    <g id="line2d_40"/>
    <g id="line2d_41">
     <g>
      <use xlink:href="#md4f2846603" x="312.51" y="102.869375" style="fill: #0000ff; stroke: #000000; stroke-width: 0.5"/>
      <use xlink:href="#md4f2846603" x="340.51" y="102.869375" style="fill: #0000ff; stroke: #000000; stroke-width: 0.5"/>
     </g>
    </g>
    <g id="text_21">
     <!-- ALICE -->
     <g transform="translate(362.51 109.869375) scale(0.2 -0.2)">
      <defs>
       <path id="DejaVuSans-41" d="M 2188 4044 
L 1331 1722 
L 3047 1722 
L 2188 4044 
z
M 1831 4666 
L 2547 4666 
L 4325 0 
L 3669 0 
L 3244 1197 
L 1141 1197 
L 716 0 
L 50 0 
L 1831 4666 
z
" transform="scale(0.015625)"/>
       <path id="DejaVuSans-4c" d="M 628 4666 
L 1259 4666 
L 1259 531 
L 3531 531 
L 3531 0 
L 628 0 
L 628 4666 
z
" transform="scale(0.015625)"/>
       <path id="DejaVuSans-49" d="M 628 4666 
L 1259 4666 
L 1259 0 
L 628 0 
L 628 4666 
z
" transform="scale(0.015625)"/>
       <path id="DejaVuSans-45" d="M 628 4666 
L 3578 4666 
L 3578 4134 
L 1259 4134 
L 1259 2753 
L 3481 2753 
L 3481 2222 
L 1259 2222 
L 1259 531 
L 3634 531 
L 3634 0 
L 628 0 
L 628 4666 
z
" transform="scale(0.015625)"/>
      </defs>
      <use xlink:href="#DejaVuSans-41"/>
      <use xlink:href="#DejaVuSans-4c" x="68.408203"/>
      <use xlink:href="#DejaVuSans-49" x="124.121094"/>
      <use xlink:href="#DejaVuSans-43" x="153.613281"/>
      <use xlink:href="#DejaVuSans-45" x="223.4375"/>
     </g>
    </g>
   </g>
  </g>
 </g>
 <defs>
  <clipPath id="pa106a6cc9c">
   <rect x="110.006985" y="17.96" width="365.103015" height="411.56"/>
  </clipPath>
 </defs>
</svg>
