<?xml version="1.0" encoding="utf-8" standalone="no"?>
<!DOCTYPE svg PUBLIC "-//W3C//DTD SVG 1.1//EN"
  "http://www.w3.org/Graphics/SVG/1.1/DTD/svg11.dtd">
<svg xmlns:xlink="http://www.w3.org/1999/xlink" width="504pt" height="504pt" viewBox="0 0 504 504" xmlns="http://www.w3.org/2000/svg" version="1.1">
 <metadata>
  <rdf:RDF xmlns:dc="http://purl.org/dc/elements/1.1/" xmlns:cc="http://creativecommons.org/ns#" xmlns:rdf="http://www.w3.org/1999/02/22-rdf-syntax-ns#">
   <cc:Work>
    <dc:type rdf:resource="http://purl.org/dc/dcmitype/StillImage"/>
    <dc:date>2025-01-22T16:45:51.856878</dc:date>
    <dc:format>image/svg+xml</dc:format>
    <dc:creator>
     <cc:Agent>
      <dc:title>Matplotlib v3.9.2, https://matplotlib.org/</dc:title>
     </cc:Agent>
    </dc:creator>
   </cc:Work>
  </rdf:RDF>
 </metadata>
 <defs>
  <style type="text/css">*{stroke-linejoin: round; stroke-linecap: butt}</style>
 </defs>
 <g id="figure_1">
  <g id="patch_1">
   <path d="M 0 504 
L 504 504 
L 504 0 
L 0 0 
z
" style="fill: #ffffff"/>
  </g>
  <g id="axes_1">
   <g id="patch_2">
    <path d="M 43.335399 460.465882 
L 491.04 460.465882 
L 491.04 12.96 
L 43.335399 12.96 
z
" style="fill: #ffffff"/>
   </g>
   <g id="patch_3">
    <path d="M 491.04 451.691257 
L 483.116025 456.07857 
L 483.908422 451.705882 
L 55.221362 451.705882 
L 55.221362 451.676633 
L 483.908422 451.676633 
L 483.116025 447.303945 
z
" clip-path="url(#p16606c1f96)" style="stroke: #000000; stroke-linejoin: miter"/>
   </g>
   <g id="patch_4">
    <path d="M 55.221362 12.96 
L 59.579548 20.936932 
L 55.241172 20.139239 
L 55.241172 451.691257 
L 55.201552 451.691257 
L 55.201552 20.139239 
L 50.863176 20.936932 
z
" clip-path="url(#p16606c1f96)" style="stroke: #000000; stroke-linejoin: miter"/>
   </g>
   <g id="line2d_1">
    <path d="M 55.221362 71.165226 
L 66.427458 71.108772 
L 93.223699 71.280798 
L 120.205418 71.641845 
L 142.590164 72.163911 
L 161.945001 72.83205 
L 178.194311 73.60236 
L 192.894706 74.51503 
L 206.003729 75.543846 
L 217.490688 76.644072 
L 228.975975 77.959846 
L 240.438842 79.519597 
L 250.22699 81.07244 
L 259.960864 82.843307 
L 269.619166 84.849106 
L 277.59346 86.711386 
L 285.485396 88.755838 
L 293.28077 90.989656 
L 300.965269 93.419002 
L 308.524575 96.048981 
L 315.944401 98.883678 
L 323.21045 101.926216 
L 330.308344 105.17885 
L 337.223537 108.643054 
L 342.614226 111.567291 
L 347.870851 114.627534 
L 352.985645 117.823611 
L 357.950782 121.155079 
L 362.758437 124.621199 
L 367.400855 128.220918 
L 371.870428 131.95283 
L 376.159782 135.81514 
L 380.261866 139.805634 
L 384.170029 143.921651 
L 387.878084 148.160056 
L 391.380367 152.51724 
L 394.671769 156.98911 
L 397.74776 161.571111 
L 400.604401 166.258242 
L 403.238352 171.045082 
L 405.646879 175.925825 
L 407.827874 180.894308 
L 409.779885 185.944034 
L 411.502172 191.068197 
L 412.994772 196.259689 
L 414.258598 201.511109 
L 415.295538 206.81476 
L 416.108563 212.16265 
L 416.70183 217.546494 
L 417.080765 222.957729 
L 417.252105 228.387539 
L 417.223907 233.826908 
L 417.005499 239.266692 
L 416.481094 246.053026 
L 415.698624 252.80797 
L 414.682589 259.514445 
L 413.458591 266.156426 
L 411.751802 274.021286 
L 409.826967 281.750652 
L 407.726104 289.326931 
L 405.104655 297.954785 
L 401.952763 307.519333 
L 398.29718 317.887751 
L 393.394894 331.05794 
L 379.752318 367.2079 
L 377.093731 375.099187 
L 375.034226 381.862177 
L 373.493355 387.604666 
L 372.227412 393.200925 
L 371.393469 397.893165 
L 370.825957 402.498837 
L 370.581002 406.278319 
L 370.56441 410.012506 
L 370.8001 413.7102 
L 371.192658 416.648267 
L 371.791103 419.57343 
L 372.620685 422.490402 
L 373.703891 425.404962 
L 375.059245 428.324752 
L 376.716184 431.258612 
L 378.203098 433.473019 
L 379.980145 435.7027 
L 381.386298 437.200029 
L 383.026513 438.709602 
L 384.958058 440.236541 
L 384.958058 440.236541 
" clip-path="url(#p16606c1f96)" style="fill: none; stroke: #0000ff; stroke-linecap: square"/>
   </g>
   <g id="LineCollection_1">
    <path d="M 55.221362 439.992756 
L 491.04 439.992756 
" clip-path="url(#p16606c1f96)" style="fill: none; stroke-dasharray: 6,6; stroke-dashoffset: 0; stroke: #000000; stroke-width: 2.5"/>
   </g>
   <g id="LineCollection_2">
    <path d="M 55.221362 95.915573 
L 392.618703 95.915573 
" clip-path="url(#p16606c1f96)" style="fill: none; stroke-dasharray: 6,6; stroke-dashoffset: 0; stroke: #0000ff; stroke-width: 2.5"/>
   </g>
   <g id="LineCollection_3">
    <path d="M 392.618703 439.992756 
L 392.618703 95.915573 
" clip-path="url(#p16606c1f96)" style="fill: none; stroke-dasharray: 6,6; stroke-dashoffset: 0; stroke: #0000ff; stroke-width: 2.5"/>
   </g>
   <g id="matplotlib.axis_1">
    <g id="xtick_1">
     <g id="line2d_2">
      <defs>
       <path id="m1a898d29a8" d="M 0 0 
L 0 10 
" style="stroke: #000000; stroke-width: 2"/>
      </defs>
      <g>
       <use xlink:href="#m1a898d29a8" x="392.618703" y="451.691257" style="stroke: #000000; stroke-width: 2"/>
      </g>
     </g>
     <g id="text_1">
      <!-- $\mathcal{R}$ -->
      <g transform="translate(381.993703 484.687351) scale(0.25 -0.25)">
       <defs>
        <path id="Cmsy10-52" d="M 738 -91 
Q 738 -78 744 -56 
Q 966 475 1128 959 
Q 1291 1444 1428 1991 
Q 1678 2959 1766 3994 
Q 1425 3994 1094 3872 
Q 922 3803 833 3695 
Q 744 3588 684 3397 
Q 622 3291 472 3197 
Q 322 3103 206 3103 
L 166 3103 
Q 122 3131 122 3169 
Q 234 3556 581 3828 
Q 928 4100 1387 4236 
Q 1847 4372 2259 4372 
L 2931 4372 
Q 3378 4372 3739 4331 
Q 4100 4291 4392 4112 
Q 4684 3934 4684 3572 
Q 4684 3281 4548 3014 
Q 4413 2747 4189 2533 
Q 3966 2319 3697 2158 
Q 3428 1997 3156 1900 
Q 3253 1784 3383 1501 
Q 3513 1219 3659 911 
Q 3806 603 3951 420 
Q 4097 238 4256 238 
Q 4444 238 4551 308 
Q 4659 378 4775 520 
Q 4891 663 4997 745 
Q 5103 828 5281 844 
L 5319 844 
Q 5363 822 5363 794 
Q 5363 784 5356 768 
Q 5350 753 5344 738 
Q 5188 503 4936 297 
Q 4684 91 4393 -25 
Q 4103 -141 3828 -141 
L 3788 -141 
Q 3541 -141 3372 98 
Q 3203 338 3003 811 
Q 2803 1284 2651 1515 
Q 2500 1747 2278 1747 
Q 2266 1753 2250 1765 
Q 2234 1778 2234 1797 
Q 2234 1900 2420 2006 
Q 2606 2113 2719 2125 
Q 3072 2125 3395 2262 
Q 3719 2400 3917 2667 
Q 4116 2934 4116 3291 
Q 4116 3613 3833 3767 
Q 3550 3922 3203 3958 
Q 2856 3994 2450 3994 
L 2309 3994 
Q 2209 3041 1954 2070 
Q 1700 1100 1300 153 
Q 1238 41 1092 -43 
Q 947 -128 813 -141 
L 781 -141 
Q 769 -134 753 -121 
Q 738 -109 738 -91 
z
" transform="scale(0.015625)"/>
       </defs>
       <use xlink:href="#Cmsy10-52" transform="translate(0 0.6875)"/>
      </g>
     </g>
    </g>
    <g id="text_2">
     <!-- $r$ -->
     <g transform="translate(462.35477 483.261195) scale(0.3 -0.3)">
      <defs>
       <path id="DejaVuSans-72" d="M 2631 2963 
Q 2534 3019 2420 3045 
Q 2306 3072 2169 3072 
Q 1681 3072 1420 2755 
Q 1159 2438 1159 1844 
L 1159 0 
L 581 0 
L 581 3500 
L 1159 3500 
L 1159 2956 
Q 1341 3275 1631 3429 
Q 1922 3584 2338 3584 
Q 2397 3584 2469 3576 
Q 2541 3569 2628 3553 
L 2631 2963 
z
" transform="scale(0.015625)"/>
      </defs>
      <use xlink:href="#DejaVuSans-72"/>
     </g>
    </g>
   </g>
   <g id="matplotlib.axis_2">
    <g id="ytick_1">
     <g id="line2d_3">
      <defs>
       <path id="meda7216930" d="M 0 0 
L -10 0 
" style="stroke: #000000; stroke-width: 2"/>
      </defs>
      <g>
       <use xlink:href="#meda7216930" x="55.221362" y="439.992756" style="stroke: #000000; stroke-width: 2"/>
      </g>
     </g>
     <g id="text_3">
      <!-- $\tau_0$ -->
      <g transform="translate(13.971362 446.891193) scale(0.25 -0.25)">
       <defs>
        <path id="DejaVuSans-3c4" d="M 2319 638 
Q 2431 488 2769 488 
L 3047 488 
L 3047 0 
L 2700 0 
Q 2138 0 1881 300 
Q 1625 606 1625 1269 
L 1625 2925 
L 313 2925 
L 313 3500 
L 3541 3500 
L 3541 2925 
L 2213 2925 
L 2213 1234 
Q 2213 781 2319 638 
z
" transform="scale(0.015625)"/>
        <path id="DejaVuSans-30" d="M 2034 4250 
Q 1547 4250 1301 3770 
Q 1056 3291 1056 2328 
Q 1056 1369 1301 889 
Q 1547 409 2034 409 
Q 2525 409 2770 889 
Q 3016 1369 3016 2328 
Q 3016 3291 2770 3770 
Q 2525 4250 2034 4250 
z
M 2034 4750 
Q 2819 4750 3233 4129 
Q 3647 3509 3647 2328 
Q 3647 1150 3233 529 
Q 2819 -91 2034 -91 
Q 1250 -91 836 529 
Q 422 1150 422 2328 
Q 422 3509 836 4129 
Q 1250 4750 2034 4750 
z
" transform="scale(0.015625)"/>
       </defs>
       <use xlink:href="#DejaVuSans-3c4" transform="translate(0 0.3125)"/>
       <use xlink:href="#DejaVuSans-30" transform="translate(61.162109 -16.09375) scale(0.7)"/>
      </g>
     </g>
    </g>
    <g id="ytick_2">
     <g id="line2d_4">
      <g>
       <use xlink:href="#meda7216930" x="55.221362" y="95.915573" style="stroke: #000000; stroke-width: 2"/>
      </g>
     </g>
     <g id="text_4">
      <!-- $\mathcal{T}$ -->
      <g transform="translate(27.471362 102.814011) scale(0.25 -0.25)">
       <defs>
        <path id="Cmsy10-54" d="M 1325 -397 
Q 1325 -384 1338 -359 
Q 1438 -138 1522 82 
Q 1606 303 1670 506 
Q 1734 709 1791 947 
L 2516 3816 
Q 2547 3888 2638 3956 
L 1350 3956 
Q 1141 3956 1063 3891 
Q 863 3700 863 3456 
Q 863 3378 761 3292 
Q 659 3206 521 3143 
Q 384 3081 300 3072 
L 263 3072 
Q 219 3072 219 3138 
Q 219 3375 380 3598 
Q 541 3822 795 3997 
Q 1050 4172 1331 4272 
Q 1613 4372 1838 4372 
L 4603 4372 
Q 4744 4372 4813 4378 
Q 5028 4563 5259 4588 
L 5300 4588 
Q 5316 4588 5327 4575 
Q 5338 4563 5338 4544 
Q 5338 4488 5281 4416 
Q 5069 4147 4783 4051 
Q 4497 3956 4116 3956 
L 3116 3956 
L 2431 1234 
Q 2263 563 1966 -103 
Q 1925 -178 1829 -250 
Q 1734 -322 1612 -373 
Q 1491 -425 1409 -434 
L 1369 -434 
Q 1325 -434 1325 -397 
z
" transform="scale(0.015625)"/>
       </defs>
       <use xlink:href="#Cmsy10-54" transform="translate(0 0.3125)"/>
      </g>
     </g>
    </g>
    <g id="text_5">
     <!-- $\tau$ -->
     <g transform="translate(20.754261 29.096232) scale(0.3 -0.3)">
      <use xlink:href="#DejaVuSans-3c4" transform="translate(0 0.3125)"/>
     </g>
    </g>
   </g>
  </g>
 </g>
 <defs>
  <clipPath id="p16606c1f96">
   <rect x="43.335399" y="12.96" width="447.704601" height="447.505882"/>
  </clipPath>
 </defs>
</svg>
