<?xml version="1.0" encoding="utf-8" standalone="no"?>
<!DOCTYPE svg PUBLIC "-//W3C//DTD SVG 1.1//EN"
  "http://www.w3.org/Graphics/SVG/1.1/DTD/svg11.dtd">
<svg xmlns:xlink="http://www.w3.org/1999/xlink" width="504pt" height="504pt" viewBox="0 0 504 504" xmlns="http://www.w3.org/2000/svg" version="1.1">
 <metadata>
  <rdf:RDF xmlns:dc="http://purl.org/dc/elements/1.1/" xmlns:cc="http://creativecommons.org/ns#" xmlns:rdf="http://www.w3.org/1999/02/22-rdf-syntax-ns#">
   <cc:Work>
    <dc:type rdf:resource="http://purl.org/dc/dcmitype/StillImage"/>
    <dc:date>2025-01-22T14:05:35.973144</dc:date>
    <dc:format>image/svg+xml</dc:format>
    <dc:creator>
     <cc:Agent>
      <dc:title>Matplotlib v3.9.2, https://matplotlib.org/</dc:title>
     </cc:Agent>
    </dc:creator>
   </cc:Work>
  </rdf:RDF>
 </metadata>
 <defs>
  <style type="text/css">*{stroke-linejoin: round; stroke-linecap: butt}</style>
 </defs>
 <g id="figure_1">
  <g id="patch_1">
   <path d="M 0 504 
L 504 504 
L 504 0 
L 0 0 
z
" style="fill: #ffffff"/>
  </g>
  <g id="axes_1">
   <g id="patch_2">
    <path d="M 107.945108 429.52 
L 475.11 429.52 
L 475.11 23.724 
L 107.945108 23.724 
z
" style="fill: #ffffff"/>
   </g>
   <g id="line2d_1">
    <path d="M 107.945108 45.709248 
L 109.790166 46.776918 
L 111.635207 49.940573 
L 113.480265 55.04479 
L 115.325306 61.698103 
L 119.015405 76.252061 
L 122.705504 89.087759 
L 124.550562 97.338576 
L 126.395694 108.615127 
L 128.240698 121.192288 
L 130.085702 126.136575 
L 131.930705 123.092755 
L 133.775892 122.265258 
L 135.620896 127.001606 
L 137.465899 136.148012 
L 139.310903 141.645512 
L 141.15609 138.009958 
L 143.001094 135.207344 
L 144.846097 138.609942 
L 146.691101 149.223675 
L 148.536288 163.242171 
L 150.381292 164.318272 
L 152.226295 159.930907 
L 154.071299 163.986304 
L 157.76149 196.727138 
L 159.606493 177.707051 
L 161.451497 168.73415 
L 163.296684 171.514224 
L 165.141688 182.891195 
L 166.986691 187.054741 
L 168.831695 177.567582 
L 170.676882 173.959486 
L 172.521885 180.563936 
L 174.366889 200.534034 
L 176.211893 223.366318 
L 178.05708 204.892068 
L 179.902083 201.126417 
L 181.747087 217.038446 
L 183.592091 238.159252 
L 185.437278 204.464809 
L 187.282281 192.028431 
L 189.127285 192.965686 
L 190.972288 205.264517 
L 192.817476 219.521461 
L 194.662479 209.302071 
L 196.507483 202.523236 
L 198.352486 208.59384 
L 200.197674 234.613184 
L 202.042677 272.35001 
L 203.887681 226.711614 
L 205.732684 221.724085 
L 207.577871 237.521412 
L 209.422875 245.425763 
L 211.267879 217.178039 
L 213.112882 206.246071 
L 214.958069 207.680488 
L 216.803073 221.655215 
L 218.648077 252.946634 
L 220.49308 243.953427 
L 222.338267 231.266517 
L 224.183271 238.124049 
L 226.028274 262.89145 
L 227.873278 243.219553 
L 229.718465 226.736856 
L 231.563469 226.260918 
L 235.253476 255.553271 
L 237.098663 232.077115 
L 238.943667 221.161885 
L 240.78867 222.771677 
L 242.633674 237.414512 
L 244.478861 277.818994 
L 246.323865 275.076352 
L 248.168868 259.987757 
L 250.013872 279.240696 
L 251.859059 272.389802 
L 253.704063 239.415292 
L 255.549066 228.012424 
L 257.39407 229.104789 
L 259.239257 243.261726 
L 261.08426 274.243929 
L 262.929264 255.368331 
L 264.774268 240.535858 
L 266.619455 240.601573 
L 268.464458 250.550433 
L 270.309462 258.256436 
L 272.154466 254.459861 
L 273.999653 258.3526 
L 275.844656 288.523565 
L 277.68966 276.413298 
L 279.534663 244.572568 
L 281.379851 234.157353 
L 283.224854 235.418258 
L 285.069858 248.557984 
L 286.914861 285.543039 
L 288.760049 298.653562 
L 290.605052 268.607955 
L 292.450974 265.086731 
L 294.295977 262.186884 
L 296.140981 251.871453 
L 297.985984 245.971198 
L 299.830988 250.061534 
L 301.675992 269.940408 
L 303.520995 293.83503 
L 305.365999 258.535841 
L 307.211002 245.656493 
L 309.056006 245.014358 
L 310.901009 253.557784 
L 316.43602 299.829313 
L 318.281024 309.489514 
L 320.126027 269.856 
L 321.971031 251.091391 
L 323.816035 244.526704 
L 325.661038 247.881557 
L 327.506042 263.686466 
L 329.351045 308.703115 
L 331.196049 282.65559 
L 333.041052 262.422878 
L 334.886056 257.837536 
L 336.73106 259.323946 
L 338.576063 261.356073 
L 340.421067 264.471588 
L 342.26607 276.329795 
L 344.111074 324.082508 
L 345.956078 287.393518 
L 347.801081 260.208223 
L 349.646085 251.150125 
L 351.491088 252.221228 
L 353.336092 262.814751 
L 355.181095 287.031642 
L 357.026099 335.056481 
L 358.871103 298.851956 
L 360.716106 279.673794 
L 362.56111 266.534134 
L 364.406113 258.111484 
L 366.252953 256.367787 
L 368.097956 263.595461 
L 369.94296 286.802117 
L 371.787964 316.038469 
L 373.632967 274.543938 
L 375.477971 260.817587 
L 377.322974 258.289141 
L 379.167978 262.824372 
L 381.012981 272.63708 
L 382.857985 288.443383 
L 384.702989 325.064491 
L 386.547992 309.989268 
L 388.392996 275.999513 
L 390.237999 261.851458 
L 392.083003 257.707283 
L 393.928007 262.209174 
L 395.77301 277.900109 
L 397.618014 324.132221 
L 399.463017 308.383289 
L 401.308021 280.612515 
L 403.153024 270.830418 
L 404.998028 266.815155 
L 406.843032 266.232318 
L 408.688035 270.721 
L 410.533039 285.578152 
L 412.378042 339.932131 
L 414.223046 296.610017 
L 416.06805 271.296211 
L 417.913053 262.489522 
L 419.758057 262.578502 
L 421.60306 270.297536 
L 423.448064 287.572494 
L 425.293067 328.82533 
L 427.138071 317.936988 
L 428.983075 285.715578 
L 430.828078 271.231566 
L 432.673082 264.916092 
L 434.518085 265.630056 
L 436.363089 274.921723 
L 438.208093 300.645359 
L 440.054932 343.308071 
L 441.899936 288.708724 
L 443.744939 273.51921 
L 445.589943 268.874377 
L 447.434946 270.236634 
L 449.27995 276.617816 
L 451.124953 290.406806 
L 452.969957 327.18893 
L 454.814961 320.10666 
L 456.659964 284.648515 
L 458.504968 271.075076 
L 460.349971 267.041951 
L 462.194975 270.599707 
L 464.039979 283.069018 
L 465.884982 313.760005 
L 467.729986 340.303614 
L 469.574989 293.677264 
L 471.419993 277.957249 
L 473.264996 271.196778 
L 475.11 270.519895 
L 475.11 270.519895 
" clip-path="url(#p5f7c120ab9)" style="fill: none; stroke: #ff0000; stroke-width: 2; stroke-linecap: square"/>
   </g>
   <g id="line2d_2">
    <path d="M 107.945108 61.686705 
L 109.790166 63.250117 
L 111.635207 68.033545 
L 113.480265 76.340044 
L 115.325306 88.731923 
L 117.170364 105.82667 
L 119.015405 125.218075 
L 120.860463 132.893813 
L 122.705504 130.705054 
L 124.550562 132.326448 
L 126.395694 139.758362 
L 128.240698 150.317689 
L 130.085702 154.803701 
L 131.930705 151.479103 
L 133.775892 150.029752 
L 135.620896 154.059216 
L 137.465899 162.903408 
L 139.310903 169.575528 
L 141.15609 166.469336 
L 143.001094 162.600416 
L 144.846097 164.270354 
L 146.691101 172.296576 
L 148.536288 183.544859 
L 150.381292 186.833291 
L 152.226295 184.040118 
L 154.071299 186.786939 
L 155.916486 199.122463 
L 157.76149 215.502972 
L 161.451497 196.610739 
L 163.296684 197.417838 
L 165.141688 205.954892 
L 166.986691 210.293858 
L 168.831695 203.123949 
L 170.676882 199.332272 
L 172.521885 204.219793 
L 174.366889 219.176664 
L 176.211893 235.417213 
L 178.05708 227.486257 
L 179.902083 224.086874 
L 181.747087 235.581145 
L 183.592091 256.909742 
L 185.437278 234.31347 
L 187.282281 220.5374 
L 189.127285 219.847082 
L 190.972288 229.444837 
L 192.817476 240.335641 
L 194.662479 233.36916 
L 196.507483 227.50422 
L 198.352486 232.746115 
L 200.197674 255.096859 
L 202.042677 302.358228 
L 203.887681 255.263822 
L 205.732684 247.574349 
L 209.422875 270.630337 
L 211.267879 246.401403 
L 213.112882 234.638023 
L 214.958069 235.067795 
L 216.803073 247.161605 
L 218.648077 270.015193 
L 220.49308 264.854589 
L 222.338267 255.236094 
L 224.183271 262.235878 
L 226.028274 298.748732 
L 227.873278 282.959135 
L 229.718465 258.076797 
L 231.563469 254.888909 
L 235.253476 278.803853 
L 237.098663 259.882971 
L 238.943667 249.393533 
L 240.78867 251.056808 
L 242.633674 266.272396 
L 244.478861 315.184217 
L 246.323865 299.940553 
L 248.168868 282.944274 
L 250.013872 298.970534 
L 251.859059 320.904889 
L 253.704063 272.735451 
L 255.549066 258.685645 
L 257.39407 258.607337 
L 259.239257 271.504942 
L 261.08426 296.048714 
L 262.929264 280.936052 
L 264.774268 268.346308 
L 266.619455 270.164408 
L 270.309462 300.334016 
L 272.154466 287.75885 
L 273.999653 286.471567 
L 275.844656 308.905365 
L 277.68966 309.833171 
L 279.534663 275.960651 
L 281.379851 264.614506 
L 283.224854 265.575494 
L 285.069858 278.942674 
L 286.914861 316.864339 
L 288.760049 318.932639 
L 290.605052 295.876396 
L 292.450974 296.831591 
L 294.295977 299.554689 
L 296.140981 286.396252 
L 297.985984 277.758226 
L 299.830988 280.443809 
L 303.520995 316.60881 
L 305.365999 287.068982 
L 307.211002 275.338155 
L 309.056006 275.960303 
L 310.901009 287.26172 
L 312.746013 308.864182 
L 314.591017 320.299375 
L 316.43602 323.165144 
L 318.281024 343.995536 
L 320.126027 306.334544 
L 321.971031 284.196954 
L 323.816035 276.313976 
L 325.661038 279.141488 
L 327.506042 294.868387 
L 329.351045 337.223215 
L 331.196049 311.433267 
L 333.041052 293.302631 
L 334.886056 290.525567 
L 336.73106 293.858369 
L 338.576063 295.536644 
L 340.421067 296.381592 
L 342.26607 306.035138 
L 344.111074 345.900618 
L 347.801081 290.955106 
L 349.646085 281.907656 
L 351.491088 283.444031 
L 353.336092 295.43008 
L 355.181095 324.321987 
L 357.026099 367.172453 
L 358.871103 326.110518 
L 360.716106 312.513856 
L 362.56111 300.968766 
L 364.406113 291.870634 
L 366.252953 289.365195 
L 368.097956 296.243052 
L 369.94296 319.606915 
L 371.787964 344.744036 
L 373.632967 305.910603 
L 375.477971 293.188458 
L 377.322974 291.72278 
L 379.167978 297.389771 
L 381.012981 307.465586 
L 382.857985 321.055083 
L 384.702989 350.604221 
L 386.547992 348.471825 
L 388.392996 309.590833 
L 390.237999 294.075817 
L 392.083003 289.447327 
L 393.928007 293.931063 
L 395.77301 310.128368 
L 397.618014 359.454896 
L 399.463017 337.260725 
L 401.308021 311.806758 
L 403.153024 303.123024 
L 404.998028 299.727138 
L 406.843032 299.278294 
L 408.688035 303.777996 
L 410.533039 319.068108 
L 412.378042 377.4798 
L 414.223046 326.960461 
L 416.06805 303.054425 
L 417.913053 295.062911 
L 419.758057 296.000328 
L 421.60306 304.698512 
L 423.448064 322.894607 
L 425.293067 361.39022 
L 427.138071 350.181529 
L 428.983075 320.002482 
L 430.828078 304.994072 
L 432.673082 298.06382 
L 434.518085 298.417654 
L 436.363089 307.383552 
L 438.208093 332.789295 
L 440.054932 377.600608 
L 441.899936 321.798603 
L 443.744939 306.48061 
L 445.589943 301.668796 
L 447.434946 302.725296 
L 449.27995 308.775557 
L 451.124953 322.538889 
L 452.969957 361.216666 
L 454.814961 350.323444 
L 456.659964 315.934178 
L 458.504968 303.01888 
L 460.349971 299.622224 
L 462.194975 303.877274 
L 464.039979 317.207974 
L 465.884982 349.853143 
L 467.729986 368.499372 
L 469.574989 326.171456 
L 471.419993 310.999427 
L 473.264996 304.399969 
L 475.11 303.865839 
L 475.11 303.865839 
" clip-path="url(#p5f7c120ab9)" style="fill: none; stroke: #0000ff; stroke-width: 2; stroke-linecap: square"/>
   </g>
   <g id="line2d_3">
    <path d="M 107.945108 49.074688 
L 109.790166 49.902156 
L 111.635207 52.383735 
L 113.480265 56.51408 
L 115.325306 62.269884 
L 117.170364 69.581807 
L 119.015405 78.28068 
L 124.550562 107.871797 
L 126.395694 116.424217 
L 128.240698 123.52751 
L 130.085702 129.285393 
L 131.930705 133.943617 
L 135.620896 141.552238 
L 137.465899 145.402455 
L 146.691101 165.997657 
L 150.381292 173.351966 
L 154.071299 179.982024 
L 159.606493 188.965846 
L 163.296684 194.730388 
L 166.986691 200.093605 
L 170.676882 205.166543 
L 174.366889 209.93921 
L 179.902083 216.679834 
L 187.282281 225.222162 
L 192.817476 231.319651 
L 196.507483 235.085249 
L 200.197674 238.616103 
L 205.732684 243.525553 
L 216.803073 252.977822 
L 224.183271 259.004728 
L 231.563469 264.657166 
L 237.098663 268.624339 
L 242.633674 272.34437 
L 255.549066 280.579503 
L 259.239257 283.213703 
L 270.309462 291.551791 
L 272.154466 292.72469 
L 273.999653 293.742855 
L 275.844656 294.602581 
L 279.534663 295.915273 
L 288.760049 298.517388 
L 290.605052 299.295599 
L 292.450974 300.238069 
L 294.295977 301.356994 
L 296.140981 302.670749 
L 297.985984 304.176067 
L 301.675992 307.661066 
L 307.211002 313.149133 
L 309.056006 314.698092 
L 310.901009 315.931855 
L 312.746013 316.775482 
L 314.591017 317.231067 
L 316.43602 317.339224 
L 318.281024 317.205206 
L 323.816035 316.422594 
L 325.661038 316.369724 
L 327.506042 316.546249 
L 329.351045 316.991857 
L 331.196049 317.731164 
L 333.041052 318.783326 
L 334.886056 320.162183 
L 336.73106 321.867959 
L 338.576063 323.878456 
L 342.26607 328.578517 
L 345.956078 333.43414 
L 347.801081 335.468157 
L 349.646085 336.94302 
L 351.491088 337.70881 
L 353.336092 337.757699 
L 355.181095 337.223964 
L 357.026099 336.311301 
L 360.716106 334.217721 
L 362.56111 333.375306 
L 364.406113 332.819914 
L 366.252953 332.613467 
L 368.097956 332.793083 
L 369.94296 333.381784 
L 371.787964 334.398263 
L 373.632967 335.858356 
L 375.477971 337.765715 
L 377.322974 340.109885 
L 379.167978 342.856139 
L 382.857985 349.194857 
L 384.702989 352.401468 
L 386.547992 355.183431 
L 388.392996 357.112784 
L 390.237999 357.873776 
L 392.083003 357.450167 
L 393.928007 356.11463 
L 399.463017 350.54623 
L 401.308021 349.097675 
L 403.153024 348.08227 
L 404.998028 347.545986 
L 406.843032 347.510516 
L 408.688035 347.989534 
L 410.533039 348.998376 
L 412.378042 350.556308 
L 414.223046 352.675282 
L 416.06805 355.378967 
L 417.913053 358.663077 
L 419.758057 362.49328 
L 425.293067 375.176408 
L 427.138071 377.98284 
L 428.983075 378.831208 
L 430.828078 377.626835 
L 432.673082 375.030051 
L 436.363089 368.870641 
L 438.208093 366.261756 
L 440.054932 364.215344 
L 441.899936 362.77472 
L 443.744939 361.947117 
L 445.589943 361.733207 
L 447.434946 362.137988 
L 449.27995 363.17346 
L 451.124953 364.860728 
L 452.969957 367.231023 
L 454.814961 370.329856 
L 456.659964 374.217931 
L 458.504968 378.96058 
L 460.349971 384.585732 
L 464.039979 397.414335 
L 465.884982 402.274232 
L 467.729986 403.262045 
L 469.574989 400.151335 
L 473.264996 389.957595 
L 475.11 385.507603 
L 475.11 385.507603 
" clip-path="url(#p5f7c120ab9)" style="fill: none; stroke: #008000; stroke-width: 2; stroke-linecap: square"/>
   </g>
   <g id="line2d_4">
    <path d="M 128.139177 112.330522 
L 131.810826 114.634715 
L 135.482475 117.535718 
L 139.154124 120.59586 
L 142.825773 122.79545 
L 149.251158 130.301518 
L 158.43028 138.201231 
L 167.609403 145.293862 
L 176.788525 152.252536 
L 185.967647 159.163578 
L 195.14677 166.897525 
L 204.325892 174.628755 
L 213.505014 181.605474 
L 222.684137 187.931923 
L 231.863259 194.029097 
L 241.042381 202.777764 
L 250.221504 207.62006 
L 259.400626 216.021144 
L 268.579748 219.887834 
L 277.75887 224.9787 
L 286.937993 228.413101 
L 300.706676 242.390959 
L 319.064921 247.891071 
L 337.423165 239.044959 
L 355.78141 240.203568 
L 374.139655 249.071249 
L 392.497899 249.070923 
L 410.856144 249.492205 
L 429.214388 252.293763 
L 447.572633 254.340636 
L 465.930878 255.779454 
L 484.289122 257.735595 
L 502.647367 259.212519 
L 505 259.584453 
" clip-path="url(#p5f7c120ab9)" style="fill: none; stroke: #000000; stroke-width: 2; stroke-linecap: square"/>
   </g>
   <g id="patch_3">
    <path d="M 107.945108 429.52 
L 107.945108 23.724 
" style="fill: none; stroke: #000000; stroke-width: 2; stroke-linejoin: miter; stroke-linecap: square"/>
   </g>
   <g id="patch_4">
    <path d="M 475.11 429.52 
L 475.11 23.724 
" style="fill: none; stroke: #000000; stroke-width: 2; stroke-linejoin: miter; stroke-linecap: square"/>
   </g>
   <g id="patch_5">
    <path d="M 107.945108 429.52 
L 475.11 429.52 
" style="fill: none; stroke: #000000; stroke-width: 2; stroke-linejoin: miter; stroke-linecap: square"/>
   </g>
   <g id="patch_6">
    <path d="M 107.945108 23.724 
L 475.11 23.724 
" style="fill: none; stroke: #000000; stroke-width: 2; stroke-linejoin: miter; stroke-linecap: square"/>
   </g>
   <g id="matplotlib.axis_1">
    <g id="xtick_1">
     <g id="line2d_5">
      <defs>
       <path id="mcc9d1e42fb" d="M 0 5 
L 0 -5 
" style="stroke: #000000; stroke-width: 2"/>
      </defs>
      <g>
       <use xlink:href="#mcc9d1e42fb" x="107.945108" y="429.52" style="stroke: #000000; stroke-width: 2"/>
      </g>
     </g>
     <g id="line2d_6">
      <g>
       <use xlink:href="#mcc9d1e42fb" x="107.945108" y="23.724" style="stroke: #000000; stroke-width: 2"/>
      </g>
     </g>
     <g id="text_1">
      <!-- 0.0 -->
      <g transform="translate(92.041983 453.716875) scale(0.2 -0.2)">
       <defs>
        <path id="DejaVuSans-30" d="M 2034 4250 
Q 1547 4250 1301 3770 
Q 1056 3291 1056 2328 
Q 1056 1369 1301 889 
Q 1547 409 2034 409 
Q 2525 409 2770 889 
Q 3016 1369 3016 2328 
Q 3016 3291 2770 3770 
Q 2525 4250 2034 4250 
z
M 2034 4750 
Q 2819 4750 3233 4129 
Q 3647 3509 3647 2328 
Q 3647 1150 3233 529 
Q 2819 -91 2034 -91 
Q 1250 -91 836 529 
Q 422 1150 422 2328 
Q 422 3509 836 4129 
Q 1250 4750 2034 4750 
z
" transform="scale(0.015625)"/>
        <path id="DejaVuSans-2e" d="M 684 794 
L 1344 794 
L 1344 0 
L 684 0 
L 684 794 
z
" transform="scale(0.015625)"/>
       </defs>
       <use xlink:href="#DejaVuSans-30"/>
       <use xlink:href="#DejaVuSans-2e" x="63.623047"/>
       <use xlink:href="#DejaVuSans-30" x="95.410156"/>
      </g>
     </g>
    </g>
    <g id="xtick_2">
     <g id="line2d_7">
      <g>
       <use xlink:href="#mcc9d1e42fb" x="199.736331" y="429.52" style="stroke: #000000; stroke-width: 2"/>
      </g>
     </g>
     <g id="line2d_8">
      <g>
       <use xlink:href="#mcc9d1e42fb" x="199.736331" y="23.724" style="stroke: #000000; stroke-width: 2"/>
      </g>
     </g>
     <g id="text_2">
      <!-- 0.5 -->
      <g transform="translate(183.833206 453.716875) scale(0.2 -0.2)">
       <defs>
        <path id="DejaVuSans-35" d="M 691 4666 
L 3169 4666 
L 3169 4134 
L 1269 4134 
L 1269 2991 
Q 1406 3038 1543 3061 
Q 1681 3084 1819 3084 
Q 2600 3084 3056 2656 
Q 3513 2228 3513 1497 
Q 3513 744 3044 326 
Q 2575 -91 1722 -91 
Q 1428 -91 1123 -41 
Q 819 9 494 109 
L 494 744 
Q 775 591 1075 516 
Q 1375 441 1709 441 
Q 2250 441 2565 725 
Q 2881 1009 2881 1497 
Q 2881 1984 2565 2268 
Q 2250 2553 1709 2553 
Q 1456 2553 1204 2497 
Q 953 2441 691 2322 
L 691 4666 
z
" transform="scale(0.015625)"/>
       </defs>
       <use xlink:href="#DejaVuSans-30"/>
       <use xlink:href="#DejaVuSans-2e" x="63.623047"/>
       <use xlink:href="#DejaVuSans-35" x="95.410156"/>
      </g>
     </g>
    </g>
    <g id="xtick_3">
     <g id="line2d_9">
      <g>
       <use xlink:href="#mcc9d1e42fb" x="291.527554" y="429.52" style="stroke: #000000; stroke-width: 2"/>
      </g>
     </g>
     <g id="line2d_10">
      <g>
       <use xlink:href="#mcc9d1e42fb" x="291.527554" y="23.724" style="stroke: #000000; stroke-width: 2"/>
      </g>
     </g>
     <g id="text_3">
      <!-- 1.0 -->
      <g transform="translate(275.624429 453.716875) scale(0.2 -0.2)">
       <defs>
        <path id="DejaVuSans-31" d="M 794 531 
L 1825 531 
L 1825 4091 
L 703 3866 
L 703 4441 
L 1819 4666 
L 2450 4666 
L 2450 531 
L 3481 531 
L 3481 0 
L 794 0 
L 794 531 
z
" transform="scale(0.015625)"/>
       </defs>
       <use xlink:href="#DejaVuSans-31"/>
       <use xlink:href="#DejaVuSans-2e" x="63.623047"/>
       <use xlink:href="#DejaVuSans-30" x="95.410156"/>
      </g>
     </g>
    </g>
    <g id="xtick_4">
     <g id="line2d_11">
      <g>
       <use xlink:href="#mcc9d1e42fb" x="383.318777" y="429.52" style="stroke: #000000; stroke-width: 2"/>
      </g>
     </g>
     <g id="line2d_12">
      <g>
       <use xlink:href="#mcc9d1e42fb" x="383.318777" y="23.724" style="stroke: #000000; stroke-width: 2"/>
      </g>
     </g>
     <g id="text_4">
      <!-- 1.5 -->
      <g transform="translate(367.415652 453.716875) scale(0.2 -0.2)">
       <use xlink:href="#DejaVuSans-31"/>
       <use xlink:href="#DejaVuSans-2e" x="63.623047"/>
       <use xlink:href="#DejaVuSans-35" x="95.410156"/>
      </g>
     </g>
    </g>
    <g id="xtick_5">
     <g id="line2d_13">
      <g>
       <use xlink:href="#mcc9d1e42fb" x="475.11" y="429.52" style="stroke: #000000; stroke-width: 2"/>
      </g>
     </g>
     <g id="line2d_14">
      <g>
       <use xlink:href="#mcc9d1e42fb" x="475.11" y="23.724" style="stroke: #000000; stroke-width: 2"/>
      </g>
     </g>
     <g id="text_5">
      <!-- 2.0 -->
      <g transform="translate(459.206875 453.716875) scale(0.2 -0.2)">
       <defs>
        <path id="DejaVuSans-32" d="M 1228 531 
L 3431 531 
L 3431 0 
L 469 0 
L 469 531 
Q 828 903 1448 1529 
Q 2069 2156 2228 2338 
Q 2531 2678 2651 2914 
Q 2772 3150 2772 3378 
Q 2772 3750 2511 3984 
Q 2250 4219 1831 4219 
Q 1534 4219 1204 4116 
Q 875 4013 500 3803 
L 500 4441 
Q 881 4594 1212 4672 
Q 1544 4750 1819 4750 
Q 2544 4750 2975 4387 
Q 3406 4025 3406 3419 
Q 3406 3131 3298 2873 
Q 3191 2616 2906 2266 
Q 2828 2175 2409 1742 
Q 1991 1309 1228 531 
z
" transform="scale(0.015625)"/>
       </defs>
       <use xlink:href="#DejaVuSans-32"/>
       <use xlink:href="#DejaVuSans-2e" x="63.623047"/>
       <use xlink:href="#DejaVuSans-30" x="95.410156"/>
      </g>
     </g>
    </g>
    <g id="text_6">
     <!-- $p_T\ [GeV]$ -->
     <g transform="translate(238.402554 481.87625) scale(0.25 -0.25)">
      <defs>
       <path id="DejaVuSans-70" d="M 1159 525 
L 1159 -1331 
L 581 -1331 
L 581 3500 
L 1159 3500 
L 1159 2969 
Q 1341 3281 1617 3432 
Q 1894 3584 2278 3584 
Q 2916 3584 3314 3078 
Q 3713 2572 3713 1747 
Q 3713 922 3314 415 
Q 2916 -91 2278 -91 
Q 1894 -91 1617 61 
Q 1341 213 1159 525 
z
M 3116 1747 
Q 3116 2381 2855 2742 
Q 2594 3103 2138 3103 
Q 1681 3103 1420 2742 
Q 1159 2381 1159 1747 
Q 1159 1113 1420 752 
Q 1681 391 2138 391 
Q 2594 391 2855 752 
Q 3116 1113 3116 1747 
z
" transform="scale(0.015625)"/>
       <path id="DejaVuSans-54" d="M -19 4666 
L 3928 4666 
L 3928 4134 
L 2272 4134 
L 2272 0 
L 1638 0 
L 1638 4134 
L -19 4134 
L -19 4666 
z
" transform="scale(0.015625)"/>
       <path id="DejaVuSans-5b" d="M 550 4863 
L 1875 4863 
L 1875 4416 
L 1125 4416 
L 1125 -397 
L 1875 -397 
L 1875 -844 
L 550 -844 
L 550 4863 
z
" transform="scale(0.015625)"/>
       <path id="DejaVuSans-47" d="M 3809 666 
L 3809 1919 
L 2778 1919 
L 2778 2438 
L 4434 2438 
L 4434 434 
Q 4069 175 3628 42 
Q 3188 -91 2688 -91 
Q 1594 -91 976 548 
Q 359 1188 359 2328 
Q 359 3472 976 4111 
Q 1594 4750 2688 4750 
Q 3144 4750 3555 4637 
Q 3966 4525 4313 4306 
L 4313 3634 
Q 3963 3931 3569 4081 
Q 3175 4231 2741 4231 
Q 1884 4231 1454 3753 
Q 1025 3275 1025 2328 
Q 1025 1384 1454 906 
Q 1884 428 2741 428 
Q 3075 428 3337 486 
Q 3600 544 3809 666 
z
" transform="scale(0.015625)"/>
       <path id="DejaVuSans-65" d="M 3597 1894 
L 3597 1613 
L 953 1613 
Q 991 1019 1311 708 
Q 1631 397 2203 397 
Q 2534 397 2845 478 
Q 3156 559 3463 722 
L 3463 178 
Q 3153 47 2828 -22 
Q 2503 -91 2169 -91 
Q 1331 -91 842 396 
Q 353 884 353 1716 
Q 353 2575 817 3079 
Q 1281 3584 2069 3584 
Q 2775 3584 3186 3129 
Q 3597 2675 3597 1894 
z
M 3022 2063 
Q 3016 2534 2758 2815 
Q 2500 3097 2075 3097 
Q 1594 3097 1305 2825 
Q 1016 2553 972 2059 
L 3022 2063 
z
" transform="scale(0.015625)"/>
       <path id="DejaVuSans-56" d="M 1831 0 
L 50 4666 
L 709 4666 
L 2188 738 
L 3669 4666 
L 4325 4666 
L 2547 0 
L 1831 0 
z
" transform="scale(0.015625)"/>
       <path id="DejaVuSans-5d" d="M 1947 4863 
L 1947 -844 
L 622 -844 
L 622 -397 
L 1369 -397 
L 1369 4416 
L 622 4416 
L 622 4863 
L 1947 4863 
z
" transform="scale(0.015625)"/>
      </defs>
      <use xlink:href="#DejaVuSans-70" transform="translate(0 0.015625)"/>
      <use xlink:href="#DejaVuSans-54" transform="translate(64.433594 -16.390625) scale(0.7)"/>
      <use xlink:href="#DejaVuSans-5b" transform="translate(139.190788 0.015625)"/>
      <use xlink:href="#DejaVuSans-47" transform="translate(178.20446 0.015625)"/>
      <use xlink:href="#DejaVuSans-65" transform="translate(255.694694 0.015625)"/>
      <use xlink:href="#DejaVuSans-56" transform="translate(317.218132 0.015625)"/>
      <use xlink:href="#DejaVuSans-5d" transform="translate(385.626335 0.015625)"/>
     </g>
    </g>
   </g>
   <g id="matplotlib.axis_2">
    <g id="ytick_1">
     <g id="line2d_15">
      <defs>
       <path id="m7376f18926" d="M 5 0 
L -5 -0 
" style="stroke: #000000; stroke-width: 2"/>
      </defs>
      <g>
       <use xlink:href="#m7376f18926" x="107.945108" y="429.52" style="stroke: #000000; stroke-width: 2"/>
      </g>
     </g>
     <g id="line2d_16">
      <g>
       <use xlink:href="#m7376f18926" x="475.11" y="429.52" style="stroke: #000000; stroke-width: 2"/>
      </g>
     </g>
     <g id="text_7">
      <!-- $\mathdefault{10^{-5}}$ -->
      <g transform="translate(51.945108 435.03875) scale(0.2 -0.2)">
       <defs>
        <path id="DejaVuSans-2212" d="M 678 2272 
L 4684 2272 
L 4684 1741 
L 678 1741 
L 678 2272 
z
" transform="scale(0.015625)"/>
       </defs>
       <use xlink:href="#DejaVuSans-31" transform="translate(0 0.684375)"/>
       <use xlink:href="#DejaVuSans-30" transform="translate(63.623047 0.684375)"/>
       <use xlink:href="#DejaVuSans-2212" transform="translate(128.203125 38.965625) scale(0.7)"/>
       <use xlink:href="#DejaVuSans-35" transform="translate(186.855469 38.965625) scale(0.7)"/>
      </g>
     </g>
    </g>
    <g id="ytick_2">
     <g id="line2d_17">
      <g>
       <use xlink:href="#m7376f18926" x="107.945108" y="388.9404" style="stroke: #000000; stroke-width: 2"/>
      </g>
     </g>
     <g id="line2d_18">
      <g>
       <use xlink:href="#m7376f18926" x="475.11" y="388.9404" style="stroke: #000000; stroke-width: 2"/>
      </g>
     </g>
     <g id="text_8">
      <!-- $\mathdefault{10^{-4}}$ -->
      <g transform="translate(51.945108 394.45915) scale(0.2 -0.2)">
       <defs>
        <path id="DejaVuSans-34" d="M 2419 4116 
L 825 1625 
L 2419 1625 
L 2419 4116 
z
M 2253 4666 
L 3047 4666 
L 3047 1625 
L 3713 1625 
L 3713 1100 
L 3047 1100 
L 3047 0 
L 2419 0 
L 2419 1100 
L 313 1100 
L 313 1709 
L 2253 4666 
z
" transform="scale(0.015625)"/>
       </defs>
       <use xlink:href="#DejaVuSans-31" transform="translate(0 0.684375)"/>
       <use xlink:href="#DejaVuSans-30" transform="translate(63.623047 0.684375)"/>
       <use xlink:href="#DejaVuSans-2212" transform="translate(128.203125 38.965625) scale(0.7)"/>
       <use xlink:href="#DejaVuSans-34" transform="translate(186.855469 38.965625) scale(0.7)"/>
      </g>
     </g>
    </g>
    <g id="ytick_3">
     <g id="line2d_19">
      <g>
       <use xlink:href="#m7376f18926" x="107.945108" y="348.3608" style="stroke: #000000; stroke-width: 2"/>
      </g>
     </g>
     <g id="line2d_20">
      <g>
       <use xlink:href="#m7376f18926" x="475.11" y="348.3608" style="stroke: #000000; stroke-width: 2"/>
      </g>
     </g>
     <g id="text_9">
      <!-- $\mathdefault{10^{-3}}$ -->
      <g transform="translate(51.945108 353.87955) scale(0.2 -0.2)">
       <defs>
        <path id="DejaVuSans-33" d="M 2597 2516 
Q 3050 2419 3304 2112 
Q 3559 1806 3559 1356 
Q 3559 666 3084 287 
Q 2609 -91 1734 -91 
Q 1441 -91 1130 -33 
Q 819 25 488 141 
L 488 750 
Q 750 597 1062 519 
Q 1375 441 1716 441 
Q 2309 441 2620 675 
Q 2931 909 2931 1356 
Q 2931 1769 2642 2001 
Q 2353 2234 1838 2234 
L 1294 2234 
L 1294 2753 
L 1863 2753 
Q 2328 2753 2575 2939 
Q 2822 3125 2822 3475 
Q 2822 3834 2567 4026 
Q 2313 4219 1838 4219 
Q 1578 4219 1281 4162 
Q 984 4106 628 3988 
L 628 4550 
Q 988 4650 1302 4700 
Q 1616 4750 1894 4750 
Q 2613 4750 3031 4423 
Q 3450 4097 3450 3541 
Q 3450 3153 3228 2886 
Q 3006 2619 2597 2516 
z
" transform="scale(0.015625)"/>
       </defs>
       <use xlink:href="#DejaVuSans-31" transform="translate(0 0.765625)"/>
       <use xlink:href="#DejaVuSans-30" transform="translate(63.623047 0.765625)"/>
       <use xlink:href="#DejaVuSans-2212" transform="translate(128.203125 39.046875) scale(0.7)"/>
       <use xlink:href="#DejaVuSans-33" transform="translate(186.855469 39.046875) scale(0.7)"/>
      </g>
     </g>
    </g>
    <g id="ytick_4">
     <g id="line2d_21">
      <g>
       <use xlink:href="#m7376f18926" x="107.945108" y="307.7812" style="stroke: #000000; stroke-width: 2"/>
      </g>
     </g>
     <g id="line2d_22">
      <g>
       <use xlink:href="#m7376f18926" x="475.11" y="307.7812" style="stroke: #000000; stroke-width: 2"/>
      </g>
     </g>
     <g id="text_10">
      <!-- $\mathdefault{10^{-2}}$ -->
      <g transform="translate(51.945108 313.29995) scale(0.2 -0.2)">
       <use xlink:href="#DejaVuSans-31" transform="translate(0 0.765625)"/>
       <use xlink:href="#DejaVuSans-30" transform="translate(63.623047 0.765625)"/>
       <use xlink:href="#DejaVuSans-2212" transform="translate(128.203125 39.046875) scale(0.7)"/>
       <use xlink:href="#DejaVuSans-32" transform="translate(186.855469 39.046875) scale(0.7)"/>
      </g>
     </g>
    </g>
    <g id="ytick_5">
     <g id="line2d_23">
      <g>
       <use xlink:href="#m7376f18926" x="107.945108" y="267.2016" style="stroke: #000000; stroke-width: 2"/>
      </g>
     </g>
     <g id="line2d_24">
      <g>
       <use xlink:href="#m7376f18926" x="475.11" y="267.2016" style="stroke: #000000; stroke-width: 2"/>
      </g>
     </g>
     <g id="text_11">
      <!-- $\mathdefault{10^{-1}}$ -->
      <g transform="translate(51.945108 272.72035) scale(0.2 -0.2)">
       <use xlink:href="#DejaVuSans-31" transform="translate(0 0.684375)"/>
       <use xlink:href="#DejaVuSans-30" transform="translate(63.623047 0.684375)"/>
       <use xlink:href="#DejaVuSans-2212" transform="translate(128.203125 38.965625) scale(0.7)"/>
       <use xlink:href="#DejaVuSans-31" transform="translate(186.855469 38.965625) scale(0.7)"/>
      </g>
     </g>
    </g>
    <g id="ytick_6">
     <g id="line2d_25">
      <g>
       <use xlink:href="#m7376f18926" x="107.945108" y="226.622" style="stroke: #000000; stroke-width: 2"/>
      </g>
     </g>
     <g id="line2d_26">
      <g>
       <use xlink:href="#m7376f18926" x="475.11" y="226.622" style="stroke: #000000; stroke-width: 2"/>
      </g>
     </g>
     <g id="text_12">
      <!-- $\mathdefault{10^{0}}$ -->
      <g transform="translate(63.745108 232.14075) scale(0.2 -0.2)">
       <use xlink:href="#DejaVuSans-31" transform="translate(0 0.765625)"/>
       <use xlink:href="#DejaVuSans-30" transform="translate(63.623047 0.765625)"/>
       <use xlink:href="#DejaVuSans-30" transform="translate(128.203125 39.046875) scale(0.7)"/>
      </g>
     </g>
    </g>
    <g id="ytick_7">
     <g id="line2d_27">
      <g>
       <use xlink:href="#m7376f18926" x="107.945108" y="186.0424" style="stroke: #000000; stroke-width: 2"/>
      </g>
     </g>
     <g id="line2d_28">
      <g>
       <use xlink:href="#m7376f18926" x="475.11" y="186.0424" style="stroke: #000000; stroke-width: 2"/>
      </g>
     </g>
     <g id="text_13">
      <!-- $\mathdefault{10^{1}}$ -->
      <g transform="translate(63.745108 191.56115) scale(0.2 -0.2)">
       <use xlink:href="#DejaVuSans-31" transform="translate(0 0.684375)"/>
       <use xlink:href="#DejaVuSans-30" transform="translate(63.623047 0.684375)"/>
       <use xlink:href="#DejaVuSans-31" transform="translate(128.203125 38.965625) scale(0.7)"/>
      </g>
     </g>
    </g>
    <g id="ytick_8">
     <g id="line2d_29">
      <g>
       <use xlink:href="#m7376f18926" x="107.945108" y="145.4628" style="stroke: #000000; stroke-width: 2"/>
      </g>
     </g>
     <g id="line2d_30">
      <g>
       <use xlink:href="#m7376f18926" x="475.11" y="145.4628" style="stroke: #000000; stroke-width: 2"/>
      </g>
     </g>
     <g id="text_14">
      <!-- $\mathdefault{10^{2}}$ -->
      <g transform="translate(63.745108 150.98155) scale(0.2 -0.2)">
       <use xlink:href="#DejaVuSans-31" transform="translate(0 0.765625)"/>
       <use xlink:href="#DejaVuSans-30" transform="translate(63.623047 0.765625)"/>
       <use xlink:href="#DejaVuSans-32" transform="translate(128.203125 39.046875) scale(0.7)"/>
      </g>
     </g>
    </g>
    <g id="ytick_9">
     <g id="line2d_31">
      <g>
       <use xlink:href="#m7376f18926" x="107.945108" y="104.8832" style="stroke: #000000; stroke-width: 2"/>
      </g>
     </g>
     <g id="line2d_32">
      <g>
       <use xlink:href="#m7376f18926" x="475.11" y="104.8832" style="stroke: #000000; stroke-width: 2"/>
      </g>
     </g>
     <g id="text_15">
      <!-- $\mathdefault{10^{3}}$ -->
      <g transform="translate(63.745108 110.40195) scale(0.2 -0.2)">
       <use xlink:href="#DejaVuSans-31" transform="translate(0 0.765625)"/>
       <use xlink:href="#DejaVuSans-30" transform="translate(63.623047 0.765625)"/>
       <use xlink:href="#DejaVuSans-33" transform="translate(128.203125 39.046875) scale(0.7)"/>
      </g>
     </g>
    </g>
    <g id="ytick_10">
     <g id="line2d_33">
      <g>
       <use xlink:href="#m7376f18926" x="107.945108" y="64.3036" style="stroke: #000000; stroke-width: 2"/>
      </g>
     </g>
     <g id="line2d_34">
      <g>
       <use xlink:href="#m7376f18926" x="475.11" y="64.3036" style="stroke: #000000; stroke-width: 2"/>
      </g>
     </g>
     <g id="text_16">
      <!-- $\mathdefault{10^{4}}$ -->
      <g transform="translate(63.745108 69.82235) scale(0.2 -0.2)">
       <use xlink:href="#DejaVuSans-31" transform="translate(0 0.684375)"/>
       <use xlink:href="#DejaVuSans-30" transform="translate(63.623047 0.684375)"/>
       <use xlink:href="#DejaVuSans-34" transform="translate(128.203125 38.965625) scale(0.7)"/>
      </g>
     </g>
    </g>
    <g id="ytick_11">
     <g id="line2d_35">
      <g>
       <use xlink:href="#m7376f18926" x="107.945108" y="23.724" style="stroke: #000000; stroke-width: 2"/>
      </g>
     </g>
     <g id="line2d_36">
      <g>
       <use xlink:href="#m7376f18926" x="475.11" y="23.724" style="stroke: #000000; stroke-width: 2"/>
      </g>
     </g>
     <g id="text_17">
      <!-- $\mathdefault{10^{5}}$ -->
      <g transform="translate(63.745108 29.24275) scale(0.2 -0.2)">
       <use xlink:href="#DejaVuSans-31" transform="translate(0 0.684375)"/>
       <use xlink:href="#DejaVuSans-30" transform="translate(63.623047 0.684375)"/>
       <use xlink:href="#DejaVuSans-35" transform="translate(128.203125 38.965625) scale(0.7)"/>
      </g>
     </g>
    </g>
    <g id="ytick_12">
     <g id="line2d_37">
      <defs>
       <path id="m919401f550" d="M 1 0 
L -1 -0 
" style="stroke: #000000; stroke-width: 0.5"/>
      </defs>
      <g>
       <use xlink:href="#m919401f550" x="107.945108" y="417.304323" style="stroke: #000000; stroke-width: 0.5"/>
      </g>
     </g>
     <g id="line2d_38">
      <g>
       <use xlink:href="#m919401f550" x="475.11" y="417.304323" style="stroke: #000000; stroke-width: 0.5"/>
      </g>
     </g>
    </g>
    <g id="ytick_13">
     <g id="line2d_39">
      <g>
       <use xlink:href="#m919401f550" x="107.945108" y="410.15861" style="stroke: #000000; stroke-width: 0.5"/>
      </g>
     </g>
     <g id="line2d_40">
      <g>
       <use xlink:href="#m919401f550" x="475.11" y="410.15861" style="stroke: #000000; stroke-width: 0.5"/>
      </g>
     </g>
    </g>
    <g id="ytick_14">
     <g id="line2d_41">
      <g>
       <use xlink:href="#m919401f550" x="107.945108" y="405.088646" style="stroke: #000000; stroke-width: 0.5"/>
      </g>
     </g>
     <g id="line2d_42">
      <g>
       <use xlink:href="#m919401f550" x="475.11" y="405.088646" style="stroke: #000000; stroke-width: 0.5"/>
      </g>
     </g>
    </g>
    <g id="ytick_15">
     <g id="line2d_43">
      <g>
       <use xlink:href="#m919401f550" x="107.945108" y="401.156077" style="stroke: #000000; stroke-width: 0.5"/>
      </g>
     </g>
     <g id="line2d_44">
      <g>
       <use xlink:href="#m919401f550" x="475.11" y="401.156077" style="stroke: #000000; stroke-width: 0.5"/>
      </g>
     </g>
    </g>
    <g id="ytick_16">
     <g id="line2d_45">
      <g>
       <use xlink:href="#m919401f550" x="107.945108" y="397.942934" style="stroke: #000000; stroke-width: 0.5"/>
      </g>
     </g>
     <g id="line2d_46">
      <g>
       <use xlink:href="#m919401f550" x="475.11" y="397.942934" style="stroke: #000000; stroke-width: 0.5"/>
      </g>
     </g>
    </g>
    <g id="ytick_17">
     <g id="line2d_47">
      <g>
       <use xlink:href="#m919401f550" x="107.945108" y="395.22626" style="stroke: #000000; stroke-width: 0.5"/>
      </g>
     </g>
     <g id="line2d_48">
      <g>
       <use xlink:href="#m919401f550" x="475.11" y="395.22626" style="stroke: #000000; stroke-width: 0.5"/>
      </g>
     </g>
    </g>
    <g id="ytick_18">
     <g id="line2d_49">
      <g>
       <use xlink:href="#m919401f550" x="107.945108" y="392.87297" style="stroke: #000000; stroke-width: 0.5"/>
      </g>
     </g>
     <g id="line2d_50">
      <g>
       <use xlink:href="#m919401f550" x="475.11" y="392.87297" style="stroke: #000000; stroke-width: 0.5"/>
      </g>
     </g>
    </g>
    <g id="ytick_19">
     <g id="line2d_51">
      <g>
       <use xlink:href="#m919401f550" x="107.945108" y="390.797221" style="stroke: #000000; stroke-width: 0.5"/>
      </g>
     </g>
     <g id="line2d_52">
      <g>
       <use xlink:href="#m919401f550" x="475.11" y="390.797221" style="stroke: #000000; stroke-width: 0.5"/>
      </g>
     </g>
    </g>
    <g id="ytick_20">
     <g id="line2d_53">
      <g>
       <use xlink:href="#m919401f550" x="107.945108" y="376.724723" style="stroke: #000000; stroke-width: 0.5"/>
      </g>
     </g>
     <g id="line2d_54">
      <g>
       <use xlink:href="#m919401f550" x="475.11" y="376.724723" style="stroke: #000000; stroke-width: 0.5"/>
      </g>
     </g>
    </g>
    <g id="ytick_21">
     <g id="line2d_55">
      <g>
       <use xlink:href="#m919401f550" x="107.945108" y="369.57901" style="stroke: #000000; stroke-width: 0.5"/>
      </g>
     </g>
     <g id="line2d_56">
      <g>
       <use xlink:href="#m919401f550" x="475.11" y="369.57901" style="stroke: #000000; stroke-width: 0.5"/>
      </g>
     </g>
    </g>
    <g id="ytick_22">
     <g id="line2d_57">
      <g>
       <use xlink:href="#m919401f550" x="107.945108" y="364.509046" style="stroke: #000000; stroke-width: 0.5"/>
      </g>
     </g>
     <g id="line2d_58">
      <g>
       <use xlink:href="#m919401f550" x="475.11" y="364.509046" style="stroke: #000000; stroke-width: 0.5"/>
      </g>
     </g>
    </g>
    <g id="ytick_23">
     <g id="line2d_59">
      <g>
       <use xlink:href="#m919401f550" x="107.945108" y="360.576477" style="stroke: #000000; stroke-width: 0.5"/>
      </g>
     </g>
     <g id="line2d_60">
      <g>
       <use xlink:href="#m919401f550" x="475.11" y="360.576477" style="stroke: #000000; stroke-width: 0.5"/>
      </g>
     </g>
    </g>
    <g id="ytick_24">
     <g id="line2d_61">
      <g>
       <use xlink:href="#m919401f550" x="107.945108" y="357.363334" style="stroke: #000000; stroke-width: 0.5"/>
      </g>
     </g>
     <g id="line2d_62">
      <g>
       <use xlink:href="#m919401f550" x="475.11" y="357.363334" style="stroke: #000000; stroke-width: 0.5"/>
      </g>
     </g>
    </g>
    <g id="ytick_25">
     <g id="line2d_63">
      <g>
       <use xlink:href="#m919401f550" x="107.945108" y="354.64666" style="stroke: #000000; stroke-width: 0.5"/>
      </g>
     </g>
     <g id="line2d_64">
      <g>
       <use xlink:href="#m919401f550" x="475.11" y="354.64666" style="stroke: #000000; stroke-width: 0.5"/>
      </g>
     </g>
    </g>
    <g id="ytick_26">
     <g id="line2d_65">
      <g>
       <use xlink:href="#m919401f550" x="107.945108" y="352.29337" style="stroke: #000000; stroke-width: 0.5"/>
      </g>
     </g>
     <g id="line2d_66">
      <g>
       <use xlink:href="#m919401f550" x="475.11" y="352.29337" style="stroke: #000000; stroke-width: 0.5"/>
      </g>
     </g>
    </g>
    <g id="ytick_27">
     <g id="line2d_67">
      <g>
       <use xlink:href="#m919401f550" x="107.945108" y="350.217621" style="stroke: #000000; stroke-width: 0.5"/>
      </g>
     </g>
     <g id="line2d_68">
      <g>
       <use xlink:href="#m919401f550" x="475.11" y="350.217621" style="stroke: #000000; stroke-width: 0.5"/>
      </g>
     </g>
    </g>
    <g id="ytick_28">
     <g id="line2d_69">
      <g>
       <use xlink:href="#m919401f550" x="107.945108" y="336.145123" style="stroke: #000000; stroke-width: 0.5"/>
      </g>
     </g>
     <g id="line2d_70">
      <g>
       <use xlink:href="#m919401f550" x="475.11" y="336.145123" style="stroke: #000000; stroke-width: 0.5"/>
      </g>
     </g>
    </g>
    <g id="ytick_29">
     <g id="line2d_71">
      <g>
       <use xlink:href="#m919401f550" x="107.945108" y="328.99941" style="stroke: #000000; stroke-width: 0.5"/>
      </g>
     </g>
     <g id="line2d_72">
      <g>
       <use xlink:href="#m919401f550" x="475.11" y="328.99941" style="stroke: #000000; stroke-width: 0.5"/>
      </g>
     </g>
    </g>
    <g id="ytick_30">
     <g id="line2d_73">
      <g>
       <use xlink:href="#m919401f550" x="107.945108" y="323.929446" style="stroke: #000000; stroke-width: 0.5"/>
      </g>
     </g>
     <g id="line2d_74">
      <g>
       <use xlink:href="#m919401f550" x="475.11" y="323.929446" style="stroke: #000000; stroke-width: 0.5"/>
      </g>
     </g>
    </g>
    <g id="ytick_31">
     <g id="line2d_75">
      <g>
       <use xlink:href="#m919401f550" x="107.945108" y="319.996877" style="stroke: #000000; stroke-width: 0.5"/>
      </g>
     </g>
     <g id="line2d_76">
      <g>
       <use xlink:href="#m919401f550" x="475.11" y="319.996877" style="stroke: #000000; stroke-width: 0.5"/>
      </g>
     </g>
    </g>
    <g id="ytick_32">
     <g id="line2d_77">
      <g>
       <use xlink:href="#m919401f550" x="107.945108" y="316.783734" style="stroke: #000000; stroke-width: 0.5"/>
      </g>
     </g>
     <g id="line2d_78">
      <g>
       <use xlink:href="#m919401f550" x="475.11" y="316.783734" style="stroke: #000000; stroke-width: 0.5"/>
      </g>
     </g>
    </g>
    <g id="ytick_33">
     <g id="line2d_79">
      <g>
       <use xlink:href="#m919401f550" x="107.945108" y="314.06706" style="stroke: #000000; stroke-width: 0.5"/>
      </g>
     </g>
     <g id="line2d_80">
      <g>
       <use xlink:href="#m919401f550" x="475.11" y="314.06706" style="stroke: #000000; stroke-width: 0.5"/>
      </g>
     </g>
    </g>
    <g id="ytick_34">
     <g id="line2d_81">
      <g>
       <use xlink:href="#m919401f550" x="107.945108" y="311.71377" style="stroke: #000000; stroke-width: 0.5"/>
      </g>
     </g>
     <g id="line2d_82">
      <g>
       <use xlink:href="#m919401f550" x="475.11" y="311.71377" style="stroke: #000000; stroke-width: 0.5"/>
      </g>
     </g>
    </g>
    <g id="ytick_35">
     <g id="line2d_83">
      <g>
       <use xlink:href="#m919401f550" x="107.945108" y="309.638021" style="stroke: #000000; stroke-width: 0.5"/>
      </g>
     </g>
     <g id="line2d_84">
      <g>
       <use xlink:href="#m919401f550" x="475.11" y="309.638021" style="stroke: #000000; stroke-width: 0.5"/>
      </g>
     </g>
    </g>
    <g id="ytick_36">
     <g id="line2d_85">
      <g>
       <use xlink:href="#m919401f550" x="107.945108" y="295.565523" style="stroke: #000000; stroke-width: 0.5"/>
      </g>
     </g>
     <g id="line2d_86">
      <g>
       <use xlink:href="#m919401f550" x="475.11" y="295.565523" style="stroke: #000000; stroke-width: 0.5"/>
      </g>
     </g>
    </g>
    <g id="ytick_37">
     <g id="line2d_87">
      <g>
       <use xlink:href="#m919401f550" x="107.945108" y="288.41981" style="stroke: #000000; stroke-width: 0.5"/>
      </g>
     </g>
     <g id="line2d_88">
      <g>
       <use xlink:href="#m919401f550" x="475.11" y="288.41981" style="stroke: #000000; stroke-width: 0.5"/>
      </g>
     </g>
    </g>
    <g id="ytick_38">
     <g id="line2d_89">
      <g>
       <use xlink:href="#m919401f550" x="107.945108" y="283.349846" style="stroke: #000000; stroke-width: 0.5"/>
      </g>
     </g>
     <g id="line2d_90">
      <g>
       <use xlink:href="#m919401f550" x="475.11" y="283.349846" style="stroke: #000000; stroke-width: 0.5"/>
      </g>
     </g>
    </g>
    <g id="ytick_39">
     <g id="line2d_91">
      <g>
       <use xlink:href="#m919401f550" x="107.945108" y="279.417277" style="stroke: #000000; stroke-width: 0.5"/>
      </g>
     </g>
     <g id="line2d_92">
      <g>
       <use xlink:href="#m919401f550" x="475.11" y="279.417277" style="stroke: #000000; stroke-width: 0.5"/>
      </g>
     </g>
    </g>
    <g id="ytick_40">
     <g id="line2d_93">
      <g>
       <use xlink:href="#m919401f550" x="107.945108" y="276.204134" style="stroke: #000000; stroke-width: 0.5"/>
      </g>
     </g>
     <g id="line2d_94">
      <g>
       <use xlink:href="#m919401f550" x="475.11" y="276.204134" style="stroke: #000000; stroke-width: 0.5"/>
      </g>
     </g>
    </g>
    <g id="ytick_41">
     <g id="line2d_95">
      <g>
       <use xlink:href="#m919401f550" x="107.945108" y="273.48746" style="stroke: #000000; stroke-width: 0.5"/>
      </g>
     </g>
     <g id="line2d_96">
      <g>
       <use xlink:href="#m919401f550" x="475.11" y="273.48746" style="stroke: #000000; stroke-width: 0.5"/>
      </g>
     </g>
    </g>
    <g id="ytick_42">
     <g id="line2d_97">
      <g>
       <use xlink:href="#m919401f550" x="107.945108" y="271.13417" style="stroke: #000000; stroke-width: 0.5"/>
      </g>
     </g>
     <g id="line2d_98">
      <g>
       <use xlink:href="#m919401f550" x="475.11" y="271.13417" style="stroke: #000000; stroke-width: 0.5"/>
      </g>
     </g>
    </g>
    <g id="ytick_43">
     <g id="line2d_99">
      <g>
       <use xlink:href="#m919401f550" x="107.945108" y="269.058421" style="stroke: #000000; stroke-width: 0.5"/>
      </g>
     </g>
     <g id="line2d_100">
      <g>
       <use xlink:href="#m919401f550" x="475.11" y="269.058421" style="stroke: #000000; stroke-width: 0.5"/>
      </g>
     </g>
    </g>
    <g id="ytick_44">
     <g id="line2d_101">
      <g>
       <use xlink:href="#m919401f550" x="107.945108" y="254.985923" style="stroke: #000000; stroke-width: 0.5"/>
      </g>
     </g>
     <g id="line2d_102">
      <g>
       <use xlink:href="#m919401f550" x="475.11" y="254.985923" style="stroke: #000000; stroke-width: 0.5"/>
      </g>
     </g>
    </g>
    <g id="ytick_45">
     <g id="line2d_103">
      <g>
       <use xlink:href="#m919401f550" x="107.945108" y="247.84021" style="stroke: #000000; stroke-width: 0.5"/>
      </g>
     </g>
     <g id="line2d_104">
      <g>
       <use xlink:href="#m919401f550" x="475.11" y="247.84021" style="stroke: #000000; stroke-width: 0.5"/>
      </g>
     </g>
    </g>
    <g id="ytick_46">
     <g id="line2d_105">
      <g>
       <use xlink:href="#m919401f550" x="107.945108" y="242.770246" style="stroke: #000000; stroke-width: 0.5"/>
      </g>
     </g>
     <g id="line2d_106">
      <g>
       <use xlink:href="#m919401f550" x="475.11" y="242.770246" style="stroke: #000000; stroke-width: 0.5"/>
      </g>
     </g>
    </g>
    <g id="ytick_47">
     <g id="line2d_107">
      <g>
       <use xlink:href="#m919401f550" x="107.945108" y="238.837677" style="stroke: #000000; stroke-width: 0.5"/>
      </g>
     </g>
     <g id="line2d_108">
      <g>
       <use xlink:href="#m919401f550" x="475.11" y="238.837677" style="stroke: #000000; stroke-width: 0.5"/>
      </g>
     </g>
    </g>
    <g id="ytick_48">
     <g id="line2d_109">
      <g>
       <use xlink:href="#m919401f550" x="107.945108" y="235.624534" style="stroke: #000000; stroke-width: 0.5"/>
      </g>
     </g>
     <g id="line2d_110">
      <g>
       <use xlink:href="#m919401f550" x="475.11" y="235.624534" style="stroke: #000000; stroke-width: 0.5"/>
      </g>
     </g>
    </g>
    <g id="ytick_49">
     <g id="line2d_111">
      <g>
       <use xlink:href="#m919401f550" x="107.945108" y="232.90786" style="stroke: #000000; stroke-width: 0.5"/>
      </g>
     </g>
     <g id="line2d_112">
      <g>
       <use xlink:href="#m919401f550" x="475.11" y="232.90786" style="stroke: #000000; stroke-width: 0.5"/>
      </g>
     </g>
    </g>
    <g id="ytick_50">
     <g id="line2d_113">
      <g>
       <use xlink:href="#m919401f550" x="107.945108" y="230.55457" style="stroke: #000000; stroke-width: 0.5"/>
      </g>
     </g>
     <g id="line2d_114">
      <g>
       <use xlink:href="#m919401f550" x="475.11" y="230.55457" style="stroke: #000000; stroke-width: 0.5"/>
      </g>
     </g>
    </g>
    <g id="ytick_51">
     <g id="line2d_115">
      <g>
       <use xlink:href="#m919401f550" x="107.945108" y="228.478821" style="stroke: #000000; stroke-width: 0.5"/>
      </g>
     </g>
     <g id="line2d_116">
      <g>
       <use xlink:href="#m919401f550" x="475.11" y="228.478821" style="stroke: #000000; stroke-width: 0.5"/>
      </g>
     </g>
    </g>
    <g id="ytick_52">
     <g id="line2d_117">
      <g>
       <use xlink:href="#m919401f550" x="107.945108" y="214.406323" style="stroke: #000000; stroke-width: 0.5"/>
      </g>
     </g>
     <g id="line2d_118">
      <g>
       <use xlink:href="#m919401f550" x="475.11" y="214.406323" style="stroke: #000000; stroke-width: 0.5"/>
      </g>
     </g>
    </g>
    <g id="ytick_53">
     <g id="line2d_119">
      <g>
       <use xlink:href="#m919401f550" x="107.945108" y="207.26061" style="stroke: #000000; stroke-width: 0.5"/>
      </g>
     </g>
     <g id="line2d_120">
      <g>
       <use xlink:href="#m919401f550" x="475.11" y="207.26061" style="stroke: #000000; stroke-width: 0.5"/>
      </g>
     </g>
    </g>
    <g id="ytick_54">
     <g id="line2d_121">
      <g>
       <use xlink:href="#m919401f550" x="107.945108" y="202.190646" style="stroke: #000000; stroke-width: 0.5"/>
      </g>
     </g>
     <g id="line2d_122">
      <g>
       <use xlink:href="#m919401f550" x="475.11" y="202.190646" style="stroke: #000000; stroke-width: 0.5"/>
      </g>
     </g>
    </g>
    <g id="ytick_55">
     <g id="line2d_123">
      <g>
       <use xlink:href="#m919401f550" x="107.945108" y="198.258077" style="stroke: #000000; stroke-width: 0.5"/>
      </g>
     </g>
     <g id="line2d_124">
      <g>
       <use xlink:href="#m919401f550" x="475.11" y="198.258077" style="stroke: #000000; stroke-width: 0.5"/>
      </g>
     </g>
    </g>
    <g id="ytick_56">
     <g id="line2d_125">
      <g>
       <use xlink:href="#m919401f550" x="107.945108" y="195.044934" style="stroke: #000000; stroke-width: 0.5"/>
      </g>
     </g>
     <g id="line2d_126">
      <g>
       <use xlink:href="#m919401f550" x="475.11" y="195.044934" style="stroke: #000000; stroke-width: 0.5"/>
      </g>
     </g>
    </g>
    <g id="ytick_57">
     <g id="line2d_127">
      <g>
       <use xlink:href="#m919401f550" x="107.945108" y="192.32826" style="stroke: #000000; stroke-width: 0.5"/>
      </g>
     </g>
     <g id="line2d_128">
      <g>
       <use xlink:href="#m919401f550" x="475.11" y="192.32826" style="stroke: #000000; stroke-width: 0.5"/>
      </g>
     </g>
    </g>
    <g id="ytick_58">
     <g id="line2d_129">
      <g>
       <use xlink:href="#m919401f550" x="107.945108" y="189.97497" style="stroke: #000000; stroke-width: 0.5"/>
      </g>
     </g>
     <g id="line2d_130">
      <g>
       <use xlink:href="#m919401f550" x="475.11" y="189.97497" style="stroke: #000000; stroke-width: 0.5"/>
      </g>
     </g>
    </g>
    <g id="ytick_59">
     <g id="line2d_131">
      <g>
       <use xlink:href="#m919401f550" x="107.945108" y="187.899221" style="stroke: #000000; stroke-width: 0.5"/>
      </g>
     </g>
     <g id="line2d_132">
      <g>
       <use xlink:href="#m919401f550" x="475.11" y="187.899221" style="stroke: #000000; stroke-width: 0.5"/>
      </g>
     </g>
    </g>
    <g id="ytick_60">
     <g id="line2d_133">
      <g>
       <use xlink:href="#m919401f550" x="107.945108" y="173.826723" style="stroke: #000000; stroke-width: 0.5"/>
      </g>
     </g>
     <g id="line2d_134">
      <g>
       <use xlink:href="#m919401f550" x="475.11" y="173.826723" style="stroke: #000000; stroke-width: 0.5"/>
      </g>
     </g>
    </g>
    <g id="ytick_61">
     <g id="line2d_135">
      <g>
       <use xlink:href="#m919401f550" x="107.945108" y="166.68101" style="stroke: #000000; stroke-width: 0.5"/>
      </g>
     </g>
     <g id="line2d_136">
      <g>
       <use xlink:href="#m919401f550" x="475.11" y="166.68101" style="stroke: #000000; stroke-width: 0.5"/>
      </g>
     </g>
    </g>
    <g id="ytick_62">
     <g id="line2d_137">
      <g>
       <use xlink:href="#m919401f550" x="107.945108" y="161.611046" style="stroke: #000000; stroke-width: 0.5"/>
      </g>
     </g>
     <g id="line2d_138">
      <g>
       <use xlink:href="#m919401f550" x="475.11" y="161.611046" style="stroke: #000000; stroke-width: 0.5"/>
      </g>
     </g>
    </g>
    <g id="ytick_63">
     <g id="line2d_139">
      <g>
       <use xlink:href="#m919401f550" x="107.945108" y="157.678477" style="stroke: #000000; stroke-width: 0.5"/>
      </g>
     </g>
     <g id="line2d_140">
      <g>
       <use xlink:href="#m919401f550" x="475.11" y="157.678477" style="stroke: #000000; stroke-width: 0.5"/>
      </g>
     </g>
    </g>
    <g id="ytick_64">
     <g id="line2d_141">
      <g>
       <use xlink:href="#m919401f550" x="107.945108" y="154.465334" style="stroke: #000000; stroke-width: 0.5"/>
      </g>
     </g>
     <g id="line2d_142">
      <g>
       <use xlink:href="#m919401f550" x="475.11" y="154.465334" style="stroke: #000000; stroke-width: 0.5"/>
      </g>
     </g>
    </g>
    <g id="ytick_65">
     <g id="line2d_143">
      <g>
       <use xlink:href="#m919401f550" x="107.945108" y="151.74866" style="stroke: #000000; stroke-width: 0.5"/>
      </g>
     </g>
     <g id="line2d_144">
      <g>
       <use xlink:href="#m919401f550" x="475.11" y="151.74866" style="stroke: #000000; stroke-width: 0.5"/>
      </g>
     </g>
    </g>
    <g id="ytick_66">
     <g id="line2d_145">
      <g>
       <use xlink:href="#m919401f550" x="107.945108" y="149.39537" style="stroke: #000000; stroke-width: 0.5"/>
      </g>
     </g>
     <g id="line2d_146">
      <g>
       <use xlink:href="#m919401f550" x="475.11" y="149.39537" style="stroke: #000000; stroke-width: 0.5"/>
      </g>
     </g>
    </g>
    <g id="ytick_67">
     <g id="line2d_147">
      <g>
       <use xlink:href="#m919401f550" x="107.945108" y="147.319621" style="stroke: #000000; stroke-width: 0.5"/>
      </g>
     </g>
     <g id="line2d_148">
      <g>
       <use xlink:href="#m919401f550" x="475.11" y="147.319621" style="stroke: #000000; stroke-width: 0.5"/>
      </g>
     </g>
    </g>
    <g id="ytick_68">
     <g id="line2d_149">
      <g>
       <use xlink:href="#m919401f550" x="107.945108" y="133.247123" style="stroke: #000000; stroke-width: 0.5"/>
      </g>
     </g>
     <g id="line2d_150">
      <g>
       <use xlink:href="#m919401f550" x="475.11" y="133.247123" style="stroke: #000000; stroke-width: 0.5"/>
      </g>
     </g>
    </g>
    <g id="ytick_69">
     <g id="line2d_151">
      <g>
       <use xlink:href="#m919401f550" x="107.945108" y="126.10141" style="stroke: #000000; stroke-width: 0.5"/>
      </g>
     </g>
     <g id="line2d_152">
      <g>
       <use xlink:href="#m919401f550" x="475.11" y="126.10141" style="stroke: #000000; stroke-width: 0.5"/>
      </g>
     </g>
    </g>
    <g id="ytick_70">
     <g id="line2d_153">
      <g>
       <use xlink:href="#m919401f550" x="107.945108" y="121.031446" style="stroke: #000000; stroke-width: 0.5"/>
      </g>
     </g>
     <g id="line2d_154">
      <g>
       <use xlink:href="#m919401f550" x="475.11" y="121.031446" style="stroke: #000000; stroke-width: 0.5"/>
      </g>
     </g>
    </g>
    <g id="ytick_71">
     <g id="line2d_155">
      <g>
       <use xlink:href="#m919401f550" x="107.945108" y="117.098877" style="stroke: #000000; stroke-width: 0.5"/>
      </g>
     </g>
     <g id="line2d_156">
      <g>
       <use xlink:href="#m919401f550" x="475.11" y="117.098877" style="stroke: #000000; stroke-width: 0.5"/>
      </g>
     </g>
    </g>
    <g id="ytick_72">
     <g id="line2d_157">
      <g>
       <use xlink:href="#m919401f550" x="107.945108" y="113.885734" style="stroke: #000000; stroke-width: 0.5"/>
      </g>
     </g>
     <g id="line2d_158">
      <g>
       <use xlink:href="#m919401f550" x="475.11" y="113.885734" style="stroke: #000000; stroke-width: 0.5"/>
      </g>
     </g>
    </g>
    <g id="ytick_73">
     <g id="line2d_159">
      <g>
       <use xlink:href="#m919401f550" x="107.945108" y="111.16906" style="stroke: #000000; stroke-width: 0.5"/>
      </g>
     </g>
     <g id="line2d_160">
      <g>
       <use xlink:href="#m919401f550" x="475.11" y="111.16906" style="stroke: #000000; stroke-width: 0.5"/>
      </g>
     </g>
    </g>
    <g id="ytick_74">
     <g id="line2d_161">
      <g>
       <use xlink:href="#m919401f550" x="107.945108" y="108.81577" style="stroke: #000000; stroke-width: 0.5"/>
      </g>
     </g>
     <g id="line2d_162">
      <g>
       <use xlink:href="#m919401f550" x="475.11" y="108.81577" style="stroke: #000000; stroke-width: 0.5"/>
      </g>
     </g>
    </g>
    <g id="ytick_75">
     <g id="line2d_163">
      <g>
       <use xlink:href="#m919401f550" x="107.945108" y="106.740021" style="stroke: #000000; stroke-width: 0.5"/>
      </g>
     </g>
     <g id="line2d_164">
      <g>
       <use xlink:href="#m919401f550" x="475.11" y="106.740021" style="stroke: #000000; stroke-width: 0.5"/>
      </g>
     </g>
    </g>
    <g id="ytick_76">
     <g id="line2d_165">
      <g>
       <use xlink:href="#m919401f550" x="107.945108" y="92.667523" style="stroke: #000000; stroke-width: 0.5"/>
      </g>
     </g>
     <g id="line2d_166">
      <g>
       <use xlink:href="#m919401f550" x="475.11" y="92.667523" style="stroke: #000000; stroke-width: 0.5"/>
      </g>
     </g>
    </g>
    <g id="ytick_77">
     <g id="line2d_167">
      <g>
       <use xlink:href="#m919401f550" x="107.945108" y="85.52181" style="stroke: #000000; stroke-width: 0.5"/>
      </g>
     </g>
     <g id="line2d_168">
      <g>
       <use xlink:href="#m919401f550" x="475.11" y="85.52181" style="stroke: #000000; stroke-width: 0.5"/>
      </g>
     </g>
    </g>
    <g id="ytick_78">
     <g id="line2d_169">
      <g>
       <use xlink:href="#m919401f550" x="107.945108" y="80.451846" style="stroke: #000000; stroke-width: 0.5"/>
      </g>
     </g>
     <g id="line2d_170">
      <g>
       <use xlink:href="#m919401f550" x="475.11" y="80.451846" style="stroke: #000000; stroke-width: 0.5"/>
      </g>
     </g>
    </g>
    <g id="ytick_79">
     <g id="line2d_171">
      <g>
       <use xlink:href="#m919401f550" x="107.945108" y="76.519277" style="stroke: #000000; stroke-width: 0.5"/>
      </g>
     </g>
     <g id="line2d_172">
      <g>
       <use xlink:href="#m919401f550" x="475.11" y="76.519277" style="stroke: #000000; stroke-width: 0.5"/>
      </g>
     </g>
    </g>
    <g id="ytick_80">
     <g id="line2d_173">
      <g>
       <use xlink:href="#m919401f550" x="107.945108" y="73.306134" style="stroke: #000000; stroke-width: 0.5"/>
      </g>
     </g>
     <g id="line2d_174">
      <g>
       <use xlink:href="#m919401f550" x="475.11" y="73.306134" style="stroke: #000000; stroke-width: 0.5"/>
      </g>
     </g>
    </g>
    <g id="ytick_81">
     <g id="line2d_175">
      <g>
       <use xlink:href="#m919401f550" x="107.945108" y="70.58946" style="stroke: #000000; stroke-width: 0.5"/>
      </g>
     </g>
     <g id="line2d_176">
      <g>
       <use xlink:href="#m919401f550" x="475.11" y="70.58946" style="stroke: #000000; stroke-width: 0.5"/>
      </g>
     </g>
    </g>
    <g id="ytick_82">
     <g id="line2d_177">
      <g>
       <use xlink:href="#m919401f550" x="107.945108" y="68.23617" style="stroke: #000000; stroke-width: 0.5"/>
      </g>
     </g>
     <g id="line2d_178">
      <g>
       <use xlink:href="#m919401f550" x="475.11" y="68.23617" style="stroke: #000000; stroke-width: 0.5"/>
      </g>
     </g>
    </g>
    <g id="ytick_83">
     <g id="line2d_179">
      <g>
       <use xlink:href="#m919401f550" x="107.945108" y="66.160421" style="stroke: #000000; stroke-width: 0.5"/>
      </g>
     </g>
     <g id="line2d_180">
      <g>
       <use xlink:href="#m919401f550" x="475.11" y="66.160421" style="stroke: #000000; stroke-width: 0.5"/>
      </g>
     </g>
    </g>
    <g id="ytick_84">
     <g id="line2d_181">
      <g>
       <use xlink:href="#m919401f550" x="107.945108" y="52.087923" style="stroke: #000000; stroke-width: 0.5"/>
      </g>
     </g>
     <g id="line2d_182">
      <g>
       <use xlink:href="#m919401f550" x="475.11" y="52.087923" style="stroke: #000000; stroke-width: 0.5"/>
      </g>
     </g>
    </g>
    <g id="ytick_85">
     <g id="line2d_183">
      <g>
       <use xlink:href="#m919401f550" x="107.945108" y="44.94221" style="stroke: #000000; stroke-width: 0.5"/>
      </g>
     </g>
     <g id="line2d_184">
      <g>
       <use xlink:href="#m919401f550" x="475.11" y="44.94221" style="stroke: #000000; stroke-width: 0.5"/>
      </g>
     </g>
    </g>
    <g id="ytick_86">
     <g id="line2d_185">
      <g>
       <use xlink:href="#m919401f550" x="107.945108" y="39.872246" style="stroke: #000000; stroke-width: 0.5"/>
      </g>
     </g>
     <g id="line2d_186">
      <g>
       <use xlink:href="#m919401f550" x="475.11" y="39.872246" style="stroke: #000000; stroke-width: 0.5"/>
      </g>
     </g>
    </g>
    <g id="ytick_87">
     <g id="line2d_187">
      <g>
       <use xlink:href="#m919401f550" x="107.945108" y="35.939677" style="stroke: #000000; stroke-width: 0.5"/>
      </g>
     </g>
     <g id="line2d_188">
      <g>
       <use xlink:href="#m919401f550" x="475.11" y="35.939677" style="stroke: #000000; stroke-width: 0.5"/>
      </g>
     </g>
    </g>
    <g id="ytick_88">
     <g id="line2d_189">
      <g>
       <use xlink:href="#m919401f550" x="107.945108" y="32.726534" style="stroke: #000000; stroke-width: 0.5"/>
      </g>
     </g>
     <g id="line2d_190">
      <g>
       <use xlink:href="#m919401f550" x="475.11" y="32.726534" style="stroke: #000000; stroke-width: 0.5"/>
      </g>
     </g>
    </g>
    <g id="ytick_89">
     <g id="line2d_191">
      <g>
       <use xlink:href="#m919401f550" x="107.945108" y="30.00986" style="stroke: #000000; stroke-width: 0.5"/>
      </g>
     </g>
     <g id="line2d_192">
      <g>
       <use xlink:href="#m919401f550" x="475.11" y="30.00986" style="stroke: #000000; stroke-width: 0.5"/>
      </g>
     </g>
    </g>
    <g id="ytick_90">
     <g id="line2d_193">
      <g>
       <use xlink:href="#m919401f550" x="107.945108" y="27.65657" style="stroke: #000000; stroke-width: 0.5"/>
      </g>
     </g>
     <g id="line2d_194">
      <g>
       <use xlink:href="#m919401f550" x="475.11" y="27.65657" style="stroke: #000000; stroke-width: 0.5"/>
      </g>
     </g>
    </g>
    <g id="ytick_91">
     <g id="line2d_195">
      <g>
       <use xlink:href="#m919401f550" x="107.945108" y="25.580821" style="stroke: #000000; stroke-width: 0.5"/>
      </g>
     </g>
     <g id="line2d_196">
      <g>
       <use xlink:href="#m919401f550" x="475.11" y="25.580821" style="stroke: #000000; stroke-width: 0.5"/>
      </g>
     </g>
    </g>
    <g id="text_18">
     <!-- $(2\pi p_T)^{-1}dN_{DCC}/(dp_Td\eta_p)\ [GeV^{-2}]$ -->
     <g transform="translate(39.195108 425.872) rotate(-90) scale(0.25 -0.25)">
      <defs>
       <path id="DejaVuSans-28" d="M 1984 4856 
Q 1566 4138 1362 3434 
Q 1159 2731 1159 2009 
Q 1159 1288 1364 580 
Q 1569 -128 1984 -844 
L 1484 -844 
Q 1016 -109 783 600 
Q 550 1309 550 2009 
Q 550 2706 781 3412 
Q 1013 4119 1484 4856 
L 1984 4856 
z
" transform="scale(0.015625)"/>
       <path id="DejaVuSans-3c0" d="M 231 3500 
L 3584 3500 
L 3584 2925 
L 3144 2925 
L 3144 775 
Q 3144 550 3220 451 
Q 3297 353 3469 353 
Q 3516 353 3584 361 
Q 3653 369 3675 372 
L 3675 -44 
Q 3566 -84 3450 -103 
Q 3334 -122 3219 -122 
Q 2844 -122 2700 83 
Q 2556 288 2556 838 
L 2556 2925 
L 1266 2925 
L 1266 0 
L 678 0 
L 678 2925 
L 231 2925 
L 231 3500 
z
" transform="scale(0.015625)"/>
       <path id="DejaVuSans-29" d="M 513 4856 
L 1013 4856 
Q 1481 4119 1714 3412 
Q 1947 2706 1947 2009 
Q 1947 1309 1714 600 
Q 1481 -109 1013 -844 
L 513 -844 
Q 928 -128 1133 580 
Q 1338 1288 1338 2009 
Q 1338 2731 1133 3434 
Q 928 4138 513 4856 
z
" transform="scale(0.015625)"/>
       <path id="DejaVuSans-64" d="M 2906 2969 
L 2906 4863 
L 3481 4863 
L 3481 0 
L 2906 0 
L 2906 525 
Q 2725 213 2448 61 
Q 2172 -91 1784 -91 
Q 1150 -91 751 415 
Q 353 922 353 1747 
Q 353 2572 751 3078 
Q 1150 3584 1784 3584 
Q 2172 3584 2448 3432 
Q 2725 3281 2906 2969 
z
M 947 1747 
Q 947 1113 1208 752 
Q 1469 391 1925 391 
Q 2381 391 2643 752 
Q 2906 1113 2906 1747 
Q 2906 2381 2643 2742 
Q 2381 3103 1925 3103 
Q 1469 3103 1208 2742 
Q 947 2381 947 1747 
z
" transform="scale(0.015625)"/>
       <path id="DejaVuSans-4e" d="M 628 4666 
L 1478 4666 
L 3547 763 
L 3547 4666 
L 4159 4666 
L 4159 0 
L 3309 0 
L 1241 3903 
L 1241 0 
L 628 0 
L 628 4666 
z
" transform="scale(0.015625)"/>
       <path id="DejaVuSans-44" d="M 1259 4147 
L 1259 519 
L 2022 519 
Q 2988 519 3436 956 
Q 3884 1394 3884 2338 
Q 3884 3275 3436 3711 
Q 2988 4147 2022 4147 
L 1259 4147 
z
M 628 4666 
L 1925 4666 
Q 3281 4666 3915 4102 
Q 4550 3538 4550 2338 
Q 4550 1131 3912 565 
Q 3275 0 1925 0 
L 628 0 
L 628 4666 
z
" transform="scale(0.015625)"/>
       <path id="DejaVuSans-43" d="M 4122 4306 
L 4122 3641 
Q 3803 3938 3442 4084 
Q 3081 4231 2675 4231 
Q 1875 4231 1450 3742 
Q 1025 3253 1025 2328 
Q 1025 1406 1450 917 
Q 1875 428 2675 428 
Q 3081 428 3442 575 
Q 3803 722 4122 1019 
L 4122 359 
Q 3791 134 3420 21 
Q 3050 -91 2638 -91 
Q 1578 -91 968 557 
Q 359 1206 359 2328 
Q 359 3453 968 4101 
Q 1578 4750 2638 4750 
Q 3056 4750 3426 4639 
Q 3797 4528 4122 4306 
z
" transform="scale(0.015625)"/>
       <path id="DejaVuSans-2f" d="M 1625 4666 
L 2156 4666 
L 531 -594 
L 0 -594 
L 1625 4666 
z
" transform="scale(0.015625)"/>
       <path id="DejaVuSans-3b7" d="M 3513 2113 
L 3513 -1331 
L 2938 -1331 
L 2938 2094 
Q 2938 2591 2744 2837 
Q 2550 3084 2163 3084 
Q 1697 3084 1428 2787 
Q 1159 2491 1159 1978 
L 1159 0 
L 581 0 
L 581 3500 
L 1159 3500 
L 1159 2956 
Q 1366 3272 1644 3428 
Q 1925 3584 2291 3584 
Q 2894 3584 3203 3213 
Q 3513 2838 3513 2113 
z
" transform="scale(0.015625)"/>
      </defs>
      <use xlink:href="#DejaVuSans-28" transform="translate(0 0.765625)"/>
      <use xlink:href="#DejaVuSans-32" transform="translate(39.013672 0.765625)"/>
      <use xlink:href="#DejaVuSans-3c0" transform="translate(102.636719 0.765625)"/>
      <use xlink:href="#DejaVuSans-70" transform="translate(162.841797 0.765625)"/>
      <use xlink:href="#DejaVuSans-54" transform="translate(227.275391 -15.640625) scale(0.7)"/>
      <use xlink:href="#DejaVuSans-29" transform="translate(272.768555 0.765625)"/>
      <use xlink:href="#DejaVuSans-2212" transform="translate(312.739258 39.046875) scale(0.7)"/>
      <use xlink:href="#DejaVuSans-31" transform="translate(371.391602 39.046875) scale(0.7)"/>
      <use xlink:href="#DejaVuSans-64" transform="translate(418.662109 0.765625)"/>
      <use xlink:href="#DejaVuSans-4e" transform="translate(482.138672 0.765625)"/>
      <use xlink:href="#DejaVuSans-44" transform="translate(557.900391 -15.640625) scale(0.7)"/>
      <use xlink:href="#DejaVuSans-43" transform="translate(611.801758 -15.640625) scale(0.7)"/>
      <use xlink:href="#DejaVuSans-43" transform="translate(660.678711 -15.640625) scale(0.7)"/>
      <use xlink:href="#DejaVuSans-2f" transform="translate(712.290039 0.765625)"/>
      <use xlink:href="#DejaVuSans-28" transform="translate(745.981445 0.765625)"/>
      <use xlink:href="#DejaVuSans-64" transform="translate(784.995117 0.765625)"/>
      <use xlink:href="#DejaVuSans-70" transform="translate(848.47168 0.765625)"/>
      <use xlink:href="#DejaVuSans-54" transform="translate(912.905273 -15.640625) scale(0.7)"/>
      <use xlink:href="#DejaVuSans-64" transform="translate(958.398438 0.765625)"/>
      <use xlink:href="#DejaVuSans-3b7" transform="translate(1021.875 0.765625)"/>
      <use xlink:href="#DejaVuSans-70" transform="translate(1086.210938 -15.640625) scale(0.7)"/>
      <use xlink:href="#DejaVuSans-29" transform="translate(1133.378906 0.765625)"/>
      <use xlink:href="#DejaVuSans-5b" transform="translate(1201.656608 0.765625)"/>
      <use xlink:href="#DejaVuSans-47" transform="translate(1240.67028 0.765625)"/>
      <use xlink:href="#DejaVuSans-65" transform="translate(1318.160515 0.765625)"/>
      <use xlink:href="#DejaVuSans-56" transform="translate(1379.683952 0.765625)"/>
      <use xlink:href="#DejaVuSans-2212" transform="translate(1449.049187 39.046875) scale(0.7)"/>
      <use xlink:href="#DejaVuSans-32" transform="translate(1507.70153 39.046875) scale(0.7)"/>
      <use xlink:href="#DejaVuSans-5d" transform="translate(1554.972038 0.765625)"/>
     </g>
    </g>
   </g>
   <g id="legend_1">
    <g id="patch_7">
     <path d="M 244.91 157.149 
L 461.11 157.149 
Q 465.11 157.149 465.11 153.149 
L 465.11 37.724 
Q 465.11 33.724 461.11 33.724 
L 244.91 33.724 
Q 240.91 33.724 240.91 37.724 
L 240.91 153.149 
Q 240.91 157.149 244.91 157.149 
z
" style="fill: #ffffff; opacity: 0.85; stroke: #000000; stroke-linejoin: miter"/>
    </g>
    <g id="line2d_197">
     <path d="M 254.91 49.920875 
L 282.91 49.920875 
" style="fill: none; stroke: #ff0000; stroke-width: 2; stroke-linecap: square"/>
    </g>
    <g id="text_19">
     <!-- Type A -->
     <g transform="translate(304.91 56.920875) scale(0.2 -0.2)">
      <defs>
       <path id="DejaVuSans-79" d="M 2059 -325 
Q 1816 -950 1584 -1140 
Q 1353 -1331 966 -1331 
L 506 -1331 
L 506 -850 
L 844 -850 
Q 1081 -850 1212 -737 
Q 1344 -625 1503 -206 
L 1606 56 
L 191 3500 
L 800 3500 
L 1894 763 
L 2988 3500 
L 3597 3500 
L 2059 -325 
z
" transform="scale(0.015625)"/>
       <path id="DejaVuSans-20" transform="scale(0.015625)"/>
       <path id="DejaVuSans-41" d="M 2188 4044 
L 1331 1722 
L 3047 1722 
L 2188 4044 
z
M 1831 4666 
L 2547 4666 
L 4325 0 
L 3669 0 
L 3244 1197 
L 1141 1197 
L 716 0 
L 50 0 
L 1831 4666 
z
" transform="scale(0.015625)"/>
      </defs>
      <use xlink:href="#DejaVuSans-54"/>
      <use xlink:href="#DejaVuSans-79" x="45.458984"/>
      <use xlink:href="#DejaVuSans-70" x="104.638672"/>
      <use xlink:href="#DejaVuSans-65" x="168.115234"/>
      <use xlink:href="#DejaVuSans-20" x="229.638672"/>
      <use xlink:href="#DejaVuSans-41" x="261.425781"/>
     </g>
    </g>
    <g id="line2d_198">
     <path d="M 254.91 79.277125 
L 282.91 79.277125 
" style="fill: none; stroke: #0000ff; stroke-width: 2; stroke-linecap: square"/>
    </g>
    <g id="text_20">
     <!-- Type B -->
     <g transform="translate(304.91 86.277125) scale(0.2 -0.2)">
      <defs>
       <path id="DejaVuSans-42" d="M 1259 2228 
L 1259 519 
L 2272 519 
Q 2781 519 3026 730 
Q 3272 941 3272 1375 
Q 3272 1813 3026 2020 
Q 2781 2228 2272 2228 
L 1259 2228 
z
M 1259 4147 
L 1259 2741 
L 2194 2741 
Q 2656 2741 2882 2914 
Q 3109 3088 3109 3444 
Q 3109 3797 2882 3972 
Q 2656 4147 2194 4147 
L 1259 4147 
z
M 628 4666 
L 2241 4666 
Q 2963 4666 3353 4366 
Q 3744 4066 3744 3513 
Q 3744 3084 3544 2831 
Q 3344 2578 2956 2516 
Q 3422 2416 3680 2098 
Q 3938 1781 3938 1306 
Q 3938 681 3513 340 
Q 3088 0 2303 0 
L 628 0 
L 628 4666 
z
" transform="scale(0.015625)"/>
      </defs>
      <use xlink:href="#DejaVuSans-54"/>
      <use xlink:href="#DejaVuSans-79" x="45.458984"/>
      <use xlink:href="#DejaVuSans-70" x="104.638672"/>
      <use xlink:href="#DejaVuSans-65" x="168.115234"/>
      <use xlink:href="#DejaVuSans-20" x="229.638672"/>
      <use xlink:href="#DejaVuSans-42" x="261.425781"/>
     </g>
    </g>
    <g id="line2d_199">
     <path d="M 254.91 108.633375 
L 282.91 108.633375 
" style="fill: none; stroke: #008000; stroke-width: 2; stroke-linecap: square"/>
    </g>
    <g id="text_21">
     <!-- Type C -->
     <g transform="translate(304.91 115.633375) scale(0.2 -0.2)">
      <use xlink:href="#DejaVuSans-54"/>
      <use xlink:href="#DejaVuSans-79" x="45.458984"/>
      <use xlink:href="#DejaVuSans-70" x="104.638672"/>
      <use xlink:href="#DejaVuSans-65" x="168.115234"/>
      <use xlink:href="#DejaVuSans-20" x="229.638672"/>
      <use xlink:href="#DejaVuSans-43" x="261.425781"/>
     </g>
    </g>
    <g id="line2d_200">
     <path d="M 254.91 137.989625 
L 282.91 137.989625 
" style="fill: none; stroke: #000000; stroke-width: 2; stroke-linecap: square"/>
    </g>
    <g id="text_22">
     <!-- ALICE$-$FluiduM -->
     <g transform="translate(304.91 144.989625) scale(0.2 -0.2)">
      <defs>
       <path id="DejaVuSans-4c" d="M 628 4666 
L 1259 4666 
L 1259 531 
L 3531 531 
L 3531 0 
L 628 0 
L 628 4666 
z
" transform="scale(0.015625)"/>
       <path id="DejaVuSans-49" d="M 628 4666 
L 1259 4666 
L 1259 0 
L 628 0 
L 628 4666 
z
" transform="scale(0.015625)"/>
       <path id="DejaVuSans-45" d="M 628 4666 
L 3578 4666 
L 3578 4134 
L 1259 4134 
L 1259 2753 
L 3481 2753 
L 3481 2222 
L 1259 2222 
L 1259 531 
L 3634 531 
L 3634 0 
L 628 0 
L 628 4666 
z
" transform="scale(0.015625)"/>
       <path id="DejaVuSans-46" d="M 628 4666 
L 3309 4666 
L 3309 4134 
L 1259 4134 
L 1259 2759 
L 3109 2759 
L 3109 2228 
L 1259 2228 
L 1259 0 
L 628 0 
L 628 4666 
z
" transform="scale(0.015625)"/>
       <path id="DejaVuSans-6c" d="M 603 4863 
L 1178 4863 
L 1178 0 
L 603 0 
L 603 4863 
z
" transform="scale(0.015625)"/>
       <path id="DejaVuSans-75" d="M 544 1381 
L 544 3500 
L 1119 3500 
L 1119 1403 
Q 1119 906 1312 657 
Q 1506 409 1894 409 
Q 2359 409 2629 706 
Q 2900 1003 2900 1516 
L 2900 3500 
L 3475 3500 
L 3475 0 
L 2900 0 
L 2900 538 
Q 2691 219 2414 64 
Q 2138 -91 1772 -91 
Q 1169 -91 856 284 
Q 544 659 544 1381 
z
M 1991 3584 
L 1991 3584 
z
" transform="scale(0.015625)"/>
       <path id="DejaVuSans-69" d="M 603 3500 
L 1178 3500 
L 1178 0 
L 603 0 
L 603 3500 
z
M 603 4863 
L 1178 4863 
L 1178 4134 
L 603 4134 
L 603 4863 
z
" transform="scale(0.015625)"/>
       <path id="DejaVuSans-4d" d="M 628 4666 
L 1569 4666 
L 2759 1491 
L 3956 4666 
L 4897 4666 
L 4897 0 
L 4281 0 
L 4281 4097 
L 3078 897 
L 2444 897 
L 1241 4097 
L 1241 0 
L 628 0 
L 628 4666 
z
" transform="scale(0.015625)"/>
      </defs>
      <use xlink:href="#DejaVuSans-41" transform="translate(0 0.015625)"/>
      <use xlink:href="#DejaVuSans-4c" transform="translate(68.408203 0.015625)"/>
      <use xlink:href="#DejaVuSans-49" transform="translate(124.121094 0.015625)"/>
      <use xlink:href="#DejaVuSans-43" transform="translate(153.613281 0.015625)"/>
      <use xlink:href="#DejaVuSans-45" transform="translate(223.4375 0.015625)"/>
      <use xlink:href="#DejaVuSans-2212" transform="translate(286.621094 0.015625)"/>
      <use xlink:href="#DejaVuSans-46" transform="translate(370.410156 0.015625)"/>
      <use xlink:href="#DejaVuSans-6c" transform="translate(427.929688 0.015625)"/>
      <use xlink:href="#DejaVuSans-75" transform="translate(455.712891 0.015625)"/>
      <use xlink:href="#DejaVuSans-69" transform="translate(519.091797 0.015625)"/>
      <use xlink:href="#DejaVuSans-64" transform="translate(546.875 0.015625)"/>
      <use xlink:href="#DejaVuSans-75" transform="translate(610.351562 0.015625)"/>
      <use xlink:href="#DejaVuSans-4d" transform="translate(673.730469 0.015625)"/>
     </g>
    </g>
   </g>
  </g>
 </g>
 <defs>
  <clipPath id="p5f7c120ab9">
   <rect x="107.945108" y="23.724" width="367.164892" height="405.796"/>
  </clipPath>
 </defs>
</svg>
