<?xml version="1.0" encoding="utf-8" standalone="no"?>
<!DOCTYPE svg PUBLIC "-//W3C//DTD SVG 1.1//EN"
  "http://www.w3.org/Graphics/SVG/1.1/DTD/svg11.dtd">
<svg xmlns:xlink="http://www.w3.org/1999/xlink" width="504pt" height="504pt" viewBox="0 0 504 504" xmlns="http://www.w3.org/2000/svg" version="1.1">
 <metadata>
  <rdf:RDF xmlns:dc="http://purl.org/dc/elements/1.1/" xmlns:cc="http://creativecommons.org/ns#" xmlns:rdf="http://www.w3.org/1999/02/22-rdf-syntax-ns#">
   <cc:Work>
    <dc:type rdf:resource="http://purl.org/dc/dcmitype/StillImage"/>
    <dc:date>2025-01-24T11:32:11.598912</dc:date>
    <dc:format>image/svg+xml</dc:format>
    <dc:creator>
     <cc:Agent>
      <dc:title>Matplotlib v3.9.2, https://matplotlib.org/</dc:title>
     </cc:Agent>
    </dc:creator>
   </cc:Work>
  </rdf:RDF>
 </metadata>
 <defs>
  <style type="text/css">*{stroke-linejoin: round; stroke-linecap: butt}</style>
 </defs>
 <g id="figure_1">
  <g id="patch_1">
   <path d="M 0 504 
L 504 504 
L 504 0 
L 0 0 
z
" style="fill: #ffffff"/>
  </g>
  <g id="axes_1">
   <g id="patch_2">
    <path d="M 110.006985 429.52 
L 475.11 429.52 
L 475.11 23.724 
L 110.006985 23.724 
z
" style="fill: #ffffff"/>
   </g>
   <g id="PolyCollection_1">
    <path d="M 110.006985 57.281825 
L 110.006985 208.449085 
L 115.248978 208.998449 
L 120.490918 209.849871 
L 125.732911 210.979276 
L 130.974851 212.364012 
L 136.216844 213.982875 
L 141.458784 215.815925 
L 146.700777 217.844552 
L 151.942718 220.051272 
L 157.18471 222.41982 
L 162.426911 224.935054 
L 167.668748 227.582492 
L 172.910584 230.349079 
L 178.15242 233.222512 
L 183.394778 236.191657 
L 188.636614 239.245318 
L 193.87845 242.373958 
L 199.120286 245.568489 
L 204.362644 248.820843 
L 209.60448 252.122633 
L 214.846316 255.467062 
L 220.088152 258.847589 
L 225.33051 262.258564 
L 230.572346 265.69383 
L 235.814182 269.148729 
L 241.056018 272.618718 
L 246.298376 276.100022 
L 251.540212 279.588224 
L 256.782048 283.080314 
L 262.023884 286.573282 
L 267.266242 290.064786 
L 272.508078 293.551739 
L 277.749914 297.032377 
L 282.99175 300.504842 
L 288.234108 303.967861 
L 293.475944 307.419345 
L 298.71778 310.858444 
L 303.959617 314.284148 
L 309.201974 317.695955 
L 314.44381 321.092504 
L 319.685647 324.473596 
L 324.927483 327.83882 
L 330.16984 331.188215 
L 335.411677 334.52093 
L 340.653513 337.837207 
L 345.895349 341.13704 
L 351.137707 344.420828 
L 356.379543 347.688056 
L 361.621379 350.939248 
L 366.863215 354.174655 
L 372.105573 357.39489 
L 377.347409 360.599647 
L 382.589245 363.78961 
L 387.831081 366.965171 
L 393.073439 370.127057 
L 398.315275 373.275068 
L 403.557111 376.40996 
L 408.798947 379.532185 
L 414.041305 382.642504 
L 419.283141 385.740757 
L 424.524977 388.827708 
L 429.766813 391.903808 
L 435.009171 394.969805 
L 440.251007 398.025527 
L 445.492843 401.071704 
L 450.73468 404.10875 
L 455.977037 407.137367 
L 461.218873 410.157338 
L 466.46071 413.169336 
L 471.702546 416.173716 
L 476.944903 419.171113 
L 482.18674 422.161252 
L 487.428576 425.144734 
L 492.670412 428.121845 
L 497.91277 431.093149 
L 503.154606 434.058303 
L 508.396442 437.017835 
L 513.638278 439.971962 
L 518.880636 442.921174 
L 524.122472 445.865066 
L 529.364308 448.804096 
L 534.606144 451.738414 
L 539.848502 454.668446 
L 545.090338 457.59373 
L 550.332174 460.514663 
L 555.57401 463.431339 
L 560.816368 466.344129 
L 566.058204 469.252522 
L 571.30004 472.156867 
L 576.541876 475.057213 
L 581.784234 477.953888 
L 587.02607 480.846345 
L 592.267906 483.734897 
L 597.509743 486.619559 
L 602.7521 489.500628 
L 607.993936 492.377536 
L 613.235773 495.250568 
L 618.477609 498.119722 
L 623.719966 500.985273 
L 628.961803 503.846643 
L 634.206247 506.705525 
L 639.448083 509.559063 
L 644.689919 512.408664 
L 649.931755 515.254315 
L 655.173591 518.096 
L 660.415427 520.933708 
L 665.657263 523.767427 
L 670.8991 526.597145 
L 676.140936 529.422855 
L 681.382772 532.244551 
L 686.624608 535.062231 
L 691.866444 537.875895 
L 697.10828 540.685547 
L 702.350116 543.491194 
L 707.591953 546.292848 
L 712.833789 549.090524 
L 718.075625 551.884242 
L 723.317461 554.674025 
L 728.559297 557.459903 
L 733.801133 560.241906 
L 739.042969 563.020072 
L 744.284806 565.794444 
L 749.526642 568.565065 
L 754.768478 571.331987 
L 760.010314 574.095263 
L 765.25215 576.854952 
L 770.493986 579.611116 
L 775.735822 582.363821 
L 780.977658 585.113137 
L 786.219495 587.859137 
L 791.461331 590.601896 
L 796.703167 593.341496 
L 801.945003 596.078016 
L 807.186839 598.811542 
L 812.428675 601.542161 
L 817.670511 604.269962 
L 822.912348 606.995033 
L 828.154184 609.717468 
L 833.39602 612.437359 
L 838.637856 615.154799 
L 843.884908 617.872583 
L 849.126744 620.585402 
L 854.36858 623.296052 
L 859.610416 626.004628 
L 864.852252 628.71122 
L 870.094089 631.415923 
L 875.335925 634.118824 
L 880.577761 636.820014 
L 885.819597 639.519578 
L 891.061433 642.217602 
L 896.303269 644.914167 
L 901.545105 647.609353 
L 906.786942 650.303235 
L 912.028778 652.995888 
L 917.270614 655.68738 
L 922.51245 658.377778 
L 927.754286 661.067144 
L 932.996122 663.755536 
L 938.237958 666.443009 
L 943.479795 669.129612 
L 948.721631 671.815392 
L 953.963467 674.500388 
L 959.205303 677.184639 
L 964.447139 679.868175 
L 969.688975 682.551024 
L 974.930811 685.233208 
L 980.172648 687.914746 
L 985.414484 690.595649 
L 990.65632 693.275927 
L 995.898156 695.955584 
L 1001.139992 698.634619 
L 1006.381828 701.313026 
L 1011.623664 703.990796 
L 1016.865501 706.667915 
L 1022.107337 709.344365 
L 1027.349173 712.020125 
L 1032.591009 714.695168 
L 1037.832845 717.369467 
L 1043.074681 720.042988 
L 1048.316517 722.715695 
L 1053.563569 725.390209 
L 1058.805405 728.061172 
L 1064.047242 730.731198 
L 1069.289078 733.400243 
L 1074.530914 736.068259 
L 1079.77275 738.735197 
L 1085.014586 741.401008 
L 1090.256422 744.06564 
L 1095.498258 746.729043 
L 1100.740095 749.391165 
L 1105.981931 752.051955 
L 1111.223767 754.711362 
L 1116.465603 757.369335 
L 1121.707439 760.025826 
L 1126.949275 762.680788 
L 1132.191111 765.334174 
L 1137.432948 767.985942 
L 1142.674784 770.63605 
L 1147.91662 773.28446 
L 1153.158456 775.931138 
L 1153.158456 773.605056 
L 1153.158456 773.605056 
L 1147.91662 771.2214 
L 1142.674784 769.760847 
L 1137.432948 767.812795 
L 1132.191111 764.890354 
L 1126.949275 761.94708 
L 1121.707439 759.662501 
L 1116.465603 757.361956 
L 1111.223767 754.196909 
L 1105.981931 750.645355 
L 1100.740095 747.845293 
L 1095.498258 745.852801 
L 1090.256422 743.542546 
L 1085.014586 740.320394 
L 1079.77275 737.046599 
L 1074.530914 734.705373 
L 1069.289078 732.956418 
L 1064.047242 730.685844 
L 1058.805405 727.664805 
L 1053.563569 724.749661 
L 1048.316517 722.383765 
L 1043.074681 719.888698 
L 1037.832845 716.607843 
L 1032.591009 713.096941 
L 1027.349173 710.375835 
L 1022.107337 708.437738 
L 1016.865501 706.267687 
L 1011.623664 703.332098 
L 1006.381828 700.301664 
L 1001.139992 697.909976 
L 995.898156 695.814232 
L 990.65632 693.167877 
L 985.414484 689.965874 
L 980.172648 687.021769 
L 974.930811 684.648931 
L 969.688975 682.168895 
L 964.447139 679.004013 
L 959.205303 675.660495 
L 953.963467 673.01928 
L 948.721631 671.051132 
L 943.479795 668.874756 
L 938.237958 666.039852 
L 932.996122 663.099277 
L 927.754286 660.623025 
L 922.51245 658.282107 
L 917.270614 655.405633 
L 912.028778 652.103536 
L 906.786942 649.146101 
L 901.545105 646.794612 
L 896.303269 644.415468 
L 891.061433 641.45867 
L 885.819597 638.315072 
L 880.577761 635.7106 
L 875.335925 633.606272 
L 870.094089 631.264994 
L 864.852252 628.351127 
L 859.610416 625.374474 
L 854.36858 622.811606 
L 849.126744 620.341368 
L 843.884908 617.377503 
L 838.637856 614.055072 
L 833.39602 611.103416 
L 828.154184 608.769814 
L 822.912348 606.472235 
L 817.670511 603.664712 
L 812.428675 600.631678 
L 807.186839 597.991889 
L 801.945003 595.721492 
L 796.703167 593.192966 
L 791.461331 590.14364 
L 786.219495 587.066946 
L 780.977658 584.41819 
L 775.735822 581.907299 
L 770.493986 578.967638 
L 765.25215 575.68405 
L 760.010314 572.721856 
L 754.768478 570.353847 
L 749.526642 568.062431 
L 744.284806 565.294848 
L 739.042969 562.249891 
L 733.801133 559.501098 
L 728.559297 557.07673 
L 723.317461 554.415215 
L 718.075625 551.247287 
L 712.833789 548.038183 
L 707.591953 545.290422 
L 702.350116 542.797252 
L 697.10828 539.971627 
L 691.866444 536.759508 
L 686.624608 533.74084 
L 681.382772 531.260834 
L 676.140936 528.914191 
L 670.8991 526.134063 
L 665.657263 523.009136 
L 660.415427 520.090632 
L 655.173591 517.51358 
L 649.931755 514.789618 
L 644.689919 511.575849 
L 639.448083 508.24477 
L 634.206247 505.359203 
L 628.961803 502.854543 
L 623.719966 500.150043 
L 618.477609 497.012729 
L 613.235773 493.90299 
L 607.993936 491.261828 
L 602.7521 488.840287 
L 597.509743 486.052606 
L 592.267906 482.83471 
L 587.02607 479.711726 
L 581.784234 476.983241 
L 576.541876 474.272509 
L 571.30004 471.110508 
L 566.058204 467.68481 
L 560.816368 464.605728 
L 555.57401 462.030332 
L 550.332174 459.438617 
L 545.090338 456.383529 
L 539.848502 453.136095 
L 534.606144 450.255133 
L 529.364308 447.737994 
L 524.122472 445.000007 
L 518.880636 441.721752 
L 513.638278 438.322425 
L 508.396442 435.340717 
L 503.154606 432.64991 
L 497.91277 429.65125 
L 492.670412 426.174948 
L 487.428576 422.77227 
L 482.18674 419.94326 
L 476.944903 417.428127 
L 471.702546 414.557649 
L 466.46071 411.192335 
L 461.218873 407.899487 
L 455.977037 405.106434 
L 450.73468 402.461934 
L 445.492843 399.312001 
L 440.251007 395.639479 
L 435.009171 392.110164 
L 429.766813 389.140754 
L 424.524977 386.323873 
L 419.283141 383.000277 
L 414.041305 379.215646 
L 408.798947 375.693415 
L 403.557111 372.848498 
L 398.315275 370.208295 
L 393.073439 367.022321 
L 387.831081 363.272379 
L 382.589245 359.682847 
L 377.347409 356.700954 
L 372.105573 353.861564 
L 366.863215 350.375905 
L 361.621379 346.207317 
L 356.379543 342.151069 
L 351.137707 338.791498 
L 345.895349 335.743662 
L 340.653513 332.143703 
L 335.411677 327.798273 
L 330.16984 323.485095 
L 324.927483 319.97204 
L 319.685647 317.05105 
L 314.44381 313.754305 
L 309.201974 309.531863 
L 303.959617 304.949682 
L 298.71778 300.96963 
L 293.475944 297.752708 
L 288.234108 294.421327 
L 282.99175 290.05537 
L 277.749914 284.816809 
L 272.508078 279.774481 
L 267.266242 275.663076 
L 262.023884 272.062071 
L 256.782048 267.834119 
L 251.540212 262.391752 
L 246.298376 256.407767 
L 241.056018 251.084361 
L 235.814182 246.90731 
L 230.572346 243.15186 
L 225.33051 238.542148 
L 220.088152 232.502173 
L 214.846316 225.751276 
L 209.60448 219.583737 
L 204.362644 214.726855 
L 199.120286 210.835067 
L 193.87845 206.867345 
L 188.636614 202.01183 
L 183.394778 196.396262 
L 178.15242 190.888053 
L 172.910584 186.186746 
L 167.668748 181.991328 
L 162.426911 176.764587 
L 157.18471 168.383061 
L 151.942718 155.571166 
L 146.700777 138.959859 
L 141.458784 120.615381 
L 136.216844 102.75439 
L 130.974851 86.977758 
L 125.732911 74.202989 
L 120.490918 64.883626 
L 115.248978 59.218204 
L 110.006985 57.281825 
z
" clip-path="url(#pd66177d1f1)" style="fill: #ff0000; fill-opacity: 0.2; stroke: #ff0000; stroke-width: 2"/>
   </g>
   <g id="line2d_1">
    <path d="M 110.006985 208.449085 
L 115.248978 208.998449 
L 120.490918 209.849871 
L 125.732911 210.979276 
L 130.974851 212.364012 
L 136.216844 213.982875 
L 141.458784 215.815925 
L 146.700777 217.844552 
L 151.942718 220.051272 
L 157.18471 222.41982 
L 162.426911 224.935054 
L 172.910584 230.349079 
L 183.394778 236.191657 
L 193.87845 242.373958 
L 204.362644 248.820843 
L 220.088152 258.847589 
L 241.056018 272.618718 
L 303.959617 314.284148 
L 324.927483 327.83882 
L 345.895349 341.13704 
L 366.863215 354.174655 
L 387.831081 366.965171 
L 408.798947 379.532185 
L 435.009171 394.969805 
L 461.218873 410.157338 
L 492.670412 428.121845 
L 505 435.100209 
L 505 435.100209 
" clip-path="url(#pd66177d1f1)" style="fill: none; stroke: #0000ff; stroke-width: 2; stroke-linecap: square"/>
   </g>
   <g id="LineCollection_1">
    <path d="M 167.380316 193.847714 
L 167.380316 169.494673 
" clip-path="url(#pd66177d1f1)" style="fill: none; stroke: #0000ff; stroke-width: 2"/>
    <path d="M 177.811831 200.601423 
L 177.811831 178.323256 
" clip-path="url(#pd66177d1f1)" style="fill: none; stroke: #0000ff; stroke-width: 2"/>
    <path d="M 188.243346 209.694273 
L 188.243346 187.655668 
" clip-path="url(#pd66177d1f1)" style="fill: none; stroke: #0000ff; stroke-width: 2"/>
    <path d="M 198.67486 219.028684 
L 198.67486 197.090597 
" clip-path="url(#pd66177d1f1)" style="fill: none; stroke: #0000ff; stroke-width: 2"/>
    <path d="M 209.106375 227.039035 
L 209.106375 205.206815 
" clip-path="url(#pd66177d1f1)" style="fill: none; stroke: #0000ff; stroke-width: 2"/>
    <path d="M 227.361526 241.670098 
L 227.361526 228.756247 
" clip-path="url(#pd66177d1f1)" style="fill: none; stroke: #0000ff; stroke-width: 2"/>
    <path d="M 253.440312 264.488269 
L 253.440312 251.330693 
" clip-path="url(#pd66177d1f1)" style="fill: none; stroke: #0000ff; stroke-width: 2"/>
    <path d="M 279.519099 285.673225 
L 279.519099 272.075041 
" clip-path="url(#pd66177d1f1)" style="fill: none; stroke: #0000ff; stroke-width: 2"/>
    <path d="M 305.597886 305.285439 
L 305.597886 292.590353 
" clip-path="url(#pd66177d1f1)" style="fill: none; stroke: #0000ff; stroke-width: 2"/>
    <path d="M 331.676673 324.41173 
L 331.676673 312.120515 
" clip-path="url(#pd66177d1f1)" style="fill: none; stroke: #0000ff; stroke-width: 2"/>
    <path d="M 357.75546 343.474739 
L 357.75546 331.337189 
" clip-path="url(#pd66177d1f1)" style="fill: none; stroke: #0000ff; stroke-width: 2"/>
    <path d="M 383.834246 360.160007 
L 383.834246 351.093517 
" clip-path="url(#pd66177d1f1)" style="fill: none; stroke: #0000ff; stroke-width: 2"/>
    <path d="M 409.913033 377.307138 
L 409.913033 368.525515 
" clip-path="url(#pd66177d1f1)" style="fill: none; stroke: #0000ff; stroke-width: 2"/>
    <path d="M 435.99182 394.122365 
L 435.99182 384.861533 
" clip-path="url(#pd66177d1f1)" style="fill: none; stroke: #0000ff; stroke-width: 2"/>
    <path d="M 462.070607 410.346705 
L 462.070607 400.866799 
" clip-path="url(#pd66177d1f1)" style="fill: none; stroke: #0000ff; stroke-width: 2"/>
    <path d="M 488.149393 426.699812 
L 488.149393 417.272749 
" clip-path="url(#pd66177d1f1)" style="fill: none; stroke: #0000ff; stroke-width: 2"/>
    <path clip-path="url(#pd66177d1f1)" style="fill: none; stroke: #0000ff; stroke-width: 2"/>
    <path clip-path="url(#pd66177d1f1)" style="fill: none; stroke: #0000ff; stroke-width: 2"/>
    <path clip-path="url(#pd66177d1f1)" style="fill: none; stroke: #0000ff; stroke-width: 2"/>
    <path clip-path="url(#pd66177d1f1)" style="fill: none; stroke: #0000ff; stroke-width: 2"/>
    <path clip-path="url(#pd66177d1f1)" style="fill: none; stroke: #0000ff; stroke-width: 2"/>
    <path clip-path="url(#pd66177d1f1)" style="fill: none; stroke: #0000ff; stroke-width: 2"/>
    <path clip-path="url(#pd66177d1f1)" style="fill: none; stroke: #0000ff; stroke-width: 2"/>
    <path clip-path="url(#pd66177d1f1)" style="fill: none; stroke: #0000ff; stroke-width: 2"/>
    <path clip-path="url(#pd66177d1f1)" style="fill: none; stroke: #0000ff; stroke-width: 2"/>
    <path clip-path="url(#pd66177d1f1)" style="fill: none; stroke: #0000ff; stroke-width: 2"/>
    <path clip-path="url(#pd66177d1f1)" style="fill: none; stroke: #0000ff; stroke-width: 2"/>
    <path clip-path="url(#pd66177d1f1)" style="fill: none; stroke: #0000ff; stroke-width: 2"/>
    <path clip-path="url(#pd66177d1f1)" style="fill: none; stroke: #0000ff; stroke-width: 2"/>
    <path clip-path="url(#pd66177d1f1)" style="fill: none; stroke: #0000ff; stroke-width: 2"/>
    <path clip-path="url(#pd66177d1f1)" style="fill: none; stroke: #0000ff; stroke-width: 2"/>
    <path clip-path="url(#pd66177d1f1)" style="fill: none; stroke: #0000ff; stroke-width: 2"/>
    <path clip-path="url(#pd66177d1f1)" style="fill: none; stroke: #0000ff; stroke-width: 2"/>
    <path clip-path="url(#pd66177d1f1)" style="fill: none; stroke: #0000ff; stroke-width: 2"/>
    <path clip-path="url(#pd66177d1f1)" style="fill: none; stroke: #0000ff; stroke-width: 2"/>
    <path clip-path="url(#pd66177d1f1)" style="fill: none; stroke: #0000ff; stroke-width: 2"/>
    <path clip-path="url(#pd66177d1f1)" style="fill: none; stroke: #0000ff; stroke-width: 2"/>
    <path clip-path="url(#pd66177d1f1)" style="fill: none; stroke: #0000ff; stroke-width: 2"/>
    <path clip-path="url(#pd66177d1f1)" style="fill: none; stroke: #0000ff; stroke-width: 2"/>
    <path clip-path="url(#pd66177d1f1)" style="fill: none; stroke: #0000ff; stroke-width: 2"/>
    <path clip-path="url(#pd66177d1f1)" style="fill: none; stroke: #0000ff; stroke-width: 2"/>
   </g>
   <g id="line2d_2">
    <defs>
     <path id="m4b61e2090d" d="M 2.5 0 
L -2.5 -0 
" style="stroke: #0000ff; stroke-width: 0.5"/>
    </defs>
    <g clip-path="url(#pd66177d1f1)">
     <use xlink:href="#m4b61e2090d" x="167.380316" y="193.847714" style="fill: #0000ff; stroke: #0000ff; stroke-width: 0.5"/>
     <use xlink:href="#m4b61e2090d" x="177.811831" y="200.601423" style="fill: #0000ff; stroke: #0000ff; stroke-width: 0.5"/>
     <use xlink:href="#m4b61e2090d" x="188.243346" y="209.694273" style="fill: #0000ff; stroke: #0000ff; stroke-width: 0.5"/>
     <use xlink:href="#m4b61e2090d" x="198.67486" y="219.028684" style="fill: #0000ff; stroke: #0000ff; stroke-width: 0.5"/>
     <use xlink:href="#m4b61e2090d" x="209.106375" y="227.039035" style="fill: #0000ff; stroke: #0000ff; stroke-width: 0.5"/>
     <use xlink:href="#m4b61e2090d" x="227.361526" y="241.670098" style="fill: #0000ff; stroke: #0000ff; stroke-width: 0.5"/>
     <use xlink:href="#m4b61e2090d" x="253.440312" y="264.488269" style="fill: #0000ff; stroke: #0000ff; stroke-width: 0.5"/>
     <use xlink:href="#m4b61e2090d" x="279.519099" y="285.673225" style="fill: #0000ff; stroke: #0000ff; stroke-width: 0.5"/>
     <use xlink:href="#m4b61e2090d" x="305.597886" y="305.285439" style="fill: #0000ff; stroke: #0000ff; stroke-width: 0.5"/>
     <use xlink:href="#m4b61e2090d" x="331.676673" y="324.41173" style="fill: #0000ff; stroke: #0000ff; stroke-width: 0.5"/>
     <use xlink:href="#m4b61e2090d" x="357.75546" y="343.474739" style="fill: #0000ff; stroke: #0000ff; stroke-width: 0.5"/>
     <use xlink:href="#m4b61e2090d" x="383.834246" y="360.160007" style="fill: #0000ff; stroke: #0000ff; stroke-width: 0.5"/>
     <use xlink:href="#m4b61e2090d" x="409.913033" y="377.307138" style="fill: #0000ff; stroke: #0000ff; stroke-width: 0.5"/>
     <use xlink:href="#m4b61e2090d" x="435.99182" y="394.122365" style="fill: #0000ff; stroke: #0000ff; stroke-width: 0.5"/>
     <use xlink:href="#m4b61e2090d" x="462.070607" y="410.346705" style="fill: #0000ff; stroke: #0000ff; stroke-width: 0.5"/>
     <use xlink:href="#m4b61e2090d" x="488.149393" y="426.699812" style="fill: #0000ff; stroke: #0000ff; stroke-width: 0.5"/>
     <use xlink:href="#m4b61e2090d" x="514.22818" y="442.049459" style="fill: #0000ff; stroke: #0000ff; stroke-width: 0.5"/>
     <use xlink:href="#m4b61e2090d" x="540.306967" y="457.670764" style="fill: #0000ff; stroke: #0000ff; stroke-width: 0.5"/>
     <use xlink:href="#m4b61e2090d" x="566.385754" y="472.487405" style="fill: #0000ff; stroke: #0000ff; stroke-width: 0.5"/>
     <use xlink:href="#m4b61e2090d" x="592.46454" y="487.16848" style="fill: #0000ff; stroke: #0000ff; stroke-width: 0.5"/>
     <use xlink:href="#m4b61e2090d" x="618.543327" y="501.28634" style="fill: #0000ff; stroke: #0000ff; stroke-width: 0.5"/>
     <use xlink:href="#m4b61e2090d" x="657.661507" y="523.368849" style="fill: #0000ff; stroke: #0000ff; stroke-width: 0.5"/>
     <use xlink:href="#m4b61e2090d" x="709.819081" y="551.410549" style="fill: #0000ff; stroke: #0000ff; stroke-width: 0.5"/>
     <use xlink:href="#m4b61e2090d" x="761.976654" y="577.767207" style="fill: #0000ff; stroke: #0000ff; stroke-width: 0.5"/>
     <use xlink:href="#m4b61e2090d" x="814.134228" y="604.286825" style="fill: #0000ff; stroke: #0000ff; stroke-width: 0.5"/>
     <use xlink:href="#m4b61e2090d" x="866.291802" y="632.176592" style="fill: #0000ff; stroke: #0000ff; stroke-width: 0.5"/>
     <use xlink:href="#m4b61e2090d" x="918.449375" y="658.122296" style="fill: #0000ff; stroke: #0000ff; stroke-width: 0.5"/>
     <use xlink:href="#m4b61e2090d" x="970.606949" y="683.705005" style="fill: #0000ff; stroke: #0000ff; stroke-width: 0.5"/>
     <use xlink:href="#m4b61e2090d" x="1022.764522" y="709.462" style="fill: #0000ff; stroke: #0000ff; stroke-width: 0.5"/>
     <use xlink:href="#m4b61e2090d" x="1074.922096" y="734.734268" style="fill: #0000ff; stroke: #0000ff; stroke-width: 0.5"/>
     <use xlink:href="#m4b61e2090d" x="1127.079669" y="759.629847" style="fill: #0000ff; stroke: #0000ff; stroke-width: 0.5"/>
     <use xlink:href="#m4b61e2090d" x="1179.237243" y="783.968347" style="fill: #0000ff; stroke: #0000ff; stroke-width: 0.5"/>
     <use xlink:href="#m4b61e2090d" x="1231.394816" y="807.857215" style="fill: #0000ff; stroke: #0000ff; stroke-width: 0.5"/>
     <use xlink:href="#m4b61e2090d" x="1283.55239" y="831.817903" style="fill: #0000ff; stroke: #0000ff; stroke-width: 0.5"/>
     <use xlink:href="#m4b61e2090d" x="1335.709963" y="850.928632" style="fill: #0000ff; stroke: #0000ff; stroke-width: 0.5"/>
     <use xlink:href="#m4b61e2090d" x="1387.867537" y="877.312479" style="fill: #0000ff; stroke: #0000ff; stroke-width: 0.5"/>
     <use xlink:href="#m4b61e2090d" x="1440.02511" y="898.967743" style="fill: #0000ff; stroke: #0000ff; stroke-width: 0.5"/>
     <use xlink:href="#m4b61e2090d" x="1492.182684" y="921.144288" style="fill: #0000ff; stroke: #0000ff; stroke-width: 0.5"/>
     <use xlink:href="#m4b61e2090d" x="1544.340257" y="940.907141" style="fill: #0000ff; stroke: #0000ff; stroke-width: 0.5"/>
     <use xlink:href="#m4b61e2090d" x="1596.497831" y="959.926913" style="fill: #0000ff; stroke: #0000ff; stroke-width: 0.5"/>
     <use xlink:href="#m4b61e2090d" x="1648.655405" y="980.759938" style="fill: #0000ff; stroke: #0000ff; stroke-width: 0.5"/>
    </g>
   </g>
   <g id="line2d_3">
    <g clip-path="url(#pd66177d1f1)">
     <use xlink:href="#m4b61e2090d" x="167.380316" y="169.494673" style="fill: #0000ff; stroke: #0000ff; stroke-width: 0.5"/>
     <use xlink:href="#m4b61e2090d" x="177.811831" y="178.323256" style="fill: #0000ff; stroke: #0000ff; stroke-width: 0.5"/>
     <use xlink:href="#m4b61e2090d" x="188.243346" y="187.655668" style="fill: #0000ff; stroke: #0000ff; stroke-width: 0.5"/>
     <use xlink:href="#m4b61e2090d" x="198.67486" y="197.090597" style="fill: #0000ff; stroke: #0000ff; stroke-width: 0.5"/>
     <use xlink:href="#m4b61e2090d" x="209.106375" y="205.206815" style="fill: #0000ff; stroke: #0000ff; stroke-width: 0.5"/>
     <use xlink:href="#m4b61e2090d" x="227.361526" y="228.756247" style="fill: #0000ff; stroke: #0000ff; stroke-width: 0.5"/>
     <use xlink:href="#m4b61e2090d" x="253.440312" y="251.330693" style="fill: #0000ff; stroke: #0000ff; stroke-width: 0.5"/>
     <use xlink:href="#m4b61e2090d" x="279.519099" y="272.075041" style="fill: #0000ff; stroke: #0000ff; stroke-width: 0.5"/>
     <use xlink:href="#m4b61e2090d" x="305.597886" y="292.590353" style="fill: #0000ff; stroke: #0000ff; stroke-width: 0.5"/>
     <use xlink:href="#m4b61e2090d" x="331.676673" y="312.120515" style="fill: #0000ff; stroke: #0000ff; stroke-width: 0.5"/>
     <use xlink:href="#m4b61e2090d" x="357.75546" y="331.337189" style="fill: #0000ff; stroke: #0000ff; stroke-width: 0.5"/>
     <use xlink:href="#m4b61e2090d" x="383.834246" y="351.093517" style="fill: #0000ff; stroke: #0000ff; stroke-width: 0.5"/>
     <use xlink:href="#m4b61e2090d" x="409.913033" y="368.525515" style="fill: #0000ff; stroke: #0000ff; stroke-width: 0.5"/>
     <use xlink:href="#m4b61e2090d" x="435.99182" y="384.861533" style="fill: #0000ff; stroke: #0000ff; stroke-width: 0.5"/>
     <use xlink:href="#m4b61e2090d" x="462.070607" y="400.866799" style="fill: #0000ff; stroke: #0000ff; stroke-width: 0.5"/>
     <use xlink:href="#m4b61e2090d" x="488.149393" y="417.272749" style="fill: #0000ff; stroke: #0000ff; stroke-width: 0.5"/>
     <use xlink:href="#m4b61e2090d" x="514.22818" y="432.275123" style="fill: #0000ff; stroke: #0000ff; stroke-width: 0.5"/>
     <use xlink:href="#m4b61e2090d" x="540.306967" y="447.73742" style="fill: #0000ff; stroke: #0000ff; stroke-width: 0.5"/>
     <use xlink:href="#m4b61e2090d" x="566.385754" y="462.180589" style="fill: #0000ff; stroke: #0000ff; stroke-width: 0.5"/>
     <use xlink:href="#m4b61e2090d" x="592.46454" y="476.781761" style="fill: #0000ff; stroke: #0000ff; stroke-width: 0.5"/>
     <use xlink:href="#m4b61e2090d" x="618.543327" y="491.250281" style="fill: #0000ff; stroke: #0000ff; stroke-width: 0.5"/>
     <use xlink:href="#m4b61e2090d" x="657.661507" y="513.281" style="fill: #0000ff; stroke: #0000ff; stroke-width: 0.5"/>
     <use xlink:href="#m4b61e2090d" x="709.819081" y="541.054751" style="fill: #0000ff; stroke: #0000ff; stroke-width: 0.5"/>
     <use xlink:href="#m4b61e2090d" x="761.976654" y="566.751701" style="fill: #0000ff; stroke: #0000ff; stroke-width: 0.5"/>
     <use xlink:href="#m4b61e2090d" x="814.134228" y="593.274544" style="fill: #0000ff; stroke: #0000ff; stroke-width: 0.5"/>
     <use xlink:href="#m4b61e2090d" x="866.291802" y="620.883694" style="fill: #0000ff; stroke: #0000ff; stroke-width: 0.5"/>
     <use xlink:href="#m4b61e2090d" x="918.449375" y="646.549518" style="fill: #0000ff; stroke: #0000ff; stroke-width: 0.5"/>
     <use xlink:href="#m4b61e2090d" x="970.606949" y="671.71557" style="fill: #0000ff; stroke: #0000ff; stroke-width: 0.5"/>
     <use xlink:href="#m4b61e2090d" x="1022.764522" y="697.337216" style="fill: #0000ff; stroke: #0000ff; stroke-width: 0.5"/>
     <use xlink:href="#m4b61e2090d" x="1074.922096" y="722.290406" style="fill: #0000ff; stroke: #0000ff; stroke-width: 0.5"/>
     <use xlink:href="#m4b61e2090d" x="1127.079669" y="746.331898" style="fill: #0000ff; stroke: #0000ff; stroke-width: 0.5"/>
     <use xlink:href="#m4b61e2090d" x="1179.237243" y="770.312996" style="fill: #0000ff; stroke: #0000ff; stroke-width: 0.5"/>
     <use xlink:href="#m4b61e2090d" x="1231.394816" y="793.331831" style="fill: #0000ff; stroke: #0000ff; stroke-width: 0.5"/>
     <use xlink:href="#m4b61e2090d" x="1283.55239" y="817.194597" style="fill: #0000ff; stroke: #0000ff; stroke-width: 0.5"/>
     <use xlink:href="#m4b61e2090d" x="1335.709963" y="835.618581" style="fill: #0000ff; stroke: #0000ff; stroke-width: 0.5"/>
     <use xlink:href="#m4b61e2090d" x="1387.867537" y="859.862766" style="fill: #0000ff; stroke: #0000ff; stroke-width: 0.5"/>
     <use xlink:href="#m4b61e2090d" x="1440.02511" y="880.84895" style="fill: #0000ff; stroke: #0000ff; stroke-width: 0.5"/>
     <use xlink:href="#m4b61e2090d" x="1492.182684" y="901.12359" style="fill: #0000ff; stroke: #0000ff; stroke-width: 0.5"/>
     <use xlink:href="#m4b61e2090d" x="1544.340257" y="921.619636" style="fill: #0000ff; stroke: #0000ff; stroke-width: 0.5"/>
     <use xlink:href="#m4b61e2090d" x="1596.497831" y="940.126602" style="fill: #0000ff; stroke: #0000ff; stroke-width: 0.5"/>
     <use xlink:href="#m4b61e2090d" x="1648.655405" y="958.606957" style="fill: #0000ff; stroke: #0000ff; stroke-width: 0.5"/>
    </g>
   </g>
   <g id="line2d_4">
    <defs>
     <path id="m004c24e157" d="M 0 2.083333 
C 0.552506 2.083333 1.082458 1.86382 1.473139 1.473139 
C 1.86382 1.082458 2.083333 0.552506 2.083333 0 
C 2.083333 -0.552506 1.86382 -1.082458 1.473139 -1.473139 
C 1.082458 -1.86382 0.552506 -2.083333 0 -2.083333 
C -0.552506 -2.083333 -1.082458 -1.86382 -1.473139 -1.473139 
C -1.86382 -1.082458 -2.083333 -0.552506 -2.083333 0 
C -2.083333 0.552506 -1.86382 1.082458 -1.473139 1.473139 
C -1.082458 1.86382 -0.552506 2.083333 0 2.083333 
z
" style="stroke: #000000; stroke-width: 0.5"/>
    </defs>
    <g clip-path="url(#pd66177d1f1)">
     <use xlink:href="#m004c24e157" x="167.380316" y="180.79219" style="fill: #0000ff; stroke: #000000; stroke-width: 0.5"/>
     <use xlink:href="#m004c24e157" x="177.811831" y="188.72632" style="fill: #0000ff; stroke: #000000; stroke-width: 0.5"/>
     <use xlink:href="#m004c24e157" x="188.243346" y="197.95465" style="fill: #0000ff; stroke: #000000; stroke-width: 0.5"/>
     <use xlink:href="#m004c24e157" x="198.67486" y="207.345857" style="fill: #0000ff; stroke: #000000; stroke-width: 0.5"/>
     <use xlink:href="#m004c24e157" x="209.106375" y="215.415995" style="fill: #0000ff; stroke: #000000; stroke-width: 0.5"/>
     <use xlink:href="#m004c24e157" x="227.361526" y="234.965383" style="fill: #0000ff; stroke: #000000; stroke-width: 0.5"/>
     <use xlink:href="#m004c24e157" x="253.440312" y="257.65226" style="fill: #0000ff; stroke: #000000; stroke-width: 0.5"/>
     <use xlink:href="#m004c24e157" x="279.519099" y="278.599416" style="fill: #0000ff; stroke: #000000; stroke-width: 0.5"/>
     <use xlink:href="#m004c24e157" x="305.597886" y="298.698423" style="fill: #0000ff; stroke: #000000; stroke-width: 0.5"/>
     <use xlink:href="#m004c24e157" x="331.676673" y="318.041631" style="fill: #0000ff; stroke: #000000; stroke-width: 0.5"/>
     <use xlink:href="#m004c24e157" x="357.75546" y="337.187046" style="fill: #0000ff; stroke: #000000; stroke-width: 0.5"/>
     <use xlink:href="#m004c24e157" x="383.834246" y="355.504564" style="fill: #0000ff; stroke: #000000; stroke-width: 0.5"/>
     <use xlink:href="#m004c24e157" x="409.913033" y="372.801683" style="fill: #0000ff; stroke: #000000; stroke-width: 0.5"/>
     <use xlink:href="#m004c24e157" x="435.99182" y="389.364458" style="fill: #0000ff; stroke: #000000; stroke-width: 0.5"/>
     <use xlink:href="#m004c24e157" x="462.070607" y="405.473161" style="fill: #0000ff; stroke: #000000; stroke-width: 0.5"/>
     <use xlink:href="#m004c24e157" x="488.149393" y="421.854175" style="fill: #0000ff; stroke: #000000; stroke-width: 0.5"/>
     <use xlink:href="#m004c24e157" x="514.22818" y="437.020278" style="fill: #0000ff; stroke: #000000; stroke-width: 0.5"/>
     <use xlink:href="#m004c24e157" x="540.306967" y="452.557424" style="fill: #0000ff; stroke: #000000; stroke-width: 0.5"/>
     <use xlink:href="#m004c24e157" x="566.385754" y="467.176099" style="fill: #0000ff; stroke: #000000; stroke-width: 0.5"/>
     <use xlink:href="#m004c24e157" x="592.46454" y="481.814767" style="fill: #0000ff; stroke: #000000; stroke-width: 0.5"/>
     <use xlink:href="#m004c24e157" x="618.543327" y="496.118595" style="fill: #0000ff; stroke: #000000; stroke-width: 0.5"/>
     <use xlink:href="#m004c24e157" x="657.661507" y="518.173661" style="fill: #0000ff; stroke: #000000; stroke-width: 0.5"/>
     <use xlink:href="#m004c24e157" x="709.819081" y="546.073249" style="fill: #0000ff; stroke: #000000; stroke-width: 0.5"/>
     <use xlink:href="#m004c24e157" x="761.976654" y="572.079112" style="fill: #0000ff; stroke: #000000; stroke-width: 0.5"/>
     <use xlink:href="#m004c24e157" x="814.134228" y="598.600448" style="fill: #0000ff; stroke: #000000; stroke-width: 0.5"/>
     <use xlink:href="#m004c24e157" x="866.291802" y="626.340611" style="fill: #0000ff; stroke: #000000; stroke-width: 0.5"/>
     <use xlink:href="#m004c24e157" x="918.449375" y="652.136872" style="fill: #0000ff; stroke: #000000; stroke-width: 0.5"/>
     <use xlink:href="#m004c24e157" x="970.606949" y="677.496675" style="fill: #0000ff; stroke: #000000; stroke-width: 0.5"/>
     <use xlink:href="#m004c24e157" x="1022.764522" y="703.181149" style="fill: #0000ff; stroke: #000000; stroke-width: 0.5"/>
     <use xlink:href="#m004c24e157" x="1074.922096" y="728.28224" style="fill: #0000ff; stroke: #000000; stroke-width: 0.5"/>
     <use xlink:href="#m004c24e157" x="1127.079669" y="752.718139" style="fill: #0000ff; stroke: #000000; stroke-width: 0.5"/>
     <use xlink:href="#m004c24e157" x="1179.237243" y="776.863642" style="fill: #0000ff; stroke: #000000; stroke-width: 0.5"/>
     <use xlink:href="#m004c24e157" x="1231.394816" y="800.281113" style="fill: #0000ff; stroke: #000000; stroke-width: 0.5"/>
     <use xlink:href="#m004c24e157" x="1283.55239" y="824.188605" style="fill: #0000ff; stroke: #000000; stroke-width: 0.5"/>
     <use xlink:href="#m004c24e157" x="1335.709963" y="842.925468" style="fill: #0000ff; stroke: #000000; stroke-width: 0.5"/>
     <use xlink:href="#m004c24e157" x="1387.867537" y="868.135563" style="fill: #0000ff; stroke: #000000; stroke-width: 0.5"/>
     <use xlink:href="#m004c24e157" x="1440.02511" y="889.421023" style="fill: #0000ff; stroke: #000000; stroke-width: 0.5"/>
     <use xlink:href="#m004c24e157" x="1492.182684" y="910.539192" style="fill: #0000ff; stroke: #000000; stroke-width: 0.5"/>
     <use xlink:href="#m004c24e157" x="1544.340257" y="930.711313" style="fill: #0000ff; stroke: #000000; stroke-width: 0.5"/>
     <use xlink:href="#m004c24e157" x="1596.497831" y="949.445003" style="fill: #0000ff; stroke: #000000; stroke-width: 0.5"/>
     <use xlink:href="#m004c24e157" x="1648.655405" y="968.955653" style="fill: #0000ff; stroke: #000000; stroke-width: 0.5"/>
    </g>
   </g>
   <g id="patch_3">
    <path d="M 110.006985 429.52 
L 110.006985 23.724 
" style="fill: none; stroke: #000000; stroke-width: 2; stroke-linejoin: miter; stroke-linecap: square"/>
   </g>
   <g id="patch_4">
    <path d="M 475.11 429.52 
L 475.11 23.724 
" style="fill: none; stroke: #000000; stroke-width: 2; stroke-linejoin: miter; stroke-linecap: square"/>
   </g>
   <g id="patch_5">
    <path d="M 110.006985 429.52 
L 475.11 429.52 
" style="fill: none; stroke: #000000; stroke-width: 2; stroke-linejoin: miter; stroke-linecap: square"/>
   </g>
   <g id="patch_6">
    <path d="M 110.006985 23.724 
L 475.11 23.724 
" style="fill: none; stroke: #000000; stroke-width: 2; stroke-linejoin: miter; stroke-linecap: square"/>
   </g>
   <g id="matplotlib.axis_1">
    <g id="xtick_1">
     <g id="line2d_5">
      <defs>
       <path id="m2710fc273b" d="M 0 5 
L 0 -5 
" style="stroke: #000000; stroke-width: 2"/>
      </defs>
      <g>
       <use xlink:href="#m2710fc273b" x="110.006985" y="429.52" style="stroke: #000000; stroke-width: 2"/>
      </g>
     </g>
     <g id="line2d_6">
      <g>
       <use xlink:href="#m2710fc273b" x="110.006985" y="23.724" style="stroke: #000000; stroke-width: 2"/>
      </g>
     </g>
     <g id="text_1">
      <!-- 0.0 -->
      <g transform="translate(94.10386 453.716875) scale(0.2 -0.2)">
       <defs>
        <path id="DejaVuSans-30" d="M 2034 4250 
Q 1547 4250 1301 3770 
Q 1056 3291 1056 2328 
Q 1056 1369 1301 889 
Q 1547 409 2034 409 
Q 2525 409 2770 889 
Q 3016 1369 3016 2328 
Q 3016 3291 2770 3770 
Q 2525 4250 2034 4250 
z
M 2034 4750 
Q 2819 4750 3233 4129 
Q 3647 3509 3647 2328 
Q 3647 1150 3233 529 
Q 2819 -91 2034 -91 
Q 1250 -91 836 529 
Q 422 1150 422 2328 
Q 422 3509 836 4129 
Q 1250 4750 2034 4750 
z
" transform="scale(0.015625)"/>
        <path id="DejaVuSans-2e" d="M 684 794 
L 1344 794 
L 1344 0 
L 684 0 
L 684 794 
z
" transform="scale(0.015625)"/>
       </defs>
       <use xlink:href="#DejaVuSans-30"/>
       <use xlink:href="#DejaVuSans-2e" x="63.623047"/>
       <use xlink:href="#DejaVuSans-30" x="95.410156"/>
      </g>
     </g>
    </g>
    <g id="xtick_2">
     <g id="line2d_7">
      <g>
       <use xlink:href="#m2710fc273b" x="162.164559" y="429.52" style="stroke: #000000; stroke-width: 2"/>
      </g>
     </g>
     <g id="line2d_8">
      <g>
       <use xlink:href="#m2710fc273b" x="162.164559" y="23.724" style="stroke: #000000; stroke-width: 2"/>
      </g>
     </g>
     <g id="text_2">
      <!-- 0.1 -->
      <g transform="translate(146.261434 453.716875) scale(0.2 -0.2)">
       <defs>
        <path id="DejaVuSans-31" d="M 794 531 
L 1825 531 
L 1825 4091 
L 703 3866 
L 703 4441 
L 1819 4666 
L 2450 4666 
L 2450 531 
L 3481 531 
L 3481 0 
L 794 0 
L 794 531 
z
" transform="scale(0.015625)"/>
       </defs>
       <use xlink:href="#DejaVuSans-30"/>
       <use xlink:href="#DejaVuSans-2e" x="63.623047"/>
       <use xlink:href="#DejaVuSans-31" x="95.410156"/>
      </g>
     </g>
    </g>
    <g id="xtick_3">
     <g id="line2d_9">
      <g>
       <use xlink:href="#m2710fc273b" x="214.322132" y="429.52" style="stroke: #000000; stroke-width: 2"/>
      </g>
     </g>
     <g id="line2d_10">
      <g>
       <use xlink:href="#m2710fc273b" x="214.322132" y="23.724" style="stroke: #000000; stroke-width: 2"/>
      </g>
     </g>
     <g id="text_3">
      <!-- 0.2 -->
      <g transform="translate(198.419007 453.716875) scale(0.2 -0.2)">
       <defs>
        <path id="DejaVuSans-32" d="M 1228 531 
L 3431 531 
L 3431 0 
L 469 0 
L 469 531 
Q 828 903 1448 1529 
Q 2069 2156 2228 2338 
Q 2531 2678 2651 2914 
Q 2772 3150 2772 3378 
Q 2772 3750 2511 3984 
Q 2250 4219 1831 4219 
Q 1534 4219 1204 4116 
Q 875 4013 500 3803 
L 500 4441 
Q 881 4594 1212 4672 
Q 1544 4750 1819 4750 
Q 2544 4750 2975 4387 
Q 3406 4025 3406 3419 
Q 3406 3131 3298 2873 
Q 3191 2616 2906 2266 
Q 2828 2175 2409 1742 
Q 1991 1309 1228 531 
z
" transform="scale(0.015625)"/>
       </defs>
       <use xlink:href="#DejaVuSans-30"/>
       <use xlink:href="#DejaVuSans-2e" x="63.623047"/>
       <use xlink:href="#DejaVuSans-32" x="95.410156"/>
      </g>
     </g>
    </g>
    <g id="xtick_4">
     <g id="line2d_11">
      <g>
       <use xlink:href="#m2710fc273b" x="266.479706" y="429.52" style="stroke: #000000; stroke-width: 2"/>
      </g>
     </g>
     <g id="line2d_12">
      <g>
       <use xlink:href="#m2710fc273b" x="266.479706" y="23.724" style="stroke: #000000; stroke-width: 2"/>
      </g>
     </g>
     <g id="text_4">
      <!-- 0.3 -->
      <g transform="translate(250.576581 453.716875) scale(0.2 -0.2)">
       <defs>
        <path id="DejaVuSans-33" d="M 2597 2516 
Q 3050 2419 3304 2112 
Q 3559 1806 3559 1356 
Q 3559 666 3084 287 
Q 2609 -91 1734 -91 
Q 1441 -91 1130 -33 
Q 819 25 488 141 
L 488 750 
Q 750 597 1062 519 
Q 1375 441 1716 441 
Q 2309 441 2620 675 
Q 2931 909 2931 1356 
Q 2931 1769 2642 2001 
Q 2353 2234 1838 2234 
L 1294 2234 
L 1294 2753 
L 1863 2753 
Q 2328 2753 2575 2939 
Q 2822 3125 2822 3475 
Q 2822 3834 2567 4026 
Q 2313 4219 1838 4219 
Q 1578 4219 1281 4162 
Q 984 4106 628 3988 
L 628 4550 
Q 988 4650 1302 4700 
Q 1616 4750 1894 4750 
Q 2613 4750 3031 4423 
Q 3450 4097 3450 3541 
Q 3450 3153 3228 2886 
Q 3006 2619 2597 2516 
z
" transform="scale(0.015625)"/>
       </defs>
       <use xlink:href="#DejaVuSans-30"/>
       <use xlink:href="#DejaVuSans-2e" x="63.623047"/>
       <use xlink:href="#DejaVuSans-33" x="95.410156"/>
      </g>
     </g>
    </g>
    <g id="xtick_5">
     <g id="line2d_13">
      <g>
       <use xlink:href="#m2710fc273b" x="318.637279" y="429.52" style="stroke: #000000; stroke-width: 2"/>
      </g>
     </g>
     <g id="line2d_14">
      <g>
       <use xlink:href="#m2710fc273b" x="318.637279" y="23.724" style="stroke: #000000; stroke-width: 2"/>
      </g>
     </g>
     <g id="text_5">
      <!-- 0.4 -->
      <g transform="translate(302.734154 453.716875) scale(0.2 -0.2)">
       <defs>
        <path id="DejaVuSans-34" d="M 2419 4116 
L 825 1625 
L 2419 1625 
L 2419 4116 
z
M 2253 4666 
L 3047 4666 
L 3047 1625 
L 3713 1625 
L 3713 1100 
L 3047 1100 
L 3047 0 
L 2419 0 
L 2419 1100 
L 313 1100 
L 313 1709 
L 2253 4666 
z
" transform="scale(0.015625)"/>
       </defs>
       <use xlink:href="#DejaVuSans-30"/>
       <use xlink:href="#DejaVuSans-2e" x="63.623047"/>
       <use xlink:href="#DejaVuSans-34" x="95.410156"/>
      </g>
     </g>
    </g>
    <g id="xtick_6">
     <g id="line2d_15">
      <g>
       <use xlink:href="#m2710fc273b" x="370.794853" y="429.52" style="stroke: #000000; stroke-width: 2"/>
      </g>
     </g>
     <g id="line2d_16">
      <g>
       <use xlink:href="#m2710fc273b" x="370.794853" y="23.724" style="stroke: #000000; stroke-width: 2"/>
      </g>
     </g>
     <g id="text_6">
      <!-- 0.5 -->
      <g transform="translate(354.891728 453.716875) scale(0.2 -0.2)">
       <defs>
        <path id="DejaVuSans-35" d="M 691 4666 
L 3169 4666 
L 3169 4134 
L 1269 4134 
L 1269 2991 
Q 1406 3038 1543 3061 
Q 1681 3084 1819 3084 
Q 2600 3084 3056 2656 
Q 3513 2228 3513 1497 
Q 3513 744 3044 326 
Q 2575 -91 1722 -91 
Q 1428 -91 1123 -41 
Q 819 9 494 109 
L 494 744 
Q 775 591 1075 516 
Q 1375 441 1709 441 
Q 2250 441 2565 725 
Q 2881 1009 2881 1497 
Q 2881 1984 2565 2268 
Q 2250 2553 1709 2553 
Q 1456 2553 1204 2497 
Q 953 2441 691 2322 
L 691 4666 
z
" transform="scale(0.015625)"/>
       </defs>
       <use xlink:href="#DejaVuSans-30"/>
       <use xlink:href="#DejaVuSans-2e" x="63.623047"/>
       <use xlink:href="#DejaVuSans-35" x="95.410156"/>
      </g>
     </g>
    </g>
    <g id="xtick_7">
     <g id="line2d_17">
      <g>
       <use xlink:href="#m2710fc273b" x="422.952426" y="429.52" style="stroke: #000000; stroke-width: 2"/>
      </g>
     </g>
     <g id="line2d_18">
      <g>
       <use xlink:href="#m2710fc273b" x="422.952426" y="23.724" style="stroke: #000000; stroke-width: 2"/>
      </g>
     </g>
     <g id="text_7">
      <!-- 0.6 -->
      <g transform="translate(407.049301 453.716875) scale(0.2 -0.2)">
       <defs>
        <path id="DejaVuSans-36" d="M 2113 2584 
Q 1688 2584 1439 2293 
Q 1191 2003 1191 1497 
Q 1191 994 1439 701 
Q 1688 409 2113 409 
Q 2538 409 2786 701 
Q 3034 994 3034 1497 
Q 3034 2003 2786 2293 
Q 2538 2584 2113 2584 
z
M 3366 4563 
L 3366 3988 
Q 3128 4100 2886 4159 
Q 2644 4219 2406 4219 
Q 1781 4219 1451 3797 
Q 1122 3375 1075 2522 
Q 1259 2794 1537 2939 
Q 1816 3084 2150 3084 
Q 2853 3084 3261 2657 
Q 3669 2231 3669 1497 
Q 3669 778 3244 343 
Q 2819 -91 2113 -91 
Q 1303 -91 875 529 
Q 447 1150 447 2328 
Q 447 3434 972 4092 
Q 1497 4750 2381 4750 
Q 2619 4750 2861 4703 
Q 3103 4656 3366 4563 
z
" transform="scale(0.015625)"/>
       </defs>
       <use xlink:href="#DejaVuSans-30"/>
       <use xlink:href="#DejaVuSans-2e" x="63.623047"/>
       <use xlink:href="#DejaVuSans-36" x="95.410156"/>
      </g>
     </g>
    </g>
    <g id="xtick_8">
     <g id="line2d_19">
      <g>
       <use xlink:href="#m2710fc273b" x="475.11" y="429.52" style="stroke: #000000; stroke-width: 2"/>
      </g>
     </g>
     <g id="line2d_20">
      <g>
       <use xlink:href="#m2710fc273b" x="475.11" y="23.724" style="stroke: #000000; stroke-width: 2"/>
      </g>
     </g>
     <g id="text_8">
      <!-- 0.7 -->
      <g transform="translate(459.206875 453.716875) scale(0.2 -0.2)">
       <defs>
        <path id="DejaVuSans-37" d="M 525 4666 
L 3525 4666 
L 3525 4397 
L 1831 0 
L 1172 0 
L 2766 4134 
L 525 4134 
L 525 4666 
z
" transform="scale(0.015625)"/>
       </defs>
       <use xlink:href="#DejaVuSans-30"/>
       <use xlink:href="#DejaVuSans-2e" x="63.623047"/>
       <use xlink:href="#DejaVuSans-37" x="95.410156"/>
      </g>
     </g>
    </g>
    <g id="text_9">
     <!-- $p_T\ [GeV]$ -->
     <g transform="translate(239.433493 481.87625) scale(0.25 -0.25)">
      <defs>
       <path id="DejaVuSans-70" d="M 1159 525 
L 1159 -1331 
L 581 -1331 
L 581 3500 
L 1159 3500 
L 1159 2969 
Q 1341 3281 1617 3432 
Q 1894 3584 2278 3584 
Q 2916 3584 3314 3078 
Q 3713 2572 3713 1747 
Q 3713 922 3314 415 
Q 2916 -91 2278 -91 
Q 1894 -91 1617 61 
Q 1341 213 1159 525 
z
M 3116 1747 
Q 3116 2381 2855 2742 
Q 2594 3103 2138 3103 
Q 1681 3103 1420 2742 
Q 1159 2381 1159 1747 
Q 1159 1113 1420 752 
Q 1681 391 2138 391 
Q 2594 391 2855 752 
Q 3116 1113 3116 1747 
z
" transform="scale(0.015625)"/>
       <path id="DejaVuSans-54" d="M -19 4666 
L 3928 4666 
L 3928 4134 
L 2272 4134 
L 2272 0 
L 1638 0 
L 1638 4134 
L -19 4134 
L -19 4666 
z
" transform="scale(0.015625)"/>
       <path id="DejaVuSans-5b" d="M 550 4863 
L 1875 4863 
L 1875 4416 
L 1125 4416 
L 1125 -397 
L 1875 -397 
L 1875 -844 
L 550 -844 
L 550 4863 
z
" transform="scale(0.015625)"/>
       <path id="DejaVuSans-47" d="M 3809 666 
L 3809 1919 
L 2778 1919 
L 2778 2438 
L 4434 2438 
L 4434 434 
Q 4069 175 3628 42 
Q 3188 -91 2688 -91 
Q 1594 -91 976 548 
Q 359 1188 359 2328 
Q 359 3472 976 4111 
Q 1594 4750 2688 4750 
Q 3144 4750 3555 4637 
Q 3966 4525 4313 4306 
L 4313 3634 
Q 3963 3931 3569 4081 
Q 3175 4231 2741 4231 
Q 1884 4231 1454 3753 
Q 1025 3275 1025 2328 
Q 1025 1384 1454 906 
Q 1884 428 2741 428 
Q 3075 428 3337 486 
Q 3600 544 3809 666 
z
" transform="scale(0.015625)"/>
       <path id="DejaVuSans-65" d="M 3597 1894 
L 3597 1613 
L 953 1613 
Q 991 1019 1311 708 
Q 1631 397 2203 397 
Q 2534 397 2845 478 
Q 3156 559 3463 722 
L 3463 178 
Q 3153 47 2828 -22 
Q 2503 -91 2169 -91 
Q 1331 -91 842 396 
Q 353 884 353 1716 
Q 353 2575 817 3079 
Q 1281 3584 2069 3584 
Q 2775 3584 3186 3129 
Q 3597 2675 3597 1894 
z
M 3022 2063 
Q 3016 2534 2758 2815 
Q 2500 3097 2075 3097 
Q 1594 3097 1305 2825 
Q 1016 2553 972 2059 
L 3022 2063 
z
" transform="scale(0.015625)"/>
       <path id="DejaVuSans-56" d="M 1831 0 
L 50 4666 
L 709 4666 
L 2188 738 
L 3669 4666 
L 4325 4666 
L 2547 0 
L 1831 0 
z
" transform="scale(0.015625)"/>
       <path id="DejaVuSans-5d" d="M 1947 4863 
L 1947 -844 
L 622 -844 
L 622 -397 
L 1369 -397 
L 1369 4416 
L 622 4416 
L 622 4863 
L 1947 4863 
z
" transform="scale(0.015625)"/>
      </defs>
      <use xlink:href="#DejaVuSans-70" transform="translate(0 0.015625)"/>
      <use xlink:href="#DejaVuSans-54" transform="translate(64.433594 -16.390625) scale(0.7)"/>
      <use xlink:href="#DejaVuSans-5b" transform="translate(139.190788 0.015625)"/>
      <use xlink:href="#DejaVuSans-47" transform="translate(178.20446 0.015625)"/>
      <use xlink:href="#DejaVuSans-65" transform="translate(255.694694 0.015625)"/>
      <use xlink:href="#DejaVuSans-56" transform="translate(317.218132 0.015625)"/>
      <use xlink:href="#DejaVuSans-5d" transform="translate(385.626335 0.015625)"/>
     </g>
    </g>
   </g>
   <g id="matplotlib.axis_2">
    <g id="ytick_1">
     <g id="line2d_21">
      <defs>
       <path id="me982709748" d="M 5 0 
L -5 -0 
" style="stroke: #000000; stroke-width: 2"/>
      </defs>
      <g>
       <use xlink:href="#me982709748" x="110.006985" y="410.765883" style="stroke: #000000; stroke-width: 2"/>
      </g>
     </g>
     <g id="line2d_22">
      <g>
       <use xlink:href="#me982709748" x="475.11" y="410.765883" style="stroke: #000000; stroke-width: 2"/>
      </g>
     </g>
     <g id="text_10">
      <!-- $\mathdefault{10^{2}}$ -->
      <g transform="translate(65.806985 416.284633) scale(0.2 -0.2)">
       <use xlink:href="#DejaVuSans-31" transform="translate(0 0.765625)"/>
       <use xlink:href="#DejaVuSans-30" transform="translate(63.623047 0.765625)"/>
       <use xlink:href="#DejaVuSans-32" transform="translate(128.203125 39.046875) scale(0.7)"/>
      </g>
     </g>
    </g>
    <g id="ytick_2">
     <g id="line2d_23">
      <g>
       <use xlink:href="#me982709748" x="110.006985" y="217.244942" style="stroke: #000000; stroke-width: 2"/>
      </g>
     </g>
     <g id="line2d_24">
      <g>
       <use xlink:href="#me982709748" x="475.11" y="217.244942" style="stroke: #000000; stroke-width: 2"/>
      </g>
     </g>
     <g id="text_11">
      <!-- $\mathdefault{10^{3}}$ -->
      <g transform="translate(65.806985 222.763692) scale(0.2 -0.2)">
       <use xlink:href="#DejaVuSans-31" transform="translate(0 0.765625)"/>
       <use xlink:href="#DejaVuSans-30" transform="translate(63.623047 0.765625)"/>
       <use xlink:href="#DejaVuSans-33" transform="translate(128.203125 39.046875) scale(0.7)"/>
      </g>
     </g>
    </g>
    <g id="ytick_3">
     <g id="line2d_25">
      <g>
       <use xlink:href="#me982709748" x="110.006985" y="23.724" style="stroke: #000000; stroke-width: 2"/>
      </g>
     </g>
     <g id="line2d_26">
      <g>
       <use xlink:href="#me982709748" x="475.11" y="23.724" style="stroke: #000000; stroke-width: 2"/>
      </g>
     </g>
     <g id="text_12">
      <!-- $\mathdefault{10^{4}}$ -->
      <g transform="translate(65.806985 29.24275) scale(0.2 -0.2)">
       <use xlink:href="#DejaVuSans-31" transform="translate(0 0.684375)"/>
       <use xlink:href="#DejaVuSans-30" transform="translate(63.623047 0.684375)"/>
       <use xlink:href="#DejaVuSans-34" transform="translate(128.203125 38.965625) scale(0.7)"/>
      </g>
     </g>
    </g>
    <g id="ytick_4">
     <g id="line2d_27">
      <defs>
       <path id="mdfa7ce07b4" d="M 3.5 0 
L -3.5 -0 
" style="stroke: #000000; stroke-width: 1.4"/>
      </defs>
      <g>
       <use xlink:href="#mdfa7ce07b4" x="110.006985" y="429.52" style="stroke: #000000; stroke-width: 1.4"/>
      </g>
     </g>
     <g id="line2d_28">
      <g>
       <use xlink:href="#mdfa7ce07b4" x="475.11" y="429.52" style="stroke: #000000; stroke-width: 1.4"/>
      </g>
     </g>
     <g id="text_13">
      <!-- $\mathdefault{8\times10^{1}}$ -->
      <g transform="translate(52.246985 433.383125) scale(0.14 -0.14)">
       <defs>
        <path id="DejaVuSans-38" d="M 2034 2216 
Q 1584 2216 1326 1975 
Q 1069 1734 1069 1313 
Q 1069 891 1326 650 
Q 1584 409 2034 409 
Q 2484 409 2743 651 
Q 3003 894 3003 1313 
Q 3003 1734 2745 1975 
Q 2488 2216 2034 2216 
z
M 1403 2484 
Q 997 2584 770 2862 
Q 544 3141 544 3541 
Q 544 4100 942 4425 
Q 1341 4750 2034 4750 
Q 2731 4750 3128 4425 
Q 3525 4100 3525 3541 
Q 3525 3141 3298 2862 
Q 3072 2584 2669 2484 
Q 3125 2378 3379 2068 
Q 3634 1759 3634 1313 
Q 3634 634 3220 271 
Q 2806 -91 2034 -91 
Q 1263 -91 848 271 
Q 434 634 434 1313 
Q 434 1759 690 2068 
Q 947 2378 1403 2484 
z
M 1172 3481 
Q 1172 3119 1398 2916 
Q 1625 2713 2034 2713 
Q 2441 2713 2670 2916 
Q 2900 3119 2900 3481 
Q 2900 3844 2670 4047 
Q 2441 4250 2034 4250 
Q 1625 4250 1398 4047 
Q 1172 3844 1172 3481 
z
" transform="scale(0.015625)"/>
        <path id="DejaVuSans-d7" d="M 4488 3438 
L 3059 2003 
L 4488 575 
L 4116 197 
L 2681 1631 
L 1247 197 
L 878 575 
L 2303 2003 
L 878 3438 
L 1247 3816 
L 2681 2381 
L 4116 3816 
L 4488 3438 
z
" transform="scale(0.015625)"/>
       </defs>
       <use xlink:href="#DejaVuSans-38" transform="translate(0 0.684375)"/>
       <use xlink:href="#DejaVuSans-d7" transform="translate(81.181641 0.684375)"/>
       <use xlink:href="#DejaVuSans-31" transform="translate(182.529297 0.684375)"/>
       <use xlink:href="#DejaVuSans-30" transform="translate(246.152344 0.684375)"/>
       <use xlink:href="#DejaVuSans-31" transform="translate(310.732422 38.965625) scale(0.7)"/>
      </g>
     </g>
    </g>
    <g id="ytick_5">
     <g id="line2d_29">
      <g>
       <use xlink:href="#mdfa7ce07b4" x="110.006985" y="352.510275" style="stroke: #000000; stroke-width: 1.4"/>
      </g>
     </g>
     <g id="line2d_30">
      <g>
       <use xlink:href="#mdfa7ce07b4" x="475.11" y="352.510275" style="stroke: #000000; stroke-width: 1.4"/>
      </g>
     </g>
     <g id="text_14">
      <!-- $\mathdefault{2\times10^{2}}$ -->
      <g transform="translate(52.246985 356.3734) scale(0.14 -0.14)">
       <use xlink:href="#DejaVuSans-32" transform="translate(0 0.765625)"/>
       <use xlink:href="#DejaVuSans-d7" transform="translate(81.181641 0.765625)"/>
       <use xlink:href="#DejaVuSans-31" transform="translate(182.529297 0.765625)"/>
       <use xlink:href="#DejaVuSans-30" transform="translate(246.152344 0.765625)"/>
       <use xlink:href="#DejaVuSans-32" transform="translate(310.732422 39.046875) scale(0.7)"/>
      </g>
     </g>
    </g>
    <g id="ytick_6">
     <g id="line2d_31">
      <g>
       <use xlink:href="#mdfa7ce07b4" x="110.006985" y="294.254667" style="stroke: #000000; stroke-width: 1.4"/>
      </g>
     </g>
     <g id="line2d_32">
      <g>
       <use xlink:href="#mdfa7ce07b4" x="475.11" y="294.254667" style="stroke: #000000; stroke-width: 1.4"/>
      </g>
     </g>
     <g id="text_15">
      <!-- $\mathdefault{4\times10^{2}}$ -->
      <g transform="translate(52.246985 298.117792) scale(0.14 -0.14)">
       <use xlink:href="#DejaVuSans-34" transform="translate(0 0.765625)"/>
       <use xlink:href="#DejaVuSans-d7" transform="translate(81.181641 0.765625)"/>
       <use xlink:href="#DejaVuSans-31" transform="translate(182.529297 0.765625)"/>
       <use xlink:href="#DejaVuSans-30" transform="translate(246.152344 0.765625)"/>
       <use xlink:href="#DejaVuSans-32" transform="translate(310.732422 39.046875) scale(0.7)"/>
      </g>
     </g>
    </g>
    <g id="ytick_7">
     <g id="line2d_33">
      <g>
       <use xlink:href="#mdfa7ce07b4" x="110.006985" y="260.17732" style="stroke: #000000; stroke-width: 1.4"/>
      </g>
     </g>
     <g id="line2d_34">
      <g>
       <use xlink:href="#mdfa7ce07b4" x="475.11" y="260.17732" style="stroke: #000000; stroke-width: 1.4"/>
      </g>
     </g>
     <g id="text_16">
      <!-- $\mathdefault{6\times10^{2}}$ -->
      <g transform="translate(52.246985 264.040445) scale(0.14 -0.14)">
       <use xlink:href="#DejaVuSans-36" transform="translate(0 0.765625)"/>
       <use xlink:href="#DejaVuSans-d7" transform="translate(81.181641 0.765625)"/>
       <use xlink:href="#DejaVuSans-31" transform="translate(182.529297 0.765625)"/>
       <use xlink:href="#DejaVuSans-30" transform="translate(246.152344 0.765625)"/>
       <use xlink:href="#DejaVuSans-32" transform="translate(310.732422 39.046875) scale(0.7)"/>
      </g>
     </g>
    </g>
    <g id="ytick_8">
     <g id="line2d_35">
      <g>
       <use xlink:href="#mdfa7ce07b4" x="110.006985" y="235.999058" style="stroke: #000000; stroke-width: 1.4"/>
      </g>
     </g>
     <g id="line2d_36">
      <g>
       <use xlink:href="#mdfa7ce07b4" x="475.11" y="235.999058" style="stroke: #000000; stroke-width: 1.4"/>
      </g>
     </g>
     <g id="text_17">
      <!-- $\mathdefault{8\times10^{2}}$ -->
      <g transform="translate(52.246985 239.862183) scale(0.14 -0.14)">
       <use xlink:href="#DejaVuSans-38" transform="translate(0 0.765625)"/>
       <use xlink:href="#DejaVuSans-d7" transform="translate(81.181641 0.765625)"/>
       <use xlink:href="#DejaVuSans-31" transform="translate(182.529297 0.765625)"/>
       <use xlink:href="#DejaVuSans-30" transform="translate(246.152344 0.765625)"/>
       <use xlink:href="#DejaVuSans-32" transform="translate(310.732422 39.046875) scale(0.7)"/>
      </g>
     </g>
    </g>
    <g id="ytick_9">
     <g id="line2d_37">
      <g>
       <use xlink:href="#mdfa7ce07b4" x="110.006985" y="158.989333" style="stroke: #000000; stroke-width: 1.4"/>
      </g>
     </g>
     <g id="line2d_38">
      <g>
       <use xlink:href="#mdfa7ce07b4" x="475.11" y="158.989333" style="stroke: #000000; stroke-width: 1.4"/>
      </g>
     </g>
     <g id="text_18">
      <!-- $\mathdefault{2\times10^{3}}$ -->
      <g transform="translate(52.246985 162.852458) scale(0.14 -0.14)">
       <use xlink:href="#DejaVuSans-32" transform="translate(0 0.765625)"/>
       <use xlink:href="#DejaVuSans-d7" transform="translate(81.181641 0.765625)"/>
       <use xlink:href="#DejaVuSans-31" transform="translate(182.529297 0.765625)"/>
       <use xlink:href="#DejaVuSans-30" transform="translate(246.152344 0.765625)"/>
       <use xlink:href="#DejaVuSans-33" transform="translate(310.732422 39.046875) scale(0.7)"/>
      </g>
     </g>
    </g>
    <g id="ytick_10">
     <g id="line2d_39">
      <g>
       <use xlink:href="#mdfa7ce07b4" x="110.006985" y="100.733725" style="stroke: #000000; stroke-width: 1.4"/>
      </g>
     </g>
     <g id="line2d_40">
      <g>
       <use xlink:href="#mdfa7ce07b4" x="475.11" y="100.733725" style="stroke: #000000; stroke-width: 1.4"/>
      </g>
     </g>
     <g id="text_19">
      <!-- $\mathdefault{4\times10^{3}}$ -->
      <g transform="translate(52.246985 104.59685) scale(0.14 -0.14)">
       <use xlink:href="#DejaVuSans-34" transform="translate(0 0.765625)"/>
       <use xlink:href="#DejaVuSans-d7" transform="translate(81.181641 0.765625)"/>
       <use xlink:href="#DejaVuSans-31" transform="translate(182.529297 0.765625)"/>
       <use xlink:href="#DejaVuSans-30" transform="translate(246.152344 0.765625)"/>
       <use xlink:href="#DejaVuSans-33" transform="translate(310.732422 39.046875) scale(0.7)"/>
      </g>
     </g>
    </g>
    <g id="ytick_11">
     <g id="line2d_41">
      <g>
       <use xlink:href="#mdfa7ce07b4" x="110.006985" y="66.656379" style="stroke: #000000; stroke-width: 1.4"/>
      </g>
     </g>
     <g id="line2d_42">
      <g>
       <use xlink:href="#mdfa7ce07b4" x="475.11" y="66.656379" style="stroke: #000000; stroke-width: 1.4"/>
      </g>
     </g>
     <g id="text_20">
      <!-- $\mathdefault{6\times10^{3}}$ -->
      <g transform="translate(52.246985 70.519504) scale(0.14 -0.14)">
       <use xlink:href="#DejaVuSans-36" transform="translate(0 0.765625)"/>
       <use xlink:href="#DejaVuSans-d7" transform="translate(81.181641 0.765625)"/>
       <use xlink:href="#DejaVuSans-31" transform="translate(182.529297 0.765625)"/>
       <use xlink:href="#DejaVuSans-30" transform="translate(246.152344 0.765625)"/>
       <use xlink:href="#DejaVuSans-33" transform="translate(310.732422 39.046875) scale(0.7)"/>
      </g>
     </g>
    </g>
    <g id="ytick_12">
     <g id="line2d_43">
      <g>
       <use xlink:href="#mdfa7ce07b4" x="110.006985" y="42.478117" style="stroke: #000000; stroke-width: 1.4"/>
      </g>
     </g>
     <g id="line2d_44">
      <g>
       <use xlink:href="#mdfa7ce07b4" x="475.11" y="42.478117" style="stroke: #000000; stroke-width: 1.4"/>
      </g>
     </g>
     <g id="text_21">
      <!-- $\mathdefault{8\times10^{3}}$ -->
      <g transform="translate(52.246985 46.341242) scale(0.14 -0.14)">
       <use xlink:href="#DejaVuSans-38" transform="translate(0 0.765625)"/>
       <use xlink:href="#DejaVuSans-d7" transform="translate(81.181641 0.765625)"/>
       <use xlink:href="#DejaVuSans-31" transform="translate(182.529297 0.765625)"/>
       <use xlink:href="#DejaVuSans-30" transform="translate(246.152344 0.765625)"/>
       <use xlink:href="#DejaVuSans-33" transform="translate(310.732422 39.046875) scale(0.7)"/>
      </g>
     </g>
    </g>
    <g id="text_22">
     <!-- $(2\pi p_T)^{-1}dN/(dp_Td\eta_p)\ [GeV^{-2}]$ -->
     <g transform="translate(39.496985 406.497) rotate(-90) scale(0.25 -0.25)">
      <defs>
       <path id="DejaVuSans-28" d="M 1984 4856 
Q 1566 4138 1362 3434 
Q 1159 2731 1159 2009 
Q 1159 1288 1364 580 
Q 1569 -128 1984 -844 
L 1484 -844 
Q 1016 -109 783 600 
Q 550 1309 550 2009 
Q 550 2706 781 3412 
Q 1013 4119 1484 4856 
L 1984 4856 
z
" transform="scale(0.015625)"/>
       <path id="DejaVuSans-3c0" d="M 231 3500 
L 3584 3500 
L 3584 2925 
L 3144 2925 
L 3144 775 
Q 3144 550 3220 451 
Q 3297 353 3469 353 
Q 3516 353 3584 361 
Q 3653 369 3675 372 
L 3675 -44 
Q 3566 -84 3450 -103 
Q 3334 -122 3219 -122 
Q 2844 -122 2700 83 
Q 2556 288 2556 838 
L 2556 2925 
L 1266 2925 
L 1266 0 
L 678 0 
L 678 2925 
L 231 2925 
L 231 3500 
z
" transform="scale(0.015625)"/>
       <path id="DejaVuSans-29" d="M 513 4856 
L 1013 4856 
Q 1481 4119 1714 3412 
Q 1947 2706 1947 2009 
Q 1947 1309 1714 600 
Q 1481 -109 1013 -844 
L 513 -844 
Q 928 -128 1133 580 
Q 1338 1288 1338 2009 
Q 1338 2731 1133 3434 
Q 928 4138 513 4856 
z
" transform="scale(0.015625)"/>
       <path id="DejaVuSans-2212" d="M 678 2272 
L 4684 2272 
L 4684 1741 
L 678 1741 
L 678 2272 
z
" transform="scale(0.015625)"/>
       <path id="DejaVuSans-64" d="M 2906 2969 
L 2906 4863 
L 3481 4863 
L 3481 0 
L 2906 0 
L 2906 525 
Q 2725 213 2448 61 
Q 2172 -91 1784 -91 
Q 1150 -91 751 415 
Q 353 922 353 1747 
Q 353 2572 751 3078 
Q 1150 3584 1784 3584 
Q 2172 3584 2448 3432 
Q 2725 3281 2906 2969 
z
M 947 1747 
Q 947 1113 1208 752 
Q 1469 391 1925 391 
Q 2381 391 2643 752 
Q 2906 1113 2906 1747 
Q 2906 2381 2643 2742 
Q 2381 3103 1925 3103 
Q 1469 3103 1208 2742 
Q 947 2381 947 1747 
z
" transform="scale(0.015625)"/>
       <path id="DejaVuSans-4e" d="M 628 4666 
L 1478 4666 
L 3547 763 
L 3547 4666 
L 4159 4666 
L 4159 0 
L 3309 0 
L 1241 3903 
L 1241 0 
L 628 0 
L 628 4666 
z
" transform="scale(0.015625)"/>
       <path id="DejaVuSans-2f" d="M 1625 4666 
L 2156 4666 
L 531 -594 
L 0 -594 
L 1625 4666 
z
" transform="scale(0.015625)"/>
       <path id="DejaVuSans-3b7" d="M 3513 2113 
L 3513 -1331 
L 2938 -1331 
L 2938 2094 
Q 2938 2591 2744 2837 
Q 2550 3084 2163 3084 
Q 1697 3084 1428 2787 
Q 1159 2491 1159 1978 
L 1159 0 
L 581 0 
L 581 3500 
L 1159 3500 
L 1159 2956 
Q 1366 3272 1644 3428 
Q 1925 3584 2291 3584 
Q 2894 3584 3203 3213 
Q 3513 2838 3513 2113 
z
" transform="scale(0.015625)"/>
      </defs>
      <use xlink:href="#DejaVuSans-28" transform="translate(0 0.765625)"/>
      <use xlink:href="#DejaVuSans-32" transform="translate(39.013672 0.765625)"/>
      <use xlink:href="#DejaVuSans-3c0" transform="translate(102.636719 0.765625)"/>
      <use xlink:href="#DejaVuSans-70" transform="translate(162.841797 0.765625)"/>
      <use xlink:href="#DejaVuSans-54" transform="translate(227.275391 -15.640625) scale(0.7)"/>
      <use xlink:href="#DejaVuSans-29" transform="translate(272.768555 0.765625)"/>
      <use xlink:href="#DejaVuSans-2212" transform="translate(312.739258 39.046875) scale(0.7)"/>
      <use xlink:href="#DejaVuSans-31" transform="translate(371.391602 39.046875) scale(0.7)"/>
      <use xlink:href="#DejaVuSans-64" transform="translate(418.662109 0.765625)"/>
      <use xlink:href="#DejaVuSans-4e" transform="translate(482.138672 0.765625)"/>
      <use xlink:href="#DejaVuSans-2f" transform="translate(556.943359 0.765625)"/>
      <use xlink:href="#DejaVuSans-28" transform="translate(590.634766 0.765625)"/>
      <use xlink:href="#DejaVuSans-64" transform="translate(629.648438 0.765625)"/>
      <use xlink:href="#DejaVuSans-70" transform="translate(693.125 0.765625)"/>
      <use xlink:href="#DejaVuSans-54" transform="translate(757.558594 -15.640625) scale(0.7)"/>
      <use xlink:href="#DejaVuSans-64" transform="translate(803.051758 0.765625)"/>
      <use xlink:href="#DejaVuSans-3b7" transform="translate(866.52832 0.765625)"/>
      <use xlink:href="#DejaVuSans-70" transform="translate(930.864258 -15.640625) scale(0.7)"/>
      <use xlink:href="#DejaVuSans-29" transform="translate(978.032227 0.765625)"/>
      <use xlink:href="#DejaVuSans-5b" transform="translate(1046.309929 0.765625)"/>
      <use xlink:href="#DejaVuSans-47" transform="translate(1085.323601 0.765625)"/>
      <use xlink:href="#DejaVuSans-65" transform="translate(1162.813835 0.765625)"/>
      <use xlink:href="#DejaVuSans-56" transform="translate(1224.337272 0.765625)"/>
      <use xlink:href="#DejaVuSans-2212" transform="translate(1293.702507 39.046875) scale(0.7)"/>
      <use xlink:href="#DejaVuSans-32" transform="translate(1352.354851 39.046875) scale(0.7)"/>
      <use xlink:href="#DejaVuSans-5d" transform="translate(1399.625358 0.765625)"/>
     </g>
    </g>
   </g>
   <g id="legend_1">
    <g id="patch_7">
     <path d="M 205.91 127.79275 
L 461.11 127.79275 
Q 465.11 127.79275 465.11 123.79275 
L 465.11 37.724 
Q 465.11 33.724 461.11 33.724 
L 205.91 33.724 
Q 201.91 33.724 201.91 37.724 
L 201.91 123.79275 
Q 201.91 127.79275 205.91 127.79275 
z
" style="fill: #ffffff; opacity: 0.85; stroke: #000000; stroke-linejoin: miter"/>
    </g>
    <g id="patch_8">
     <path d="M 209.91 56.920875 
L 249.91 56.920875 
L 249.91 42.920875 
L 209.91 42.920875 
z
" style="fill: #ff0000; fill-opacity: 0.2; stroke: #ff0000; stroke-width: 2; stroke-linejoin: miter"/>
    </g>
    <g id="text_23">
     <!-- DCC, $m={0.42}\ GeV$ -->
     <g transform="translate(265.91 56.920875) scale(0.2 -0.2)">
      <defs>
       <path id="DejaVuSans-44" d="M 1259 4147 
L 1259 519 
L 2022 519 
Q 2988 519 3436 956 
Q 3884 1394 3884 2338 
Q 3884 3275 3436 3711 
Q 2988 4147 2022 4147 
L 1259 4147 
z
M 628 4666 
L 1925 4666 
Q 3281 4666 3915 4102 
Q 4550 3538 4550 2338 
Q 4550 1131 3912 565 
Q 3275 0 1925 0 
L 628 0 
L 628 4666 
z
" transform="scale(0.015625)"/>
       <path id="DejaVuSans-43" d="M 4122 4306 
L 4122 3641 
Q 3803 3938 3442 4084 
Q 3081 4231 2675 4231 
Q 1875 4231 1450 3742 
Q 1025 3253 1025 2328 
Q 1025 1406 1450 917 
Q 1875 428 2675 428 
Q 3081 428 3442 575 
Q 3803 722 4122 1019 
L 4122 359 
Q 3791 134 3420 21 
Q 3050 -91 2638 -91 
Q 1578 -91 968 557 
Q 359 1206 359 2328 
Q 359 3453 968 4101 
Q 1578 4750 2638 4750 
Q 3056 4750 3426 4639 
Q 3797 4528 4122 4306 
z
" transform="scale(0.015625)"/>
       <path id="DejaVuSans-2c" d="M 750 794 
L 1409 794 
L 1409 256 
L 897 -744 
L 494 -744 
L 750 256 
L 750 794 
z
" transform="scale(0.015625)"/>
       <path id="DejaVuSans-20" transform="scale(0.015625)"/>
       <path id="DejaVuSans-6d" d="M 3328 2828 
Q 3544 3216 3844 3400 
Q 4144 3584 4550 3584 
Q 5097 3584 5394 3201 
Q 5691 2819 5691 2113 
L 5691 0 
L 5113 0 
L 5113 2094 
Q 5113 2597 4934 2840 
Q 4756 3084 4391 3084 
Q 3944 3084 3684 2787 
Q 3425 2491 3425 1978 
L 3425 0 
L 2847 0 
L 2847 2094 
Q 2847 2600 2669 2842 
Q 2491 3084 2119 3084 
Q 1678 3084 1418 2786 
Q 1159 2488 1159 1978 
L 1159 0 
L 581 0 
L 581 3500 
L 1159 3500 
L 1159 2956 
Q 1356 3278 1631 3431 
Q 1906 3584 2284 3584 
Q 2666 3584 2933 3390 
Q 3200 3197 3328 2828 
z
" transform="scale(0.015625)"/>
       <path id="DejaVuSans-3d" d="M 678 2906 
L 4684 2906 
L 4684 2381 
L 678 2381 
L 678 2906 
z
M 678 1631 
L 4684 1631 
L 4684 1100 
L 678 1100 
L 678 1631 
z
" transform="scale(0.015625)"/>
      </defs>
      <use xlink:href="#DejaVuSans-44" transform="translate(0 0.78125)"/>
      <use xlink:href="#DejaVuSans-43" transform="translate(77.001953 0.78125)"/>
      <use xlink:href="#DejaVuSans-43" transform="translate(146.826172 0.78125)"/>
      <use xlink:href="#DejaVuSans-2c" transform="translate(216.650391 0.78125)"/>
      <use xlink:href="#DejaVuSans-20" transform="translate(248.4375 0.78125)"/>
      <use xlink:href="#DejaVuSans-6d" transform="translate(280.224609 0.78125)"/>
      <use xlink:href="#DejaVuSans-3d" transform="translate(395.195312 0.78125)"/>
      <use xlink:href="#DejaVuSans-30" transform="translate(496.542969 0.78125)"/>
      <use xlink:href="#DejaVuSans-2e" transform="translate(560.166016 0.78125)"/>
      <use xlink:href="#DejaVuSans-34" transform="translate(591.953125 0.78125)"/>
      <use xlink:href="#DejaVuSans-32" transform="translate(655.576172 0.78125)"/>
      <use xlink:href="#DejaVuSans-47" transform="translate(748.463249 0.78125)"/>
      <use xlink:href="#DejaVuSans-65" transform="translate(825.953483 0.78125)"/>
      <use xlink:href="#DejaVuSans-56" transform="translate(887.476921 0.78125)"/>
     </g>
    </g>
    <g id="line2d_45">
     <path d="M 215.91 79.277125 
L 243.91 79.277125 
" style="fill: none; stroke: #0000ff; stroke-width: 2; stroke-linecap: square"/>
    </g>
    <g id="text_24">
     <!-- Fluid$\mathit{u}$m -->
     <g transform="translate(265.91 86.277125) scale(0.2 -0.2)">
      <defs>
       <path id="DejaVuSans-46" d="M 628 4666 
L 3309 4666 
L 3309 4134 
L 1259 4134 
L 1259 2759 
L 3109 2759 
L 3109 2228 
L 1259 2228 
L 1259 0 
L 628 0 
L 628 4666 
z
" transform="scale(0.015625)"/>
       <path id="DejaVuSans-6c" d="M 603 4863 
L 1178 4863 
L 1178 0 
L 603 0 
L 603 4863 
z
" transform="scale(0.015625)"/>
       <path id="DejaVuSans-75" d="M 544 1381 
L 544 3500 
L 1119 3500 
L 1119 1403 
Q 1119 906 1312 657 
Q 1506 409 1894 409 
Q 2359 409 2629 706 
Q 2900 1003 2900 1516 
L 2900 3500 
L 3475 3500 
L 3475 0 
L 2900 0 
L 2900 538 
Q 2691 219 2414 64 
Q 2138 -91 1772 -91 
Q 1169 -91 856 284 
Q 544 659 544 1381 
z
M 1991 3584 
L 1991 3584 
z
" transform="scale(0.015625)"/>
       <path id="DejaVuSans-69" d="M 603 3500 
L 1178 3500 
L 1178 0 
L 603 0 
L 603 3500 
z
M 603 4863 
L 1178 4863 
L 1178 4134 
L 603 4134 
L 603 4863 
z
" transform="scale(0.015625)"/>
       <path id="Cmmi10-75" d="M 678 697 
Q 678 906 734 1126 
Q 791 1347 892 1617 
Q 994 1888 1069 2088 
Q 1153 2322 1153 2472 
Q 1153 2663 1013 2663 
Q 759 2663 595 2402 
Q 431 2141 353 1819 
Q 341 1778 300 1778 
L 225 1778 
Q 172 1778 172 1838 
L 172 1856 
Q 275 2238 487 2533 
Q 700 2828 1025 2828 
Q 1253 2828 1411 2678 
Q 1569 2528 1569 2297 
Q 1569 2178 1516 2047 
Q 1488 1969 1388 1706 
Q 1288 1444 1234 1272 
Q 1181 1100 1147 934 
Q 1113 769 1113 603 
Q 1113 391 1203 244 
Q 1294 97 1497 97 
Q 1906 97 2216 603 
Q 2222 628 2226 651 
Q 2231 675 2234 697 
L 2694 2553 
Q 2716 2638 2794 2698 
Q 2872 2759 2963 2759 
Q 3041 2759 3098 2709 
Q 3156 2659 3156 2578 
Q 3156 2541 3150 2528 
L 2688 684 
Q 2644 494 2644 372 
Q 2644 97 2828 97 
Q 3034 97 3136 351 
Q 3238 606 3309 941 
Q 3322 978 3359 978 
L 3438 978 
Q 3463 978 3478 956 
Q 3494 934 3494 916 
Q 3425 641 3361 444 
Q 3297 247 3159 87 
Q 3022 -72 2816 -72 
Q 2613 -72 2452 39 
Q 2291 150 2234 341 
Q 2088 153 1894 40 
Q 1700 -72 1484 -72 
Q 1116 -72 897 129 
Q 678 331 678 697 
z
" transform="scale(0.015625)"/>
      </defs>
      <use xlink:href="#DejaVuSans-46" transform="translate(0 0.015625)"/>
      <use xlink:href="#DejaVuSans-6c" transform="translate(57.519531 0.015625)"/>
      <use xlink:href="#DejaVuSans-75" transform="translate(85.302734 0.015625)"/>
      <use xlink:href="#DejaVuSans-69" transform="translate(148.681641 0.015625)"/>
      <use xlink:href="#DejaVuSans-64" transform="translate(176.464844 0.015625)"/>
      <use xlink:href="#Cmmi10-75" transform="translate(239.941406 0.015625)"/>
      <use xlink:href="#DejaVuSans-6d" transform="translate(297.119141 0.015625)"/>
     </g>
    </g>
    <g id="LineCollection_2">
     <path d="M 215.91 118.633375 
L 215.91 98.633375 
" style="fill: none; stroke: #0000ff; stroke-width: 2"/>
     <path d="M 243.91 118.633375 
L 243.91 98.633375 
" style="fill: none; stroke: #0000ff; stroke-width: 2"/>
    </g>
    <g id="line2d_46">
     <g>
      <use xlink:href="#m4b61e2090d" x="215.91" y="118.633375" style="fill: #0000ff; stroke: #0000ff; stroke-width: 0.5"/>
      <use xlink:href="#m4b61e2090d" x="243.91" y="118.633375" style="fill: #0000ff; stroke: #0000ff; stroke-width: 0.5"/>
     </g>
    </g>
    <g id="line2d_47">
     <g>
      <use xlink:href="#m4b61e2090d" x="215.91" y="98.633375" style="fill: #0000ff; stroke: #0000ff; stroke-width: 0.5"/>
      <use xlink:href="#m4b61e2090d" x="243.91" y="98.633375" style="fill: #0000ff; stroke: #0000ff; stroke-width: 0.5"/>
     </g>
    </g>
    <g id="line2d_48"/>
    <g id="line2d_49">
     <g>
      <use xlink:href="#m004c24e157" x="215.91" y="108.633375" style="fill: #0000ff; stroke: #000000; stroke-width: 0.5"/>
      <use xlink:href="#m004c24e157" x="243.91" y="108.633375" style="fill: #0000ff; stroke: #000000; stroke-width: 0.5"/>
     </g>
    </g>
    <g id="text_25">
     <!-- ALICE -->
     <g transform="translate(265.91 115.633375) scale(0.2 -0.2)">
      <defs>
       <path id="DejaVuSans-41" d="M 2188 4044 
L 1331 1722 
L 3047 1722 
L 2188 4044 
z
M 1831 4666 
L 2547 4666 
L 4325 0 
L 3669 0 
L 3244 1197 
L 1141 1197 
L 716 0 
L 50 0 
L 1831 4666 
z
" transform="scale(0.015625)"/>
       <path id="DejaVuSans-4c" d="M 628 4666 
L 1259 4666 
L 1259 531 
L 3531 531 
L 3531 0 
L 628 0 
L 628 4666 
z
" transform="scale(0.015625)"/>
       <path id="DejaVuSans-49" d="M 628 4666 
L 1259 4666 
L 1259 0 
L 628 0 
L 628 4666 
z
" transform="scale(0.015625)"/>
       <path id="DejaVuSans-45" d="M 628 4666 
L 3578 4666 
L 3578 4134 
L 1259 4134 
L 1259 2753 
L 3481 2753 
L 3481 2222 
L 1259 2222 
L 1259 531 
L 3634 531 
L 3634 0 
L 628 0 
L 628 4666 
z
" transform="scale(0.015625)"/>
      </defs>
      <use xlink:href="#DejaVuSans-41"/>
      <use xlink:href="#DejaVuSans-4c" x="68.408203"/>
      <use xlink:href="#DejaVuSans-49" x="124.121094"/>
      <use xlink:href="#DejaVuSans-43" x="153.613281"/>
      <use xlink:href="#DejaVuSans-45" x="223.4375"/>
     </g>
    </g>
   </g>
  </g>
 </g>
 <defs>
  <clipPath id="pd66177d1f1">
   <rect x="110.006985" y="23.724" width="365.103015" height="405.796"/>
  </clipPath>
 </defs>
</svg>
