<?xml version="1.0" encoding="utf-8" standalone="no"?>
<!DOCTYPE svg PUBLIC "-//W3C//DTD SVG 1.1//EN"
  "http://www.w3.org/Graphics/SVG/1.1/DTD/svg11.dtd">
<svg xmlns:xlink="http://www.w3.org/1999/xlink" width="504pt" height="504pt" viewBox="0 0 504 504" xmlns="http://www.w3.org/2000/svg" version="1.1">
 <metadata>
  <rdf:RDF xmlns:dc="http://purl.org/dc/elements/1.1/" xmlns:cc="http://creativecommons.org/ns#" xmlns:rdf="http://www.w3.org/1999/02/22-rdf-syntax-ns#">
   <cc:Work>
    <dc:type rdf:resource="http://purl.org/dc/dcmitype/StillImage"/>
    <dc:date>2025-01-22T14:01:23.005403</dc:date>
    <dc:format>image/svg+xml</dc:format>
    <dc:creator>
     <cc:Agent>
      <dc:title>Matplotlib v3.9.2, https://matplotlib.org/</dc:title>
     </cc:Agent>
    </dc:creator>
   </cc:Work>
  </rdf:RDF>
 </metadata>
 <defs>
  <style type="text/css">*{stroke-linejoin: round; stroke-linecap: butt}</style>
 </defs>
 <g id="figure_1">
  <g id="patch_1">
   <path d="M 0 504 
L 504 504 
L 504 0 
L 0 0 
z
" style="fill: #ffffff"/>
  </g>
  <g id="axes_1">
   <g id="patch_2">
    <path d="M 115.7 227.72 
L 475.944741 227.72 
L 475.944741 23.04 
L 115.7 23.04 
z
" style="fill: #ffffff"/>
   </g>
   <g id="LineCollection_1">
    <path d="M 115.7 34.734538 
L 155.00594 34.842726 
L 180.608879 35.15998 
L 196.475692 35.586884 
L 210.539214 36.206772 
L 223.520944 37.050346 
L 232.536027 37.816434 
L 242.272382 38.828138 
L 253.451279 40.249202 
L 262.105842 41.550382 
L 270.399655 42.971446 
L 279.775489 44.791636 
L 290.593635 47.183468 
L 299.608719 49.415942 
L 308.623803 51.86333 
L 318.360157 54.739669 
L 328.096512 57.843202 
L 338.914658 61.526565 
L 350.813679 65.814465 
L 362.714076 70.30222 
L 376.777139 75.835452 
L 388.317474 80.573501 
L 400.217871 85.695764 
L 409.953308 90.129718 
L 417.526079 93.784864 
L 425.098851 97.684457 
L 431.589142 101.288141 
L 436.639185 104.310533 
L 441.686935 107.582928 
L 446.01456 110.645233 
L 449.982124 113.726106 
L 453.587332 116.826277 
L 456.832478 119.937559 
L 459.717561 123.044894 
L 462.242583 126.118749 
L 464.405249 129.111316 
L 466.207853 131.946281 
L 468.010457 135.212535 
L 469.452999 138.26753 
L 470.535478 140.898107 
L 471.97802 145.059543 
L 472.700438 147.539242 
L 473.420562 150.77918 
L 473.780624 153.422768 
L 474.503042 162.366115 
L 475.223166 171.072032 
L 475.583228 173.402022 
L 475.945584 173.629655 
L 475.945584 173.629655 
" clip-path="url(#pdc4d8d6c7b)" style="fill: none; stroke: #0000ff; stroke-opacity: 0.6; stroke-width: 1.5"/>
    <path d="M 115.7 34.784246 
L 136.254501 34.812024 
L 163.299982 35.031324 
L 183.854483 35.47431 
L 197.557484 36.028408 
L 207.654359 36.630752 
L 219.193777 37.578128 
L 227.48759 38.455328 
L 236.863424 39.668788 
L 246.599778 41.19804 
L 255.975383 42.94513 
L 264.629946 44.810642 
L 272.923988 46.83405 
L 281.217801 49.094302 
L 289.511843 51.594322 
L 297.805656 54.329578 
L 306.099698 57.29583 
L 314.754261 60.625681 
L 324.129866 64.482583 
L 334.226742 68.889197 
L 345.76593 74.181052 
L 360.191348 81.06795 
L 376.777139 89.257489 
L 389.760016 95.862805 
L 402.742892 102.70438 
L 413.198454 108.476795 
L 421.133581 113.08575 
L 428.706352 117.74953 
L 434.836581 121.784357 
L 440.244393 125.602809 
L 444.932081 129.170235 
L 449.259706 132.745117 
L 452.864914 135.996021 
L 456.112353 139.198824 
L 458.995144 142.333206 
L 461.520165 145.368172 
L 464.045187 148.770099 
L 466.207853 152.086062 
L 468.010457 155.243397 
L 469.452999 158.137718 
L 470.89554 161.482336 
L 472.338082 165.423741 
L 473.0605 167.878439 
L 473.420562 169.365293 
L 473.780624 171.504346 
L 475.583228 186.616674 
L 475.945584 186.844512 
L 475.945584 186.844512 
" clip-path="url(#pdc4d8d6c7b)" style="fill: none; stroke: #2000df; stroke-opacity: 0.6; stroke-width: 1.5"/>
    <path d="M 115.7 34.885124 
L 134.812074 34.91875 
L 156.087731 35.111734 
L 175.19992 35.528404 
L 188.18165 36.056186 
L 199.360547 36.755022 
L 209.457422 37.643918 
L 217.751235 38.594218 
L 226.405798 39.826684 
L 233.978569 41.127864 
L 241.551341 42.648344 
L 248.763362 44.310638 
L 256.336133 46.290186 
L 263.187633 48.293126 
L 270.399655 50.623554 
L 277.611905 53.185124 
L 284.823926 55.976228 
L 292.396698 59.149499 
L 299.96924 62.562246 
L 307.902761 66.380113 
L 316.196574 70.615088 
L 325.572408 75.664251 
L 336.029804 81.55655 
L 349.733493 89.546819 
L 379.302161 107.144182 
L 407.790642 124.32312 
L 420.051101 132.002421 
L 429.066414 137.913726 
L 436.279123 142.904848 
L 442.409353 147.413217 
L 447.817164 151.677286 
L 452.504852 155.67688 
L 456.472415 159.365652 
L 459.717561 162.666702 
L 462.602645 165.892312 
L 465.127667 169.023185 
L 467.290333 172.027157 
L 469.092937 174.849255 
L 470.89554 178.084661 
L 472.700438 181.928259 
L 473.420562 183.898465 
L 474.140686 186.92346 
L 475.223166 192.558754 
L 475.583228 193.954277 
L 475.945584 194.852193 
L 475.945584 194.852193 
" clip-path="url(#pdc4d8d6c7b)" style="fill: none; stroke: #4000bf; stroke-opacity: 0.6; stroke-width: 1.5"/>
    <path d="M 115.7 35.09419 
L 133.36967 35.132202 
L 150.318023 35.309104 
L 166.905878 35.684838 
L 179.527087 36.199462 
L 189.624192 36.835432 
L 197.557484 37.52111 
L 205.130026 38.363222 
L 212.702797 39.418786 
L 220.275568 40.717042 
L 227.48759 42.200972 
L 233.978569 43.755078 
L 241.19059 45.739012 
L 247.321049 47.642536 
L 253.811799 49.880858 
L 260.302779 52.354123 
L 266.793529 55.062186 
L 273.284509 58.0049 
L 280.136009 61.361944 
L 286.98751 64.968113 
L 294.19976 69.019169 
L 301.772302 73.533386 
L 309.705594 78.518514 
L 318.720907 84.451895 
L 329.539054 91.853124 
L 350.453617 106.524001 
L 365.59916 117.016337 
L 378.219681 125.514065 
L 393.727579 135.613415 
L 408.873122 145.187907 
L 438.441789 163.84829 
L 447.09704 169.646144 
L 453.587332 174.269719 
L 458.635082 178.130568 
L 462.962707 181.723141 
L 466.207853 184.677857 
L 469.092937 187.595352 
L 471.257896 190.061672 
L 473.0605 192.397978 
L 473.780624 193.558382 
L 475.945584 197.882016 
L 475.945584 197.882016 
" clip-path="url(#pdc4d8d6c7b)" style="fill: none; stroke: #60009f; stroke-opacity: 0.6; stroke-width: 1.5"/>
    <path d="M 115.7 35.516708 
L 125.075742 35.509398 
L 150.678773 35.823728 
L 166.184836 36.309112 
L 175.921191 36.814964 
L 184.215004 37.427542 
L 191.787775 38.176086 
L 199.360547 39.146854 
L 206.212047 40.252126 
L 212.702797 41.522604 
L 218.833027 42.946592 
L 224.963485 44.600114 
L 231.093715 46.499252 
L 237.223944 48.652778 
L 242.993653 50.914492 
L 248.763362 53.409541 
L 254.53307 56.137195 
L 260.6633 59.289267 
L 266.793529 62.699674 
L 272.923988 66.360961 
L 279.414738 70.499736 
L 286.266239 75.14144 
L 293.478489 80.301423 
L 301.411781 86.257611 
L 310.787386 93.597582 
L 322.687554 103.216957 
L 345.76593 121.922809 
L 355.141305 129.208686 
L 364.879036 136.448656 
L 372.811869 142.073262 
L 380.744702 147.442311 
L 388.677536 152.558141 
L 398.052911 158.292105 
L 407.43058 163.714956 
L 416.083537 168.473473 
L 427.26381 174.321327 
L 438.441789 179.908068 
L 453.587332 187.228989 
L 469.092937 194.805819 
L 474.863104 197.855053 
L 475.945584 198.469516 
L 475.945584 198.469516 
" clip-path="url(#pdc4d8d6c7b)" style="fill: none; stroke: #80007f; stroke-opacity: 0.6; stroke-width: 1.5"/>
    <path d="M 115.7 36.352972 
L 123.633315 36.332504 
L 144.187793 36.60736 
L 158.251544 37.056194 
L 167.627149 37.541578 
L 177.002983 38.253572 
L 184.215004 39.006502 
L 191.427025 39.988966 
L 197.557484 41.03722 
L 202.966442 42.14834 
L 209.096672 43.64689 
L 214.50586 45.198072 
L 219.915048 46.98025 
L 225.324006 49.00512 
L 230.372444 51.120634 
L 235.420882 53.458957 
L 240.83007 56.21278 
L 246.239028 59.222892 
L 251.648216 62.485491 
L 257.417925 66.237568 
L 263.187633 70.259822 
L 269.317863 74.814391 
L 275.808842 79.928174 
L 282.660343 85.615793 
L 290.232885 92.193185 
L 299.248198 100.323513 
L 314.03299 114.017921 
L 328.096512 126.944048 
L 336.751075 134.599664 
L 343.963096 140.701029 
L 350.813679 146.212038 
L 358.026388 151.680357 
L 364.156618 156.047497 
L 370.286847 160.15367 
L 376.417077 164.001946 
L 382.547306 167.598466 
L 389.399953 171.332268 
L 395.890245 174.605248 
L 402.380537 177.636266 
L 409.593246 180.739069 
L 416.445893 183.445231 
L 423.656309 186.058132 
L 431.589142 188.674205 
L 439.524269 191.037309 
L 447.09704 193.067881 
L 454.669812 194.883772 
L 462.242583 196.473566 
L 468.732874 197.62174 
L 473.780624 198.305022 
L 475.945584 198.483002 
L 475.945584 198.483002 
" clip-path="url(#pdc4d8d6c7b)" style="fill: none; stroke: #a0005f; stroke-opacity: 0.6; stroke-width: 1.5"/>
    <path d="M 115.7 37.978716 
L 122.5515 37.942166 
L 138.41813 38.177548 
L 151.400044 38.601528 
L 161.496919 39.157088 
L 169.069691 39.753584 
L 176.642233 40.56207 
L 183.493733 41.528452 
L 189.624192 42.624952 
L 195.754421 43.980226 
L 200.802859 45.315032 
L 205.851297 46.872062 
L 210.899735 48.665936 
L 215.948172 50.71566 
L 220.636089 52.857636 
L 225.324006 55.23631 
L 230.011923 57.855483 
L 234.69984 60.715155 
L 239.748278 64.060357 
L 244.796716 67.674421 
L 250.205904 71.83308 
L 255.614862 76.271712 
L 261.384571 81.29222 
L 267.5148 86.917265 
L 274.366301 93.507523 
L 282.299593 101.450423 
L 293.478489 112.981655 
L 310.426865 130.452117 
L 318.360157 138.308466 
L 325.211658 144.796383 
L 331.341887 150.308854 
L 337.111596 155.206701 
L 342.520784 159.519454 
L 347.930889 163.548434 
L 352.978639 167.047585 
L 358.026388 170.294979 
L 363.074138 173.295442 
L 368.484243 176.245758 
L 373.894349 178.934814 
L 379.302161 181.377378 
L 384.712266 183.588653 
L 390.48014 185.710775 
L 396.612663 187.718934 
L 402.742892 189.495147 
L 409.233184 191.146242 
L 416.083537 192.657307 
L 423.656309 194.079102 
L 431.589142 195.319521 
L 439.884331 196.372615 
L 448.177227 197.200697 
L 457.19254 197.866722 
L 466.207853 198.297962 
L 474.503042 198.474484 
L 475.945584 198.479769 
L 475.945584 198.479769 
" clip-path="url(#pdc4d8d6c7b)" style="fill: none; stroke: #c0003f; stroke-opacity: 0.6; stroke-width: 1.5"/>
    <path d="M 115.7 41.05915 
L 121.469686 40.999208 
L 133.730259 41.20535 
L 145.269585 41.59278 
L 154.284669 42.100094 
L 162.578711 42.775538 
L 169.790732 43.582562 
L 176.281712 44.534324 
L 182.411941 45.681994 
L 187.821129 46.930542 
L 192.869567 48.328214 
L 197.918005 49.975888 
L 202.605922 51.75368 
L 206.933088 53.621385 
L 211.260485 55.720378 
L 215.587651 58.060309 
L 219.915048 60.647903 
L 224.242215 63.486084 
L 228.930131 66.842836 
L 233.618048 70.487017 
L 238.305736 74.408101 
L 243.354403 78.923342 
L 248.763362 84.071044 
L 254.53307 89.877377 
L 261.02405 96.738981 
L 268.596592 105.083493 
L 279.775489 117.779939 
L 293.478489 133.297169 
L 301.051261 141.537585 
L 307.542011 148.273166 
L 313.31172 153.941632 
L 318.720907 158.943134 
L 323.769345 163.311736 
L 328.457262 167.09393 
L 333.14495 170.602876 
L 337.832867 173.834481 
L 342.520784 176.789622 
L 347.208471 179.474 
L 351.896159 181.897411 
L 356.583847 184.072809 
L 361.271534 186.015617 
L 366.321577 187.867064 
L 371.369327 189.490001 
L 376.777139 190.999721 
L 382.547306 192.376866 
L 388.677536 193.608426 
L 395.530183 194.741184 
L 402.742892 195.698296 
L 410.675726 196.520072 
L 419.328683 197.192279 
L 429.426476 197.744225 
L 440.966811 198.143585 
L 454.669812 198.389812 
L 473.0605 198.479525 
L 475.945584 198.480011 
L 475.945584 198.480011 
" clip-path="url(#pdc4d8d6c7b)" style="fill: none; stroke: #e0001f; stroke-opacity: 0.6; stroke-width: 1.5"/>
    <path d="M 115.7 46.646914 
L 120.748484 46.560656 
L 130.484815 46.749254 
L 142.02421 47.18493 
L 151.039294 47.771192 
L 158.612065 48.48611 
L 165.824086 49.408632 
L 171.954545 50.433494 
L 177.002983 51.481748 
L 182.05142 52.751641 
L 186.739337 54.1575 
L 191.066504 55.67301 
L 195.393671 57.418199 
L 199.721067 59.412513 
L 203.687713 61.473787 
L 207.654359 63.770004 
L 211.621005 66.309498 
L 215.587651 69.096801 
L 219.915048 72.422413 
L 224.242215 76.041447 
L 228.569381 79.944695 
L 233.257298 84.476895 
L 238.305736 89.681907 
L 243.714924 95.58751 
L 249.845153 102.620461 
L 257.417925 111.671703 
L 284.463406 144.360415 
L 290.232885 150.817192 
L 295.642073 156.546624 
L 300.69051 161.567424 
L 305.378427 165.919359 
L 309.705594 169.655354 
L 314.03299 173.112399 
L 318.360157 176.285963 
L 322.687554 179.176337 
L 327.01472 181.787907 
L 331.341887 184.128701 
L 335.669283 186.210311 
L 339.99645 188.047124 
L 344.684367 189.780325 
L 349.371137 191.269489 
L 354.421181 192.628433 
L 359.46893 193.76372 
L 364.879036 194.76557 
L 371.009265 195.674188 
L 377.859619 196.456343 
L 385.43239 197.094784 
L 394.447703 197.622354 
L 405.26562 198.02116 
L 418.968621 198.293594 
L 438.801851 198.445179 
L 475.945584 198.48 
L 475.945584 198.48 
" clip-path="url(#pdc4d8d6c7b)" style="fill: none; stroke: #ff0000; stroke-opacity: 0.6; stroke-width: 1.5"/>
   </g>
   <g id="patch_3">
    <path d="M 115.7 227.72 
L 115.7 23.04 
" style="fill: none; stroke: #000000; stroke-width: 2; stroke-linejoin: miter; stroke-linecap: square"/>
   </g>
   <g id="patch_4">
    <path d="M 475.944741 227.72 
L 475.944741 23.04 
" style="fill: none; stroke: #000000; stroke-width: 2; stroke-linejoin: miter; stroke-linecap: square"/>
   </g>
   <g id="patch_5">
    <path d="M 115.7 227.72 
L 475.944741 227.72 
" style="fill: none; stroke: #000000; stroke-width: 2; stroke-linejoin: miter; stroke-linecap: square"/>
   </g>
   <g id="patch_6">
    <path d="M 115.7 23.04 
L 475.944741 23.04 
" style="fill: none; stroke: #000000; stroke-width: 2; stroke-linejoin: miter; stroke-linecap: square"/>
   </g>
   <g id="matplotlib.axis_1">
    <g id="xtick_1">
     <g id="line2d_1">
      <defs>
       <path id="mce65cce1f8" d="M 0 5 
L 0 -5 
" style="stroke: #000000; stroke-width: 2"/>
      </defs>
      <g>
       <use xlink:href="#mce65cce1f8" x="115.7" y="227.72" style="stroke: #000000; stroke-width: 2"/>
      </g>
     </g>
     <g id="line2d_2">
      <g>
       <use xlink:href="#mce65cce1f8" x="115.7" y="23.04" style="stroke: #000000; stroke-width: 2"/>
      </g>
     </g>
    </g>
    <g id="xtick_2">
     <g id="line2d_3">
      <g>
       <use xlink:href="#mce65cce1f8" x="205.761185" y="227.72" style="stroke: #000000; stroke-width: 2"/>
      </g>
     </g>
     <g id="line2d_4">
      <g>
       <use xlink:href="#mce65cce1f8" x="205.761185" y="23.04" style="stroke: #000000; stroke-width: 2"/>
      </g>
     </g>
    </g>
    <g id="xtick_3">
     <g id="line2d_5">
      <g>
       <use xlink:href="#mce65cce1f8" x="295.822371" y="227.72" style="stroke: #000000; stroke-width: 2"/>
      </g>
     </g>
     <g id="line2d_6">
      <g>
       <use xlink:href="#mce65cce1f8" x="295.822371" y="23.04" style="stroke: #000000; stroke-width: 2"/>
      </g>
     </g>
    </g>
    <g id="xtick_4">
     <g id="line2d_7">
      <g>
       <use xlink:href="#mce65cce1f8" x="385.883556" y="227.72" style="stroke: #000000; stroke-width: 2"/>
      </g>
     </g>
     <g id="line2d_8">
      <g>
       <use xlink:href="#mce65cce1f8" x="385.883556" y="23.04" style="stroke: #000000; stroke-width: 2"/>
      </g>
     </g>
    </g>
    <g id="xtick_5">
     <g id="line2d_9">
      <g>
       <use xlink:href="#mce65cce1f8" x="475.944741" y="227.72" style="stroke: #000000; stroke-width: 2"/>
      </g>
     </g>
     <g id="line2d_10">
      <g>
       <use xlink:href="#mce65cce1f8" x="475.944741" y="23.04" style="stroke: #000000; stroke-width: 2"/>
      </g>
     </g>
    </g>
   </g>
   <g id="matplotlib.axis_2">
    <g id="ytick_1">
     <g id="line2d_11">
      <defs>
       <path id="m6b101e6a0b" d="M 5 0 
L -5 -0 
" style="stroke: #000000; stroke-width: 2"/>
      </defs>
      <g>
       <use xlink:href="#m6b101e6a0b" x="115.7" y="227.72" style="stroke: #000000; stroke-width: 2"/>
      </g>
     </g>
     <g id="line2d_12">
      <g>
       <use xlink:href="#m6b101e6a0b" x="475.944741" y="227.72" style="stroke: #000000; stroke-width: 2"/>
      </g>
     </g>
     <g id="text_1">
      <!-- −0.02 -->
      <g transform="translate(45.409375 233.23875) scale(0.2 -0.2)">
       <defs>
        <path id="DejaVuSans-2212" d="M 678 2272 
L 4684 2272 
L 4684 1741 
L 678 1741 
L 678 2272 
z
" transform="scale(0.015625)"/>
        <path id="DejaVuSans-30" d="M 2034 4250 
Q 1547 4250 1301 3770 
Q 1056 3291 1056 2328 
Q 1056 1369 1301 889 
Q 1547 409 2034 409 
Q 2525 409 2770 889 
Q 3016 1369 3016 2328 
Q 3016 3291 2770 3770 
Q 2525 4250 2034 4250 
z
M 2034 4750 
Q 2819 4750 3233 4129 
Q 3647 3509 3647 2328 
Q 3647 1150 3233 529 
Q 2819 -91 2034 -91 
Q 1250 -91 836 529 
Q 422 1150 422 2328 
Q 422 3509 836 4129 
Q 1250 4750 2034 4750 
z
" transform="scale(0.015625)"/>
        <path id="DejaVuSans-2e" d="M 684 794 
L 1344 794 
L 1344 0 
L 684 0 
L 684 794 
z
" transform="scale(0.015625)"/>
        <path id="DejaVuSans-32" d="M 1228 531 
L 3431 531 
L 3431 0 
L 469 0 
L 469 531 
Q 828 903 1448 1529 
Q 2069 2156 2228 2338 
Q 2531 2678 2651 2914 
Q 2772 3150 2772 3378 
Q 2772 3750 2511 3984 
Q 2250 4219 1831 4219 
Q 1534 4219 1204 4116 
Q 875 4013 500 3803 
L 500 4441 
Q 881 4594 1212 4672 
Q 1544 4750 1819 4750 
Q 2544 4750 2975 4387 
Q 3406 4025 3406 3419 
Q 3406 3131 3298 2873 
Q 3191 2616 2906 2266 
Q 2828 2175 2409 1742 
Q 1991 1309 1228 531 
z
" transform="scale(0.015625)"/>
       </defs>
       <use xlink:href="#DejaVuSans-2212"/>
       <use xlink:href="#DejaVuSans-30" x="83.789062"/>
       <use xlink:href="#DejaVuSans-2e" x="147.412109"/>
       <use xlink:href="#DejaVuSans-30" x="179.199219"/>
       <use xlink:href="#DejaVuSans-32" x="242.822266"/>
      </g>
     </g>
    </g>
    <g id="ytick_2">
     <g id="line2d_13">
      <g>
       <use xlink:href="#m6b101e6a0b" x="115.7" y="198.48" style="stroke: #000000; stroke-width: 2"/>
      </g>
     </g>
     <g id="line2d_14">
      <g>
       <use xlink:href="#m6b101e6a0b" x="475.944741" y="198.48" style="stroke: #000000; stroke-width: 2"/>
      </g>
     </g>
     <g id="text_2">
      <!-- 0.00 -->
      <g transform="translate(62.16875 203.99875) scale(0.2 -0.2)">
       <use xlink:href="#DejaVuSans-30"/>
       <use xlink:href="#DejaVuSans-2e" x="63.623047"/>
       <use xlink:href="#DejaVuSans-30" x="95.410156"/>
       <use xlink:href="#DejaVuSans-30" x="159.033203"/>
      </g>
     </g>
    </g>
    <g id="ytick_3">
     <g id="line2d_15">
      <g>
       <use xlink:href="#m6b101e6a0b" x="115.7" y="169.24" style="stroke: #000000; stroke-width: 2"/>
      </g>
     </g>
     <g id="line2d_16">
      <g>
       <use xlink:href="#m6b101e6a0b" x="475.944741" y="169.24" style="stroke: #000000; stroke-width: 2"/>
      </g>
     </g>
     <g id="text_3">
      <!-- 0.02 -->
      <g transform="translate(62.16875 174.75875) scale(0.2 -0.2)">
       <use xlink:href="#DejaVuSans-30"/>
       <use xlink:href="#DejaVuSans-2e" x="63.623047"/>
       <use xlink:href="#DejaVuSans-30" x="95.410156"/>
       <use xlink:href="#DejaVuSans-32" x="159.033203"/>
      </g>
     </g>
    </g>
    <g id="ytick_4">
     <g id="line2d_17">
      <g>
       <use xlink:href="#m6b101e6a0b" x="115.7" y="140" style="stroke: #000000; stroke-width: 2"/>
      </g>
     </g>
     <g id="line2d_18">
      <g>
       <use xlink:href="#m6b101e6a0b" x="475.944741" y="140" style="stroke: #000000; stroke-width: 2"/>
      </g>
     </g>
     <g id="text_4">
      <!-- 0.04 -->
      <g transform="translate(62.16875 145.51875) scale(0.2 -0.2)">
       <defs>
        <path id="DejaVuSans-34" d="M 2419 4116 
L 825 1625 
L 2419 1625 
L 2419 4116 
z
M 2253 4666 
L 3047 4666 
L 3047 1625 
L 3713 1625 
L 3713 1100 
L 3047 1100 
L 3047 0 
L 2419 0 
L 2419 1100 
L 313 1100 
L 313 1709 
L 2253 4666 
z
" transform="scale(0.015625)"/>
       </defs>
       <use xlink:href="#DejaVuSans-30"/>
       <use xlink:href="#DejaVuSans-2e" x="63.623047"/>
       <use xlink:href="#DejaVuSans-30" x="95.410156"/>
       <use xlink:href="#DejaVuSans-34" x="159.033203"/>
      </g>
     </g>
    </g>
    <g id="ytick_5">
     <g id="line2d_19">
      <g>
       <use xlink:href="#m6b101e6a0b" x="115.7" y="110.76" style="stroke: #000000; stroke-width: 2"/>
      </g>
     </g>
     <g id="line2d_20">
      <g>
       <use xlink:href="#m6b101e6a0b" x="475.944741" y="110.76" style="stroke: #000000; stroke-width: 2"/>
      </g>
     </g>
     <g id="text_5">
      <!-- 0.06 -->
      <g transform="translate(62.16875 116.27875) scale(0.2 -0.2)">
       <defs>
        <path id="DejaVuSans-36" d="M 2113 2584 
Q 1688 2584 1439 2293 
Q 1191 2003 1191 1497 
Q 1191 994 1439 701 
Q 1688 409 2113 409 
Q 2538 409 2786 701 
Q 3034 994 3034 1497 
Q 3034 2003 2786 2293 
Q 2538 2584 2113 2584 
z
M 3366 4563 
L 3366 3988 
Q 3128 4100 2886 4159 
Q 2644 4219 2406 4219 
Q 1781 4219 1451 3797 
Q 1122 3375 1075 2522 
Q 1259 2794 1537 2939 
Q 1816 3084 2150 3084 
Q 2853 3084 3261 2657 
Q 3669 2231 3669 1497 
Q 3669 778 3244 343 
Q 2819 -91 2113 -91 
Q 1303 -91 875 529 
Q 447 1150 447 2328 
Q 447 3434 972 4092 
Q 1497 4750 2381 4750 
Q 2619 4750 2861 4703 
Q 3103 4656 3366 4563 
z
" transform="scale(0.015625)"/>
       </defs>
       <use xlink:href="#DejaVuSans-30"/>
       <use xlink:href="#DejaVuSans-2e" x="63.623047"/>
       <use xlink:href="#DejaVuSans-30" x="95.410156"/>
       <use xlink:href="#DejaVuSans-36" x="159.033203"/>
      </g>
     </g>
    </g>
    <g id="ytick_6">
     <g id="line2d_21">
      <g>
       <use xlink:href="#m6b101e6a0b" x="115.7" y="81.52" style="stroke: #000000; stroke-width: 2"/>
      </g>
     </g>
     <g id="line2d_22">
      <g>
       <use xlink:href="#m6b101e6a0b" x="475.944741" y="81.52" style="stroke: #000000; stroke-width: 2"/>
      </g>
     </g>
     <g id="text_6">
      <!-- 0.08 -->
      <g transform="translate(62.16875 87.03875) scale(0.2 -0.2)">
       <defs>
        <path id="DejaVuSans-38" d="M 2034 2216 
Q 1584 2216 1326 1975 
Q 1069 1734 1069 1313 
Q 1069 891 1326 650 
Q 1584 409 2034 409 
Q 2484 409 2743 651 
Q 3003 894 3003 1313 
Q 3003 1734 2745 1975 
Q 2488 2216 2034 2216 
z
M 1403 2484 
Q 997 2584 770 2862 
Q 544 3141 544 3541 
Q 544 4100 942 4425 
Q 1341 4750 2034 4750 
Q 2731 4750 3128 4425 
Q 3525 4100 3525 3541 
Q 3525 3141 3298 2862 
Q 3072 2584 2669 2484 
Q 3125 2378 3379 2068 
Q 3634 1759 3634 1313 
Q 3634 634 3220 271 
Q 2806 -91 2034 -91 
Q 1263 -91 848 271 
Q 434 634 434 1313 
Q 434 1759 690 2068 
Q 947 2378 1403 2484 
z
M 1172 3481 
Q 1172 3119 1398 2916 
Q 1625 2713 2034 2713 
Q 2441 2713 2670 2916 
Q 2900 3119 2900 3481 
Q 2900 3844 2670 4047 
Q 2441 4250 2034 4250 
Q 1625 4250 1398 4047 
Q 1172 3844 1172 3481 
z
" transform="scale(0.015625)"/>
       </defs>
       <use xlink:href="#DejaVuSans-30"/>
       <use xlink:href="#DejaVuSans-2e" x="63.623047"/>
       <use xlink:href="#DejaVuSans-30" x="95.410156"/>
       <use xlink:href="#DejaVuSans-38" x="159.033203"/>
      </g>
     </g>
    </g>
    <g id="ytick_7">
     <g id="line2d_23">
      <g>
       <use xlink:href="#m6b101e6a0b" x="115.7" y="52.28" style="stroke: #000000; stroke-width: 2"/>
      </g>
     </g>
     <g id="line2d_24">
      <g>
       <use xlink:href="#m6b101e6a0b" x="475.944741" y="52.28" style="stroke: #000000; stroke-width: 2"/>
      </g>
     </g>
     <g id="text_7">
      <!-- 0.10 -->
      <g transform="translate(62.16875 57.79875) scale(0.2 -0.2)">
       <defs>
        <path id="DejaVuSans-31" d="M 794 531 
L 1825 531 
L 1825 4091 
L 703 3866 
L 703 4441 
L 1819 4666 
L 2450 4666 
L 2450 531 
L 3481 531 
L 3481 0 
L 794 0 
L 794 531 
z
" transform="scale(0.015625)"/>
       </defs>
       <use xlink:href="#DejaVuSans-30"/>
       <use xlink:href="#DejaVuSans-2e" x="63.623047"/>
       <use xlink:href="#DejaVuSans-31" x="95.410156"/>
       <use xlink:href="#DejaVuSans-30" x="159.033203"/>
      </g>
     </g>
    </g>
    <g id="ytick_8">
     <g id="line2d_25">
      <g>
       <use xlink:href="#m6b101e6a0b" x="115.7" y="23.04" style="stroke: #000000; stroke-width: 2"/>
      </g>
     </g>
     <g id="line2d_26">
      <g>
       <use xlink:href="#m6b101e6a0b" x="475.944741" y="23.04" style="stroke: #000000; stroke-width: 2"/>
      </g>
     </g>
     <g id="text_8">
      <!-- 0.12 -->
      <g transform="translate(62.16875 28.55875) scale(0.2 -0.2)">
       <use xlink:href="#DejaVuSans-30"/>
       <use xlink:href="#DejaVuSans-2e" x="63.623047"/>
       <use xlink:href="#DejaVuSans-31" x="95.410156"/>
       <use xlink:href="#DejaVuSans-32" x="159.033203"/>
      </g>
     </g>
    </g>
    <g id="text_9">
     <!-- $\phi_{DCC}\ [GeV]$ -->
     <g transform="translate(35.159375 192.505) rotate(-90) scale(0.25 -0.25)">
      <defs>
       <path id="DejaVuSans-3d5" d="M 2388 4863 
L 2388 3572 
Q 3009 3572 3425 3094 
Q 3853 2606 3853 1747 
Q 3853 888 3425 400 
Q 3009 -78 2388 -78 
L 2388 -1331 
L 1816 -1331 
L 1816 -78 
Q 1194 -78 775 400 
Q 350 888 350 1747 
Q 350 2606 775 3094 
Q 1194 3572 1816 3572 
L 1816 4863 
L 2388 4863 
z
M 2388 434 
Q 2741 434 2981 756 
Q 3244 1116 3247 1747 
Q 3250 2372 2981 2738 
Q 2741 3059 2388 3059 
L 2388 434 
z
M 1816 434 
L 1816 3059 
Q 1463 3059 1225 2738 
Q 953 2372 956 1747 
Q 959 1116 1225 756 
Q 1463 434 1816 434 
z
" transform="scale(0.015625)"/>
       <path id="DejaVuSans-44" d="M 1259 4147 
L 1259 519 
L 2022 519 
Q 2988 519 3436 956 
Q 3884 1394 3884 2338 
Q 3884 3275 3436 3711 
Q 2988 4147 2022 4147 
L 1259 4147 
z
M 628 4666 
L 1925 4666 
Q 3281 4666 3915 4102 
Q 4550 3538 4550 2338 
Q 4550 1131 3912 565 
Q 3275 0 1925 0 
L 628 0 
L 628 4666 
z
" transform="scale(0.015625)"/>
       <path id="DejaVuSans-43" d="M 4122 4306 
L 4122 3641 
Q 3803 3938 3442 4084 
Q 3081 4231 2675 4231 
Q 1875 4231 1450 3742 
Q 1025 3253 1025 2328 
Q 1025 1406 1450 917 
Q 1875 428 2675 428 
Q 3081 428 3442 575 
Q 3803 722 4122 1019 
L 4122 359 
Q 3791 134 3420 21 
Q 3050 -91 2638 -91 
Q 1578 -91 968 557 
Q 359 1206 359 2328 
Q 359 3453 968 4101 
Q 1578 4750 2638 4750 
Q 3056 4750 3426 4639 
Q 3797 4528 4122 4306 
z
" transform="scale(0.015625)"/>
       <path id="DejaVuSans-5b" d="M 550 4863 
L 1875 4863 
L 1875 4416 
L 1125 4416 
L 1125 -397 
L 1875 -397 
L 1875 -844 
L 550 -844 
L 550 4863 
z
" transform="scale(0.015625)"/>
       <path id="DejaVuSans-47" d="M 3809 666 
L 3809 1919 
L 2778 1919 
L 2778 2438 
L 4434 2438 
L 4434 434 
Q 4069 175 3628 42 
Q 3188 -91 2688 -91 
Q 1594 -91 976 548 
Q 359 1188 359 2328 
Q 359 3472 976 4111 
Q 1594 4750 2688 4750 
Q 3144 4750 3555 4637 
Q 3966 4525 4313 4306 
L 4313 3634 
Q 3963 3931 3569 4081 
Q 3175 4231 2741 4231 
Q 1884 4231 1454 3753 
Q 1025 3275 1025 2328 
Q 1025 1384 1454 906 
Q 1884 428 2741 428 
Q 3075 428 3337 486 
Q 3600 544 3809 666 
z
" transform="scale(0.015625)"/>
       <path id="DejaVuSans-65" d="M 3597 1894 
L 3597 1613 
L 953 1613 
Q 991 1019 1311 708 
Q 1631 397 2203 397 
Q 2534 397 2845 478 
Q 3156 559 3463 722 
L 3463 178 
Q 3153 47 2828 -22 
Q 2503 -91 2169 -91 
Q 1331 -91 842 396 
Q 353 884 353 1716 
Q 353 2575 817 3079 
Q 1281 3584 2069 3584 
Q 2775 3584 3186 3129 
Q 3597 2675 3597 1894 
z
M 3022 2063 
Q 3016 2534 2758 2815 
Q 2500 3097 2075 3097 
Q 1594 3097 1305 2825 
Q 1016 2553 972 2059 
L 3022 2063 
z
" transform="scale(0.015625)"/>
       <path id="DejaVuSans-56" d="M 1831 0 
L 50 4666 
L 709 4666 
L 2188 738 
L 3669 4666 
L 4325 4666 
L 2547 0 
L 1831 0 
z
" transform="scale(0.015625)"/>
       <path id="DejaVuSans-5d" d="M 1947 4863 
L 1947 -844 
L 622 -844 
L 622 -397 
L 1369 -397 
L 1369 4416 
L 622 4416 
L 622 4863 
L 1947 4863 
z
" transform="scale(0.015625)"/>
      </defs>
      <use xlink:href="#DejaVuSans-3d5" transform="translate(0 0.015625)"/>
      <use xlink:href="#DejaVuSans-44" transform="translate(66.923828 -16.390625) scale(0.7)"/>
      <use xlink:href="#DejaVuSans-43" transform="translate(120.825195 -16.390625) scale(0.7)"/>
      <use xlink:href="#DejaVuSans-43" transform="translate(169.702148 -16.390625) scale(0.7)"/>
      <use xlink:href="#DejaVuSans-5b" transform="translate(250.577507 0.015625)"/>
      <use xlink:href="#DejaVuSans-47" transform="translate(289.591179 0.015625)"/>
      <use xlink:href="#DejaVuSans-65" transform="translate(367.081413 0.015625)"/>
      <use xlink:href="#DejaVuSans-56" transform="translate(428.604851 0.015625)"/>
      <use xlink:href="#DejaVuSans-5d" transform="translate(497.013054 0.015625)"/>
     </g>
    </g>
   </g>
  </g>
  <g id="axes_2">
   <g id="patch_7">
    <path d="M 115.7 432.4 
L 475.944741 432.4 
L 475.944741 227.72 
L 115.7 227.72 
z
" style="fill: #ffffff"/>
   </g>
   <g id="LineCollection_2">
    <path d="M 115.7 400.496774 
L 135.172687 400.401434 
L 165.463565 400.079063 
L 193.230088 399.827921 
L 209.096672 399.901401 
L 222.439152 400.182426 
L 235.060361 400.669074 
L 246.960299 401.347793 
L 257.778446 402.181904 
L 268.236071 403.210626 
L 278.693697 404.461876 
L 289.511843 405.976999 
L 300.69051 407.766844 
L 312.590449 409.899368 
L 339.635929 414.843671 
L 349.011075 416.250994 
L 358.386451 417.431506 
L 367.764119 418.376759 
L 376.417077 419.020437 
L 385.792452 419.484979 
L 396.250307 419.774273 
L 403.823078 419.783197 
L 410.675726 419.560628 
L 417.526079 419.102964 
L 424.018664 418.456584 
L 428.706352 417.781018 
L 432.31156 417.046994 
L 435.556706 416.1568 
L 438.441789 415.1432 
L 441.326873 413.894415 
L 443.851894 412.583271 
L 446.374623 411.02345 
L 448.539582 409.42528 
L 450.342186 407.844287 
L 452.14479 405.961894 
L 453.947394 403.695963 
L 455.389936 401.545186 
L 456.832478 399.029055 
L 458.275019 396.106388 
L 459.717561 392.693717 
L 461.160103 388.714861 
L 462.602645 384.002063 
L 463.685125 379.854018 
L 464.765311 374.948125 
L 465.847791 369.066277 
L 466.93027 361.714171 
L 468.010457 352.264505 
L 468.732874 344.294675 
L 469.452999 334.546176 
L 470.175416 322.189235 
L 470.89554 306.200862 
L 471.617958 286.02801 
L 472.338082 258.903407 
L 473.0605 215.916923 
L 473.420562 185.567382 
L 473.780624 62.571486 
L 473.855025 -1 
L 473.855025 -1 
" clip-path="url(#p8ee2847fa6)" style="fill: none; stroke: #0000ff; stroke-opacity: 0.6; stroke-width: 1.5"/>
    <path d="M 115.7 395.927375 
L 127.960574 395.853444 
L 150.678773 395.603326 
L 195.754421 395.021093 
L 208.01488 395.131006 
L 219.193777 395.443389 
L 230.011923 395.970685 
L 240.469549 396.707697 
L 250.205904 397.617418 
L 259.220987 398.677537 
L 268.236071 399.963173 
L 277.251155 401.471747 
L 286.98751 403.332493 
L 297.084385 405.495141 
L 307.542011 407.962481 
L 339.275409 415.648317 
L 347.208471 417.183966 
L 354.781243 418.428748 
L 362.354014 419.45968 
L 369.926785 420.267143 
L 377.499557 420.842253 
L 385.792452 421.234788 
L 394.807765 421.43693 
L 402.380537 421.385555 
L 408.150704 421.142723 
L 414.280933 420.662871 
L 420.771225 419.930362 
L 426.18133 419.111683 
L 430.148894 418.295992 
L 433.394039 417.41198 
L 436.279123 416.414165 
L 439.161913 415.187914 
L 442.046997 413.71121 
L 444.572019 412.188548 
L 447.09704 410.399377 
L 449.259706 408.580205 
L 451.06231 406.791626 
L 452.864914 404.678755 
L 454.307456 402.697043 
L 455.749998 400.41568 
L 457.19254 397.778542 
L 458.635082 394.751079 
L 460.077623 391.269145 
L 461.520165 387.254879 
L 462.962707 382.56656 
L 464.045187 378.457855 
L 465.127667 373.645624 
L 466.207853 367.879952 
L 467.290333 360.701005 
L 468.372812 351.502277 
L 469.092937 343.794437 
L 469.815354 334.34518 
L 470.535478 322.382044 
L 471.257896 307.114553 
L 471.97802 288.521831 
L 472.700438 261.481147 
L 473.420562 218.595775 
L 473.780624 136.534651 
L 474.032728 -1 
L 474.032728 -1 
" clip-path="url(#p8ee2847fa6)" style="fill: none; stroke: #2000df; stroke-opacity: 0.6; stroke-width: 1.5"/>
    <path d="M 115.7 389.539517 
L 124.71513 389.458095 
L 141.663689 389.2589 
L 164.021024 388.783347 
L 185.296796 388.37804 
L 197.918005 388.350899 
L 208.01488 388.533228 
L 217.390714 388.919623 
L 226.405798 389.515528 
L 235.060361 390.306903 
L 243.714924 391.326496 
L 251.648216 392.480072 
L 259.581508 393.862195 
L 267.154279 395.402862 
L 275.087572 397.24183 
L 283.742135 399.486269 
L 292.757218 402.056886 
L 302.493573 405.066296 
L 315.475303 409.342225 
L 328.457262 413.560631 
L 335.669283 415.673031 
L 342.160263 417.352622 
L 348.651013 418.801552 
L 355.141305 420.022714 
L 361.993952 421.071658 
L 368.484243 421.835319 
L 374.974535 422.371826 
L 381.827182 422.709671 
L 389.760016 422.865351 
L 397.332787 422.803865 
L 403.463016 422.554687 
L 409.233184 422.100134 
L 415.003351 421.426737 
L 421.493643 420.446156 
L 426.541392 419.485388 
L 430.508956 418.512708 
L 433.754102 417.497699 
L 436.999247 416.235561 
L 439.884331 414.883043 
L 442.769415 413.301862 
L 445.654498 411.464126 
L 448.177227 409.584492 
L 450.342186 407.692709 
L 452.14479 405.847846 
L 453.947394 403.694653 
L 455.749998 401.171931 
L 457.554895 398.218072 
L 459.357499 394.78043 
L 461.160103 390.798135 
L 462.602645 387.115614 
L 464.045187 382.857165 
L 465.487729 377.733165 
L 466.567915 373.040671 
L 467.650395 367.277374 
L 468.732874 359.967023 
L 469.815354 350.416245 
L 470.535478 342.169278 
L 471.617958 326.100261 
L 472.338082 312.100967 
L 473.0605 291.027524 
L 473.420562 276.4277 
L 473.780624 236.061119 
L 474.503042 29.267594 
L 474.592715 -1 
L 474.592715 -1 
" clip-path="url(#p8ee2847fa6)" style="fill: none; stroke: #4000bf; stroke-opacity: 0.6; stroke-width: 1.5"/>
    <path d="M 115.7 380.622633 
L 122.912113 380.519228 
L 136.975726 380.333543 
L 155.727211 379.859626 
L 183.133212 379.109433 
L 193.951359 379.057608 
L 202.966442 379.224095 
L 210.899735 379.581221 
L 218.472506 380.139629 
L 226.045277 380.927892 
L 233.257298 381.900245 
L 240.469549 383.096272 
L 247.321049 384.450885 
L 254.17255 386.031711 
L 261.02405 387.848287 
L 267.87555 389.899221 
L 275.087572 392.294264 
L 283.020864 395.172188 
L 291.675427 398.5517 
L 301.772302 402.742236 
L 327.735991 413.677147 
L 333.866221 415.903619 
L 339.275409 417.643022 
L 344.684367 419.152947 
L 350.093555 420.433916 
L 355.50366 421.496574 
L 361.271534 422.400031 
L 367.041702 423.071504 
L 372.811869 423.513777 
L 378.942098 423.750633 
L 385.792452 423.776913 
L 393.365223 423.578947 
L 400.217871 423.186166 
L 405.988038 422.64446 
L 411.755912 421.882968 
L 418.248497 420.802381 
L 424.738788 419.517154 
L 429.426476 418.378315 
L 433.394039 417.172545 
L 436.999247 415.824412 
L 440.604455 414.217858 
L 443.851894 412.552528 
L 447.09704 410.649999 
L 449.619768 408.941752 
L 451.784728 407.24884 
L 453.947394 405.278222 
L 456.112353 402.973484 
L 458.275019 400.299217 
L 460.437686 397.236263 
L 462.242583 394.350807 
L 464.045187 391.076213 
L 465.487729 388.003107 
L 466.567915 385.287372 
L 467.650395 382.051422 
L 468.732874 378.089595 
L 469.815354 373.093274 
L 470.89554 366.564678 
L 471.97802 358.273091 
L 472.700438 350.851394 
L 473.420562 339.924348 
L 473.780624 327.397113 
L 474.503042 272.266146 
L 475.223166 214.329016 
L 475.583228 198.435614 
L 475.945584 197.897305 
L 475.945584 197.897305 
" clip-path="url(#p8ee2847fa6)" style="fill: none; stroke: #60009f; stroke-opacity: 0.6; stroke-width: 1.5"/>
    <path d="M 115.7 368.211943 
L 121.469686 368.076444 
L 134.451484 367.879133 
L 151.760565 367.339187 
L 181.33015 366.273623 
L 190.705983 366.219997 
L 198.639276 366.393566 
L 205.851297 366.782048 
L 212.342276 367.35679 
L 218.472506 368.118199 
L 224.602735 369.102301 
L 230.733194 370.314416 
L 236.863424 371.757123 
L 242.993653 373.434885 
L 248.763362 375.235537 
L 254.53307 377.256997 
L 260.6633 379.647742 
L 266.793529 382.279558 
L 273.284509 385.303296 
L 280.85728 389.086437 
L 289.872364 393.854253 
L 302.854094 401.006918 
L 316.557095 408.502226 
L 323.048074 411.802396 
L 328.457262 414.316514 
L 333.5057 416.414574 
L 338.193388 418.120704 
L 342.881305 419.584412 
L 347.568533 420.810036 
L 352.618577 421.87867 
L 357.666326 422.705659 
L 362.714076 423.306682 
L 367.764119 423.692749 
L 373.171931 423.880768 
L 378.942098 423.85461 
L 385.43239 423.599333 
L 393.005161 423.077808 
L 400.217871 422.369452 
L 406.708162 421.509427 
L 413.560809 420.366413 
L 422.576122 418.619714 
L 429.066414 417.169802 
L 433.754102 415.904974 
L 438.441789 414.394726 
L 443.489539 412.520471 
L 448.177227 410.561843 
L 451.784728 408.819882 
L 454.669812 407.193003 
L 457.914957 405.083203 
L 461.880227 402.190951 
L 465.127667 399.57293 
L 466.93027 397.853168 
L 468.372812 396.189488 
L 469.815354 394.111904 
L 470.89554 392.189222 
L 471.97802 389.920385 
L 473.0605 387.100181 
L 473.780624 384.58798 
L 474.503042 381.000022 
L 475.945584 373.158403 
L 475.945584 373.158403 
" clip-path="url(#p8ee2847fa6)" style="fill: none; stroke: #80007f; stroke-opacity: 0.6; stroke-width: 1.5"/>
    <path d="M 115.7 351.038063 
L 120.387871 350.857125 
L 134.090872 350.595135 
L 148.515189 350.029809 
L 181.69067 348.59623 
L 189.263442 348.626932 
L 195.754421 348.871729 
L 201.52413 349.299511 
L 206.933088 349.914369 
L 212.342276 350.760926 
L 217.390714 351.77532 
L 222.439152 353.014862 
L 227.48759 354.481599 
L 232.536027 356.175121 
L 237.584694 358.093792 
L 242.993653 360.399716 
L 248.402841 362.963947 
L 253.451279 365.588764 
L 258.860237 368.642999 
L 264.629946 372.158541 
L 270.760405 376.146568 
L 278.332947 381.34851 
L 289.151093 389.075303 
L 305.017907 400.385019 
L 312.229928 405.249321 
L 317.999637 408.878494 
L 323.048074 411.786539 
L 327.375241 414.034338 
L 331.702637 416.026214 
L 335.669283 417.612852 
L 339.635929 418.966401 
L 343.602575 420.092551 
L 347.568533 421.004114 
L 351.896159 421.773383 
L 356.583847 422.366382 
L 361.271534 422.734519 
L 366.321577 422.902111 
L 371.729389 422.851432 
L 377.859619 422.54388 
L 385.072328 421.932665 
L 394.087641 420.931698 
L 403.102954 419.713074 
L 412.118267 418.257717 
L 431.22908 414.867787 
L 439.161913 413.213068 
L 454.307456 409.79641 
L 462.602645 407.885153 
L 467.650395 407.045592 
L 471.617958 406.518664 
L 473.420562 406.505196 
L 473.780624 406.633408 
L 474.503042 407.585006 
L 475.223166 408.684866 
L 475.583228 408.994969 
L 475.945584 409.018122 
L 475.945584 409.018122 
" clip-path="url(#p8ee2847fa6)" style="fill: none; stroke: #a0005f; stroke-opacity: 0.6; stroke-width: 1.5"/>
    <path d="M 115.7 327.535477 
L 119.666669 327.292726 
L 137.696928 326.779798 
L 151.760565 326.018389 
L 173.396857 324.778437 
L 180.248358 324.66136 
L 186.378587 324.775162 
L 191.787775 325.092416 
L 196.836213 325.609847 
L 201.52413 326.312309 
L 205.851297 327.174831 
L 210.178693 328.261272 
L 214.50586 329.585142 
L 218.833027 331.154629 
L 223.160423 332.972187 
L 227.48759 335.03618 
L 231.814986 337.341696 
L 236.502903 340.104876 
L 241.19059 343.136186 
L 245.878507 346.427441 
L 250.926945 350.250454 
L 255.975383 354.344054 
L 261.745092 359.320234 
L 268.236071 365.225252 
L 277.611905 374.10427 
L 291.675427 387.426769 
L 298.526927 393.608146 
L 304.296636 398.533443 
L 309.345074 402.570264 
L 314.03299 406.039427 
L 318.360157 408.961573 
L 322.326803 411.373641 
L 326.293449 413.508576 
L 329.899575 415.195848 
L 333.5057 416.638862 
L 337.111596 417.84062 
L 340.717721 418.811459 
L 344.684367 419.633208 
L 348.651013 420.221213 
L 352.978639 420.629918 
L 357.666326 420.839428 
L 362.354014 420.840042 
L 368.484243 420.582227 
L 374.974535 420.061439 
L 383.269724 419.156795 
L 400.577933 416.979491 
L 423.656309 414.07477 
L 440.966811 412.281072 
L 449.982124 411.556486 
L 458.635082 411.067919 
L 464.045187 410.976885 
L 469.092937 411.085059 
L 473.0605 411.358986 
L 475.223166 411.729543 
L 475.945584 411.914304 
L 475.945584 411.914304 
" clip-path="url(#p8ee2847fa6)" style="fill: none; stroke: #c0003f; stroke-opacity: 0.6; stroke-width: 1.5"/>
    <path d="M 115.7 296.04464 
L 118.945444 295.72493 
L 123.993928 295.620953 
L 130.845428 295.415454 
L 142.384731 294.781355 
L 157.530273 293.725616 
L 167.266628 293.10912 
L 173.396857 292.920814 
L 179.166566 292.975259 
L 184.215004 293.263858 
L 188.542171 293.724388 
L 192.869567 294.414159 
L 196.836213 295.274634 
L 200.802859 296.378678 
L 204.408984 297.613717 
L 208.01488 299.083729 
L 211.621005 300.800585 
L 215.227131 302.770834 
L 218.833027 304.998571 
L 222.439152 307.480521 
L 226.405798 310.499142 
L 230.372444 313.808817 
L 234.33909 317.396039 
L 238.666486 321.607125 
L 243.354403 326.495702 
L 248.402841 332.105981 
L 253.811799 338.465389 
L 259.942029 346.022993 
L 268.596592 357.081444 
L 280.49653 372.267922 
L 286.626989 379.727444 
L 291.675427 385.548789 
L 296.363344 390.633572 
L 300.69051 395.014707 
L 304.657157 398.74021 
L 308.623803 402.165489 
L 312.229928 405.001945 
L 315.836053 407.558807 
L 319.441949 409.826915 
L 322.687554 411.61407 
L 325.932929 413.161443 
L 329.178304 414.470593 
L 332.423908 415.551401 
L 335.669283 416.415966 
L 339.275409 417.142948 
L 342.881305 417.650514 
L 346.848409 417.99151 
L 351.536097 418.150424 
L 356.943909 418.076535 
L 363.074138 417.751626 
L 370.64691 417.119287 
L 384.712266 415.673039 
L 398.775329 414.331595 
L 411.755912 413.316038 
L 422.936184 412.664423 
L 435.556706 412.165579 
L 447.817164 411.887487 
L 461.160103 411.815705 
L 475.945584 411.931554 
L 475.945584 411.931554 
" clip-path="url(#p8ee2847fa6)" style="fill: none; stroke: #e0001f; stroke-opacity: 0.6; stroke-width: 1.5"/>
    <path d="M 115.7 255.448818 
L 118.584831 255.016125 
L 121.830298 254.89741 
L 130.484815 254.650566 
L 140.942418 254.006234 
L 165.824086 252.421192 
L 171.233274 252.39704 
L 175.560441 252.595579 
L 179.527087 252.986927 
L 183.133212 253.544476 
L 186.739337 254.32226 
L 189.984713 255.23022 
L 193.230088 256.356369 
L 196.475692 257.71831 
L 199.721067 259.33651 
L 202.966442 261.226935 
L 205.851297 263.148061 
L 209.096672 265.591122 
L 212.342276 268.337109 
L 215.587651 271.390934 
L 218.833027 274.748096 
L 222.078631 278.401224 
L 225.684527 282.794066 
L 229.290652 287.517262 
L 233.257298 293.06409 
L 237.584694 299.493089 
L 242.272382 306.843557 
L 247.68157 315.731991 
L 254.893591 328.058639 
L 272.563238 358.488415 
L 277.611905 366.64655 
L 281.939072 373.266884 
L 285.905718 378.976146 
L 289.872364 384.302656 
L 293.478489 388.787686 
L 297.084385 392.917105 
L 300.69051 396.681743 
L 303.935886 399.752312 
L 307.18149 402.521591 
L 310.426865 404.990114 
L 313.67224 407.160541 
L 316.917845 409.040731 
L 320.16322 410.637862 
L 323.408595 411.966981 
L 326.6542 413.042938 
L 329.899575 413.885953 
L 333.14495 414.519794 
L 336.751075 415.006928 
L 340.717721 415.321865 
L 345.405867 415.455022 
L 351.896159 415.345886 
L 359.46893 414.955029 
L 396.972725 412.688096 
L 410.675726 412.272888 
L 426.18133 412.031518 
L 448.539582 411.927206 
L 475.945584 411.932008 
L 475.945584 411.932008 
" clip-path="url(#p8ee2847fa6)" style="fill: none; stroke: #ff0000; stroke-opacity: 0.6; stroke-width: 1.5"/>
   </g>
   <g id="patch_8">
    <path d="M 115.7 432.4 
L 115.7 227.72 
" style="fill: none; stroke: #000000; stroke-width: 2; stroke-linejoin: miter; stroke-linecap: square"/>
   </g>
   <g id="patch_9">
    <path d="M 475.944741 432.4 
L 475.944741 227.72 
" style="fill: none; stroke: #000000; stroke-width: 2; stroke-linejoin: miter; stroke-linecap: square"/>
   </g>
   <g id="patch_10">
    <path d="M 115.7 432.4 
L 475.944741 432.4 
" style="fill: none; stroke: #000000; stroke-width: 2; stroke-linejoin: miter; stroke-linecap: square"/>
   </g>
   <g id="patch_11">
    <path d="M 115.7 227.72 
L 475.944741 227.72 
" style="fill: none; stroke: #000000; stroke-width: 2; stroke-linejoin: miter; stroke-linecap: square"/>
   </g>
   <g id="matplotlib.axis_3">
    <g id="xtick_6">
     <g id="line2d_27">
      <g>
       <use xlink:href="#mce65cce1f8" x="115.7" y="432.4" style="stroke: #000000; stroke-width: 2"/>
      </g>
     </g>
     <g id="line2d_28">
      <g>
       <use xlink:href="#mce65cce1f8" x="115.7" y="227.72" style="stroke: #000000; stroke-width: 2"/>
      </g>
     </g>
     <g id="text_10">
      <!-- $0$ -->
      <g transform="translate(109.3 456.596875) scale(0.2 -0.2)">
       <use xlink:href="#DejaVuSans-30" transform="translate(0 0.78125)"/>
      </g>
     </g>
    </g>
    <g id="xtick_7">
     <g id="line2d_29">
      <g>
       <use xlink:href="#mce65cce1f8" x="205.761185" y="432.4" style="stroke: #000000; stroke-width: 2"/>
      </g>
     </g>
     <g id="line2d_30">
      <g>
       <use xlink:href="#mce65cce1f8" x="205.761185" y="227.72" style="stroke: #000000; stroke-width: 2"/>
      </g>
     </g>
     <g id="text_11">
      <!-- $\pi/8$ -->
      <g transform="translate(190.461185 456.596875) scale(0.2 -0.2)">
       <defs>
        <path id="DejaVuSans-3c0" d="M 231 3500 
L 3584 3500 
L 3584 2925 
L 3144 2925 
L 3144 775 
Q 3144 550 3220 451 
Q 3297 353 3469 353 
Q 3516 353 3584 361 
Q 3653 369 3675 372 
L 3675 -44 
Q 3566 -84 3450 -103 
Q 3334 -122 3219 -122 
Q 2844 -122 2700 83 
Q 2556 288 2556 838 
L 2556 2925 
L 1266 2925 
L 1266 0 
L 678 0 
L 678 2925 
L 231 2925 
L 231 3500 
z
" transform="scale(0.015625)"/>
        <path id="DejaVuSans-2f" d="M 1625 4666 
L 2156 4666 
L 531 -594 
L 0 -594 
L 1625 4666 
z
" transform="scale(0.015625)"/>
       </defs>
       <use xlink:href="#DejaVuSans-3c0" transform="translate(0 0.78125)"/>
       <use xlink:href="#DejaVuSans-2f" transform="translate(60.205078 0.78125)"/>
       <use xlink:href="#DejaVuSans-38" transform="translate(88.896484 0.78125)"/>
      </g>
     </g>
    </g>
    <g id="xtick_8">
     <g id="line2d_31">
      <g>
       <use xlink:href="#mce65cce1f8" x="295.822371" y="432.4" style="stroke: #000000; stroke-width: 2"/>
      </g>
     </g>
     <g id="line2d_32">
      <g>
       <use xlink:href="#mce65cce1f8" x="295.822371" y="227.72" style="stroke: #000000; stroke-width: 2"/>
      </g>
     </g>
     <g id="text_12">
      <!-- $\pi/4$ -->
      <g transform="translate(280.022371 456.596875) scale(0.2 -0.2)">
       <use xlink:href="#DejaVuSans-3c0" transform="translate(0 0.09375)"/>
       <use xlink:href="#DejaVuSans-2f" transform="translate(60.205078 0.09375)"/>
       <use xlink:href="#DejaVuSans-34" transform="translate(93.896484 0.09375)"/>
      </g>
     </g>
    </g>
    <g id="xtick_9">
     <g id="line2d_33">
      <g>
       <use xlink:href="#mce65cce1f8" x="385.883556" y="432.4" style="stroke: #000000; stroke-width: 2"/>
      </g>
     </g>
     <g id="line2d_34">
      <g>
       <use xlink:href="#mce65cce1f8" x="385.883556" y="227.72" style="stroke: #000000; stroke-width: 2"/>
      </g>
     </g>
     <g id="text_13">
      <!-- $3\pi/8$ -->
      <g transform="translate(364.183556 456.596875) scale(0.2 -0.2)">
       <defs>
        <path id="DejaVuSans-33" d="M 2597 2516 
Q 3050 2419 3304 2112 
Q 3559 1806 3559 1356 
Q 3559 666 3084 287 
Q 2609 -91 1734 -91 
Q 1441 -91 1130 -33 
Q 819 25 488 141 
L 488 750 
Q 750 597 1062 519 
Q 1375 441 1716 441 
Q 2309 441 2620 675 
Q 2931 909 2931 1356 
Q 2931 1769 2642 2001 
Q 2353 2234 1838 2234 
L 1294 2234 
L 1294 2753 
L 1863 2753 
Q 2328 2753 2575 2939 
Q 2822 3125 2822 3475 
Q 2822 3834 2567 4026 
Q 2313 4219 1838 4219 
Q 1578 4219 1281 4162 
Q 984 4106 628 3988 
L 628 4550 
Q 988 4650 1302 4700 
Q 1616 4750 1894 4750 
Q 2613 4750 3031 4423 
Q 3450 4097 3450 3541 
Q 3450 3153 3228 2886 
Q 3006 2619 2597 2516 
z
" transform="scale(0.015625)"/>
       </defs>
       <use xlink:href="#DejaVuSans-33" transform="translate(0 0.78125)"/>
       <use xlink:href="#DejaVuSans-3c0" transform="translate(63.623047 0.78125)"/>
       <use xlink:href="#DejaVuSans-2f" transform="translate(123.828125 0.78125)"/>
       <use xlink:href="#DejaVuSans-38" transform="translate(152.519531 0.78125)"/>
      </g>
     </g>
    </g>
    <g id="xtick_10">
     <g id="line2d_35">
      <g>
       <use xlink:href="#mce65cce1f8" x="475.944741" y="432.4" style="stroke: #000000; stroke-width: 2"/>
      </g>
     </g>
     <g id="line2d_36">
      <g>
       <use xlink:href="#mce65cce1f8" x="475.944741" y="227.72" style="stroke: #000000; stroke-width: 2"/>
      </g>
     </g>
     <g id="text_14">
      <!-- $\pi/2$ -->
      <g transform="translate(460.544741 456.596875) scale(0.2 -0.2)">
       <use xlink:href="#DejaVuSans-3c0" transform="translate(0 0.78125)"/>
       <use xlink:href="#DejaVuSans-2f" transform="translate(60.205078 0.78125)"/>
       <use xlink:href="#DejaVuSans-32" transform="translate(90.271484 0.78125)"/>
      </g>
     </g>
    </g>
    <g id="text_15">
     <!-- $\alpha$ -->
     <g transform="translate(287.572371 484.752344) scale(0.25 -0.25)">
      <defs>
       <path id="DejaVuSans-3b1" d="M 2644 1628 
L 2506 2350 
Q 2366 3091 1809 3091 
Q 1391 3091 1200 2747 
Q 959 2316 959 1747 
Q 959 1059 1194 731 
Q 1431 397 1809 397 
Q 2228 397 2453 1063 
L 2644 1628 
z
M 2966 2584 
L 3275 3500 
L 3788 3500 
L 3147 1603 
L 3272 919 
Q 3300 766 3409 638 
Q 3538 488 3638 488 
L 3913 488 
L 3913 0 
L 3569 0 
Q 3275 0 3013 263 
Q 2884 394 2831 669 
Q 2688 322 2394 50 
Q 2256 -78 1809 -78 
Q 1075 -78 719 397 
Q 353 888 353 1747 
Q 353 2666 750 3097 
Q 1191 3578 1809 3578 
Q 2781 3578 2966 2584 
z
" transform="scale(0.015625)"/>
      </defs>
      <use xlink:href="#DejaVuSans-3b1" transform="translate(0 0.09375)"/>
     </g>
    </g>
   </g>
   <g id="matplotlib.axis_4">
    <g id="ytick_9">
     <g id="line2d_37">
      <g>
       <use xlink:href="#m6b101e6a0b" x="115.7" y="411.932" style="stroke: #000000; stroke-width: 2"/>
      </g>
     </g>
     <g id="line2d_38">
      <g>
       <use xlink:href="#m6b101e6a0b" x="475.944741" y="411.932" style="stroke: #000000; stroke-width: 2"/>
      </g>
     </g>
     <g id="text_16">
      <!-- 0.0 -->
      <g transform="translate(74.89375 417.45075) scale(0.2 -0.2)">
       <use xlink:href="#DejaVuSans-30"/>
       <use xlink:href="#DejaVuSans-2e" x="63.623047"/>
       <use xlink:href="#DejaVuSans-30" x="95.410156"/>
      </g>
     </g>
    </g>
    <g id="ytick_10">
     <g id="line2d_39">
      <g>
       <use xlink:href="#m6b101e6a0b" x="115.7" y="370.996" style="stroke: #000000; stroke-width: 2"/>
      </g>
     </g>
     <g id="line2d_40">
      <g>
       <use xlink:href="#m6b101e6a0b" x="475.944741" y="370.996" style="stroke: #000000; stroke-width: 2"/>
      </g>
     </g>
     <g id="text_17">
      <!-- 0.1 -->
      <g transform="translate(74.89375 376.51475) scale(0.2 -0.2)">
       <use xlink:href="#DejaVuSans-30"/>
       <use xlink:href="#DejaVuSans-2e" x="63.623047"/>
       <use xlink:href="#DejaVuSans-31" x="95.410156"/>
      </g>
     </g>
    </g>
    <g id="ytick_11">
     <g id="line2d_41">
      <g>
       <use xlink:href="#m6b101e6a0b" x="115.7" y="330.06" style="stroke: #000000; stroke-width: 2"/>
      </g>
     </g>
     <g id="line2d_42">
      <g>
       <use xlink:href="#m6b101e6a0b" x="475.944741" y="330.06" style="stroke: #000000; stroke-width: 2"/>
      </g>
     </g>
     <g id="text_18">
      <!-- 0.2 -->
      <g transform="translate(74.89375 335.57875) scale(0.2 -0.2)">
       <use xlink:href="#DejaVuSans-30"/>
       <use xlink:href="#DejaVuSans-2e" x="63.623047"/>
       <use xlink:href="#DejaVuSans-32" x="95.410156"/>
      </g>
     </g>
    </g>
    <g id="ytick_12">
     <g id="line2d_43">
      <g>
       <use xlink:href="#m6b101e6a0b" x="115.7" y="289.124" style="stroke: #000000; stroke-width: 2"/>
      </g>
     </g>
     <g id="line2d_44">
      <g>
       <use xlink:href="#m6b101e6a0b" x="475.944741" y="289.124" style="stroke: #000000; stroke-width: 2"/>
      </g>
     </g>
     <g id="text_19">
      <!-- 0.3 -->
      <g transform="translate(74.89375 294.64275) scale(0.2 -0.2)">
       <use xlink:href="#DejaVuSans-30"/>
       <use xlink:href="#DejaVuSans-2e" x="63.623047"/>
       <use xlink:href="#DejaVuSans-33" x="95.410156"/>
      </g>
     </g>
    </g>
    <g id="ytick_13">
     <g id="line2d_45">
      <g>
       <use xlink:href="#m6b101e6a0b" x="115.7" y="248.188" style="stroke: #000000; stroke-width: 2"/>
      </g>
     </g>
     <g id="line2d_46">
      <g>
       <use xlink:href="#m6b101e6a0b" x="475.944741" y="248.188" style="stroke: #000000; stroke-width: 2"/>
      </g>
     </g>
     <g id="text_20">
      <!-- 0.4 -->
      <g transform="translate(74.89375 253.70675) scale(0.2 -0.2)">
       <use xlink:href="#DejaVuSans-30"/>
       <use xlink:href="#DejaVuSans-2e" x="63.623047"/>
       <use xlink:href="#DejaVuSans-34" x="95.410156"/>
      </g>
     </g>
    </g>
    <g id="text_21">
     <!-- $n^\mu\partial_\mu\phi_{DCC}\ [GeV]$ -->
     <g transform="translate(62.14375 423.56) rotate(-90) scale(0.25 -0.25)">
      <defs>
       <path id="DejaVuSans-6e" d="M 3513 2113 
L 3513 0 
L 2938 0 
L 2938 2094 
Q 2938 2591 2744 2837 
Q 2550 3084 2163 3084 
Q 1697 3084 1428 2787 
Q 1159 2491 1159 1978 
L 1159 0 
L 581 0 
L 581 3500 
L 1159 3500 
L 1159 2956 
Q 1366 3272 1645 3428 
Q 1925 3584 2291 3584 
Q 2894 3584 3203 3211 
Q 3513 2838 3513 2113 
z
" transform="scale(0.015625)"/>
       <path id="DejaVuSans-3bc" d="M 544 -1331 
L 544 3500 
L 1119 3500 
L 1119 1325 
Q 1119 872 1334 640 
Q 1550 409 1972 409 
Q 2434 409 2667 671 
Q 2900 934 2900 1459 
L 2900 3500 
L 3475 3500 
L 3475 806 
Q 3475 619 3529 530 
Q 3584 441 3700 441 
Q 3728 441 3778 458 
Q 3828 475 3916 513 
L 3916 50 
Q 3788 -22 3673 -56 
Q 3559 -91 3450 -91 
Q 3234 -91 3106 31 
Q 2978 153 2931 403 
Q 2775 156 2548 32 
Q 2322 -91 2016 -91 
Q 1697 -91 1473 31 
Q 1250 153 1119 397 
L 1119 -1331 
L 544 -1331 
z
" transform="scale(0.015625)"/>
       <path id="DejaVuSans-2202" d="M 1366 -91 
Q 925 -91 638 175 
Q 297 491 297 1063 
Q 297 1656 597 2119 
Q 906 2594 1463 2594 
Q 1828 2594 2116 2366 
Q 2284 2231 2400 2006 
Q 2441 2259 2441 2547 
Q 2441 2969 2341 3213 
Q 2119 3753 1531 3753 
Q 1309 3753 966 3616 
L 966 4141 
Q 1328 4238 1653 4238 
Q 2491 4238 2847 3469 
Q 3013 3106 3013 2566 
Q 3013 2213 2934 1803 
Q 2738 778 2228 291 
Q 1828 -91 1366 -91 
z
M 831 969 
Q 831 656 969 488 
Q 1116 309 1341 309 
Q 1541 309 1700 450 
Q 1925 644 2091 959 
Q 2228 1219 2297 1497 
Q 2019 2169 1538 2169 
Q 1125 2169 944 1625 
Q 831 1288 831 969 
z
" transform="scale(0.015625)"/>
      </defs>
      <use xlink:href="#DejaVuSans-6e" transform="translate(0 0.4375)"/>
      <use xlink:href="#DejaVuSans-3bc" transform="translate(64.335938 38.71875) scale(0.7)"/>
      <use xlink:href="#DejaVuSans-2202" transform="translate(111.606445 0.4375)"/>
      <use xlink:href="#DejaVuSans-3bc" transform="translate(164.272461 -15.96875) scale(0.7)"/>
      <use xlink:href="#DejaVuSans-3d5" transform="translate(211.542969 0.4375)"/>
      <use xlink:href="#DejaVuSans-44" transform="translate(278.466797 -15.96875) scale(0.7)"/>
      <use xlink:href="#DejaVuSans-43" transform="translate(332.368164 -15.96875) scale(0.7)"/>
      <use xlink:href="#DejaVuSans-43" transform="translate(381.245117 -15.96875) scale(0.7)"/>
      <use xlink:href="#DejaVuSans-5b" transform="translate(462.120476 0.4375)"/>
      <use xlink:href="#DejaVuSans-47" transform="translate(501.134147 0.4375)"/>
      <use xlink:href="#DejaVuSans-65" transform="translate(578.624382 0.4375)"/>
      <use xlink:href="#DejaVuSans-56" transform="translate(640.147819 0.4375)"/>
      <use xlink:href="#DejaVuSans-5d" transform="translate(708.556022 0.4375)"/>
     </g>
    </g>
   </g>
  </g>
 </g>
 <defs>
  <clipPath id="pdc4d8d6c7b">
   <rect x="115.7" y="23.04" width="360.244741" height="204.68"/>
  </clipPath>
  <clipPath id="p8ee2847fa6">
   <rect x="115.7" y="227.72" width="360.244741" height="204.68"/>
  </clipPath>
 </defs>
</svg>
