<?xml version="1.0" encoding="utf-8" standalone="no"?>
<!DOCTYPE svg PUBLIC "-//W3C//DTD SVG 1.1//EN"
  "http://www.w3.org/Graphics/SVG/1.1/DTD/svg11.dtd">
<svg xmlns:xlink="http://www.w3.org/1999/xlink" width="504pt" height="504pt" viewBox="0 0 504 504" xmlns="http://www.w3.org/2000/svg" version="1.1">
 <metadata>
  <rdf:RDF xmlns:dc="http://purl.org/dc/elements/1.1/" xmlns:cc="http://creativecommons.org/ns#" xmlns:rdf="http://www.w3.org/1999/02/22-rdf-syntax-ns#">
   <cc:Work>
    <dc:type rdf:resource="http://purl.org/dc/dcmitype/StillImage"/>
    <dc:date>2025-01-22T16:19:33.545198</dc:date>
    <dc:format>image/svg+xml</dc:format>
    <dc:creator>
     <cc:Agent>
      <dc:title>Matplotlib v3.9.2, https://matplotlib.org/</dc:title>
     </cc:Agent>
    </dc:creator>
   </cc:Work>
  </rdf:RDF>
 </metadata>
 <defs>
  <style type="text/css">*{stroke-linejoin: round; stroke-linecap: butt}</style>
 </defs>
 <g id="figure_1">
  <g id="patch_1">
   <path d="M 0 504 
L 504 504 
L 504 0 
L 0 0 
z
" style="fill: #ffffff"/>
  </g>
  <g id="axes_1">
   <g id="patch_2">
    <path d="M 115.7 227.72 
L 475.944741 227.72 
L 475.944741 23.04 
L 115.7 23.04 
z
" style="fill: #ffffff"/>
   </g>
   <g id="LineCollection_1">
    <path d="M 115.7 48.951123 
L 163.299982 49.059604 
L 178.445295 49.308631 
L 189.263442 49.682513 
L 198.278525 50.202401 
L 205.851297 50.848507 
L 212.702797 51.651535 
L 218.833027 52.589652 
L 224.602735 53.699017 
L 230.011923 54.970762 
L 235.060361 56.386466 
L 239.748278 57.918973 
L 244.436195 59.679835 
L 249.123883 61.684812 
L 253.811799 63.947618 
L 258.139196 66.27442 
L 262.826883 69.059364 
L 267.5148 72.121718 
L 272.202717 75.458957 
L 276.890634 79.062895 
L 281.939072 83.226222 
L 287.348031 87.983599 
L 293.117739 93.351196 
L 299.96924 100.036113 
L 309.345074 109.523236 
L 325.211658 125.603483 
L 332.423908 132.577845 
L 338.554138 138.218144 
L 344.323846 143.239353 
L 349.733493 147.670334 
L 355.141305 151.82336 
L 360.911472 155.945547 
L 366.321577 159.527856 
L 371.729389 162.848448 
L 377.139494 165.921718 
L 382.909662 168.944978 
L 388.677536 171.724737 
L 395.170121 174.586095 
L 401.660412 177.194264 
L 408.510766 179.703982 
L 416.083537 182.221683 
L 424.018664 184.604704 
L 431.951498 186.759029 
L 440.604455 188.883198 
L 450.342186 191.02572 
L 460.077623 192.940433 
L 470.175416 194.709892 
L 475.945584 195.624811 
L 475.945584 195.624811 
" clip-path="url(#pbe17b18123)" style="fill: none; stroke: #0000ff; stroke-opacity: 0.6; stroke-width: 1.5"/>
    <path d="M 115.7 50.886032 
L 132.287855 50.779598 
L 151.400044 50.416632 
L 171.954545 49.80191 
L 197.557484 49.039136 
L 207.654359 48.95317 
L 215.587651 49.093035 
L 222.439152 49.427346 
L 228.569381 49.947233 
L 233.978569 50.619265 
L 239.027007 51.457089 
L 243.714924 52.4416 
L 248.402841 53.646483 
L 253.090529 55.091523 
L 257.417925 56.653914 
L 261.745092 58.447252 
L 266.072488 60.480748 
L 270.399655 62.759723 
L 274.727051 65.286088 
L 279.414738 68.299319 
L 284.102655 71.591324 
L 288.790572 75.147093 
L 293.83901 79.247175 
L 299.608719 84.233794 
L 306.099698 90.153685 
L 314.393511 98.038436 
L 335.669283 118.405529 
L 342.881305 124.910304 
L 349.371137 130.460001 
L 355.863722 135.682841 
L 361.63389 140.037067 
L 367.401764 144.11859 
L 373.531993 148.163477 
L 380.024578 152.133655 
L 385.792452 155.408739 
L 392.645099 159.009879 
L 399.135391 162.158199 
L 405.988038 165.232833 
L 413.198454 168.224846 
L 421.493643 171.391791 
L 429.426476 174.178987 
L 438.081727 176.987196 
L 447.09704 179.688768 
L 457.19254 182.481285 
L 468.732874 185.413394 
L 475.945584 187.111215 
L 475.945584 187.111215 
" clip-path="url(#pbe17b18123)" style="fill: none; stroke: #0c00f3; stroke-opacity: 0.6; stroke-width: 1.5"/>
    <path d="M 115.7 52.872792 
L 129.763613 52.762947 
L 144.187793 52.436824 
L 159.333336 51.871225 
L 177.002983 50.961081 
L 209.096672 49.186505 
L 218.472506 48.957946 
L 226.405798 49.036407 
L 232.175507 49.309313 
L 237.584694 49.77189 
L 242.633132 50.416632 
L 247.68157 51.297439 
L 252.369487 52.348811 
L 257.057404 53.647847 
L 261.384571 55.081289 
L 265.711738 56.752161 
L 270.039134 58.667897 
L 274.366301 60.834367 
L 278.693697 63.25232 
L 283.020864 65.918413 
L 287.708781 69.077103 
L 292.396698 72.5014 
L 297.445135 76.460525 
L 303.214844 81.285446 
L 309.705594 87.01942 
L 317.999637 94.658897 
L 338.554138 113.733776 
L 345.76593 120.06446 
L 352.256221 125.479438 
L 359.108868 130.866113 
L 364.879036 135.127271 
L 370.64691 139.13627 
L 377.139494 143.352814 
L 383.269724 147.062298 
L 389.399953 150.52255 
L 395.890245 153.934361 
L 402.380537 157.110312 
L 409.953308 160.550096 
L 417.886141 163.882832 
L 426.541392 167.239994 
L 435.196643 170.345535 
L 444.211957 173.352216 
L 453.947394 176.373771 
L 464.405249 179.398941 
L 475.223166 182.311742 
L 475.945584 182.495681 
L 475.945584 182.495681 
" clip-path="url(#pbe17b18123)" style="fill: none; stroke: #1900e6; stroke-opacity: 0.6; stroke-width: 1.5"/>
    <path d="M 115.7 54.916181 
L 129.763613 54.781092 
L 143.106002 54.418126 
L 156.448482 53.827966 
L 170.151482 52.993553 
L 186.378587 51.747052 
L 215.587651 49.423934 
L 223.881694 49.043229 
L 230.733194 48.95317 
L 236.502903 49.090988 
L 241.911861 49.438262 
L 246.960299 49.986804 
L 251.648216 50.71683 
L 256.336133 51.682237 
L 260.6633 52.79979 
L 264.990696 54.149313 
L 269.317863 55.741041 
L 273.64503 57.583571 
L 277.972426 59.68004 
L 282.299593 62.030448 
L 286.626989 64.630089 
L 291.314906 67.716595 
L 296.002594 71.066252 
L 301.051261 74.940094 
L 306.82074 79.658104 
L 313.31172 85.257808 
L 322.326803 93.356791 
L 340.717721 109.940101 
L 348.290951 116.419792 
L 354.781243 121.701737 
L 360.911472 126.429551 
L 367.041702 130.891991 
L 373.171931 135.088245 
L 379.302161 139.024992 
L 385.43239 142.713258 
L 391.922682 146.363248 
L 399.135391 150.135227 
L 405.988038 153.469669 
L 413.198454 156.747346 
L 421.493643 160.255289 
L 429.786538 163.516182 
L 439.524269 167.075977 
L 449.259706 170.388518 
L 459.717561 173.716547 
L 470.89554 177.049351 
L 475.945584 178.477608 
L 475.945584 178.477608 
" clip-path="url(#pbe17b18123)" style="fill: none; stroke: #2600d9; stroke-opacity: 0.6; stroke-width: 1.5"/>
    <path d="M 115.7 57.019609 
L 128.681799 56.886567 
L 141.302939 56.515414 
L 152.481835 55.986657 
L 165.103045 55.163161 
L 178.084774 54.071535 
L 193.590838 52.493452 
L 217.751235 49.94928 
L 225.684527 49.337286 
L 232.536027 49.017986 
L 238.666486 48.960675 
L 244.075445 49.132606 
L 249.123883 49.518087 
L 253.811799 50.098696 
L 258.499716 50.916051 
L 262.826883 51.89988 
L 267.154279 53.117044 
L 271.481446 54.579823 
L 275.448092 56.142896 
L 279.775489 58.093633 
L 284.102655 60.301175 
L 288.430052 62.760747 
L 293.117739 65.698792 
L 297.805656 68.90333 
L 302.854094 72.624753 
L 308.263282 76.881006 
L 314.754261 82.281215 
L 323.408595 89.806616 
L 344.323846 108.120291 
L 351.896159 114.379815 
L 358.386451 119.480113 
L 365.59916 124.828306 
L 371.729389 129.101997 
L 377.859619 133.127616 
L 384.34991 137.128564 
L 391.56262 141.275039 
L 398.415267 144.94427 
L 405.625682 148.550458 
L 413.920871 152.410655 
L 421.853705 155.849006 
L 430.148894 159.210056 
L 439.161913 162.631896 
L 449.982124 166.467463 
L 460.800041 170.059529 
L 472.338082 173.663876 
L 475.945584 174.739469 
L 475.945584 174.739469 
" clip-path="url(#pbe17b18123)" style="fill: none; stroke: #3300cc; stroke-opacity: 0.6; stroke-width: 1.5"/>
    <path d="M 115.7 59.190582 
L 127.960574 59.056857 
L 139.499876 58.701601 
L 151.039294 58.119218 
L 162.21819 57.33543 
L 173.396857 56.332567 
L 185.296796 55.031484 
L 199.360547 53.243945 
L 223.160423 50.19626 
L 230.733194 49.480562 
L 237.223944 49.082119 
L 242.993653 48.955899 
L 248.042091 49.048688 
L 252.730008 49.344791 
L 257.057404 49.815555 
L 261.745092 50.562637 
L 266.072488 51.487791 
L 270.039134 52.545304 
L 274.366301 53.939175 
L 278.332947 55.442209 
L 282.299593 57.162953 
L 286.626989 59.287532 
L 290.954156 61.664822 
L 295.642073 64.513694 
L 300.32999 67.627901 
L 305.378427 71.249304 
L 311.148136 75.678715 
L 317.638886 80.952569 
L 326.293449 88.28789 
L 346.125992 105.184975 
L 354.781243 112.14505 
L 361.63389 117.360911 
L 368.124181 122.037494 
L 374.614473 126.450033 
L 381.104765 130.601796 
L 388.317474 134.920408 
L 395.170121 138.752836 
L 402.020474 142.343742 
L 409.233184 145.889823 
L 416.805955 149.383642 
L 425.098851 152.969909 
L 433.754102 156.478329 
L 443.129477 160.051496 
L 453.22727 163.674127 
L 464.405249 167.462754 
L 475.945584 171.154635 
L 475.945584 171.154635 
" clip-path="url(#pbe17b18123)" style="fill: none; stroke: #4000bf; stroke-opacity: 0.6; stroke-width: 1.5"/>
    <path d="M 115.7 61.434898 
L 127.239371 61.304585 
L 138.057541 60.960859 
L 148.87571 60.397375 
L 159.693857 59.608743 
L 170.151482 58.626074 
L 180.608879 57.423238 
L 191.787775 55.908197 
L 206.212047 53.695606 
L 224.602735 50.88262 
L 232.896778 49.862632 
L 239.387528 49.287481 
L 245.157236 49.000247 
L 249.845153 48.959311 
L 254.893591 49.137382 
L 259.581508 49.537873 
L 263.908904 50.129398 
L 268.236071 50.949483 
L 272.563238 52.013136 
L 276.529884 53.209832 
L 280.49653 54.624171 
L 284.463406 56.258199 
L 288.790572 58.289307 
L 293.117739 60.574218 
L 297.445135 63.101948 
L 302.133052 66.096144 
L 307.18149 69.589349 
L 312.951199 73.873301 
L 319.441949 78.984229 
L 328.096512 86.104774 
L 348.651013 103.123301 
L 356.223785 109.058339 
L 363.074138 114.170632 
L 370.64691 119.507301 
L 377.859619 124.275779 
L 384.34991 128.30936 
L 391.922682 132.719347 
L 399.495453 136.832733 
L 407.790642 141.032835 
L 415.723475 144.787826 
L 424.018664 148.470633 
L 432.671622 152.08228 
L 442.409353 155.907544 
L 452.864914 159.779408 
L 465.847791 164.313684 
L 475.945584 167.654539 
L 475.945584 167.654539 
" clip-path="url(#pbe17b18123)" style="fill: none; stroke: #4c00b3; stroke-opacity: 0.6; stroke-width: 1.5"/>
    <path d="M 115.7 63.761018 
L 127.239371 63.620198 
L 137.696928 63.264669 
L 148.154439 62.686175 
L 158.251544 61.909755 
L 168.34842 60.910781 
L 178.084774 59.728958 
L 188.18165 58.278255 
L 198.999796 56.496993 
L 215.227131 53.562564 
L 228.569381 51.24968 
L 236.502903 50.116435 
L 242.633132 49.457365 
L 248.042091 49.083483 
L 253.090529 48.951806 
L 257.778446 49.044594 
L 262.105842 49.337969 
L 266.433009 49.848304 
L 270.399655 50.521019 
L 274.366301 51.399779 
L 278.332947 52.494134 
L 282.299593 53.806815 
L 286.266239 55.339869 
L 290.593635 57.263246 
L 294.920802 59.441451 
L 299.248198 61.863429 
L 303.935886 64.743277 
L 308.984553 68.113402 
L 314.754261 72.256807 
L 321.245012 77.208903 
L 329.899575 84.118354 
L 350.813679 100.945711 
L 359.46893 107.519691 
L 366.68164 112.712014 
L 373.531993 117.382197 
L 381.104765 122.241362 
L 388.677536 126.789638 
L 396.250307 131.0434 
L 404.183141 135.211053 
L 412.838392 139.459733 
L 421.133581 143.274695 
L 429.786538 147.019929 
L 440.604455 151.417343 
L 452.14479 155.819941 
L 464.045187 160.115015 
L 475.945584 164.194969 
L 475.945584 164.194969 
" clip-path="url(#pbe17b18123)" style="fill: none; stroke: #5900a6; stroke-opacity: 0.6; stroke-width: 1.5"/>
    <path d="M 115.7 66.178357 
L 126.518169 66.045451 
L 136.975726 65.681189 
L 147.072648 65.102832 
L 156.809002 64.327026 
L 166.545357 63.327506 
L 175.921191 62.142681 
L 185.296796 60.734688 
L 195.03315 59.046146 
L 206.212047 56.870875 
L 235.060361 51.141199 
L 241.911861 50.105519 
L 247.68157 49.451907 
L 253.090529 49.069156 
L 258.139196 48.951806 
L 262.826883 49.077343 
L 267.154279 49.418476 
L 271.120926 49.933587 
L 275.448092 50.730475 
L 279.775489 51.783212 
L 283.742135 52.977179 
L 288.069301 54.534112 
L 292.396698 56.353717 
L 296.723864 58.428899 
L 301.051261 60.747923 
L 305.738948 63.516562 
L 310.787386 66.766266 
L 316.196574 70.512797 
L 322.687554 75.293098 
L 331.341887 81.981836 
L 354.421181 99.970274 
L 362.354014 105.78844 
L 369.566723 110.815926 
L 376.417077 115.344335 
L 383.269724 119.628492 
L 390.48014 123.880037 
L 398.415267 128.267564 
L 405.988038 132.198225 
L 413.920871 136.076986 
L 422.213767 139.899453 
L 432.31156 144.272714 
L 442.046997 148.246986 
L 454.307456 152.973661 
L 468.372812 158.100964 
L 475.945584 160.743246 
L 475.945584 160.743246 
" clip-path="url(#pbe17b18123)" style="fill: none; stroke: #660099; stroke-opacity: 0.6; stroke-width: 1.5"/>
    <path d="M 115.7 68.698786 
L 126.518169 68.557762 
L 136.615114 68.188587 
L 146.351377 67.608456 
L 156.087731 66.799697 
L 165.463565 65.794309 
L 174.478649 64.605459 
L 183.493733 63.189892 
L 192.509046 61.548836 
L 202.245172 59.545565 
L 214.50586 56.774675 
L 232.896778 52.600568 
L 240.83007 51.058645 
L 246.960299 50.089144 
L 252.730008 49.415065 
L 257.778446 49.057557 
L 262.466363 48.951123 
L 266.793529 49.069838 
L 270.760405 49.374811 
L 275.087572 49.938363 
L 279.414738 50.755037 
L 283.381384 51.732042 
L 287.348031 52.932832 
L 291.314906 54.35604 
L 295.642073 56.159271 
L 299.96924 58.21535 
L 304.296636 60.510495 
L 308.984553 63.245565 
L 314.03299 66.447989 
L 319.802699 70.381665 
L 326.6542 75.340721 
L 336.029804 82.426333 
L 354.421181 96.357399 
L 362.714076 102.33119 
L 370.286847 107.522966 
L 377.499557 112.212663 
L 384.712266 116.648556 
L 391.922682 120.835408 
L 400.217871 125.359873 
L 408.150704 129.424443 
L 416.445893 133.430883 
L 425.098851 137.376295 
L 434.474226 141.4162 
L 446.01456 146.113197 
L 457.554895 150.565192 
L 470.535478 155.348359 
L 475.945584 157.271123 
L 475.945584 157.271123 
" clip-path="url(#pbe17b18123)" style="fill: none; stroke: #73008c; stroke-opacity: 0.6; stroke-width: 1.5"/>
    <path d="M 115.7 71.336566 
L 126.157557 71.197383 
L 135.893889 70.834486 
L 145.269585 70.265748 
L 154.645419 69.473091 
L 163.660503 68.48933 
L 172.315066 67.327157 
L 180.969629 65.939973 
L 189.624192 64.322728 
L 198.639276 62.40167 
L 208.37563 60.092538 
L 223.160423 56.314145 
L 235.060361 53.342874 
L 242.272382 51.742959 
L 248.402841 50.591293 
L 253.811799 49.789629 
L 258.499716 49.292257 
L 263.187633 49.008434 
L 267.154279 48.954535 
L 271.120926 49.088259 
L 275.448092 49.460777 
L 279.414738 50.0216 
L 283.381384 50.801431 
L 287.348031 51.805045 
L 291.314906 53.03176 
L 295.281552 54.480895 
L 299.608719 56.310052 
L 303.935886 58.385029 
L 308.623803 60.892086 
L 313.67224 63.863426 
L 319.081428 67.315354 
L 325.211658 71.494988 
L 333.14495 77.19403 
L 362.714076 98.711902 
L 370.64691 104.062237 
L 378.942098 109.358741 
L 386.154808 113.709488 
L 393.727579 118.026803 
L 401.30035 122.101681 
L 409.233184 126.135303 
L 417.886141 130.292102 
L 427.983934 134.858458 
L 437.721665 139.017828 
L 448.539582 143.409852 
L 461.160103 148.294335 
L 474.863104 153.367397 
L 475.945584 153.753833 
L 475.945584 153.753833 
" clip-path="url(#pbe17b18123)" style="fill: none; stroke: #80007f; stroke-opacity: 0.6; stroke-width: 1.5"/>
    <path d="M 115.7 74.109911 
L 125.796944 73.973526 
L 135.172687 73.619498 
L 144.548314 73.039981 
L 153.563627 72.260764 
L 162.21819 71.297745 
L 170.872524 70.109646 
L 179.166566 68.746272 
L 187.460379 67.15393 
L 195.754421 65.333097 
L 204.408984 63.205926 
L 214.50586 60.487298 
L 241.911861 52.947159 
L 248.763362 51.399096 
L 254.53307 50.329302 
L 259.581508 49.614287 
L 264.269425 49.168767 
L 268.957342 48.959993 
L 273.64503 49.01935 
L 277.611905 49.286799 
L 281.578551 49.767114 
L 285.545197 50.468485 
L 289.511843 51.393638 
L 293.478489 52.544622 
L 297.445135 53.917343 
L 301.772302 55.661898 
L 306.099698 57.65207 
L 310.787386 60.064156 
L 315.836053 62.929403 
L 321.245012 66.262617 
L 327.375241 70.301158 
L 335.308763 75.80896 
L 364.879036 96.616251 
L 372.811869 101.804616 
L 380.38464 106.516214 
L 387.957412 110.984446 
L 395.530183 115.213135 
L 403.463016 119.402362 
L 411.755912 123.545126 
L 421.853705 128.300245 
L 431.22908 132.468 
L 441.686935 136.885745 
L 453.22727 141.530412 
L 466.567915 146.675794 
L 475.945584 150.165315 
L 475.945584 150.165315 
" clip-path="url(#pbe17b18123)" style="fill: none; stroke: #8c0073; stroke-opacity: 0.6; stroke-width: 1.5"/>
    <path d="M 115.7 77.042089 
L 125.796944 76.899632 
L 135.172687 76.529707 
L 144.187793 75.951417 
L 152.842356 75.181821 
L 161.496919 74.191101 
L 169.790732 73.019718 
L 177.724024 71.681452 
L 185.657546 70.119197 
L 193.590838 68.328725 
L 201.884651 66.220043 
L 210.899735 63.684399 
L 222.078631 60.289918 
L 240.469549 54.681481 
L 248.042091 52.642868 
L 253.811799 51.306308 
L 259.220987 50.279497 
L 263.908904 49.602006 
L 268.596592 49.152392 
L 272.923988 48.963404 
L 276.890634 48.992059 
L 281.217801 49.265648 
L 285.184447 49.743917 
L 289.151093 50.444605 
L 293.117739 51.370441 
L 297.445135 52.638093 
L 301.772302 54.167734 
L 306.099698 55.947768 
L 310.426865 57.962911 
L 315.114782 60.387687 
L 320.16322 63.246316 
L 325.932929 66.774249 
L 332.784429 71.23443 
L 342.520784 77.86729 
L 361.63389 90.930446 
L 370.64691 96.7933 
L 380.024578 102.578989 
L 387.957412 107.206872 
L 395.890245 111.589412 
L 404.183141 115.924193 
L 413.920871 120.725515 
L 422.936184 124.926849 
L 432.671622 129.235462 
L 443.489539 133.795145 
L 457.914957 139.583086 
L 472.338082 145.130187 
L 475.945584 146.477323 
L 475.945584 146.477323 
" clip-path="url(#pbe17b18123)" style="fill: none; stroke: #990066; stroke-opacity: 0.6; stroke-width: 1.5"/>
    <path d="M 115.7 80.164005 
L 125.436355 80.025846 
L 134.451484 79.668747 
L 143.106002 79.112632 
L 151.760565 78.337918 
L 160.054377 77.379743 
L 168.34842 76.195328 
L 176.281712 74.83441 
L 183.854483 73.314389 
L 191.427025 71.570788 
L 198.999796 69.60395 
L 206.933088 67.317196 
L 215.948172 64.479922 
L 228.569381 60.245366 
L 242.272382 55.70147 
L 249.845153 53.438391 
L 255.614862 51.930582 
L 261.02405 50.74412 
L 265.711738 49.930176 
L 270.399655 49.345474 
L 274.727051 49.032313 
L 278.693697 48.951806 
L 282.660343 49.082119 
L 286.626989 49.429392 
L 290.954156 50.065265 
L 294.920802 50.884667 
L 298.887448 51.930582 
L 302.854094 53.196187 
L 307.18149 54.819299 
L 311.508657 56.67984 
L 316.196574 58.940122 
L 321.245012 61.62641 
L 327.01472 64.963103 
L 333.866221 69.206802 
L 342.881305 75.077229 
L 366.321577 90.455452 
L 375.336891 96.044103 
L 383.629786 100.940799 
L 391.922682 105.589218 
L 401.30035 110.551616 
L 409.953308 114.880598 
L 420.411163 119.828335 
L 430.148894 124.190591 
L 441.326873 128.962152 
L 453.587332 133.964552 
L 468.372812 139.768526 
L 475.945584 142.655538 
L 475.945584 142.655538 
" clip-path="url(#pbe17b18123)" style="fill: none; stroke: #a60059; stroke-opacity: 0.6; stroke-width: 1.5"/>
    <path d="M 115.7 83.518096 
L 125.436355 83.374752 
L 134.451484 83.004008 
L 143.106002 82.426333 
L 151.760565 81.620781 
L 160.054377 80.623375 
L 167.98767 79.44742 
L 175.560441 78.106493 
L 183.133212 76.537416 
L 190.345233 74.821516 
L 197.918005 72.783653 
L 205.490776 70.511296 
L 213.784589 67.780182 
L 223.520944 64.326344 
L 248.042091 55.504977 
L 254.53307 53.476598 
L 260.302779 51.906703 
L 265.711738 50.688857 
L 270.399655 49.86809 
L 274.727051 49.329781 
L 279.054218 49.021397 
L 283.020864 48.955899 
L 286.266239 49.059604 
L 290.232885 49.393232 
L 294.19976 49.953373 
L 298.166406 50.739344 
L 302.133052 51.750464 
L 306.460219 53.102034 
L 310.787386 54.700585 
L 315.114782 56.527695 
L 320.16322 58.920882 
L 325.572408 61.754267 
L 331.702637 65.236419 
L 339.275409 69.822002 
L 351.176035 77.343105 
L 365.959222 86.653725 
L 376.777139 93.167189 
L 386.51487 98.723841 
L 395.170121 103.401871 
L 403.823078 107.841517 
L 413.198454 112.408064 
L 424.378726 117.56177 
L 435.196643 122.292232 
L 447.09704 127.265997 
L 461.520165 133.056523 
L 475.945584 138.656432 
L 475.945584 138.656432 
" clip-path="url(#pbe17b18123)" style="fill: none; stroke: #b3004c; stroke-opacity: 0.6; stroke-width: 1.5"/>
    <path d="M 115.7 87.165494 
L 125.075742 87.027471 
L 133.730259 86.672624 
L 142.384731 86.09338 
L 150.678773 85.317097 
L 158.972586 84.312459 
L 166.905878 83.121972 
L 174.478649 81.758394 
L 181.69067 80.237962 
L 188.902921 78.489177 
L 196.114942 76.505145 
L 203.327193 74.287096 
L 210.899735 71.720341 
L 219.193777 68.668084 
L 230.011923 64.427251 
L 247.321049 57.618162 
L 254.53307 55.041036 
L 260.302779 53.201645 
L 265.351217 51.805045 
L 270.039134 50.722288 
L 274.366301 49.931541 
L 278.693697 49.361848 
L 283.020864 49.031631 
L 287.348031 48.961357 
L 290.593635 49.071885 
L 294.560281 49.421887 
L 298.526927 49.998403 
L 302.493573 50.800066 
L 306.82074 51.927853 
L 310.787386 53.182541 
L 315.114782 54.777681 
L 319.802699 56.750114 
L 324.851137 59.124061 
L 330.620846 62.103997 
L 337.111596 65.718168 
L 345.405867 70.600809 
L 376.417077 89.129807 
L 385.792452 94.361565 
L 395.890245 99.708079 
L 404.905558 104.23369 
L 414.640996 108.88402 
L 426.18133 114.114345 
L 437.721665 119.089242 
L 450.702248 124.451865 
L 466.93027 130.917426 
L 475.945584 134.419419 
L 475.945584 134.419419 
" clip-path="url(#pbe17b18123)" style="fill: none; stroke: #c0003f; stroke-opacity: 0.6; stroke-width: 1.5"/>
    <path d="M 115.7 91.199941 
L 125.075742 91.057347 
L 133.730259 90.690765 
L 142.02421 90.121755 
L 150.318023 89.328552 
L 158.251544 88.348612 
L 165.824086 87.1964 
L 173.036337 85.885561 
L 180.248358 84.349779 
L 187.099858 82.669083 
L 193.951359 80.763035 
L 200.802859 78.628086 
L 208.01488 76.139041 
L 215.587651 73.279252 
L 224.242215 69.755549 
L 236.863424 64.330847 
L 249.484633 58.965434 
L 256.696654 56.138121 
L 262.826883 53.981476 
L 267.87555 52.428637 
L 272.563238 51.205333 
L 276.890634 50.289048 
L 281.217801 49.597912 
L 285.545197 49.149663 
L 289.872364 48.956582 
L 294.560281 49.050734 
L 298.166406 49.338651 
L 302.133052 49.872866 
L 306.099698 50.632229 
L 310.066344 51.609917 
L 314.393511 52.910999 
L 319.081428 54.579141 
L 323.769345 56.488806 
L 329.178304 58.951584 
L 334.948012 61.829862 
L 341.799513 65.498342 
L 351.176035 70.786045 
L 376.417077 85.163518 
L 386.51487 90.612987 
L 395.890245 95.440979 
L 405.625682 100.21705 
L 417.166017 105.594198 
L 427.983934 110.389578 
L 440.244393 115.59036 
L 454.307456 121.32724 
L 475.945584 129.855908 
L 475.945584 129.855908 
" clip-path="url(#pbe17b18123)" style="fill: none; stroke: #cc0033; stroke-opacity: 0.6; stroke-width: 1.5"/>
    <path d="M 115.7 95.779178 
L 124.71513 95.642862 
L 133.009057 95.294701 
L 141.302939 94.727191 
L 149.236231 93.968443 
L 157.169523 92.98707 
L 164.742294 91.827149 
L 171.954545 90.501982 
L 179.166566 88.943344 
L 186.018067 87.23065 
L 192.869567 85.279777 
L 199.721067 83.083492 
L 206.572568 80.64241 
L 213.784589 77.820555 
L 221.35736 74.610081 
L 230.372444 70.532651 
L 257.417925 58.116557 
L 263.548154 55.657805 
L 268.596592 53.843658 
L 273.284509 52.368597 
L 277.972426 51.125507 
L 282.299593 50.208541 
L 286.626989 49.531732 
L 290.593635 49.135335 
L 294.560281 48.959311 
L 299.608719 49.06438 
L 303.575365 49.408924 
L 307.542011 49.97657 
L 311.869407 50.845778 
L 316.196574 51.962649 
L 320.523741 53.308761 
L 325.211658 55.002829 
L 330.260095 57.066003 
L 336.029804 59.677311 
L 342.520784 62.863155 
L 350.813679 67.187566 
L 364.156618 74.394485 
L 378.942098 82.295065 
L 389.760016 87.841347 
L 399.857808 92.788462 
L 410.315663 97.681952 
L 421.493643 102.680238 
L 433.394039 107.77138 
L 447.457102 113.555841 
L 465.847791 120.876576 
L 475.945584 124.818332 
L 475.945584 124.818332 
" clip-path="url(#pbe17b18123)" style="fill: none; stroke: #d90026; stroke-opacity: 0.6; stroke-width: 1.5"/>
    <path d="M 115.7 101.211044 
L 124.71513 101.07077 
L 133.009057 100.712376 
L 141.302939 100.127878 
L 149.236231 99.345727 
L 156.809002 98.384209 
L 164.381774 97.196792 
L 171.593795 95.83683 
L 178.445295 94.319332 
L 184.936275 92.663335 
L 191.427025 90.781916 
L 197.918005 88.66573 
L 204.408984 86.310818 
L 210.899735 83.720797 
L 217.751235 80.746524 
L 225.324006 77.207334 
L 234.33909 72.73337 
L 259.581508 60.040754 
L 265.711738 57.292038 
L 271.120926 55.098346 
L 276.169363 53.293751 
L 280.85728 51.862355 
L 285.184447 50.773458 
L 289.511843 49.927447 
L 293.478489 49.37754 
L 297.445135 49.051417 
L 301.051261 48.95317 
L 304.657157 49.039136 
L 308.623803 49.355025 
L 312.590449 49.891287 
L 316.557095 50.639051 
L 320.884491 51.682237 
L 325.211658 52.943748 
L 330.260095 54.66306 
L 335.308763 56.609567 
L 341.438992 59.222785 
L 348.651013 62.556203 
L 358.748806 67.50598 
L 389.039891 82.552689 
L 400.577933 87.968521 
L 412.118267 93.15252 
L 424.378726 98.430126 
L 438.081727 104.092939 
L 454.669812 110.716793 
L 475.945584 119.021002 
L 475.945584 119.021002 
" clip-path="url(#pbe17b18123)" style="fill: none; stroke: #e60019; stroke-opacity: 0.6; stroke-width: 1.5"/>
    <path d="M 115.7 108.28997 
L 124.71513 108.145808 
L 133.009057 107.777452 
L 140.942418 107.20735 
L 148.87571 106.412646 
L 156.448482 105.432092 
L 163.660503 104.28104 
L 170.512003 102.973407 
L 177.363503 101.437762 
L 183.854483 99.754951 
L 190.345233 97.834507 
L 196.475692 95.790982 
L 202.605922 93.516714 
L 208.736151 91.010066 
L 215.227131 88.108591 
L 222.078631 84.788067 
L 229.651402 80.850843 
L 238.666486 75.891173 
L 262.826883 62.428483 
L 269.317863 59.16295 
L 274.727051 56.683934 
L 279.414738 54.756531 
L 284.102655 53.066556 
L 288.430052 51.741594 
L 292.757218 50.660201 
L 296.723864 49.894016 
L 300.69051 49.351614 
L 304.657157 49.037771 
L 308.263282 48.951123 
L 312.229928 49.07052 
L 316.557095 49.44986 
L 320.884491 50.077546 
L 325.211658 50.936519 
L 329.899575 52.10456 
L 334.948012 53.607593 
L 340.3572 55.456536 
L 346.125992 57.648113 
L 352.978639 60.471333 
L 362.714076 64.744232 
L 404.905558 83.596011 
L 418.608559 89.331895 
L 433.394039 95.28897 
L 451.784728 102.46546 
L 475.945584 111.731938 
L 475.945584 111.731938 
" clip-path="url(#pbe17b18123)" style="fill: none; stroke: #f3000c; stroke-opacity: 0.6; stroke-width: 1.5"/>
    <path d="M 115.7 125.38 
L 124.71513 125.232075 
L 132.648445 124.875106 
L 140.581668 124.298989 
L 148.154439 123.532756 
L 155.727211 122.541614 
L 162.939232 121.371247 
L 169.790732 120.034304 
L 176.281712 118.544711 
L 182.411941 116.919757 
L 188.542171 115.065083 
L 194.311879 113.095038 
L 200.081588 110.894865 
L 205.851297 108.455761 
L 211.621005 105.772816 
L 217.390714 102.847188 
L 223.520944 99.481226 
L 229.651402 95.868146 
L 236.502903 91.572663 
L 244.436195 86.330331 
L 257.057404 77.670184 
L 268.236071 70.08522 
L 275.087572 65.690331 
L 280.85728 62.241951 
L 285.905718 59.469288 
L 290.593635 57.135594 
L 295.281552 55.063551 
L 299.608719 53.402231 
L 303.575365 52.103878 
L 307.902761 50.941295 
L 311.869407 50.112341 
L 315.836053 49.509218 
L 319.802699 49.127148 
L 324.129866 48.954535 
L 328.817783 49.043912 
L 332.784429 49.323641 
L 337.472346 49.877642 
L 342.520784 50.714101 
L 347.930889 51.848028 
L 354.061118 53.378352 
L 360.911472 55.328952 
L 369.566723 58.052015 
L 380.744702 61.831158 
L 403.463016 69.833873 
L 436.279123 81.345349 
L 475.945584 95.262225 
L 475.945584 95.262225 
" clip-path="url(#pbe17b18123)" style="fill: none; stroke: #ff0000; stroke-opacity: 0.6; stroke-width: 1.5"/>
   </g>
   <g id="patch_3">
    <path d="M 115.7 227.72 
L 115.7 23.04 
" style="fill: none; stroke: #000000; stroke-width: 2; stroke-linejoin: miter; stroke-linecap: square"/>
   </g>
   <g id="patch_4">
    <path d="M 475.944741 227.72 
L 475.944741 23.04 
" style="fill: none; stroke: #000000; stroke-width: 2; stroke-linejoin: miter; stroke-linecap: square"/>
   </g>
   <g id="patch_5">
    <path d="M 115.7 227.72 
L 475.944741 227.72 
" style="fill: none; stroke: #000000; stroke-width: 2; stroke-linejoin: miter; stroke-linecap: square"/>
   </g>
   <g id="patch_6">
    <path d="M 115.7 23.04 
L 475.944741 23.04 
" style="fill: none; stroke: #000000; stroke-width: 2; stroke-linejoin: miter; stroke-linecap: square"/>
   </g>
   <g id="matplotlib.axis_1">
    <g id="xtick_1">
     <g id="line2d_1">
      <defs>
       <path id="ma537bd539d" d="M 0 5 
L 0 -5 
" style="stroke: #000000; stroke-width: 2"/>
      </defs>
      <g>
       <use xlink:href="#ma537bd539d" x="115.7" y="227.72" style="stroke: #000000; stroke-width: 2"/>
      </g>
     </g>
     <g id="line2d_2">
      <g>
       <use xlink:href="#ma537bd539d" x="115.7" y="23.04" style="stroke: #000000; stroke-width: 2"/>
      </g>
     </g>
    </g>
    <g id="xtick_2">
     <g id="line2d_3">
      <g>
       <use xlink:href="#ma537bd539d" x="205.761185" y="227.72" style="stroke: #000000; stroke-width: 2"/>
      </g>
     </g>
     <g id="line2d_4">
      <g>
       <use xlink:href="#ma537bd539d" x="205.761185" y="23.04" style="stroke: #000000; stroke-width: 2"/>
      </g>
     </g>
    </g>
    <g id="xtick_3">
     <g id="line2d_5">
      <g>
       <use xlink:href="#ma537bd539d" x="295.822371" y="227.72" style="stroke: #000000; stroke-width: 2"/>
      </g>
     </g>
     <g id="line2d_6">
      <g>
       <use xlink:href="#ma537bd539d" x="295.822371" y="23.04" style="stroke: #000000; stroke-width: 2"/>
      </g>
     </g>
    </g>
    <g id="xtick_4">
     <g id="line2d_7">
      <g>
       <use xlink:href="#ma537bd539d" x="385.883556" y="227.72" style="stroke: #000000; stroke-width: 2"/>
      </g>
     </g>
     <g id="line2d_8">
      <g>
       <use xlink:href="#ma537bd539d" x="385.883556" y="23.04" style="stroke: #000000; stroke-width: 2"/>
      </g>
     </g>
    </g>
    <g id="xtick_5">
     <g id="line2d_9">
      <g>
       <use xlink:href="#ma537bd539d" x="475.944741" y="227.72" style="stroke: #000000; stroke-width: 2"/>
      </g>
     </g>
     <g id="line2d_10">
      <g>
       <use xlink:href="#ma537bd539d" x="475.944741" y="23.04" style="stroke: #000000; stroke-width: 2"/>
      </g>
     </g>
    </g>
   </g>
   <g id="matplotlib.axis_2">
    <g id="ytick_1">
     <g id="line2d_11">
      <defs>
       <path id="me1ce53644a" d="M 5 0 
L -5 -0 
" style="stroke: #000000; stroke-width: 2"/>
      </defs>
      <g>
       <use xlink:href="#me1ce53644a" x="115.7" y="227.72" style="stroke: #000000; stroke-width: 2"/>
      </g>
     </g>
     <g id="line2d_12">
      <g>
       <use xlink:href="#me1ce53644a" x="475.944741" y="227.72" style="stroke: #000000; stroke-width: 2"/>
      </g>
     </g>
     <g id="text_1">
      <!-- −0.15 -->
      <g transform="translate(45.409375 233.23875) scale(0.2 -0.2)">
       <defs>
        <path id="DejaVuSans-2212" d="M 678 2272 
L 4684 2272 
L 4684 1741 
L 678 1741 
L 678 2272 
z
" transform="scale(0.015625)"/>
        <path id="DejaVuSans-30" d="M 2034 4250 
Q 1547 4250 1301 3770 
Q 1056 3291 1056 2328 
Q 1056 1369 1301 889 
Q 1547 409 2034 409 
Q 2525 409 2770 889 
Q 3016 1369 3016 2328 
Q 3016 3291 2770 3770 
Q 2525 4250 2034 4250 
z
M 2034 4750 
Q 2819 4750 3233 4129 
Q 3647 3509 3647 2328 
Q 3647 1150 3233 529 
Q 2819 -91 2034 -91 
Q 1250 -91 836 529 
Q 422 1150 422 2328 
Q 422 3509 836 4129 
Q 1250 4750 2034 4750 
z
" transform="scale(0.015625)"/>
        <path id="DejaVuSans-2e" d="M 684 794 
L 1344 794 
L 1344 0 
L 684 0 
L 684 794 
z
" transform="scale(0.015625)"/>
        <path id="DejaVuSans-31" d="M 794 531 
L 1825 531 
L 1825 4091 
L 703 3866 
L 703 4441 
L 1819 4666 
L 2450 4666 
L 2450 531 
L 3481 531 
L 3481 0 
L 794 0 
L 794 531 
z
" transform="scale(0.015625)"/>
        <path id="DejaVuSans-35" d="M 691 4666 
L 3169 4666 
L 3169 4134 
L 1269 4134 
L 1269 2991 
Q 1406 3038 1543 3061 
Q 1681 3084 1819 3084 
Q 2600 3084 3056 2656 
Q 3513 2228 3513 1497 
Q 3513 744 3044 326 
Q 2575 -91 1722 -91 
Q 1428 -91 1123 -41 
Q 819 9 494 109 
L 494 744 
Q 775 591 1075 516 
Q 1375 441 1709 441 
Q 2250 441 2565 725 
Q 2881 1009 2881 1497 
Q 2881 1984 2565 2268 
Q 2250 2553 1709 2553 
Q 1456 2553 1204 2497 
Q 953 2441 691 2322 
L 691 4666 
z
" transform="scale(0.015625)"/>
       </defs>
       <use xlink:href="#DejaVuSans-2212"/>
       <use xlink:href="#DejaVuSans-30" x="83.789062"/>
       <use xlink:href="#DejaVuSans-2e" x="147.412109"/>
       <use xlink:href="#DejaVuSans-31" x="179.199219"/>
       <use xlink:href="#DejaVuSans-35" x="242.822266"/>
      </g>
     </g>
    </g>
    <g id="ytick_2">
     <g id="line2d_13">
      <g>
       <use xlink:href="#me1ce53644a" x="115.7" y="193.606667" style="stroke: #000000; stroke-width: 2"/>
      </g>
     </g>
     <g id="line2d_14">
      <g>
       <use xlink:href="#me1ce53644a" x="475.944741" y="193.606667" style="stroke: #000000; stroke-width: 2"/>
      </g>
     </g>
     <g id="text_2">
      <!-- −0.10 -->
      <g transform="translate(45.409375 199.125417) scale(0.2 -0.2)">
       <use xlink:href="#DejaVuSans-2212"/>
       <use xlink:href="#DejaVuSans-30" x="83.789062"/>
       <use xlink:href="#DejaVuSans-2e" x="147.412109"/>
       <use xlink:href="#DejaVuSans-31" x="179.199219"/>
       <use xlink:href="#DejaVuSans-30" x="242.822266"/>
      </g>
     </g>
    </g>
    <g id="ytick_3">
     <g id="line2d_15">
      <g>
       <use xlink:href="#me1ce53644a" x="115.7" y="159.493333" style="stroke: #000000; stroke-width: 2"/>
      </g>
     </g>
     <g id="line2d_16">
      <g>
       <use xlink:href="#me1ce53644a" x="475.944741" y="159.493333" style="stroke: #000000; stroke-width: 2"/>
      </g>
     </g>
     <g id="text_3">
      <!-- −0.05 -->
      <g transform="translate(45.409375 165.012083) scale(0.2 -0.2)">
       <use xlink:href="#DejaVuSans-2212"/>
       <use xlink:href="#DejaVuSans-30" x="83.789062"/>
       <use xlink:href="#DejaVuSans-2e" x="147.412109"/>
       <use xlink:href="#DejaVuSans-30" x="179.199219"/>
       <use xlink:href="#DejaVuSans-35" x="242.822266"/>
      </g>
     </g>
    </g>
    <g id="ytick_4">
     <g id="line2d_17">
      <g>
       <use xlink:href="#me1ce53644a" x="115.7" y="125.38" style="stroke: #000000; stroke-width: 2"/>
      </g>
     </g>
     <g id="line2d_18">
      <g>
       <use xlink:href="#me1ce53644a" x="475.944741" y="125.38" style="stroke: #000000; stroke-width: 2"/>
      </g>
     </g>
     <g id="text_4">
      <!-- 0.00 -->
      <g transform="translate(62.16875 130.89875) scale(0.2 -0.2)">
       <use xlink:href="#DejaVuSans-30"/>
       <use xlink:href="#DejaVuSans-2e" x="63.623047"/>
       <use xlink:href="#DejaVuSans-30" x="95.410156"/>
       <use xlink:href="#DejaVuSans-30" x="159.033203"/>
      </g>
     </g>
    </g>
    <g id="ytick_5">
     <g id="line2d_19">
      <g>
       <use xlink:href="#me1ce53644a" x="115.7" y="91.266667" style="stroke: #000000; stroke-width: 2"/>
      </g>
     </g>
     <g id="line2d_20">
      <g>
       <use xlink:href="#me1ce53644a" x="475.944741" y="91.266667" style="stroke: #000000; stroke-width: 2"/>
      </g>
     </g>
     <g id="text_5">
      <!-- 0.05 -->
      <g transform="translate(62.16875 96.785417) scale(0.2 -0.2)">
       <use xlink:href="#DejaVuSans-30"/>
       <use xlink:href="#DejaVuSans-2e" x="63.623047"/>
       <use xlink:href="#DejaVuSans-30" x="95.410156"/>
       <use xlink:href="#DejaVuSans-35" x="159.033203"/>
      </g>
     </g>
    </g>
    <g id="ytick_6">
     <g id="line2d_21">
      <g>
       <use xlink:href="#me1ce53644a" x="115.7" y="57.153333" style="stroke: #000000; stroke-width: 2"/>
      </g>
     </g>
     <g id="line2d_22">
      <g>
       <use xlink:href="#me1ce53644a" x="475.944741" y="57.153333" style="stroke: #000000; stroke-width: 2"/>
      </g>
     </g>
     <g id="text_6">
      <!-- 0.10 -->
      <g transform="translate(62.16875 62.672083) scale(0.2 -0.2)">
       <use xlink:href="#DejaVuSans-30"/>
       <use xlink:href="#DejaVuSans-2e" x="63.623047"/>
       <use xlink:href="#DejaVuSans-31" x="95.410156"/>
       <use xlink:href="#DejaVuSans-30" x="159.033203"/>
      </g>
     </g>
    </g>
    <g id="ytick_7">
     <g id="line2d_23">
      <g>
       <use xlink:href="#me1ce53644a" x="115.7" y="23.04" style="stroke: #000000; stroke-width: 2"/>
      </g>
     </g>
     <g id="line2d_24">
      <g>
       <use xlink:href="#me1ce53644a" x="475.944741" y="23.04" style="stroke: #000000; stroke-width: 2"/>
      </g>
     </g>
     <g id="text_7">
      <!-- 0.15 -->
      <g transform="translate(62.16875 28.55875) scale(0.2 -0.2)">
       <use xlink:href="#DejaVuSans-30"/>
       <use xlink:href="#DejaVuSans-2e" x="63.623047"/>
       <use xlink:href="#DejaVuSans-31" x="95.410156"/>
       <use xlink:href="#DejaVuSans-35" x="159.033203"/>
      </g>
     </g>
    </g>
    <g id="text_8">
     <!-- $\phi_{DCC}\ [GeV]$ -->
     <g transform="translate(35.159375 192.505) rotate(-90) scale(0.25 -0.25)">
      <defs>
       <path id="DejaVuSans-3d5" d="M 2388 4863 
L 2388 3572 
Q 3009 3572 3425 3094 
Q 3853 2606 3853 1747 
Q 3853 888 3425 400 
Q 3009 -78 2388 -78 
L 2388 -1331 
L 1816 -1331 
L 1816 -78 
Q 1194 -78 775 400 
Q 350 888 350 1747 
Q 350 2606 775 3094 
Q 1194 3572 1816 3572 
L 1816 4863 
L 2388 4863 
z
M 2388 434 
Q 2741 434 2981 756 
Q 3244 1116 3247 1747 
Q 3250 2372 2981 2738 
Q 2741 3059 2388 3059 
L 2388 434 
z
M 1816 434 
L 1816 3059 
Q 1463 3059 1225 2738 
Q 953 2372 956 1747 
Q 959 1116 1225 756 
Q 1463 434 1816 434 
z
" transform="scale(0.015625)"/>
       <path id="DejaVuSans-44" d="M 1259 4147 
L 1259 519 
L 2022 519 
Q 2988 519 3436 956 
Q 3884 1394 3884 2338 
Q 3884 3275 3436 3711 
Q 2988 4147 2022 4147 
L 1259 4147 
z
M 628 4666 
L 1925 4666 
Q 3281 4666 3915 4102 
Q 4550 3538 4550 2338 
Q 4550 1131 3912 565 
Q 3275 0 1925 0 
L 628 0 
L 628 4666 
z
" transform="scale(0.015625)"/>
       <path id="DejaVuSans-43" d="M 4122 4306 
L 4122 3641 
Q 3803 3938 3442 4084 
Q 3081 4231 2675 4231 
Q 1875 4231 1450 3742 
Q 1025 3253 1025 2328 
Q 1025 1406 1450 917 
Q 1875 428 2675 428 
Q 3081 428 3442 575 
Q 3803 722 4122 1019 
L 4122 359 
Q 3791 134 3420 21 
Q 3050 -91 2638 -91 
Q 1578 -91 968 557 
Q 359 1206 359 2328 
Q 359 3453 968 4101 
Q 1578 4750 2638 4750 
Q 3056 4750 3426 4639 
Q 3797 4528 4122 4306 
z
" transform="scale(0.015625)"/>
       <path id="DejaVuSans-5b" d="M 550 4863 
L 1875 4863 
L 1875 4416 
L 1125 4416 
L 1125 -397 
L 1875 -397 
L 1875 -844 
L 550 -844 
L 550 4863 
z
" transform="scale(0.015625)"/>
       <path id="DejaVuSans-47" d="M 3809 666 
L 3809 1919 
L 2778 1919 
L 2778 2438 
L 4434 2438 
L 4434 434 
Q 4069 175 3628 42 
Q 3188 -91 2688 -91 
Q 1594 -91 976 548 
Q 359 1188 359 2328 
Q 359 3472 976 4111 
Q 1594 4750 2688 4750 
Q 3144 4750 3555 4637 
Q 3966 4525 4313 4306 
L 4313 3634 
Q 3963 3931 3569 4081 
Q 3175 4231 2741 4231 
Q 1884 4231 1454 3753 
Q 1025 3275 1025 2328 
Q 1025 1384 1454 906 
Q 1884 428 2741 428 
Q 3075 428 3337 486 
Q 3600 544 3809 666 
z
" transform="scale(0.015625)"/>
       <path id="DejaVuSans-65" d="M 3597 1894 
L 3597 1613 
L 953 1613 
Q 991 1019 1311 708 
Q 1631 397 2203 397 
Q 2534 397 2845 478 
Q 3156 559 3463 722 
L 3463 178 
Q 3153 47 2828 -22 
Q 2503 -91 2169 -91 
Q 1331 -91 842 396 
Q 353 884 353 1716 
Q 353 2575 817 3079 
Q 1281 3584 2069 3584 
Q 2775 3584 3186 3129 
Q 3597 2675 3597 1894 
z
M 3022 2063 
Q 3016 2534 2758 2815 
Q 2500 3097 2075 3097 
Q 1594 3097 1305 2825 
Q 1016 2553 972 2059 
L 3022 2063 
z
" transform="scale(0.015625)"/>
       <path id="DejaVuSans-56" d="M 1831 0 
L 50 4666 
L 709 4666 
L 2188 738 
L 3669 4666 
L 4325 4666 
L 2547 0 
L 1831 0 
z
" transform="scale(0.015625)"/>
       <path id="DejaVuSans-5d" d="M 1947 4863 
L 1947 -844 
L 622 -844 
L 622 -397 
L 1369 -397 
L 1369 4416 
L 622 4416 
L 622 4863 
L 1947 4863 
z
" transform="scale(0.015625)"/>
      </defs>
      <use xlink:href="#DejaVuSans-3d5" transform="translate(0 0.015625)"/>
      <use xlink:href="#DejaVuSans-44" transform="translate(66.923828 -16.390625) scale(0.7)"/>
      <use xlink:href="#DejaVuSans-43" transform="translate(120.825195 -16.390625) scale(0.7)"/>
      <use xlink:href="#DejaVuSans-43" transform="translate(169.702148 -16.390625) scale(0.7)"/>
      <use xlink:href="#DejaVuSans-5b" transform="translate(250.577507 0.015625)"/>
      <use xlink:href="#DejaVuSans-47" transform="translate(289.591179 0.015625)"/>
      <use xlink:href="#DejaVuSans-65" transform="translate(367.081413 0.015625)"/>
      <use xlink:href="#DejaVuSans-56" transform="translate(428.604851 0.015625)"/>
      <use xlink:href="#DejaVuSans-5d" transform="translate(497.013054 0.015625)"/>
     </g>
    </g>
   </g>
  </g>
  <g id="axes_2">
   <g id="patch_7">
    <path d="M 115.7 432.4 
L 475.944741 432.4 
L 475.944741 227.72 
L 115.7 227.72 
z
" style="fill: #ffffff"/>
   </g>
   <g id="LineCollection_2">
    <path d="M 115.7 330.06 
L 125.075742 329.918769 
L 133.730259 329.550951 
L 141.663689 328.997588 
L 149.236231 328.252976 
L 156.448482 327.320194 
L 162.939232 326.264585 
L 169.069691 325.049331 
L 174.83917 323.681932 
L 180.248358 322.175044 
L 185.296796 320.546303 
L 190.345233 318.677575 
L 195.03315 316.705415 
L 199.721067 314.485285 
L 204.408984 311.999787 
L 208.736151 309.457832 
L 213.063547 306.670057 
L 217.751235 303.368091 
L 222.439152 299.77408 
L 227.127069 295.896179 
L 232.175507 291.420851 
L 237.584694 286.319202 
L 244.075445 279.860183 
L 253.811799 269.798456 
L 262.466363 260.966855 
L 267.87555 255.770029 
L 272.202717 251.914882 
L 275.808842 248.968513 
L 279.414738 246.31279 
L 282.660343 244.203563 
L 285.545197 242.578745 
L 288.430052 241.207047 
L 290.954156 240.227995 
L 293.478489 239.466244 
L 296.002594 238.929982 
L 298.526927 238.621257 
L 301.051261 238.584756 
L 302.854094 238.672427 
L 305.738948 239.102255 
L 307.902761 239.627259 
L 310.426865 240.459283 
L 312.951199 241.520208 
L 315.475303 242.800481 
L 318.360157 244.515359 
L 321.605762 246.736819 
L 324.851137 249.227092 
L 328.817783 252.577363 
L 333.14495 256.523934 
L 339.275409 262.442939 
L 355.50366 278.287559 
L 360.911472 283.198855 
L 365.59916 287.188751 
L 370.286847 290.897211 
L 374.614473 294.061564 
L 379.302161 297.216774 
L 383.989848 300.109619 
L 388.677536 302.763193 
L 394.087641 305.544044 
L 398.775329 307.70908 
L 403.463016 309.642078 
L 408.510766 311.477819 
L 414.640996 313.434151 
L 422.576122 315.688019 
L 429.066414 317.323241 
L 434.474226 318.4673 
L 440.244393 319.452084 
L 446.734685 320.333811 
L 451.06231 320.724579 
L 454.307456 320.819414 
L 457.554895 320.738429 
L 461.880227 320.41101 
L 465.847791 319.942395 
L 467.650395 319.559438 
L 469.452999 318.946319 
L 470.89554 318.197668 
L 472.338082 317.19518 
L 473.780624 315.838185 
L 474.863104 314.519739 
L 475.945584 312.732644 
L 475.945584 312.732644 
" clip-path="url(#p2c356929ec)" style="fill: none; stroke: #0000ff; stroke-opacity: 0.6; stroke-width: 1.5"/>
    <path d="M 115.7 345.096304 
L 122.190888 345.108312 
L 133.009057 344.842297 
L 142.384731 344.404111 
L 151.039294 343.784203 
L 158.972586 343.002258 
L 166.184836 342.069531 
L 172.675587 341.003455 
L 178.445295 339.837393 
L 183.854483 338.523961 
L 188.902921 337.076089 
L 193.590838 335.513426 
L 198.278525 333.715141 
L 202.605922 331.824454 
L 206.933088 329.693196 
L 211.260485 327.304704 
L 215.587651 324.645225 
L 219.915048 321.704792 
L 224.242215 318.477841 
L 228.569381 314.964168 
L 232.896778 311.169435 
L 237.584694 306.756159 
L 242.633132 301.681834 
L 248.402841 295.536966 
L 255.614862 287.4927 
L 270.399655 270.891447 
L 275.448092 265.608656 
L 279.775489 261.402823 
L 283.381384 258.187983 
L 286.626989 255.559891 
L 289.872364 253.218352 
L 292.757218 251.402499 
L 295.642073 249.854436 
L 298.166406 248.734496 
L 300.69051 247.843455 
L 303.214844 247.189162 
L 305.738948 246.776731 
L 308.623803 246.615375 
L 311.508657 246.75524 
L 314.03299 247.148567 
L 316.557095 247.771476 
L 319.081428 248.615781 
L 321.966283 249.836015 
L 324.851137 251.305276 
L 328.096512 253.226539 
L 331.702637 255.643469 
L 335.669283 258.581992 
L 340.3572 262.332411 
L 346.848409 267.823976 
L 360.911472 279.813448 
L 366.68164 284.404761 
L 371.729389 288.154499 
L 376.777139 291.630307 
L 382.187244 295.057332 
L 387.234994 298.001517 
L 393.005161 301.081883 
L 398.052911 303.51952 
L 403.102954 305.698543 
L 408.150704 307.621341 
L 413.920871 309.564095 
L 421.493643 311.867291 
L 428.343996 313.754372 
L 433.754102 315.012916 
L 438.801851 315.958571 
L 444.932081 316.870694 
L 449.259706 317.327676 
L 452.14479 317.455123 
L 455.029874 317.3885 
L 457.554895 317.155915 
L 461.160103 316.611808 
L 465.127667 315.793292 
L 466.93027 315.232708 
L 468.372812 314.576811 
L 469.815354 313.656774 
L 471.257896 312.374659 
L 472.338082 311.136618 
L 473.420562 309.588043 
L 474.503042 307.682404 
L 475.583228 305.180941 
L 475.945584 304.133423 
L 475.945584 304.133423 
" clip-path="url(#p2c356929ec)" style="fill: none; stroke: #0c00f3; stroke-opacity: 0.6; stroke-width: 1.5"/>
    <path d="M 115.7 351.32458 
L 121.469686 351.379196 
L 134.090872 351.13723 
L 144.187793 350.741106 
L 153.563627 350.156369 
L 161.85744 349.4244 
L 169.069691 348.568837 
L 175.560441 347.573205 
L 181.33015 346.467558 
L 186.739337 345.206593 
L 191.787775 343.80126 
L 196.475692 342.269844 
L 201.16338 340.492437 
L 205.490776 338.609859 
L 209.817943 336.474125 
L 213.784589 334.278523 
L 217.751235 331.84379 
L 221.717881 329.160984 
L 225.684527 326.224467 
L 229.651402 323.032926 
L 233.978569 319.263505 
L 238.305736 315.203746 
L 242.993653 310.498903 
L 248.042091 305.114864 
L 253.811799 298.637458 
L 262.466363 288.538956 
L 272.202717 277.241303 
L 277.611905 271.311723 
L 281.939072 266.889953 
L 285.545197 263.490218 
L 289.151093 260.399891 
L 292.396698 257.923263 
L 295.281552 255.988696 
L 298.166406 254.324989 
L 300.69051 253.106802 
L 303.214844 252.119562 
L 305.738948 251.371115 
L 308.263282 250.866579 
L 310.787386 250.611752 
L 314.03299 250.626762 
L 316.917845 250.9812 
L 319.441949 251.53213 
L 321.966283 252.298316 
L 324.490387 253.266111 
L 327.375241 254.59926 
L 330.620846 256.357461 
L 334.226742 258.582674 
L 338.193388 261.299801 
L 342.881305 264.781066 
L 349.371137 269.89602 
L 365.59916 282.732185 
L 371.009265 286.657606 
L 376.057015 290.073033 
L 381.46712 293.462875 
L 386.874932 296.592841 
L 392.285037 299.476817 
L 397.332787 301.935979 
L 402.380537 304.147273 
L 407.43058 306.10473 
L 412.838392 307.963054 
L 420.411163 310.313019 
L 427.983934 312.452539 
L 433.031684 313.667008 
L 438.081727 314.650257 
L 443.851894 315.538739 
L 448.539582 316.064937 
L 451.424666 316.208145 
L 454.307456 316.161034 
L 457.19254 315.86667 
L 460.437686 315.307314 
L 464.045187 314.493199 
L 466.207853 313.820655 
L 467.650395 313.177687 
L 469.092937 312.290058 
L 470.175416 311.378072 
L 471.617958 309.807494 
L 472.700438 308.277716 
L 473.780624 306.387837 
L 474.863104 304.027399 
L 475.583228 302.033679 
L 475.945584 300.84019 
L 475.945584 300.84019 
" clip-path="url(#p2c356929ec)" style="fill: none; stroke: #1900e6; stroke-opacity: 0.6; stroke-width: 1.5"/>
    <path d="M 115.7 356.103654 
L 121.109073 356.185116 
L 134.451484 355.993502 
L 145.630335 355.638314 
L 155.727211 355.098231 
L 164.381774 354.416204 
L 171.593795 353.627708 
L 178.084774 352.691365 
L 183.854483 351.635387 
L 189.263442 350.416074 
L 194.311879 349.042501 
L 198.999796 347.532133 
L 203.327193 345.911136 
L 207.654359 344.048855 
L 211.621005 342.111217 
L 215.587651 339.93813 
L 219.554298 337.517038 
L 223.520944 334.838255 
L 227.48759 331.895737 
L 231.454236 328.687511 
L 235.781632 324.886815 
L 240.108799 320.781753 
L 244.796716 316.011822 
L 249.845153 310.539293 
L 255.614862 303.937954 
L 263.548154 294.482522 
L 274.727051 281.176617 
L 279.775489 275.502887 
L 284.102655 270.954556 
L 287.708781 267.45214 
L 291.314906 264.263567 
L 294.560281 261.701315 
L 297.445135 259.69511 
L 300.32999 257.962493 
L 302.854094 256.685631 
L 305.378427 255.641422 
L 307.902761 254.836689 
L 310.426865 254.275183 
L 312.951199 253.959976 
L 315.836053 253.891749 
L 318.360157 254.080737 
L 320.884491 254.50306 
L 323.769345 255.245708 
L 326.6542 256.244887 
L 329.539054 257.478425 
L 332.784429 259.115865 
L 336.390554 261.196779 
L 340.3572 263.745386 
L 345.045805 267.017537 
L 351.896159 272.108269 
L 365.59916 282.381841 
L 371.369327 286.413355 
L 376.777139 289.938968 
L 382.909662 293.631395 
L 388.677536 296.831805 
L 394.447703 299.769987 
L 399.495453 302.102418 
L 404.545496 304.187629 
L 409.593246 306.033672 
L 415.723475 308.035579 
L 424.378726 310.623348 
L 430.508956 312.250861 
L 435.196643 313.281937 
L 440.244393 314.171613 
L 446.01456 314.963997 
L 449.982124 315.30728 
L 453.22727 315.324234 
L 455.749998 315.116893 
L 458.635082 314.654828 
L 462.602645 313.75543 
L 465.127667 313.017763 
L 466.93027 312.288216 
L 468.372812 311.452029 
L 469.452999 310.624338 
L 470.535478 309.539909 
L 471.617958 308.212286 
L 472.700438 306.542336 
L 473.780624 304.480117 
L 474.863104 301.905516 
L 475.583228 299.731746 
L 475.945584 298.4308 
L 475.945584 298.4308 
" clip-path="url(#p2c356929ec)" style="fill: none; stroke: #2600d9; stroke-opacity: 0.6; stroke-width: 1.5"/>
    <path d="M 115.7 360.132643 
L 121.109073 360.234096 
L 136.254501 360.069636 
L 148.154439 359.750744 
L 158.612065 359.26173 
L 167.266628 358.63981 
L 174.478649 357.896889 
L 180.608879 357.052039 
L 186.378587 356.034063 
L 191.427025 354.930599 
L 196.114942 353.696822 
L 200.802859 352.230972 
L 205.130026 350.644872 
L 209.457422 348.810257 
L 213.424068 346.891007 
L 217.390714 344.728597 
L 221.35736 342.309859 
L 225.324006 339.624765 
L 229.290652 336.667207 
L 233.257298 333.434416 
L 237.223944 329.927943 
L 241.551341 325.799381 
L 245.878507 321.371266 
L 250.566424 316.267365 
L 255.975383 310.044479 
L 262.826883 301.799082 
L 278.332947 283.014302 
L 283.381384 277.340231 
L 287.348031 273.19205 
L 290.954156 269.721018 
L 294.19976 266.881424 
L 297.445135 264.349192 
L 300.32999 262.377441 
L 302.854094 260.8843 
L 305.378427 259.618355 
L 307.902761 258.588132 
L 310.426865 257.798408 
L 312.951199 257.252254 
L 315.475303 256.950692 
L 318.360157 256.890652 
L 321.245012 257.127058 
L 324.129866 257.652403 
L 326.6542 258.326824 
L 329.539054 259.32498 
L 332.784429 260.711005 
L 336.390554 262.528563 
L 340.3572 264.810404 
L 344.684367 267.559597 
L 350.093555 271.259188 
L 372.451807 286.888212 
L 378.219681 290.476253 
L 384.34991 294.007665 
L 390.48014 297.266443 
L 396.250307 300.0738 
L 401.660412 302.440924 
L 406.708162 304.398723 
L 412.118267 306.258377 
L 419.691039 308.609945 
L 427.623872 310.874491 
L 433.031684 312.18782 
L 438.081727 313.165474 
L 443.851894 314.035535 
L 448.539582 314.532429 
L 451.06231 314.635895 
L 454.307456 314.536148 
L 457.19254 314.148927 
L 460.077623 313.541949 
L 463.685125 312.57238 
L 465.847791 311.802408 
L 467.290333 311.0965 
L 468.732874 310.126044 
L 469.815354 309.151836 
L 470.89554 307.905096 
L 471.97802 306.379036 
L 473.0605 304.458762 
L 474.140686 302.103748 
L 475.223166 299.093144 
L 475.945584 296.485998 
L 475.945584 296.485998 
" clip-path="url(#p2c356929ec)" style="fill: none; stroke: #3300cc; stroke-opacity: 0.6; stroke-width: 1.5"/>
    <path d="M 115.7 363.682238 
L 120.748484 363.801873 
L 138.41813 363.674016 
L 151.400044 363.388386 
L 162.21819 362.943275 
L 170.512003 362.386784 
L 177.363503 361.713591 
L 183.493733 360.895383 
L 188.902921 359.96327 
L 193.951359 358.879012 
L 198.639276 357.653695 
L 202.966442 356.307583 
L 207.293839 354.728443 
L 211.260485 353.054775 
L 215.227131 351.146407 
L 219.193777 348.987169 
L 223.160423 346.563621 
L 227.127069 343.865939 
L 231.093715 340.887299 
L 235.060361 337.624666 
L 239.027007 334.079949 
L 243.354403 329.90039 
L 247.68157 325.411922 
L 252.369487 320.233109 
L 257.778446 313.913306 
L 264.629946 305.53439 
L 280.136009 286.433481 
L 284.823926 281.059608 
L 288.790572 276.810451 
L 292.396698 273.245608 
L 295.642073 270.322095 
L 298.887448 267.703897 
L 301.772302 265.658461 
L 304.657157 263.895484 
L 307.18149 262.59679 
L 309.705594 261.533477 
L 312.229928 260.70964 
L 314.754261 260.126643 
L 317.278366 259.78244 
L 320.16322 259.680782 
L 323.048074 259.864312 
L 325.932929 260.33337 
L 328.817783 261.054867 
L 331.702637 262.008335 
L 334.948012 263.331591 
L 338.554138 265.066254 
L 342.520784 267.242002 
L 347.208471 270.087737 
L 352.978639 273.862718 
L 372.089451 286.597908 
L 378.582036 290.507978 
L 384.712266 293.93091 
L 390.842495 297.103654 
L 396.612663 299.844797 
L 401.660412 302.012358 
L 406.708162 303.943548 
L 412.118267 305.780381 
L 420.051101 308.216516 
L 427.983934 310.456841 
L 433.031684 311.669297 
L 438.081727 312.638696 
L 443.489539 313.449331 
L 448.177227 313.95281 
L 451.424666 314.066782 
L 454.307456 313.939983 
L 457.19254 313.517455 
L 460.077623 312.864151 
L 463.685125 311.82482 
L 465.847791 311.002893 
L 467.290333 310.252502 
L 468.732874 309.224702 
L 469.815354 308.195025 
L 470.89554 306.879308 
L 471.97802 305.269534 
L 473.0605 303.245283 
L 474.140686 300.763128 
L 475.223166 297.590998 
L 475.945584 294.844465 
L 475.945584 294.844465 
" clip-path="url(#p2c356929ec)" style="fill: none; stroke: #4000bf; stroke-opacity: 0.6; stroke-width: 1.5"/>
    <path d="M 115.7 366.891143 
L 120.387871 367.026573 
L 142.384731 366.93856 
L 156.448482 366.681687 
L 166.905878 366.280173 
L 174.83917 365.750052 
L 181.33015 365.103945 
L 187.099858 364.321726 
L 192.509046 363.368225 
L 197.557484 362.245725 
L 202.245172 360.966271 
L 206.572568 359.552273 
L 210.539214 358.036242 
L 214.50586 356.28964 
L 218.472506 354.294624 
L 222.439152 352.036355 
L 226.405798 349.502178 
L 230.372444 346.682643 
L 234.33909 343.57253 
L 238.305736 340.171056 
L 242.272382 336.481903 
L 246.599778 332.140828 
L 250.926945 327.491147 
L 255.614862 322.144069 
L 261.384571 315.203098 
L 269.317863 305.256195 
L 280.136009 291.706379 
L 285.184447 285.724606 
L 289.511843 280.923155 
L 293.478489 276.868785 
L 296.723864 273.846003 
L 299.96924 271.126488 
L 302.854094 268.986558 
L 305.738948 267.128405 
L 308.623803 265.568402 
L 311.148136 264.453237 
L 313.67224 263.576184 
L 316.196574 262.937582 
L 318.720907 262.532998 
L 320.884491 262.385969 
L 323.408595 262.402685 
L 326.293449 262.685826 
L 328.817783 263.148743 
L 331.702637 263.901284 
L 334.948012 265.008944 
L 338.193388 266.354715 
L 341.799513 268.088354 
L 346.125992 270.43501 
L 351.176035 273.442442 
L 358.748806 278.255492 
L 370.286847 285.5902 
L 376.777139 289.441595 
L 383.629786 293.219988 
L 390.120078 296.535224 
L 395.890245 299.251328 
L 401.30035 301.558208 
L 406.3481 303.474558 
L 411.755912 305.297541 
L 420.051101 307.819028 
L 427.983934 310.041204 
L 433.031684 311.244348 
L 438.081727 312.202864 
L 443.489539 312.999513 
L 448.177227 313.487572 
L 451.424666 313.587354 
L 454.307456 313.435208 
L 456.832478 313.052491 
L 459.717561 312.3823 
L 463.322769 311.308242 
L 465.487729 310.480516 
L 466.93027 309.749535 
L 468.372812 308.749742 
L 469.452999 307.765947 
L 470.535478 306.484821 
L 471.617958 304.918951 
L 472.700438 302.953648 
L 473.780624 300.528633 
L 474.863104 297.503565 
L 475.583228 294.95124 
L 475.945584 293.424327 
L 475.945584 293.424327 
" clip-path="url(#p2c356929ec)" style="fill: none; stroke: #4c00b3; stroke-opacity: 0.6; stroke-width: 1.5"/>
    <path d="M 115.7 369.842287 
L 120.387871 369.992386 
L 149.236231 369.964754 
L 163.299982 369.74097 
L 172.315066 369.381757 
L 179.527087 368.877562 
L 185.657546 368.240325 
L 191.427025 367.415465 
L 196.475692 366.472572 
L 201.16338 365.375146 
L 205.490776 364.141608 
L 209.817943 362.667196 
L 213.784589 361.080926 
L 217.751235 359.250609 
L 221.717881 357.158882 
L 225.324006 355.01786 
L 228.930131 352.640434 
L 232.896778 349.744178 
L 236.863424 346.548884 
L 240.83007 343.055133 
L 244.796716 339.267973 
L 249.123883 334.815569 
L 253.451279 330.052725 
L 258.499716 324.15256 
L 264.269425 317.052211 
L 273.284509 305.546773 
L 281.939072 294.609424 
L 286.98751 288.562495 
L 291.314906 283.714649 
L 294.920802 279.980944 
L 298.166406 276.902557 
L 301.411781 274.12812 
L 304.296636 271.942137 
L 307.18149 270.036225 
L 309.705594 268.61097 
L 312.229928 267.419051 
L 314.754261 266.463536 
L 317.278366 265.74545 
L 319.802699 265.263088 
L 322.326803 265.013037 
L 325.211658 264.985064 
L 328.096512 265.235797 
L 330.981366 265.738628 
L 333.866221 266.467971 
L 337.111596 267.536742 
L 340.717721 268.98724 
L 344.684367 270.851534 
L 349.011075 273.136104 
L 354.781243 276.46386 
L 377.859619 290.145694 
L 384.34991 293.578178 
L 391.56262 297.118528 
L 397.332787 299.715098 
L 402.742892 301.908995 
L 407.790642 303.727338 
L 413.920871 305.689537 
L 423.296247 308.433102 
L 429.786538 310.155279 
L 434.836581 311.260108 
L 439.884331 312.123073 
L 445.292143 312.833381 
L 449.259706 313.151829 
L 451.784728 313.169499 
L 454.307456 313.002788 
L 456.832478 312.595099 
L 459.717561 311.888544 
L 462.962707 310.884111 
L 465.127667 310.053076 
L 466.93027 309.128366 
L 468.372812 308.086613 
L 469.452999 307.062906 
L 470.535478 305.731838 
L 471.617958 304.105518 
L 472.700438 302.065473 
L 473.780624 299.548659 
L 474.863104 296.409755 
L 475.583228 293.761708 
L 475.945584 292.177826 
L 475.945584 292.177826 
" clip-path="url(#p2c356929ec)" style="fill: none; stroke: #5900a6; stroke-opacity: 0.6; stroke-width: 1.5"/>
    <path d="M 115.7 372.589093 
L 120.387871 372.752496 
L 155.36669 372.874962 
L 167.98767 372.731004 
L 176.281712 372.421255 
L 183.493733 371.921495 
L 189.624192 371.267542 
L 195.03315 370.465538 
L 199.721067 369.560852 
L 204.408984 368.423855 
L 208.736151 367.136759 
L 212.702797 365.731289 
L 216.669443 364.088084 
L 220.636089 362.188415 
L 224.242215 360.225227 
L 227.84834 358.025463 
L 231.454236 355.581515 
L 235.060361 352.88721 
L 239.027007 349.630649 
L 242.993653 346.068671 
L 246.960299 342.207349 
L 251.287695 337.668945 
L 255.975383 332.399946 
L 261.02405 326.372042 
L 267.154279 318.679076 
L 287.708781 292.536357 
L 292.035947 287.562974 
L 296.002594 283.346907 
L 299.608719 279.858478 
L 302.854094 277.037987 
L 305.738948 274.81141 
L 308.623803 272.867973 
L 311.148136 271.407923 
L 313.67224 270.179843 
L 316.196574 269.186462 
L 318.720907 268.4271 
L 321.245012 267.898343 
L 323.769345 267.591664 
L 326.293449 267.521049 
L 328.457262 267.607356 
L 331.341887 267.946443 
L 334.226742 268.520911 
L 337.472346 269.419456 
L 340.717721 270.548949 
L 344.323846 272.037996 
L 348.651013 274.086502 
L 353.698763 276.745295 
L 360.191348 280.413501 
L 373.894349 288.209763 
L 380.744702 291.838398 
L 387.597349 295.236086 
L 394.087641 298.22977 
L 399.857808 300.658503 
L 405.26562 302.688792 
L 410.675726 304.484415 
L 418.248497 306.745447 
L 427.623872 309.340312 
L 433.031684 310.60769 
L 438.081727 311.537688 
L 443.489539 312.301486 
L 448.177227 312.756557 
L 451.424666 312.828571 
L 454.307456 312.63085 
L 456.832478 312.200067 
L 459.717561 311.460251 
L 462.962707 310.411402 
L 465.127667 309.545333 
L 466.567915 308.805892 
L 468.010457 307.805689 
L 469.092937 306.831993 
L 470.175416 305.562362 
L 471.257896 303.98851 
L 472.338082 302.037398 
L 473.420562 299.606413 
L 474.503042 296.619723 
L 475.583228 292.709652 
L 475.945584 291.075283 
L 475.945584 291.075283 
" clip-path="url(#p2c356929ec)" style="fill: none; stroke: #660099; stroke-opacity: 0.6; stroke-width: 1.5"/>
    <path d="M 115.7 375.169084 
L 120.387871 375.34545 
L 172.675587 375.63132 
L 180.248358 375.363189 
L 186.739337 374.926879 
L 192.509046 374.325461 
L 197.918005 373.527892 
L 202.605922 372.611607 
L 206.933088 371.546589 
L 210.899735 370.359104 
L 214.866381 368.94613 
L 218.833027 367.286857 
L 222.439152 365.548783 
L 226.045277 363.578874 
L 229.651402 361.366386 
L 233.257298 358.903744 
L 236.863424 356.184127 
L 240.469549 353.205624 
L 244.436195 349.630274 
L 248.402841 345.747903 
L 252.730008 341.178968 
L 257.057404 336.288958 
L 262.105842 330.231604 
L 267.87555 322.948973 
L 277.972426 309.754959 
L 285.545197 300.018775 
L 290.593635 293.875646 
L 294.920802 288.965373 
L 298.526927 285.193803 
L 301.772302 282.094948 
L 305.017907 279.307547 
L 307.902761 277.115424 
L 310.787386 275.209854 
L 313.67224 273.600045 
L 316.196574 272.438828 
L 318.720907 271.510263 
L 321.245012 270.812304 
L 323.769345 270.339152 
L 326.293449 270.081596 
L 329.539054 270.059423 
L 332.423908 270.312885 
L 335.308763 270.7932 
L 338.554138 271.577466 
L 341.799513 272.595067 
L 345.405867 273.956871 
L 349.371137 275.687099 
L 354.061118 277.969622 
L 360.55141 281.395283 
L 377.139494 290.265091 
L 384.712266 293.99709 
L 391.922682 297.315635 
L 398.415267 300.056198 
L 403.823078 302.101599 
L 409.233184 303.912676 
L 416.083537 305.959817 
L 427.26381 309.037863 
L 432.671622 310.302547 
L 437.359309 311.174074 
L 442.769415 311.947799 
L 447.457102 312.42791 
L 450.702248 312.545635 
L 453.587332 312.401506 
L 456.112353 312.015548 
L 458.995144 311.302306 
L 462.242583 310.257995 
L 464.765311 309.266081 
L 466.567915 308.336015 
L 468.010457 307.303609 
L 469.092937 306.299825 
L 470.175416 304.99267 
L 471.257896 303.373173 
L 472.338082 301.366252 
L 473.420562 298.866427 
L 474.503042 295.795545 
L 475.223166 293.252054 
L 475.945584 290.095889 
L 475.945584 290.095889 
" clip-path="url(#p2c356929ec)" style="fill: none; stroke: #73008c; stroke-opacity: 0.6; stroke-width: 1.5"/>
    <path d="M 115.7 377.60887 
L 120.027259 377.793423 
L 155.00594 378.332072 
L 170.872524 378.536752 
L 179.527087 378.423496 
L 186.378587 378.124322 
L 192.509046 377.635137 
L 197.918005 376.975385 
L 202.605922 376.187367 
L 206.933088 375.246862 
L 210.899735 374.178092 
L 214.866381 372.887584 
L 218.833027 371.352484 
L 222.439152 369.72869 
L 226.045277 367.872924 
L 229.651402 365.77359 
L 233.257298 363.421987 
L 236.863424 360.809656 
L 240.469549 357.933322 
L 244.436195 354.462666 
L 248.402841 350.674585 
L 252.369487 346.580712 
L 256.696654 341.787652 
L 261.384571 336.250751 
L 266.793529 329.496499 
L 273.64503 320.564247 
L 287.348031 302.630765 
L 292.396698 296.451783 
L 296.363344 291.916517 
L 299.96924 288.105035 
L 303.214844 284.968655 
L 306.460219 282.147823 
L 309.345074 279.924657 
L 312.229928 277.985656 
L 314.754261 276.531063 
L 317.278366 275.306394 
L 319.802699 274.312332 
L 322.326803 273.546829 
L 324.851137 273.003744 
L 327.375241 272.673527 
L 329.539054 272.569823 
L 332.784429 272.64419 
L 336.029804 273.02967 
L 338.914658 273.594246 
L 342.160263 274.45322 
L 345.76593 275.644457 
L 349.733493 277.197638 
L 354.421181 279.285032 
L 360.55141 282.283594 
L 381.46712 292.741378 
L 389.399953 296.357937 
L 396.250307 299.256103 
L 402.380537 301.594572 
L 408.150704 303.53047 
L 414.640996 305.458078 
L 426.541392 308.700619 
L 431.951498 309.9754 
L 436.639185 310.861323 
L 442.046997 311.643269 
L 447.09704 312.167318 
L 449.982124 312.293128 
L 452.504852 312.223298 
L 454.669812 311.986551 
L 457.19254 311.481845 
L 459.717561 310.769115 
L 462.962707 309.641942 
L 465.127667 308.714332 
L 466.567915 307.925666 
L 468.010457 306.863889 
L 469.092937 305.832915 
L 470.175416 304.491886 
L 471.257896 302.831317 
L 472.338082 300.774215 
L 473.420562 298.212508 
L 474.503042 295.066202 
L 475.223166 292.460284 
L 475.945584 289.227022 
L 475.945584 289.227022 
" clip-path="url(#p2c356929ec)" style="fill: none; stroke: #80007f; stroke-opacity: 0.6; stroke-width: 1.5"/>
    <path d="M 115.7 379.929941 
L 120.027259 380.12541 
L 145.630335 380.59788 
L 177.724024 381.337798 
L 185.296796 381.209873 
L 191.787775 380.878633 
L 197.557484 380.347488 
L 202.245172 379.705816 
L 206.572568 378.910293 
L 210.899735 377.886552 
L 214.866381 376.721241 
L 218.833027 375.314748 
L 222.439152 373.808985 
L 226.045277 372.072276 
L 229.651402 370.091656 
L 233.257298 367.85655 
L 236.863424 365.358089 
L 240.469549 362.591259 
L 244.075445 359.552546 
L 247.68157 356.243587 
L 251.648216 352.298516 
L 255.975383 347.646856 
L 260.302779 342.662011 
L 265.351217 336.483472 
L 271.481446 328.579805 
L 282.299593 314.16728 
L 289.151093 305.243232 
L 294.19976 299.033378 
L 298.166406 294.484569 
L 301.772302 290.666946 
L 305.017907 287.530907 
L 308.263282 284.712805 
L 311.148136 282.495779 
L 314.03299 280.562236 
L 316.557095 279.111054 
L 319.081428 277.887409 
L 321.605762 276.8913 
L 324.129866 276.119656 
L 327.01472 275.506298 
L 329.539054 275.19075 
L 331.702637 275.088751 
L 335.308763 275.192797 
L 338.554138 275.589876 
L 341.799513 276.238029 
L 345.405867 277.210259 
L 349.371137 278.541362 
L 353.338701 280.090789 
L 358.748806 282.458255 
L 367.041702 286.382994 
L 378.942098 292.002824 
L 387.597349 295.848079 
L 395.170121 298.990019 
L 401.30035 301.300823 
L 406.708162 303.112616 
L 412.838392 304.931163 
L 423.656309 307.862556 
L 430.508956 309.541717 
L 435.196643 310.473454 
L 440.244393 311.247281 
L 445.654498 311.862276 
L 449.619768 312.08432 
L 452.14479 312.033321 
L 454.669812 311.758231 
L 456.832478 311.323047 
L 459.717561 310.497709 
L 462.962707 309.335775 
L 465.127667 308.380977 
L 466.567915 307.570785 
L 468.010457 306.482365 
L 469.092937 305.426728 
L 470.175416 304.055235 
L 471.257896 302.357688 
L 472.338082 300.25559 
L 473.420562 297.638483 
L 474.503042 294.424189 
L 475.223166 291.762666 
L 475.945584 288.460837 
L 475.945584 288.460837 
" clip-path="url(#p2c356929ec)" style="fill: none; stroke: #8c0073; stroke-opacity: 0.6; stroke-width: 1.5"/>
    <path d="M 115.7 382.147308 
L 120.027259 382.353693 
L 141.663689 382.809788 
L 160.054377 383.511841 
L 175.560441 384.063112 
L 184.215004 384.141573 
L 190.345233 384.013648 
L 196.114942 383.691959 
L 201.16338 383.200386 
L 205.851297 382.52426 
L 210.178693 381.675861 
L 214.145339 380.680434 
L 218.111985 379.452013 
L 221.717881 378.114088 
L 225.324006 376.548627 
L 228.930131 374.742667 
L 232.536027 372.683245 
L 236.142153 370.360127 
L 239.748278 367.765467 
L 243.354403 364.894489 
L 246.960299 361.74634 
L 250.566424 358.322624 
L 254.53307 354.249048 
L 258.860237 349.458172 
L 263.548154 343.900018 
L 268.596592 337.556166 
L 275.087572 329.012407 
L 291.314906 307.443031 
L 296.002594 301.665426 
L 299.96924 297.105224 
L 303.575365 293.282756 
L 306.82074 290.148765 
L 310.066344 287.333391 
L 312.951199 285.1208 
L 315.836053 283.192032 
L 318.360157 281.742898 
L 320.884491 280.518912 
L 323.408595 279.518026 
L 325.932929 278.737172 
L 328.457262 278.168844 
L 331.341887 277.772106 
L 333.866221 277.635312 
L 337.472346 277.730829 
L 340.717721 278.105734 
L 343.963096 278.718069 
L 347.568533 279.638105 
L 351.176035 280.772715 
L 355.50366 282.357961 
L 361.271534 284.739072 
L 369.926785 288.577846 
L 382.547306 294.114781 
L 392.645099 298.265282 
L 399.495453 300.843158 
L 405.625682 302.890845 
L 412.118267 304.787342 
L 422.576122 307.55847 
L 430.148894 309.397281 
L 435.196643 310.383839 
L 440.244393 311.134161 
L 445.654498 311.725141 
L 449.259706 311.920474 
L 452.14479 311.865824 
L 454.669812 311.574189 
L 456.832478 311.123313 
L 459.717561 310.273414 
L 462.962707 309.079311 
L 465.127667 308.099508 
L 466.567915 307.269598 
L 468.010457 306.15706 
L 469.092937 305.079215 
L 470.175416 303.680398 
L 471.257896 301.949897 
L 472.338082 299.807648 
L 473.420562 297.141213 
L 474.503042 293.866777 
L 475.223166 291.15579 
L 475.945584 287.792557 
L 475.945584 287.792557 
" clip-path="url(#p2c356929ec)" style="fill: none; stroke: #990066; stroke-opacity: 0.6; stroke-width: 1.5"/>
    <path d="M 115.7 384.274274 
L 120.027259 384.491235 
L 138.41813 384.912534 
L 153.202877 385.549771 
L 182.05142 386.918398 
L 189.984713 386.981167 
L 196.475692 386.787062 
L 201.884651 386.389983 
L 206.572568 385.822678 
L 210.899735 385.076619 
L 214.866381 384.176027 
L 218.833027 383.041759 
L 222.439152 381.789118 
L 226.045277 380.308599 
L 229.651402 378.584511 
L 233.257298 376.605255 
L 236.863424 374.35821 
L 240.469549 371.83587 
L 244.075445 369.031754 
L 247.68157 365.943815 
L 251.648216 362.221334 
L 255.614862 358.166828 
L 259.581508 353.798343 
L 263.908904 348.706484 
L 268.957342 342.397667 
L 275.087572 334.338426 
L 294.560281 308.372278 
L 298.887448 303.115174 
L 302.854094 298.641245 
L 306.460219 294.919855 
L 309.705594 291.888545 
L 312.590449 289.471274 
L 315.475303 287.330321 
L 318.360157 285.473532 
L 321.245012 283.905342 
L 323.769345 282.770733 
L 326.293449 281.854108 
L 329.178304 281.067795 
L 332.063158 280.544156 
L 334.948012 280.263062 
L 337.472346 280.234406 
L 339.99645 280.33777 
L 343.242055 280.705853 
L 346.488347 281.299084 
L 350.093555 282.180572 
L 354.421181 283.496665 
L 359.108868 285.162077 
L 365.59916 287.725694 
L 390.842495 297.964163 
L 398.415267 300.746037 
L 404.183141 302.648095 
L 410.315663 304.429459 
L 419.328683 306.777991 
L 429.786538 309.3092 
L 434.836581 310.284023 
L 439.884331 311.02343 
L 445.292143 311.604175 
L 448.899644 311.804011 
L 452.14479 311.742743 
L 454.669812 311.435041 
L 456.832478 310.969292 
L 459.717561 310.096536 
L 462.962707 308.87272 
L 465.127667 307.869993 
L 466.567915 307.022174 
L 468.010457 305.887906 
L 469.092937 304.790241 
L 470.175416 303.367204 
L 471.257896 301.60757 
L 472.338082 299.430013 
L 473.420562 296.720255 
L 474.503042 293.392943 
L 475.223166 290.638632 
L 475.945584 287.221841 
L 475.945584 287.221841 
" clip-path="url(#p2c356929ec)" style="fill: none; stroke: #a60059; stroke-opacity: 0.6; stroke-width: 1.5"/>
    <path d="M 115.7 386.320733 
L 120.027259 386.547928 
L 137.696928 387.006411 
L 151.039294 387.667186 
L 165.103045 388.589611 
L 180.608879 389.5557 
L 188.902921 389.853851 
L 195.754421 389.870225 
L 200.802859 389.687719 
L 205.490776 389.322024 
L 210.178693 388.723676 
L 214.50586 387.927471 
L 218.472506 386.962063 
L 222.078631 385.869072 
L 225.684527 384.551274 
L 229.290652 382.993659 
L 232.896778 381.182241 
L 236.502903 379.103716 
L 240.108799 376.74819 
L 243.714924 374.106795 
L 247.321049 371.17646 
L 250.926945 367.955479 
L 254.53307 364.448628 
L 258.499716 360.272576 
L 262.826883 355.361314 
L 267.5148 349.668549 
L 272.563238 343.182001 
L 279.414738 333.979042 
L 293.478489 314.968739 
L 298.166406 309.033667 
L 302.133052 304.325891 
L 305.738948 300.358271 
L 309.345074 296.739631 
L 312.590449 293.812878 
L 315.475303 291.495218 
L 318.360157 289.454899 
L 321.245012 287.697722 
L 324.129866 286.226755 
L 327.01472 285.039269 
L 329.539054 284.224302 
L 332.063158 283.611285 
L 334.948012 283.144615 
L 337.832867 282.911962 
L 341.799513 282.952557 
L 345.405867 283.304265 
L 348.651013 283.844279 
L 352.618577 284.7476 
L 356.943909 285.982162 
L 361.993952 287.662244 
L 369.566723 290.456808 
L 392.645099 299.133773 
L 399.857808 301.603476 
L 405.988038 303.471386 
L 412.478329 305.210483 
L 425.458913 308.39104 
L 431.951498 309.791154 
L 436.999247 310.631331 
L 442.409353 311.294699 
L 447.457102 311.709619 
L 450.702248 311.749668 
L 452.864914 311.602572 
L 455.029874 311.277744 
L 457.19254 310.766488 
L 459.717561 309.969737 
L 462.962707 308.718699 
L 465.127667 307.695026 
L 466.567915 306.831106 
L 468.010457 305.677529 
L 469.092937 304.562432 
L 470.175416 303.118381 
L 471.257896 301.333605 
L 472.338082 299.125654 
L 473.420562 296.378712 
L 474.503042 293.006097 
L 475.223166 290.214603 
L 475.945584 286.752441 
L 475.945584 286.752441 
" clip-path="url(#p2c356929ec)" style="fill: none; stroke: #b3004c; stroke-opacity: 0.6; stroke-width: 1.5"/>
    <path d="M 115.7 388.295554 
L 120.027259 388.532641 
L 136.254501 388.988395 
L 148.154439 389.63382 
L 160.054377 390.504392 
L 186.739337 392.567566 
L 193.951359 392.854118 
L 199.721067 392.880727 
L 205.130026 392.675023 
L 209.457422 392.304211 
L 213.784589 391.712345 
L 217.751235 390.946501 
L 221.717881 389.940499 
L 225.324006 388.795996 
L 228.930131 387.416453 
L 232.536027 385.785153 
L 236.142153 383.888452 
L 239.748278 381.714068 
L 243.354403 379.251427 
L 246.960299 376.495069 
L 250.566424 373.440903 
L 254.17255 370.090973 
L 257.778446 366.452104 
L 261.745092 362.131514 
L 266.072488 357.068788 
L 270.760405 351.225822 
L 276.169363 344.119265 
L 284.102655 333.281974 
L 294.19976 319.548181 
L 299.248198 313.057369 
L 303.575365 307.852425 
L 307.18149 303.8394 
L 310.426865 300.521333 
L 313.67224 297.513049 
L 316.557095 295.116007 
L 319.441949 292.992111 
L 322.326803 291.148967 
L 325.211658 289.586236 
L 327.735991 288.445827 
L 330.620846 287.396501 
L 333.5057 286.608824 
L 336.390554 286.06881 
L 339.275409 285.754626 
L 341.799513 285.671048 
L 344.684367 285.738934 
L 347.930889 286.033332 
L 351.536097 286.596543 
L 355.50366 287.450059 
L 360.191348 288.708841 
L 365.959222 290.512754 
L 374.254411 293.348936 
L 396.250307 300.930249 
L 403.463016 303.139054 
L 409.593246 304.783692 
L 418.968621 307.034558 
L 429.786538 309.473354 
L 435.196643 310.434258 
L 440.244393 311.097251 
L 445.654498 311.60206 
L 449.259706 311.734693 
L 452.14479 311.643712 
L 454.669812 311.30483 
L 456.832478 310.811756 
L 459.357499 310.024864 
L 462.602645 308.775156 
L 464.765311 307.770519 
L 466.567915 306.70185 
L 468.010457 305.531592 
L 469.092937 304.401656 
L 470.175416 302.940002 
L 471.257896 301.134281 
L 472.338082 298.901188 
L 473.420562 296.123681 
L 474.503042 292.713746 
L 475.223166 289.891891 
L 475.945584 286.392204 
L 475.945584 286.392204 
" clip-path="url(#p2c356929ec)" style="fill: none; stroke: #c0003f; stroke-opacity: 0.6; stroke-width: 1.5"/>
    <path d="M 115.7 390.205218 
L 120.027259 390.45254 
L 134.812074 390.893966 
L 145.990856 391.550989 
L 156.448482 392.380625 
L 170.872524 393.79974 
L 186.739337 395.310961 
L 194.67263 395.841764 
L 200.802859 396.033481 
L 206.212047 395.973442 
L 210.899735 395.688936 
L 215.227131 395.195316 
L 219.193777 394.516802 
L 222.799902 393.689213 
L 226.405798 392.642616 
L 230.011923 391.357908 
L 233.618048 389.819737 
L 237.223944 388.012754 
L 240.469549 386.14539 
L 243.714924 384.041621 
L 247.321049 381.41967 
L 250.926945 378.493087 
L 254.53307 375.262213 
L 258.139196 371.732507 
L 262.105842 367.516781 
L 266.072488 362.977183 
L 270.399655 357.694324 
L 275.448092 351.168171 
L 281.939072 342.375186 
L 297.445135 321.166552 
L 302.133052 315.197912 
L 306.099698 310.475399 
L 309.705594 306.504675 
L 312.951199 303.232627 
L 316.196574 300.273295 
L 319.081428 297.920976 
L 321.966283 295.840915 
L 324.851137 294.037002 
L 327.735991 292.507019 
L 330.620846 291.246532 
L 333.5057 290.248034 
L 336.390554 289.498906 
L 339.275409 288.982089 
L 342.160263 288.681891 
L 345.405867 288.591491 
L 349.011075 288.752506 
L 352.618577 289.157772 
L 356.583847 289.842768 
L 360.911472 290.814657 
L 366.321577 292.264132 
L 374.254411 294.653089 
L 403.463016 303.6688 
L 409.953308 305.300577 
L 422.576122 308.145902 
L 430.869018 309.871149 
L 435.916768 310.685537 
L 441.326873 311.319226 
L 446.734685 311.740424 
L 449.619768 311.789479 
L 452.14479 311.681612 
L 454.669812 311.328676 
L 456.832478 310.823116 
L 459.357499 310.020873 
L 462.602645 308.749367 
L 464.765311 307.728525 
L 466.567915 306.644779 
L 468.010457 305.460739 
L 469.092937 304.318829 
L 470.175416 302.843393 
L 471.257896 301.021605 
L 472.338082 298.769374 
L 473.420562 295.968806 
L 474.503042 292.530899 
L 475.223166 289.686529 
L 475.945584 286.158869 
L 475.945584 286.158869 
" clip-path="url(#p2c356929ec)" style="fill: none; stroke: #cc0033; stroke-opacity: 0.6; stroke-width: 1.5"/>
    <path d="M 115.7 392.056207 
L 120.027259 392.313422 
L 134.090872 392.769517 
L 144.187793 393.413577 
L 153.924148 394.247307 
L 164.742294 395.421829 
L 194.311879 398.807918 
L 200.802859 399.253097 
L 206.212047 399.404561 
L 210.899735 399.327464 
L 215.227131 399.033066 
L 219.193777 398.54661 
L 223.160423 397.82409 
L 226.766548 396.941919 
L 230.372444 395.824707 
L 233.618048 394.604132 
L 237.223944 392.993301 
L 240.469549 391.302985 
L 243.714924 389.374558 
L 246.960299 387.200857 
L 250.205904 384.77574 
L 253.451279 382.097843 
L 257.057404 378.825351 
L 260.6633 375.248227 
L 264.629946 370.975532 
L 268.596592 366.376031 
L 272.923988 361.028255 
L 277.972426 354.430941 
L 284.463406 345.560485 
L 298.887448 325.697996 
L 303.935886 319.208515 
L 307.902761 314.446123 
L 311.508657 310.438079 
L 314.754261 307.128164 
L 317.999637 304.128784 
L 320.884491 301.736279 
L 323.769345 299.610473 
L 326.6542 297.755629 
L 329.539054 296.169631 
L 332.423908 294.845829 
L 335.308763 293.776376 
L 338.193388 292.950493 
L 341.078242 292.353168 
L 343.963096 291.965982 
L 346.848409 291.771536 
L 350.813679 291.800532 
L 354.781243 292.119151 
L 358.748806 292.674516 
L 363.074138 293.492553 
L 368.484243 294.73769 
L 376.057015 296.723939 
L 389.039891 300.40081 
L 400.577933 303.625032 
L 407.43058 305.306717 
L 416.083537 307.173331 
L 431.22908 310.220436 
L 436.279123 310.969872 
L 441.686935 311.544135 
L 447.09704 311.908193 
L 449.982124 311.920474 
L 452.14479 311.799371 
L 454.669812 311.432585 
L 456.832478 310.915393 
L 459.357499 310.099572 
L 462.602645 308.809406 
L 464.765311 307.774953 
L 466.567915 306.679131 
L 468.010457 305.484857 
L 469.092937 304.334521 
L 470.175416 302.850045 
L 471.257896 301.018091 
L 472.338082 298.754194 
L 473.420562 295.939844 
L 474.503042 292.485528 
L 475.223166 289.627854 
L 475.945584 286.084502 
L 475.945584 286.084502 
" clip-path="url(#p2c356929ec)" style="fill: none; stroke: #d90026; stroke-opacity: 0.6; stroke-width: 1.5"/>
    <path d="M 115.7 393.853639 
L 119.666669 394.110171 
L 134.451484 394.652573 
L 144.187793 395.356331 
L 153.202877 396.225198 
L 162.578711 397.365266 
L 175.19992 399.156216 
L 194.67263 401.918372 
L 201.52413 402.651809 
L 206.933088 403.027055 
L 211.981526 403.146793 
L 216.308922 403.028079 
L 220.275568 402.707072 
L 224.242215 402.153754 
L 227.84834 401.424752 
L 231.454236 400.462415 
L 234.69984 399.38034 
L 237.945215 398.080963 
L 241.19059 396.55098 
L 244.436195 394.781181 
L 247.68157 392.76133 
L 250.926945 390.484947 
L 254.17255 387.948962 
L 257.778446 384.824522 
L 261.384571 381.382828 
L 264.990696 377.634796 
L 268.957342 373.178912 
L 273.284509 367.959572 
L 277.972426 361.94546 
L 283.742135 354.157215 
L 295.281552 338.053402 
L 301.772302 329.23018 
L 306.460219 323.208132 
L 310.426865 318.444274 
L 314.03299 314.437424 
L 317.278366 311.129249 
L 320.523741 308.129084 
L 323.769345 305.45071 
L 326.6542 303.349192 
L 329.539054 301.511131 
L 332.423908 299.9324 
L 335.308763 298.6072 
L 338.193388 297.526933 
L 341.078242 296.678057 
L 343.963096 296.045391 
L 346.848409 295.614744 
L 350.093555 295.3548 
L 353.338701 295.307042 
L 356.943909 295.453388 
L 360.911472 295.843644 
L 365.239098 296.472797 
L 371.009265 297.549345 
L 378.582036 299.216464 
L 389.039891 301.771382 
L 403.102954 305.215362 
L 410.675726 306.802553 
L 428.706352 310.232955 
L 434.114164 311.074156 
L 439.524269 311.678133 
L 445.292143 312.104549 
L 449.259706 312.187752 
L 452.14479 312.033491 
L 454.669812 311.652582 
L 456.832478 311.12478 
L 459.357499 310.297703 
L 462.602645 308.993004 
L 464.765311 307.948488 
L 466.567915 306.844649 
L 468.010457 305.644951 
L 469.092937 304.491136 
L 470.175416 303.004272 
L 471.257896 301.17051 
L 472.338082 298.90535 
L 473.420562 296.090318 
L 474.503042 292.635627 
L 475.223166 289.778294 
L 475.945584 286.235624 
L 475.945584 286.235624 
" clip-path="url(#p2c356929ec)" style="fill: none; stroke: #e60019; stroke-opacity: 0.6; stroke-width: 1.5"/>
    <path d="M 115.7 395.601947 
L 120.027259 395.879289 
L 132.287855 396.338795 
L 140.942418 396.980467 
L 149.596981 397.840123 
L 157.530273 398.844079 
L 166.545357 400.218846 
L 178.445295 402.289184 
L 199.721067 406.044721 
L 206.212047 406.921775 
L 211.260485 407.397315 
L 215.948172 407.622804 
L 220.275568 407.595172 
L 224.602735 407.309984 
L 228.569381 406.789756 
L 232.175507 406.076446 
L 235.420882 405.223613 
L 238.666486 404.153137 
L 241.911861 402.85376 
L 245.157236 401.312178 
L 248.402841 399.517135 
L 251.648216 397.461124 
L 254.893591 395.136641 
L 258.139196 392.542322 
L 261.384571 389.678167 
L 264.990696 386.186667 
L 268.596592 382.38269 
L 272.563238 377.862673 
L 276.890634 372.572718 
L 281.578551 366.487241 
L 287.348031 358.623776 
L 306.82074 331.749777 
L 311.148136 326.32326 
L 315.114782 321.700562 
L 318.720907 317.841354 
L 321.966283 314.676012 
L 325.211658 311.821102 
L 328.457262 309.284775 
L 331.341887 307.301938 
L 334.226742 305.5713 
L 337.111596 304.086381 
L 339.99645 302.839232 
L 342.881305 301.81955 
L 346.125992 300.925576 
L 349.371137 300.28039 
L 352.978639 299.828832 
L 356.223785 299.631418 
L 360.55141 299.640765 
L 364.879036 299.894125 
L 369.926785 300.429397 
L 376.057015 301.321563 
L 383.629786 302.667403 
L 393.727579 304.714305 
L 405.26562 307.023164 
L 414.640996 308.635769 
L 434.114164 311.735068 
L 439.524269 312.260208 
L 445.654498 312.628769 
L 449.619768 312.649987 
L 452.504852 312.437188 
L 454.669812 312.083536 
L 456.832478 311.54666 
L 459.717561 310.578933 
L 462.962707 309.240019 
L 465.127667 308.153577 
L 466.567915 307.246401 
L 468.010457 306.049842 
L 469.092937 304.901178 
L 470.175416 303.423559 
L 471.257896 301.602657 
L 472.338082 299.354657 
L 473.420562 296.562071 
L 474.503042 293.135728 
L 475.223166 290.301933 
L 475.945584 286.789625 
L 475.945584 286.789625 
" clip-path="url(#p2c356929ec)" style="fill: none; stroke: #f3000c; stroke-opacity: 0.6; stroke-width: 1.5"/>
    <path d="M 115.7 397.304544 
L 120.027259 397.596213 
L 131.20604 398.081987 
L 138.41813 398.690227 
L 145.990856 399.539308 
L 153.202877 400.567825 
L 160.415128 401.827972 
L 168.34842 403.462 
L 176.642233 405.404073 
L 186.018067 407.829531 
L 211.260485 414.498346 
L 216.669443 415.588949 
L 221.35736 416.313517 
L 225.684527 416.754943 
L 229.651402 416.931309 
L 233.257298 416.879116 
L 236.863424 416.590517 
L 240.108799 416.118729 
L 243.354403 415.421453 
L 246.599778 414.486748 
L 249.484633 413.442538 
L 252.730008 412.014554 
L 255.614862 410.513568 
L 258.499716 408.787092 
L 261.745092 406.569725 
L 264.990696 404.062395 
L 268.236071 401.265784 
L 271.842196 397.83023 
L 275.448092 394.064118 
L 279.414738 389.570028 
L 283.742135 384.292013 
L 288.430052 378.205512 
L 294.19976 370.32772 
L 313.31172 343.865666 
L 317.638886 338.403405 
L 321.605762 333.737383 
L 325.211658 329.82456 
L 328.817783 326.25244 
L 332.063158 323.344824 
L 335.308763 320.732767 
L 338.554138 318.417665 
L 341.799513 316.391845 
L 345.045805 314.646675 
L 348.290951 313.167964 
L 351.536097 311.938724 
L 354.781243 310.941592 
L 358.386451 310.078183 
L 362.354014 309.392983 
L 366.321577 308.944188 
L 370.64691 308.677251 
L 375.336891 308.59978 
L 381.104765 308.743908 
L 387.234994 309.126182 
L 394.807765 309.832465 
L 436.999247 314.127948 
L 443.489539 314.396795 
L 448.539582 314.413783 
L 451.424666 314.233835 
L 454.307456 313.809056 
L 456.832478 313.196619 
L 459.717561 312.244516 
L 462.962707 310.936406 
L 465.127667 309.880428 
L 466.567915 309.004671 
L 468.010457 307.858599 
L 469.092937 306.763288 
L 470.175416 305.360582 
L 471.257896 303.635334 
L 472.338082 301.508402 
L 473.420562 298.868849 
L 474.503042 295.631459 
L 475.583228 291.404817 
L 475.945584 289.640817 
L 475.945584 289.640817 
" clip-path="url(#p2c356929ec)" style="fill: none; stroke: #ff0000; stroke-opacity: 0.6; stroke-width: 1.5"/>
   </g>
   <g id="patch_8">
    <path d="M 115.7 432.4 
L 115.7 227.72 
" style="fill: none; stroke: #000000; stroke-width: 2; stroke-linejoin: miter; stroke-linecap: square"/>
   </g>
   <g id="patch_9">
    <path d="M 475.944741 432.4 
L 475.944741 227.72 
" style="fill: none; stroke: #000000; stroke-width: 2; stroke-linejoin: miter; stroke-linecap: square"/>
   </g>
   <g id="patch_10">
    <path d="M 115.7 432.4 
L 475.944741 432.4 
" style="fill: none; stroke: #000000; stroke-width: 2; stroke-linejoin: miter; stroke-linecap: square"/>
   </g>
   <g id="patch_11">
    <path d="M 115.7 227.72 
L 475.944741 227.72 
" style="fill: none; stroke: #000000; stroke-width: 2; stroke-linejoin: miter; stroke-linecap: square"/>
   </g>
   <g id="matplotlib.axis_3">
    <g id="xtick_6">
     <g id="line2d_25">
      <g>
       <use xlink:href="#ma537bd539d" x="115.7" y="432.4" style="stroke: #000000; stroke-width: 2"/>
      </g>
     </g>
     <g id="line2d_26">
      <g>
       <use xlink:href="#ma537bd539d" x="115.7" y="227.72" style="stroke: #000000; stroke-width: 2"/>
      </g>
     </g>
     <g id="text_9">
      <!-- $0$ -->
      <g transform="translate(109.3 456.596875) scale(0.2 -0.2)">
       <use xlink:href="#DejaVuSans-30" transform="translate(0 0.78125)"/>
      </g>
     </g>
    </g>
    <g id="xtick_7">
     <g id="line2d_27">
      <g>
       <use xlink:href="#ma537bd539d" x="205.761185" y="432.4" style="stroke: #000000; stroke-width: 2"/>
      </g>
     </g>
     <g id="line2d_28">
      <g>
       <use xlink:href="#ma537bd539d" x="205.761185" y="227.72" style="stroke: #000000; stroke-width: 2"/>
      </g>
     </g>
     <g id="text_10">
      <!-- $\pi/8$ -->
      <g transform="translate(190.461185 456.596875) scale(0.2 -0.2)">
       <defs>
        <path id="DejaVuSans-3c0" d="M 231 3500 
L 3584 3500 
L 3584 2925 
L 3144 2925 
L 3144 775 
Q 3144 550 3220 451 
Q 3297 353 3469 353 
Q 3516 353 3584 361 
Q 3653 369 3675 372 
L 3675 -44 
Q 3566 -84 3450 -103 
Q 3334 -122 3219 -122 
Q 2844 -122 2700 83 
Q 2556 288 2556 838 
L 2556 2925 
L 1266 2925 
L 1266 0 
L 678 0 
L 678 2925 
L 231 2925 
L 231 3500 
z
" transform="scale(0.015625)"/>
        <path id="DejaVuSans-2f" d="M 1625 4666 
L 2156 4666 
L 531 -594 
L 0 -594 
L 1625 4666 
z
" transform="scale(0.015625)"/>
        <path id="DejaVuSans-38" d="M 2034 2216 
Q 1584 2216 1326 1975 
Q 1069 1734 1069 1313 
Q 1069 891 1326 650 
Q 1584 409 2034 409 
Q 2484 409 2743 651 
Q 3003 894 3003 1313 
Q 3003 1734 2745 1975 
Q 2488 2216 2034 2216 
z
M 1403 2484 
Q 997 2584 770 2862 
Q 544 3141 544 3541 
Q 544 4100 942 4425 
Q 1341 4750 2034 4750 
Q 2731 4750 3128 4425 
Q 3525 4100 3525 3541 
Q 3525 3141 3298 2862 
Q 3072 2584 2669 2484 
Q 3125 2378 3379 2068 
Q 3634 1759 3634 1313 
Q 3634 634 3220 271 
Q 2806 -91 2034 -91 
Q 1263 -91 848 271 
Q 434 634 434 1313 
Q 434 1759 690 2068 
Q 947 2378 1403 2484 
z
M 1172 3481 
Q 1172 3119 1398 2916 
Q 1625 2713 2034 2713 
Q 2441 2713 2670 2916 
Q 2900 3119 2900 3481 
Q 2900 3844 2670 4047 
Q 2441 4250 2034 4250 
Q 1625 4250 1398 4047 
Q 1172 3844 1172 3481 
z
" transform="scale(0.015625)"/>
       </defs>
       <use xlink:href="#DejaVuSans-3c0" transform="translate(0 0.78125)"/>
       <use xlink:href="#DejaVuSans-2f" transform="translate(60.205078 0.78125)"/>
       <use xlink:href="#DejaVuSans-38" transform="translate(88.896484 0.78125)"/>
      </g>
     </g>
    </g>
    <g id="xtick_8">
     <g id="line2d_29">
      <g>
       <use xlink:href="#ma537bd539d" x="295.822371" y="432.4" style="stroke: #000000; stroke-width: 2"/>
      </g>
     </g>
     <g id="line2d_30">
      <g>
       <use xlink:href="#ma537bd539d" x="295.822371" y="227.72" style="stroke: #000000; stroke-width: 2"/>
      </g>
     </g>
     <g id="text_11">
      <!-- $\pi/4$ -->
      <g transform="translate(280.022371 456.596875) scale(0.2 -0.2)">
       <defs>
        <path id="DejaVuSans-34" d="M 2419 4116 
L 825 1625 
L 2419 1625 
L 2419 4116 
z
M 2253 4666 
L 3047 4666 
L 3047 1625 
L 3713 1625 
L 3713 1100 
L 3047 1100 
L 3047 0 
L 2419 0 
L 2419 1100 
L 313 1100 
L 313 1709 
L 2253 4666 
z
" transform="scale(0.015625)"/>
       </defs>
       <use xlink:href="#DejaVuSans-3c0" transform="translate(0 0.09375)"/>
       <use xlink:href="#DejaVuSans-2f" transform="translate(60.205078 0.09375)"/>
       <use xlink:href="#DejaVuSans-34" transform="translate(93.896484 0.09375)"/>
      </g>
     </g>
    </g>
    <g id="xtick_9">
     <g id="line2d_31">
      <g>
       <use xlink:href="#ma537bd539d" x="385.883556" y="432.4" style="stroke: #000000; stroke-width: 2"/>
      </g>
     </g>
     <g id="line2d_32">
      <g>
       <use xlink:href="#ma537bd539d" x="385.883556" y="227.72" style="stroke: #000000; stroke-width: 2"/>
      </g>
     </g>
     <g id="text_12">
      <!-- $3\pi/8$ -->
      <g transform="translate(364.183556 456.596875) scale(0.2 -0.2)">
       <defs>
        <path id="DejaVuSans-33" d="M 2597 2516 
Q 3050 2419 3304 2112 
Q 3559 1806 3559 1356 
Q 3559 666 3084 287 
Q 2609 -91 1734 -91 
Q 1441 -91 1130 -33 
Q 819 25 488 141 
L 488 750 
Q 750 597 1062 519 
Q 1375 441 1716 441 
Q 2309 441 2620 675 
Q 2931 909 2931 1356 
Q 2931 1769 2642 2001 
Q 2353 2234 1838 2234 
L 1294 2234 
L 1294 2753 
L 1863 2753 
Q 2328 2753 2575 2939 
Q 2822 3125 2822 3475 
Q 2822 3834 2567 4026 
Q 2313 4219 1838 4219 
Q 1578 4219 1281 4162 
Q 984 4106 628 3988 
L 628 4550 
Q 988 4650 1302 4700 
Q 1616 4750 1894 4750 
Q 2613 4750 3031 4423 
Q 3450 4097 3450 3541 
Q 3450 3153 3228 2886 
Q 3006 2619 2597 2516 
z
" transform="scale(0.015625)"/>
       </defs>
       <use xlink:href="#DejaVuSans-33" transform="translate(0 0.78125)"/>
       <use xlink:href="#DejaVuSans-3c0" transform="translate(63.623047 0.78125)"/>
       <use xlink:href="#DejaVuSans-2f" transform="translate(123.828125 0.78125)"/>
       <use xlink:href="#DejaVuSans-38" transform="translate(152.519531 0.78125)"/>
      </g>
     </g>
    </g>
    <g id="xtick_10">
     <g id="line2d_33">
      <g>
       <use xlink:href="#ma537bd539d" x="475.944741" y="432.4" style="stroke: #000000; stroke-width: 2"/>
      </g>
     </g>
     <g id="line2d_34">
      <g>
       <use xlink:href="#ma537bd539d" x="475.944741" y="227.72" style="stroke: #000000; stroke-width: 2"/>
      </g>
     </g>
     <g id="text_13">
      <!-- $\pi/2$ -->
      <g transform="translate(460.544741 456.596875) scale(0.2 -0.2)">
       <defs>
        <path id="DejaVuSans-32" d="M 1228 531 
L 3431 531 
L 3431 0 
L 469 0 
L 469 531 
Q 828 903 1448 1529 
Q 2069 2156 2228 2338 
Q 2531 2678 2651 2914 
Q 2772 3150 2772 3378 
Q 2772 3750 2511 3984 
Q 2250 4219 1831 4219 
Q 1534 4219 1204 4116 
Q 875 4013 500 3803 
L 500 4441 
Q 881 4594 1212 4672 
Q 1544 4750 1819 4750 
Q 2544 4750 2975 4387 
Q 3406 4025 3406 3419 
Q 3406 3131 3298 2873 
Q 3191 2616 2906 2266 
Q 2828 2175 2409 1742 
Q 1991 1309 1228 531 
z
" transform="scale(0.015625)"/>
       </defs>
       <use xlink:href="#DejaVuSans-3c0" transform="translate(0 0.78125)"/>
       <use xlink:href="#DejaVuSans-2f" transform="translate(60.205078 0.78125)"/>
       <use xlink:href="#DejaVuSans-32" transform="translate(90.271484 0.78125)"/>
      </g>
     </g>
    </g>
    <g id="text_14">
     <!-- $\alpha$ -->
     <g transform="translate(287.572371 484.752344) scale(0.25 -0.25)">
      <defs>
       <path id="DejaVuSans-3b1" d="M 2644 1628 
L 2506 2350 
Q 2366 3091 1809 3091 
Q 1391 3091 1200 2747 
Q 959 2316 959 1747 
Q 959 1059 1194 731 
Q 1431 397 1809 397 
Q 2228 397 2453 1063 
L 2644 1628 
z
M 2966 2584 
L 3275 3500 
L 3788 3500 
L 3147 1603 
L 3272 919 
Q 3300 766 3409 638 
Q 3538 488 3638 488 
L 3913 488 
L 3913 0 
L 3569 0 
Q 3275 0 3013 263 
Q 2884 394 2831 669 
Q 2688 322 2394 50 
Q 2256 -78 1809 -78 
Q 1075 -78 719 397 
Q 353 888 353 1747 
Q 353 2666 750 3097 
Q 1191 3578 1809 3578 
Q 2781 3578 2966 2584 
z
" transform="scale(0.015625)"/>
      </defs>
      <use xlink:href="#DejaVuSans-3b1" transform="translate(0 0.09375)"/>
     </g>
    </g>
   </g>
   <g id="matplotlib.axis_4">
    <g id="ytick_8">
     <g id="line2d_35">
      <g>
       <use xlink:href="#me1ce53644a" x="115.7" y="432.4" style="stroke: #000000; stroke-width: 2"/>
      </g>
     </g>
     <g id="line2d_36">
      <g>
       <use xlink:href="#me1ce53644a" x="475.944741" y="432.4" style="stroke: #000000; stroke-width: 2"/>
      </g>
     </g>
     <g id="text_15">
      <!-- −0.3 -->
      <g transform="translate(58.134375 437.91875) scale(0.2 -0.2)">
       <use xlink:href="#DejaVuSans-2212"/>
       <use xlink:href="#DejaVuSans-30" x="83.789062"/>
       <use xlink:href="#DejaVuSans-2e" x="147.412109"/>
       <use xlink:href="#DejaVuSans-33" x="179.199219"/>
      </g>
     </g>
    </g>
    <g id="ytick_9">
     <g id="line2d_37">
      <g>
       <use xlink:href="#me1ce53644a" x="115.7" y="398.286667" style="stroke: #000000; stroke-width: 2"/>
      </g>
     </g>
     <g id="line2d_38">
      <g>
       <use xlink:href="#me1ce53644a" x="475.944741" y="398.286667" style="stroke: #000000; stroke-width: 2"/>
      </g>
     </g>
     <g id="text_16">
      <!-- −0.2 -->
      <g transform="translate(58.134375 403.805417) scale(0.2 -0.2)">
       <use xlink:href="#DejaVuSans-2212"/>
       <use xlink:href="#DejaVuSans-30" x="83.789062"/>
       <use xlink:href="#DejaVuSans-2e" x="147.412109"/>
       <use xlink:href="#DejaVuSans-32" x="179.199219"/>
      </g>
     </g>
    </g>
    <g id="ytick_10">
     <g id="line2d_39">
      <g>
       <use xlink:href="#me1ce53644a" x="115.7" y="364.173333" style="stroke: #000000; stroke-width: 2"/>
      </g>
     </g>
     <g id="line2d_40">
      <g>
       <use xlink:href="#me1ce53644a" x="475.944741" y="364.173333" style="stroke: #000000; stroke-width: 2"/>
      </g>
     </g>
     <g id="text_17">
      <!-- −0.1 -->
      <g transform="translate(58.134375 369.692083) scale(0.2 -0.2)">
       <use xlink:href="#DejaVuSans-2212"/>
       <use xlink:href="#DejaVuSans-30" x="83.789062"/>
       <use xlink:href="#DejaVuSans-2e" x="147.412109"/>
       <use xlink:href="#DejaVuSans-31" x="179.199219"/>
      </g>
     </g>
    </g>
    <g id="ytick_11">
     <g id="line2d_41">
      <g>
       <use xlink:href="#me1ce53644a" x="115.7" y="330.06" style="stroke: #000000; stroke-width: 2"/>
      </g>
     </g>
     <g id="line2d_42">
      <g>
       <use xlink:href="#me1ce53644a" x="475.944741" y="330.06" style="stroke: #000000; stroke-width: 2"/>
      </g>
     </g>
     <g id="text_18">
      <!-- 0.0 -->
      <g transform="translate(74.89375 335.57875) scale(0.2 -0.2)">
       <use xlink:href="#DejaVuSans-30"/>
       <use xlink:href="#DejaVuSans-2e" x="63.623047"/>
       <use xlink:href="#DejaVuSans-30" x="95.410156"/>
      </g>
     </g>
    </g>
    <g id="ytick_12">
     <g id="line2d_43">
      <g>
       <use xlink:href="#me1ce53644a" x="115.7" y="295.946667" style="stroke: #000000; stroke-width: 2"/>
      </g>
     </g>
     <g id="line2d_44">
      <g>
       <use xlink:href="#me1ce53644a" x="475.944741" y="295.946667" style="stroke: #000000; stroke-width: 2"/>
      </g>
     </g>
     <g id="text_19">
      <!-- 0.1 -->
      <g transform="translate(74.89375 301.465417) scale(0.2 -0.2)">
       <use xlink:href="#DejaVuSans-30"/>
       <use xlink:href="#DejaVuSans-2e" x="63.623047"/>
       <use xlink:href="#DejaVuSans-31" x="95.410156"/>
      </g>
     </g>
    </g>
    <g id="ytick_13">
     <g id="line2d_45">
      <g>
       <use xlink:href="#me1ce53644a" x="115.7" y="261.833333" style="stroke: #000000; stroke-width: 2"/>
      </g>
     </g>
     <g id="line2d_46">
      <g>
       <use xlink:href="#me1ce53644a" x="475.944741" y="261.833333" style="stroke: #000000; stroke-width: 2"/>
      </g>
     </g>
     <g id="text_20">
      <!-- 0.2 -->
      <g transform="translate(74.89375 267.352083) scale(0.2 -0.2)">
       <use xlink:href="#DejaVuSans-30"/>
       <use xlink:href="#DejaVuSans-2e" x="63.623047"/>
       <use xlink:href="#DejaVuSans-32" x="95.410156"/>
      </g>
     </g>
    </g>
    <g id="ytick_14">
     <g id="line2d_47">
      <g>
       <use xlink:href="#me1ce53644a" x="115.7" y="227.72" style="stroke: #000000; stroke-width: 2"/>
      </g>
     </g>
     <g id="line2d_48">
      <g>
       <use xlink:href="#me1ce53644a" x="475.944741" y="227.72" style="stroke: #000000; stroke-width: 2"/>
      </g>
     </g>
    </g>
    <g id="text_21">
     <!-- $n^\mu\partial_\mu\phi_{DCC}\ [GeV]$ -->
     <g transform="translate(45.384375 423.56) rotate(-90) scale(0.25 -0.25)">
      <defs>
       <path id="DejaVuSans-6e" d="M 3513 2113 
L 3513 0 
L 2938 0 
L 2938 2094 
Q 2938 2591 2744 2837 
Q 2550 3084 2163 3084 
Q 1697 3084 1428 2787 
Q 1159 2491 1159 1978 
L 1159 0 
L 581 0 
L 581 3500 
L 1159 3500 
L 1159 2956 
Q 1366 3272 1645 3428 
Q 1925 3584 2291 3584 
Q 2894 3584 3203 3211 
Q 3513 2838 3513 2113 
z
" transform="scale(0.015625)"/>
       <path id="DejaVuSans-3bc" d="M 544 -1331 
L 544 3500 
L 1119 3500 
L 1119 1325 
Q 1119 872 1334 640 
Q 1550 409 1972 409 
Q 2434 409 2667 671 
Q 2900 934 2900 1459 
L 2900 3500 
L 3475 3500 
L 3475 806 
Q 3475 619 3529 530 
Q 3584 441 3700 441 
Q 3728 441 3778 458 
Q 3828 475 3916 513 
L 3916 50 
Q 3788 -22 3673 -56 
Q 3559 -91 3450 -91 
Q 3234 -91 3106 31 
Q 2978 153 2931 403 
Q 2775 156 2548 32 
Q 2322 -91 2016 -91 
Q 1697 -91 1473 31 
Q 1250 153 1119 397 
L 1119 -1331 
L 544 -1331 
z
" transform="scale(0.015625)"/>
       <path id="DejaVuSans-2202" d="M 1366 -91 
Q 925 -91 638 175 
Q 297 491 297 1063 
Q 297 1656 597 2119 
Q 906 2594 1463 2594 
Q 1828 2594 2116 2366 
Q 2284 2231 2400 2006 
Q 2441 2259 2441 2547 
Q 2441 2969 2341 3213 
Q 2119 3753 1531 3753 
Q 1309 3753 966 3616 
L 966 4141 
Q 1328 4238 1653 4238 
Q 2491 4238 2847 3469 
Q 3013 3106 3013 2566 
Q 3013 2213 2934 1803 
Q 2738 778 2228 291 
Q 1828 -91 1366 -91 
z
M 831 969 
Q 831 656 969 488 
Q 1116 309 1341 309 
Q 1541 309 1700 450 
Q 1925 644 2091 959 
Q 2228 1219 2297 1497 
Q 2019 2169 1538 2169 
Q 1125 2169 944 1625 
Q 831 1288 831 969 
z
" transform="scale(0.015625)"/>
      </defs>
      <use xlink:href="#DejaVuSans-6e" transform="translate(0 0.4375)"/>
      <use xlink:href="#DejaVuSans-3bc" transform="translate(64.335938 38.71875) scale(0.7)"/>
      <use xlink:href="#DejaVuSans-2202" transform="translate(111.606445 0.4375)"/>
      <use xlink:href="#DejaVuSans-3bc" transform="translate(164.272461 -15.96875) scale(0.7)"/>
      <use xlink:href="#DejaVuSans-3d5" transform="translate(211.542969 0.4375)"/>
      <use xlink:href="#DejaVuSans-44" transform="translate(278.466797 -15.96875) scale(0.7)"/>
      <use xlink:href="#DejaVuSans-43" transform="translate(332.368164 -15.96875) scale(0.7)"/>
      <use xlink:href="#DejaVuSans-43" transform="translate(381.245117 -15.96875) scale(0.7)"/>
      <use xlink:href="#DejaVuSans-5b" transform="translate(462.120476 0.4375)"/>
      <use xlink:href="#DejaVuSans-47" transform="translate(501.134147 0.4375)"/>
      <use xlink:href="#DejaVuSans-65" transform="translate(578.624382 0.4375)"/>
      <use xlink:href="#DejaVuSans-56" transform="translate(640.147819 0.4375)"/>
      <use xlink:href="#DejaVuSans-5d" transform="translate(708.556022 0.4375)"/>
     </g>
    </g>
   </g>
  </g>
 </g>
 <defs>
  <clipPath id="pbe17b18123">
   <rect x="115.7" y="23.04" width="360.244741" height="204.68"/>
  </clipPath>
  <clipPath id="p2c356929ec">
   <rect x="115.7" y="227.72" width="360.244741" height="204.68"/>
  </clipPath>
 </defs>
</svg>
