<?xml version="1.0" encoding="utf-8" standalone="no"?>
<!DOCTYPE svg PUBLIC "-//W3C//DTD SVG 1.1//EN"
  "http://www.w3.org/Graphics/SVG/1.1/DTD/svg11.dtd">
<svg xmlns:xlink="http://www.w3.org/1999/xlink" width="504pt" height="504pt" viewBox="0 0 504 504" xmlns="http://www.w3.org/2000/svg" version="1.1">
 <metadata>
  <rdf:RDF xmlns:dc="http://purl.org/dc/elements/1.1/" xmlns:cc="http://creativecommons.org/ns#" xmlns:rdf="http://www.w3.org/1999/02/22-rdf-syntax-ns#">
   <cc:Work>
    <dc:type rdf:resource="http://purl.org/dc/dcmitype/StillImage"/>
    <dc:date>2025-01-22T14:00:43.546078</dc:date>
    <dc:format>image/svg+xml</dc:format>
    <dc:creator>
     <cc:Agent>
      <dc:title>Matplotlib v3.9.2, https://matplotlib.org/</dc:title>
     </cc:Agent>
    </dc:creator>
   </cc:Work>
  </rdf:RDF>
 </metadata>
 <defs>
  <style type="text/css">*{stroke-linejoin: round; stroke-linecap: butt}</style>
 </defs>
 <g id="figure_1">
  <g id="patch_1">
   <path d="M 0 504 
L 504 504 
L 504 0 
L 0 0 
z
" style="fill: #ffffff"/>
  </g>
  <g id="axes_1">
   <g id="patch_2">
    <path d="M 107.945108 429.52 
L 475.11 429.52 
L 475.11 23.724 
L 107.945108 23.724 
z
" style="fill: #ffffff"/>
   </g>
   <g id="LineCollection_1">
    <path d="M 107.945108 44.707798 
L 109.790166 45.751451 
L 111.635207 48.852618 
L 113.480265 53.891855 
L 115.325306 60.559549 
L 119.015405 75.82336 
L 122.705504 89.258602 
L 124.550562 96.889947 
L 126.395694 106.726671 
L 128.240698 117.901587 
L 130.085702 125.052631 
L 131.930705 125.359271 
L 133.775892 125.42337 
L 135.620896 129.648024 
L 137.465899 138.046713 
L 139.310903 145.025223 
L 141.15609 143.780218 
L 143.001094 141.065237 
L 144.846097 143.153006 
L 146.691101 150.942814 
L 148.536288 160.508369 
L 150.381292 161.979681 
L 152.226295 159.215434 
L 154.071299 161.615982 
L 155.916486 171.867281 
L 157.76149 185.757106 
L 159.606493 183.614588 
L 161.451497 176.836506 
L 163.296684 178.546544 
L 165.141688 188.602418 
L 166.986691 194.917974 
L 168.831695 186.49356 
L 170.676882 181.456352 
L 172.521885 185.250823 
L 174.366889 197.373568 
L 176.211893 206.103841 
L 178.05708 199.258476 
L 179.902083 196.582801 
L 181.747087 205.039928 
L 183.592091 225.406739 
L 185.437278 222.184112 
L 187.282281 207.543255 
L 189.127285 205.993774 
L 190.972288 216.2084 
L 192.817476 227.38797 
L 194.662479 216.067632 
L 196.507483 208.104883 
L 198.352486 211.328962 
L 200.197674 227.225366 
L 202.042677 244.74633 
L 203.887681 228.981213 
L 205.732684 222.715109 
L 207.577871 231.902822 
L 209.422875 259.703901 
L 213.112882 225.186062 
L 214.958069 223.673274 
L 216.803073 235.590817 
L 218.648077 253.361585 
L 220.49308 238.751182 
L 222.338267 228.840459 
L 224.183271 232.695721 
L 226.028274 254.37999 
L 227.873278 283.807697 
L 229.718465 248.385246 
L 231.563469 240.999542 
L 233.408472 252.138416 
L 235.253476 285.087427 
L 237.098663 254.696902 
L 238.943667 238.394702 
L 240.78867 238.238284 
L 242.633674 253.168818 
L 244.478861 283.209463 
L 246.323865 258.697063 
L 248.168868 246.998269 
L 250.013872 252.612785 
L 251.859059 284.460614 
L 253.704063 290.664939 
L 255.549066 256.686395 
L 257.39407 251.831328 
L 259.239257 265.143091 
L 261.08426 304.028031 
L 262.929264 266.728301 
L 264.774268 251.175945 
L 266.619455 252.341174 
L 268.464458 270.952355 
L 270.309462 348.620572 
L 272.154466 275.253766 
L 273.999653 263.452135 
L 275.844656 272.662696 
L 277.68966 328.546654 
L 279.534663 283.431013 
L 281.379851 261.638361 
L 283.224854 260.08599 
L 285.069858 275.922713 
L 286.914861 324.695057 
L 288.760049 277.831006 
L 290.605052 263.279184 
L 292.450974 266.254016 
L 294.295977 289.332932 
L 296.140981 326.610542 
L 297.985984 280.458424 
L 299.830988 272.976873 
L 301.675992 285.917172 
L 303.520995 368.234658 
L 305.365999 287.067568 
L 307.211002 269.351574 
L 309.056006 269.635498 
L 310.901009 287.50025 
L 312.746013 377.389436 
L 314.591017 291.295023 
L 316.43602 278.113282 
L 318.281024 284.440495 
L 320.126027 312.78067 
L 321.971031 299.209245 
L 323.816035 279.011773 
L 325.661038 277.512037 
L 327.506042 294.819752 
L 329.351045 387.020424 
L 331.196049 290.57396 
L 333.041052 275.441449 
L 334.886056 276.899527 
L 336.73106 294.674646 
L 338.576063 333.254934 
L 340.421067 299.013453 
L 342.26607 288.83656 
L 344.111074 297.392605 
L 345.956078 319.600538 
L 347.801081 298.532085 
L 349.646085 284.108832 
L 351.491088 285.020647 
L 353.336092 303.584713 
L 355.181095 347.65181 
L 357.026099 299.833242 
L 358.871103 287.45203 
L 360.716106 291.492806 
L 362.56111 310.450932 
L 364.406113 312.571004 
L 366.252953 295.215149 
L 368.097956 293.153381 
L 369.94296 309.042743 
L 371.787964 340.834563 
L 373.632967 301.357606 
L 375.477971 287.502815 
L 377.322974 288.564445 
L 379.167978 304.245722 
L 381.012981 335.602477 
L 382.857985 311.875656 
L 384.702989 300.226241 
L 386.547992 303.723596 
L 388.392996 312.737752 
L 390.237999 305.615137 
L 392.083003 297.23584 
L 393.928007 300.279931 
L 395.77301 320.503794 
L 397.618014 334.334139 
L 399.463017 304.167451 
L 401.308021 294.3724 
L 403.153024 297.949051 
L 404.998028 314.07872 
L 406.843032 323.893927 
L 408.688035 309.014785 
L 410.533039 304.981439 
L 412.378042 314.161067 
L 414.223046 324.419296 
L 416.06805 309.23442 
L 417.913053 299.354279 
L 419.758057 301.111706 
L 421.60306 315.442539 
L 423.448064 333.195801 
L 425.293067 316.69604 
L 427.138071 307.044807 
L 428.983075 308.337958 
L 430.828078 313.725252 
L 432.673082 311.987865 
L 434.518085 308.263884 
L 436.363089 312.780506 
L 438.208093 329.167752 
L 440.054932 328.197839 
L 441.899936 308.836618 
L 443.744939 301.452726 
L 445.589943 305.020271 
L 447.434946 319.466266 
L 449.27995 332.258222 
L 451.124953 319.779829 
L 452.969957 312.887741 
L 454.814961 315.116643 
L 456.659964 319.037739 
L 458.504968 315.395728 
L 460.349971 311.43576 
L 462.194975 314.646527 
L 464.039979 325.65993 
L 465.884982 329.778478 
L 467.729986 318.844729 
L 469.574989 312.90996 
L 471.419993 314.499851 
L 473.264996 319.301435 
L 475.11 319.909575 
L 475.11 319.909575 
" clip-path="url(#p42277e54b0)" style="fill: none; stroke: #0000ff; stroke-opacity: 0.6; stroke-width: 1.5"/>
    <path d="M 107.945108 44.887135 
L 109.790166 45.911474 
L 111.635207 48.954117 
L 113.480265 53.89742 
L 115.325306 60.453419 
L 120.860463 82.995436 
L 122.705504 89.908629 
L 124.550562 97.602423 
L 126.395694 106.968704 
L 128.240698 117.182894 
L 130.085702 124.172955 
L 131.930705 125.688377 
L 133.775892 126.452118 
L 135.620896 130.354766 
L 137.465899 137.608492 
L 139.310903 144.126723 
L 141.15609 144.628645 
L 143.001094 143.064342 
L 144.846097 144.948716 
L 146.691101 151.472063 
L 148.536288 159.655231 
L 150.381292 162.397606 
L 152.226295 161.126128 
L 154.071299 163.271 
L 155.916486 171.501013 
L 157.76149 182.50822 
L 159.606493 183.596631 
L 161.451497 179.067402 
L 163.296684 180.10088 
L 165.141688 187.56813 
L 166.986691 193.419229 
L 168.831695 188.801642 
L 170.676882 184.673028 
L 172.521885 187.334809 
L 174.366889 196.467826 
L 176.211893 204.044383 
L 178.05708 201.084906 
L 179.902083 199.233126 
L 181.747087 205.650689 
L 183.592091 219.771173 
L 185.437278 221.508384 
L 187.282281 211.218826 
L 189.127285 209.064054 
L 190.972288 216.07693 
L 192.817476 224.332932 
L 194.662479 218.533603 
L 196.507483 212.168481 
L 198.352486 214.340622 
L 200.197674 226.043333 
L 202.042677 238.58484 
L 203.887681 231.322113 
L 205.732684 226.261436 
L 207.577871 232.881922 
L 209.422875 250.235915 
L 211.267879 244.847163 
L 213.112882 230.429972 
L 214.958069 227.912683 
L 216.803073 236.214463 
L 218.648077 248.056777 
L 220.49308 241.267751 
L 222.338267 233.478951 
L 224.183271 236.319591 
L 226.028274 252.446142 
L 227.873278 271.750931 
L 229.718465 253.323616 
L 231.563469 245.905753 
L 233.408472 253.575996 
L 235.253476 272.575723 
L 237.098663 259.057716 
L 238.943667 244.536442 
L 240.78867 243.270382 
L 242.633674 254.284045 
L 244.478861 272.181538 
L 246.323865 261.797553 
L 248.168868 252.281061 
L 250.013872 256.709215 
L 251.859059 280.413386 
L 253.704063 294.28172 
L 255.549066 264.356942 
L 257.39407 257.993511 
L 259.239257 267.470102 
L 261.08426 288.916985 
L 262.929264 271.879522 
L 264.774268 257.817346 
L 266.619455 258.060738 
L 268.464458 273.161809 
L 270.309462 306.721244 
L 272.154466 281.857144 
L 273.999653 270.107309 
L 275.844656 277.37659 
L 277.68966 315.8916 
L 279.534663 294.085213 
L 281.379851 270.17033 
L 283.224854 266.862287 
L 285.069858 278.751032 
L 286.914861 303.180078 
L 288.760049 283.241662 
L 290.605052 270.100016 
L 292.450974 272.3235 
L 294.295977 292.780653 
L 296.140981 344.920463 
L 297.985984 290.73119 
L 299.830988 281.028462 
L 301.675992 291.454314 
L 303.520995 340.84756 
L 305.365999 297.690588 
L 307.211002 278.30989 
L 309.056006 277.373608 
L 310.901009 293.025285 
L 312.746013 341.975806 
L 314.591017 300.098367 
L 316.43602 286.201873 
L 318.281024 292.009077 
L 320.126027 327.991916 
L 321.971031 318.552624 
L 323.816035 289.808696 
L 325.661038 285.959884 
L 327.506042 300.147897 
L 329.351045 341.327885 
L 331.196049 299.402086 
L 333.041052 283.837068 
L 334.886056 284.624959 
L 336.73106 301.975054 
L 338.576063 397.370862 
L 340.421067 312.155214 
L 342.26607 298.559529 
L 344.111074 306.756293 
L 345.956078 346.377405 
L 347.801081 315.281211 
L 349.646085 295.455456 
L 351.491088 294.642841 
L 353.336092 312.290925 
L 355.181095 389.661423 
L 357.026099 310.505357 
L 358.871103 296.599455 
L 360.716106 300.516286 
L 362.56111 325.342216 
L 364.406113 340.173671 
L 366.252953 308.440735 
L 368.097956 303.319764 
L 369.94296 318.22555 
L 371.787964 422.253103 
L 373.632967 314.551273 
L 375.477971 297.896974 
L 377.322974 298.042104 
L 379.167978 314.192633 
L 381.012981 382.46779 
L 382.857985 327.042649 
L 384.702989 311.379924 
L 386.547992 315.470271 
L 388.392996 331.975324 
L 390.237999 323.935395 
L 392.083003 310.643279 
L 393.928007 312.018948 
L 395.77301 334.643518 
L 397.618014 364.268678 
L 399.463017 315.910234 
L 401.308021 304.421366 
L 403.153024 307.987559 
L 404.998028 328.683393 
L 406.843032 356.730319 
L 408.688035 324.218628 
L 410.533039 316.642316 
L 412.378042 326.773912 
L 414.223046 349.061456 
L 416.06805 326.138563 
L 417.913053 312.175939 
L 419.758057 312.957389 
L 421.60306 329.604655 
L 423.448064 366.877751 
L 425.293067 332.273566 
L 427.138071 319.238558 
L 428.983075 321.286176 
L 430.828078 331.211074 
L 432.673082 330.356163 
L 434.518085 323.178903 
L 436.363089 326.59024 
L 438.208093 349.144154 
L 440.054932 350.719086 
L 441.899936 321.856948 
L 443.744939 312.594772 
L 445.589943 316.139133 
L 447.434946 334.555695 
L 449.27995 365.451781 
L 451.124953 336.360114 
L 452.969957 325.383843 
L 454.814961 328.068591 
L 456.659964 336.128477 
L 458.504968 333.22706 
L 460.349971 326.98502 
L 462.194975 329.786277 
L 464.039979 344.686715 
L 465.884982 351.615004 
L 467.729986 333.660281 
L 469.574989 325.920421 
L 471.419993 328.633782 
L 473.264996 337.371565 
L 475.11 339.155951 
L 475.11 339.155951 
" clip-path="url(#p42277e54b0)" style="fill: none; stroke: #2000df; stroke-opacity: 0.6; stroke-width: 1.5"/>
    <path d="M 107.945108 45.111561 
L 109.790166 46.114228 
L 111.635207 49.091852 
L 113.480265 53.931727 
L 115.325306 60.372158 
L 124.550562 98.499923 
L 128.240698 116.58226 
L 130.085702 123.307213 
L 131.930705 125.965821 
L 133.775892 127.568523 
L 135.620896 131.20595 
L 139.310903 143.221931 
L 141.15609 145.352821 
L 143.001094 145.283776 
L 144.846097 147.141101 
L 146.691101 152.375805 
L 148.536288 159.143815 
L 150.381292 162.885875 
L 152.226295 163.323167 
L 154.071299 165.337747 
L 155.916486 171.478941 
L 157.76149 179.739788 
L 159.606493 182.964003 
L 161.451497 181.193806 
L 163.296684 181.831058 
L 166.986691 191.791034 
L 168.831695 190.834679 
L 170.676882 188.346313 
L 172.521885 189.970807 
L 176.211893 202.454855 
L 178.05708 202.875502 
L 179.902083 202.279472 
L 181.747087 206.548178 
L 183.592091 215.373477 
L 185.437278 219.180939 
L 187.282281 214.390205 
L 189.127285 212.309986 
L 190.972288 216.192888 
L 192.817476 221.730894 
L 194.662479 220.558376 
L 196.507483 216.829844 
L 198.352486 218.036722 
L 200.197674 225.543467 
L 202.042677 234.00199 
L 203.887681 232.921586 
L 205.732684 230.02607 
L 207.577871 233.830175 
L 209.422875 243.208574 
L 211.267879 243.788953 
L 213.112882 235.456882 
L 214.958069 232.575883 
L 216.803073 237.110171 
L 218.648077 244.319351 
L 220.49308 243.311223 
L 222.338267 238.918295 
L 224.183271 240.686901 
L 226.028274 250.766881 
L 227.873278 261.914797 
L 231.563469 250.796382 
L 233.408472 254.48511 
L 235.253476 263.701198 
L 237.098663 260.56884 
L 238.943667 251.128802 
L 240.78867 249.099147 
L 242.633674 255.595637 
L 244.478861 265.610723 
L 246.323865 263.917372 
L 248.168868 258.426889 
L 250.013872 261.303534 
L 251.859059 275.006976 
L 253.704063 284.550092 
L 255.549066 270.641088 
L 257.39407 264.297655 
L 259.239257 268.969354 
L 261.08426 279.275976 
L 262.929264 274.978622 
L 264.774268 265.577262 
L 266.619455 264.981695 
L 268.464458 274.887508 
L 270.309462 291.122841 
L 272.154466 285.743263 
L 273.999653 277.415876 
L 275.844656 281.569421 
L 277.68966 298.844843 
L 279.534663 296.329892 
L 281.379851 278.988125 
L 283.224854 274.277574 
L 285.069858 280.650805 
L 286.914861 292.118083 
L 288.760049 287.102477 
L 290.605052 278.424125 
L 292.450974 279.696483 
L 294.295977 293.514072 
L 296.140981 313.812709 
L 297.985984 298.348277 
L 299.830988 289.384482 
L 301.675992 295.213336 
L 303.520995 313.548941 
L 305.365999 304.344488 
L 307.211002 288.761712 
L 309.056006 286.519021 
L 310.901009 296.987938 
L 312.746013 316.887843 
L 314.591017 306.899205 
L 316.43602 296.200797 
L 318.281024 300.546654 
L 320.126027 325.42178 
L 321.971031 327.540096 
L 323.816035 300.886343 
L 325.661038 294.825412 
L 327.506042 302.690541 
L 329.351045 318.103726 
L 333.041052 294.237045 
L 334.886056 294.180667 
L 336.73106 307.524368 
L 338.576063 337.776635 
L 340.421067 322.482466 
L 342.26607 309.859009 
L 344.111074 316.411691 
L 345.956078 354.627636 
L 347.801081 333.97984 
L 349.646085 309.228488 
L 351.491088 305.690888 
L 353.336092 317.537768 
L 355.181095 341.549443 
L 357.026099 321.432288 
L 358.871103 308.768733 
L 360.716106 311.875611 
L 362.56111 335.173923 
L 364.406113 362.660096 
L 366.252953 322.090536 
L 368.097956 314.068293 
L 369.94296 323.570221 
L 371.787964 350.443606 
L 373.632967 327.50347 
L 375.477971 310.914612 
L 377.322974 309.636004 
L 379.167978 322.527492 
L 381.012981 358.151429 
L 384.702989 326.339222 
L 386.547992 331.590622 
L 388.392996 365.71533 
L 390.237999 352.352331 
L 392.083003 327.338681 
L 393.928007 324.900464 
L 395.77301 341.127657 
L 397.618014 364.372379 
L 399.463017 330.194799 
L 401.308021 318.114524 
L 403.153024 320.919108 
L 404.998028 341.451767 
L 406.843032 396.297286 
L 408.688035 340.42205 
L 410.533039 330.413421 
L 412.378042 340.599167 
L 414.223046 402.500677 
L 416.06805 350.030535 
L 417.913053 328.789942 
L 419.758057 327.220924 
L 421.60306 342.306173 
L 423.448064 407.799109 
L 425.293067 353.687102 
L 427.138071 337.356267 
L 428.983075 340.893647 
L 430.828078 361.13098 
L 432.673082 359.089994 
L 434.518085 341.705072 
L 436.363089 341.629371 
L 438.208093 364.913891 
L 440.054932 383.244889 
L 441.899936 339.493462 
L 443.744939 327.780805 
L 445.589943 330.195994 
L 447.434946 348.617496 
L 449.27995 428.121139 
L 451.124953 356.449713 
L 452.969957 342.546923 
L 454.814961 347.164466 
L 456.659964 366.646243 
L 458.504968 363.878568 
L 460.349971 348.402635 
L 462.194975 348.367657 
L 464.039979 367.247638 
L 465.884982 397.403107 
L 467.729986 357.3164 
L 469.574989 346.189907 
L 471.419993 350.28688 
L 473.264996 366.747104 
L 475.11 368.156832 
L 475.11 368.156832 
" clip-path="url(#p42277e54b0)" style="fill: none; stroke: #4000bf; stroke-opacity: 0.6; stroke-width: 1.5"/>
    <path d="M 107.945108 45.338341 
L 109.790166 46.319595 
L 111.635207 49.234869 
L 113.480265 53.981302 
L 115.325306 60.328503 
L 117.170364 67.845846 
L 122.705504 91.598691 
L 124.550562 99.504332 
L 128.240698 116.276862 
L 130.085702 122.706704 
L 131.930705 126.247881 
L 133.775892 128.682621 
L 135.620896 132.213406 
L 139.310903 142.725091 
L 141.15609 146.025289 
L 143.001094 147.487152 
L 144.846097 149.594936 
L 146.691101 153.793767 
L 148.536288 159.280318 
L 150.381292 163.470315 
L 152.226295 165.388498 
L 154.071299 167.503541 
L 155.916486 171.925327 
L 157.76149 177.948101 
L 159.606493 182.053104 
L 163.296684 183.687987 
L 165.141688 186.890709 
L 166.986691 190.899355 
L 168.831695 192.382018 
L 170.676882 191.911201 
L 172.521885 192.999811 
L 174.366889 196.922752 
L 176.211893 201.724469 
L 178.05708 204.126755 
L 179.902083 204.941955 
L 181.747087 207.62031 
L 183.592091 212.790184 
L 185.437278 216.759915 
L 187.282281 216.378366 
L 189.127285 215.412244 
L 190.972288 217.224817 
L 192.817476 220.68589 
L 194.662479 222.005004 
L 196.507483 221.092854 
L 198.352486 221.846504 
L 200.197674 226.019132 
L 202.042677 231.386936 
L 203.887681 233.332577 
L 205.732684 232.896358 
L 207.577871 234.754724 
L 209.422875 239.351924 
L 211.267879 241.679492 
L 213.112882 239.116919 
L 214.958069 237.138091 
L 216.803073 238.959984 
L 218.648077 242.984658 
L 220.49308 244.6326 
L 222.338267 243.650206 
L 224.183271 244.715012 
L 226.028274 249.90748 
L 227.873278 256.112888 
L 229.718465 256.710866 
L 231.563469 254.464652 
L 233.408472 255.492224 
L 235.253476 259.378243 
L 237.098663 260.137969 
L 238.943667 256.571193 
L 240.78867 254.873054 
L 242.633674 257.702861 
L 244.478861 262.8709 
L 246.323865 264.661896 
L 248.168868 263.334854 
L 250.013872 264.853355 
L 251.859059 271.049976 
L 253.704063 276.375263 
L 255.549066 273.420391 
L 257.39407 269.627022 
L 259.239257 270.805535 
L 261.08426 275.196639 
L 262.929264 275.861075 
L 264.774268 272.338755 
L 266.619455 271.651175 
L 268.464458 276.574358 
L 270.309462 284.326312 
L 272.154466 285.878326 
L 273.999653 282.816345 
L 275.844656 284.016893 
L 277.68966 290.152918 
L 279.534663 291.964556 
L 281.379851 285.402689 
L 283.224854 281.268968 
L 285.069858 283.041981 
L 286.914861 287.849388 
L 288.760049 288.513227 
L 290.605052 285.525683 
L 292.450974 286.040384 
L 294.295977 292.560608 
L 296.140981 300.833271 
L 297.985984 299.859643 
L 299.830988 295.704591 
L 301.675992 297.331718 
L 303.520995 303.616548 
L 305.365999 304.07581 
L 307.211002 297.758616 
L 309.056006 295.510184 
L 310.901009 300.258068 
L 312.746013 308.454187 
L 314.591017 308.745301 
L 316.43602 304.413794 
L 318.281024 306.092051 
L 320.126027 314.884078 
L 321.971031 317.88082 
L 323.816035 308.159466 
L 325.661038 302.622418 
L 327.506042 304.589512 
L 329.351045 309.916348 
L 331.196049 308.802204 
L 333.041052 303.568748 
L 334.886056 303.235139 
L 336.73106 310.416351 
L 338.576063 322.232253 
L 340.421067 323.613963 
L 342.26607 318.622842 
L 344.111074 321.540181 
L 345.956078 333.809763 
L 347.801081 335.099361 
L 349.646085 321.732474 
L 351.491088 316.671069 
L 353.336092 321.056991 
L 355.181095 329.398124 
L 357.026099 326.684927 
L 358.871103 319.981868 
L 360.716106 320.936498 
L 362.56111 331.143141 
L 364.406113 339.67802 
L 366.252953 329.583753 
L 368.097956 322.722412 
L 369.94296 325.055659 
L 371.787964 332.450805 
L 373.632967 330.775219 
L 375.477971 322.923672 
L 377.322974 321.213855 
L 379.167978 328.182689 
L 381.012981 341.86416 
L 382.857985 345.380794 
L 384.702989 339.84441 
L 386.547992 344.11369 
L 388.392996 365.42076 
L 390.237999 367.200405 
L 392.083003 343.659516 
L 393.928007 337.069044 
L 395.77301 341.792022 
L 397.618014 347.877553 
L 401.308021 331.786533 
L 403.153024 332.736275 
L 404.998028 343.416631 
L 406.843032 356.004862 
L 408.688035 348.103273 
L 410.533039 341.503642 
L 412.378042 346.304173 
L 414.223046 361.707969 
L 416.06805 359.653527 
L 417.913053 345.25741 
L 419.758057 341.99876 
L 421.60306 350.546769 
L 423.448064 369.557405 
L 425.293067 367.702973 
L 427.138071 357.224364 
L 428.983075 361.772431 
L 430.828078 392.990225 
L 432.673082 392.789895 
L 434.518085 360.602367 
L 436.363089 354.365999 
L 438.208093 361.605176 
L 440.054932 367.866818 
L 441.899936 353.600221 
L 443.744939 343.818552 
L 445.589943 344.154316 
L 447.434946 354.844902 
L 449.27995 371.84163 
L 451.124953 366.859819 
L 452.969957 358.822181 
L 454.814961 363.92309 
L 456.659964 390.479126 
L 458.504968 413.409438 
L 460.349971 374.593606 
L 462.194975 368.734437 
L 464.039979 381.692766 
L 465.884982 420.297703 
L 467.729986 385.528502 
L 469.574989 371.588839 
L 471.419993 376.63779 
L 473.264996 410.685418 
L 475.11 407.661732 
L 475.11 407.661732 
" clip-path="url(#p42277e54b0)" style="fill: none; stroke: #60009f; stroke-opacity: 0.6; stroke-width: 1.5"/>
    <path d="M 107.945108 45.59427 
L 109.790166 46.554914 
L 111.635207 49.412335 
L 113.480265 54.078997 
L 115.325306 60.361023 
L 117.170364 67.896208 
L 126.395694 108.740392 
L 128.240698 116.448048 
L 130.085702 122.60727 
L 131.930705 126.691522 
L 133.775892 129.791714 
L 135.620896 133.380064 
L 137.465899 137.965562 
L 139.310903 142.853351 
L 141.15609 146.786661 
L 144.846097 152.106218 
L 146.691101 155.729035 
L 148.536288 160.224887 
L 150.381292 164.342126 
L 152.226295 167.192753 
L 154.071299 169.628292 
L 155.916486 173.008965 
L 157.76149 177.436453 
L 159.606493 181.474974 
L 161.451497 183.871351 
L 163.296684 185.521813 
L 165.141688 187.948282 
L 166.986691 191.127668 
L 168.831695 193.640837 
L 172.521885 196.135801 
L 174.366889 198.673022 
L 176.211893 202.135878 
L 178.05708 205.052103 
L 179.902083 206.921297 
L 181.747087 208.987109 
L 185.437278 215.439601 
L 187.282281 217.266743 
L 189.127285 217.935021 
L 190.972288 219.152655 
L 192.817476 221.356621 
L 194.662479 223.352991 
L 198.352486 225.302268 
L 200.197674 227.571048 
L 202.042677 230.793884 
L 203.887681 233.315254 
L 207.577871 235.910849 
L 211.267879 240.557101 
L 213.112882 241.123583 
L 214.958069 240.872767 
L 216.803073 241.699589 
L 220.49308 245.905911 
L 224.183271 247.917866 
L 226.028274 250.405446 
L 227.873278 253.792553 
L 229.718465 255.966766 
L 231.563469 256.386476 
L 233.408472 256.955404 
L 235.253476 258.619029 
L 237.098663 260.066112 
L 238.943667 259.997825 
L 240.78867 259.604448 
L 242.633674 260.648247 
L 244.478861 263.073163 
L 246.323865 265.179194 
L 248.168868 266.081176 
L 250.013872 267.218721 
L 251.859059 269.801442 
L 253.704063 272.695714 
L 255.549066 273.599903 
L 257.39407 272.991578 
L 259.239257 273.318607 
L 261.08426 275.140775 
L 262.929264 276.69128 
L 266.619455 276.818834 
L 268.464458 278.870632 
L 270.309462 282.437034 
L 272.154466 284.914833 
L 273.999653 285.207695 
L 275.844656 285.628069 
L 277.68966 287.549778 
L 279.534663 289.1847 
L 281.379851 288.292326 
L 283.224854 286.488038 
L 285.069858 286.341555 
L 286.914861 287.96505 
L 288.760049 289.437428 
L 290.605052 289.654598 
L 292.450974 290.179578 
L 294.295977 292.604576 
L 296.140981 296.205182 
L 297.985984 298.378124 
L 299.830988 298.590051 
L 301.675992 299.294075 
L 303.520995 301.517331 
L 305.365999 303.32907 
L 307.211002 302.996835 
L 309.056006 302.428197 
L 310.901009 303.907096 
L 312.746013 306.922522 
L 314.591017 308.666552 
L 316.43602 308.354245 
L 318.281024 308.632339 
L 320.126027 310.637516 
L 321.971031 311.933399 
L 323.816035 310.179603 
L 325.661038 307.759008 
L 327.506042 307.421845 
L 329.351045 308.874623 
L 331.196049 309.753933 
L 333.041052 309.237903 
L 334.886056 309.570418 
L 336.73106 312.618085 
L 338.576063 317.614176 
L 340.421067 321.16204 
L 342.26607 322.035884 
L 344.111074 323.651958 
L 345.956078 327.671722 
L 347.801081 330.478466 
L 349.646085 328.27023 
L 351.491088 325.297306 
L 353.336092 325.415643 
L 355.181095 327.636127 
L 357.026099 328.106858 
L 358.871103 326.213486 
L 360.716106 325.563181 
L 362.56111 327.715307 
L 364.406113 330.248381 
L 366.252953 329.523737 
L 368.097956 327.18416 
L 369.94296 326.830179 
L 371.787964 328.743562 
L 373.632967 330.290934 
L 375.477971 329.843251 
L 377.322974 329.809082 
L 379.167978 332.757493 
L 381.012981 338.522297 
L 382.857985 343.710203 
L 384.702989 345.896633 
L 386.547992 348.53972 
L 388.392996 354.019916 
L 390.237999 356.809811 
L 393.928007 346.273776 
L 395.77301 344.704178 
L 397.618014 344.843356 
L 399.463017 343.153032 
L 401.308021 340.37225 
L 403.153024 339.790578 
L 404.998028 342.387732 
L 406.843032 345.883919 
L 408.688035 346.672292 
L 410.533039 345.922089 
L 412.378042 347.369514 
L 414.223046 351.531494 
L 416.06805 354.633422 
L 417.913053 353.884835 
L 419.758057 353.441177 
L 421.60306 357.143709 
L 423.448064 364.485403 
L 425.293067 369.542567 
L 427.138071 369.639799 
L 428.983075 372.043156 
L 430.828078 379.431281 
L 432.673082 380.279816 
L 434.518085 369.999731 
L 436.363089 362.925779 
L 438.208093 361.238793 
L 440.054932 361.18515 
L 441.899936 358.434401 
L 443.744939 354.676897 
L 445.589943 353.864352 
L 447.434946 357.117273 
L 449.27995 362.436392 
L 451.124953 365.390998 
L 452.969957 366.026717 
L 454.814961 369.416626 
L 456.659964 378.359328 
L 458.504968 388.89165 
L 460.349971 388.898154 
L 462.194975 386.051408 
L 464.039979 390.510829 
L 465.884982 400.677769 
L 467.729986 399.761579 
L 469.574989 391.793214 
L 471.419993 391.289803 
L 473.264996 397.458258 
L 475.11 396.106974 
L 475.11 396.106974 
" clip-path="url(#p42277e54b0)" style="fill: none; stroke: #80007f; stroke-opacity: 0.6; stroke-width: 1.5"/>
    <path d="M 107.945108 45.978135 
L 109.790166 46.91652 
L 111.635207 49.71286 
L 113.480265 54.299388 
L 115.325306 60.524101 
L 117.170364 68.093863 
L 126.395694 109.927241 
L 128.240698 117.230876 
L 130.085702 123.187554 
L 131.930705 127.541219 
L 135.620896 134.746315 
L 141.15609 147.809404 
L 143.001094 151.2952 
L 144.846097 154.496967 
L 146.691101 158.006667 
L 150.381292 165.75582 
L 152.226295 168.990514 
L 155.916486 174.767739 
L 159.606493 181.814413 
L 161.451497 184.82829 
L 165.141688 189.650616 
L 168.831695 195.038561 
L 170.676882 197.210969 
L 172.521885 199.043457 
L 174.366889 201.133138 
L 178.05708 206.349416 
L 179.902083 208.640218 
L 181.747087 210.724228 
L 183.592091 213.055468 
L 185.437278 215.650912 
L 187.282281 218.005242 
L 189.127285 219.799032 
L 190.972288 221.367867 
L 196.507483 226.758723 
L 198.352486 228.228512 
L 200.197674 229.891516 
L 203.887681 234.031483 
L 205.732684 235.796524 
L 207.577871 237.36286 
L 213.112882 242.44758 
L 216.803073 244.552618 
L 218.648077 246.020826 
L 220.49308 247.713717 
L 222.338267 249.203943 
L 224.183271 250.517168 
L 226.028274 252.091397 
L 229.718465 256.027986 
L 231.563469 257.468692 
L 235.253476 259.760308 
L 237.098663 261.085708 
L 238.943667 262.157076 
L 242.633674 263.751117 
L 244.478861 265.023541 
L 246.323865 266.519886 
L 251.859059 270.602806 
L 253.704063 272.303668 
L 255.549066 273.768211 
L 259.239257 275.691989 
L 261.08426 276.934149 
L 262.929264 278.322671 
L 264.774268 279.43625 
L 266.619455 280.360691 
L 268.464458 281.635496 
L 272.154466 285.183038 
L 273.999653 286.347143 
L 275.844656 287.115237 
L 279.534663 289.068213 
L 281.379851 289.602818 
L 285.069858 289.519961 
L 286.914861 290.084348 
L 290.605052 291.962185 
L 292.450974 292.809191 
L 294.295977 294.043457 
L 296.140981 295.871912 
L 297.985984 297.889029 
L 299.830988 299.573816 
L 303.520995 302.585108 
L 305.365999 304.291059 
L 307.211002 305.682751 
L 312.746013 308.580498 
L 314.591017 309.551915 
L 316.43602 310.032509 
L 320.126027 310.486751 
L 321.971031 310.740693 
L 323.816035 310.60354 
L 325.661038 310.20371 
L 327.506042 310.102475 
L 329.351045 310.577022 
L 333.041052 312.160206 
L 334.886056 313.219079 
L 336.73106 315.035703 
L 342.26607 322.794145 
L 344.111074 324.96791 
L 345.956078 327.409231 
L 347.801081 329.647935 
L 349.646085 330.561139 
L 353.336092 329.717246 
L 355.181095 329.71125 
L 357.026099 329.563664 
L 360.716106 327.938071 
L 362.56111 327.758452 
L 366.252953 328.498054 
L 368.097956 328.46742 
L 369.94296 328.607622 
L 371.787964 329.526884 
L 375.477971 332.718492 
L 377.322974 334.370514 
L 379.167978 336.612744 
L 381.012981 339.876288 
L 382.857985 343.746923 
L 384.702989 347.247985 
L 386.547992 349.976195 
L 388.392996 352.21865 
L 390.237999 353.57393 
L 392.083003 352.996006 
L 395.77301 348.474928 
L 397.618014 346.719916 
L 401.308021 343.974913 
L 403.153024 343.145034 
L 404.998028 343.199519 
L 406.843032 344.027068 
L 410.533039 346.300567 
L 412.378042 347.879782 
L 414.223046 350.230373 
L 419.758057 358.85952 
L 421.60306 362.315692 
L 425.293067 370.93792 
L 427.138071 373.667649 
L 428.983075 374.930285 
L 430.828078 375.312762 
L 432.673082 373.939175 
L 434.518085 370.410407 
L 436.363089 366.416166 
L 438.208093 363.486592 
L 440.054932 361.66675 
L 441.899936 360.261313 
L 443.744939 359.043147 
L 445.589943 358.558974 
L 447.434946 359.373195 
L 449.27995 361.374318 
L 452.969957 366.633166 
L 454.814961 370.026886 
L 456.659964 374.895699 
L 460.349971 387.607428 
L 464.039979 397.949573 
L 465.884982 402.805616 
L 467.729986 403.674083 
L 469.574989 399.327561 
L 471.419993 394.457637 
L 473.264996 391.004929 
L 475.11 387.798325 
L 475.11 387.798325 
" clip-path="url(#p42277e54b0)" style="fill: none; stroke: #a0005f; stroke-opacity: 0.6; stroke-width: 1.5"/>
    <path d="M 107.945108 46.614691 
L 109.790166 47.525326 
L 111.635207 50.244925 
L 113.480265 54.728335 
L 115.325306 60.868773 
L 117.170364 68.447615 
L 120.860463 86.184907 
L 124.550562 103.696419 
L 126.395694 111.602316 
L 128.240698 118.687791 
L 130.085702 124.534972 
L 131.930705 129.025029 
L 135.620896 136.459914 
L 139.310903 145.00907 
L 141.15609 149.276789 
L 144.846097 156.785489 
L 152.226295 171.117629 
L 163.296684 189.127646 
L 170.676882 199.401638 
L 181.747087 212.886358 
L 185.437278 217.255553 
L 189.127285 221.628644 
L 192.817476 225.428959 
L 198.352486 230.84906 
L 213.112882 244.168081 
L 222.338267 251.579907 
L 227.873278 255.954846 
L 231.563469 259.03087 
L 235.253476 261.668977 
L 240.78867 265.40756 
L 246.323865 268.768985 
L 253.704063 273.798012 
L 272.154466 286.990967 
L 273.999653 288.09266 
L 277.68966 289.792114 
L 281.379851 291.178606 
L 286.914861 292.530911 
L 288.760049 293.24213 
L 292.450974 295.066166 
L 294.295977 296.165844 
L 296.140981 297.521017 
L 299.830988 300.921773 
L 305.365999 306.172137 
L 307.211002 307.845661 
L 309.056006 309.303568 
L 310.901009 310.413752 
L 312.746013 311.180247 
L 314.591017 311.690324 
L 316.43602 311.983659 
L 318.281024 312.075792 
L 325.661038 311.845956 
L 327.506042 312.088547 
L 329.351045 312.569385 
L 331.196049 313.304463 
L 333.041052 314.313132 
L 334.886056 315.644962 
L 336.73106 317.350323 
L 338.576063 319.410673 
L 342.26607 324.109862 
L 345.956078 328.851292 
L 347.801081 330.879745 
L 349.646085 332.266423 
L 351.491088 332.84474 
L 353.336092 332.785653 
L 355.181095 332.358728 
L 357.026099 331.685397 
L 360.716106 329.942564 
L 362.56111 329.295849 
L 364.406113 329.016161 
L 366.252953 329.067215 
L 368.097956 329.38587 
L 369.94296 329.968116 
L 371.787964 330.976151 
L 373.632967 332.472469 
L 375.477971 334.402732 
L 377.322974 336.664034 
L 379.167978 339.237677 
L 381.012981 342.181124 
L 384.702989 348.710477 
L 386.547992 351.484825 
L 388.392996 353.371953 
L 390.237999 354.205694 
L 392.083003 353.9457 
L 393.928007 352.70924 
L 399.463017 347.272655 
L 401.308021 345.982964 
L 403.153024 345.125788 
L 404.998028 344.743319 
L 406.843032 344.883531 
L 408.688035 345.562693 
L 410.533039 346.766703 
L 412.378042 348.484758 
L 414.223046 350.732468 
L 416.06805 353.531482 
L 417.913053 356.871658 
L 419.758057 360.695626 
L 425.293067 373.093253 
L 427.138071 375.844153 
L 428.983075 376.782004 
L 430.828078 375.816095 
L 432.673082 373.448542 
L 436.363089 367.394982 
L 438.208093 364.811446 
L 440.054932 362.832913 
L 441.899936 361.437865 
L 443.744939 360.66354 
L 445.589943 360.496612 
L 447.434946 361.007958 
L 449.27995 362.256309 
L 451.124953 364.212312 
L 452.969957 366.855993 
L 454.814961 370.250466 
L 456.659964 374.540747 
L 458.504968 379.851863 
L 460.349971 386.163356 
L 464.039979 400.226439 
L 465.884982 405.323942 
L 467.729986 405.776571 
L 469.574989 401.642656 
L 471.419993 395.927678 
L 473.264996 390.656502 
L 475.11 386.318189 
L 475.11 386.318189 
" clip-path="url(#p42277e54b0)" style="fill: none; stroke: #c0003f; stroke-opacity: 0.6; stroke-width: 1.5"/>
    <path d="M 107.945108 47.614998 
L 109.790166 48.489183 
L 111.635207 51.105885 
L 113.480265 55.441484 
L 115.325306 61.434215 
L 117.170364 68.943071 
L 119.015405 77.683912 
L 124.550562 105.719068 
L 126.395694 113.792809 
L 128.240698 120.802078 
L 130.085702 126.606019 
L 131.930705 131.205322 
L 137.465899 142.704885 
L 143.001094 155.397707 
L 148.536288 166.739677 
L 150.381292 170.351335 
L 152.226295 173.715168 
L 155.916486 179.822311 
L 163.296684 191.579387 
L 166.986691 196.911646 
L 170.676882 201.97742 
L 174.366889 206.691496 
L 179.902083 213.406542 
L 189.127285 224.090232 
L 192.817476 228.086457 
L 198.352486 233.616065 
L 202.042677 237.006778 
L 213.112882 246.66645 
L 222.338267 254.321257 
L 231.563469 261.488621 
L 237.098663 265.474702 
L 242.633674 269.217019 
L 251.859059 275.057131 
L 257.39407 278.82337 
L 264.774268 284.419883 
L 270.309462 288.451855 
L 272.154466 289.62828 
L 273.999653 290.652466 
L 275.844656 291.525006 
L 279.534663 292.927373 
L 283.224854 293.993012 
L 286.914861 295.029116 
L 288.760049 295.701838 
L 290.605052 296.517882 
L 292.450974 297.478142 
L 294.295977 298.59591 
L 296.140981 299.905236 
L 297.985984 301.422969 
L 301.675992 304.922301 
L 307.211002 310.299674 
L 309.056006 311.836636 
L 310.901009 313.055579 
L 312.746013 313.881184 
L 314.591017 314.339422 
L 316.43602 314.494743 
L 318.281024 314.444901 
L 323.816035 313.868284 
L 325.661038 313.880187 
L 327.506042 314.122813 
L 329.351045 314.619048 
L 331.196049 315.382322 
L 333.041052 316.440329 
L 334.886056 317.823522 
L 336.73106 319.539335 
L 338.576063 321.554652 
L 342.26607 326.200802 
L 345.956078 330.983645 
L 347.801081 332.997308 
L 349.646085 334.44821 
L 351.491088 335.193531 
L 353.336092 335.256425 
L 355.181095 334.782356 
L 357.026099 333.960057 
L 360.716106 332.021148 
L 362.56111 331.252348 
L 364.406113 330.781327 
L 366.252953 330.65917 
L 368.097956 330.90401 
L 369.94296 331.53457 
L 371.787964 332.58234 
L 373.632967 334.077522 
L 375.477971 336.020001 
L 377.322974 338.38148 
L 379.167978 341.116905 
L 382.857985 347.413717 
L 384.702989 350.606643 
L 386.547992 353.368745 
L 388.392996 355.263346 
L 390.237999 356.016886 
L 392.083003 355.643654 
L 393.928007 354.384741 
L 399.463017 348.983763 
L 401.308021 347.601435 
L 403.153024 346.660926 
L 404.998028 346.193491 
L 406.843032 346.217038 
L 408.688035 346.757529 
L 410.533039 347.83662 
L 412.378042 349.470282 
L 414.223046 351.669035 
L 416.06805 354.444549 
L 417.913053 357.803528 
L 419.758057 361.717255 
L 425.293067 374.589078 
L 427.138071 377.393372 
L 428.983075 378.223532 
L 430.828078 376.993941 
L 432.673082 374.368768 
L 436.363089 368.204312 
L 438.208093 365.630516 
L 440.054932 363.631956 
L 441.899936 362.24197 
L 443.744939 361.46661 
L 445.589943 361.309493 
L 447.434946 361.790661 
L 449.27995 362.917405 
L 451.124953 364.713782 
L 452.969957 367.21319 
L 454.814961 370.470738 
L 456.659964 374.564662 
L 458.504968 379.582656 
L 460.349971 385.585227 
L 464.039979 399.548365 
L 465.884982 404.874114 
L 467.729986 405.6676 
L 469.574989 401.861997 
L 473.264996 390.758394 
L 475.11 386.175554 
L 475.11 386.175554 
" clip-path="url(#p42277e54b0)" style="fill: none; stroke: #e0001f; stroke-opacity: 0.6; stroke-width: 1.5"/>
    <path d="M 107.945108 49.074688 
L 109.790166 49.902156 
L 111.635207 52.383735 
L 113.480265 56.51408 
L 115.325306 62.269884 
L 117.170364 69.581807 
L 119.015405 78.28068 
L 124.550562 107.871797 
L 126.395694 116.424217 
L 128.240698 123.52751 
L 130.085702 129.285393 
L 131.930705 133.943617 
L 135.620896 141.552238 
L 137.465899 145.402455 
L 146.691101 165.997657 
L 150.381292 173.351966 
L 154.071299 179.982024 
L 159.606493 188.965846 
L 163.296684 194.730388 
L 166.986691 200.093605 
L 170.676882 205.166543 
L 174.366889 209.93921 
L 179.902083 216.679834 
L 187.282281 225.222162 
L 192.817476 231.319651 
L 196.507483 235.085249 
L 200.197674 238.616103 
L 205.732684 243.525553 
L 216.803073 252.977822 
L 224.183271 259.004728 
L 231.563469 264.657166 
L 237.098663 268.624339 
L 242.633674 272.34437 
L 255.549066 280.579503 
L 259.239257 283.213703 
L 270.309462 291.551791 
L 272.154466 292.72469 
L 273.999653 293.742855 
L 275.844656 294.602581 
L 279.534663 295.915273 
L 288.760049 298.517388 
L 290.605052 299.295599 
L 292.450974 300.238069 
L 294.295977 301.356994 
L 296.140981 302.670749 
L 297.985984 304.176067 
L 301.675992 307.661066 
L 307.211002 313.149133 
L 309.056006 314.698092 
L 310.901009 315.931855 
L 312.746013 316.775482 
L 314.591017 317.231067 
L 316.43602 317.339224 
L 318.281024 317.205206 
L 323.816035 316.422594 
L 325.661038 316.369724 
L 327.506042 316.546249 
L 329.351045 316.991857 
L 331.196049 317.731164 
L 333.041052 318.783326 
L 334.886056 320.162183 
L 336.73106 321.867959 
L 338.576063 323.878456 
L 342.26607 328.578517 
L 345.956078 333.43414 
L 347.801081 335.468157 
L 349.646085 336.94302 
L 351.491088 337.70881 
L 353.336092 337.757699 
L 355.181095 337.223964 
L 357.026099 336.311301 
L 360.716106 334.217721 
L 362.56111 333.375306 
L 364.406113 332.819914 
L 366.252953 332.613467 
L 368.097956 332.793083 
L 369.94296 333.381784 
L 371.787964 334.398263 
L 373.632967 335.858356 
L 375.477971 337.765715 
L 377.322974 340.109885 
L 379.167978 342.856139 
L 382.857985 349.194857 
L 384.702989 352.401468 
L 386.547992 355.183431 
L 388.392996 357.112784 
L 390.237999 357.873776 
L 392.083003 357.450167 
L 393.928007 356.11463 
L 399.463017 350.54623 
L 401.308021 349.097675 
L 403.153024 348.08227 
L 404.998028 347.545986 
L 406.843032 347.510516 
L 408.688035 347.989534 
L 410.533039 348.998376 
L 412.378042 350.556308 
L 414.223046 352.675282 
L 416.06805 355.378967 
L 417.913053 358.663077 
L 419.758057 362.49328 
L 425.293067 375.176408 
L 427.138071 377.98284 
L 428.983075 378.831208 
L 430.828078 377.626835 
L 432.673082 375.030051 
L 436.363089 368.870641 
L 438.208093 366.261756 
L 440.054932 364.215344 
L 441.899936 362.77472 
L 443.744939 361.947117 
L 445.589943 361.733207 
L 447.434946 362.137988 
L 449.27995 363.17346 
L 451.124953 364.860728 
L 452.969957 367.231023 
L 454.814961 370.329856 
L 456.659964 374.217931 
L 458.504968 378.96058 
L 460.349971 384.585732 
L 464.039979 397.414335 
L 465.884982 402.274232 
L 467.729986 403.262045 
L 469.574989 400.151335 
L 473.264996 389.957595 
L 475.11 385.507603 
L 475.11 385.507603 
" clip-path="url(#p42277e54b0)" style="fill: none; stroke: #ff0000; stroke-opacity: 0.6; stroke-width: 1.5"/>
   </g>
   <g id="patch_3">
    <path d="M 107.945108 429.52 
L 107.945108 23.724 
" style="fill: none; stroke: #000000; stroke-width: 2; stroke-linejoin: miter; stroke-linecap: square"/>
   </g>
   <g id="patch_4">
    <path d="M 475.11 429.52 
L 475.11 23.724 
" style="fill: none; stroke: #000000; stroke-width: 2; stroke-linejoin: miter; stroke-linecap: square"/>
   </g>
   <g id="patch_5">
    <path d="M 107.945108 429.52 
L 475.11 429.52 
" style="fill: none; stroke: #000000; stroke-width: 2; stroke-linejoin: miter; stroke-linecap: square"/>
   </g>
   <g id="patch_6">
    <path d="M 107.945108 23.724 
L 475.11 23.724 
" style="fill: none; stroke: #000000; stroke-width: 2; stroke-linejoin: miter; stroke-linecap: square"/>
   </g>
   <g id="matplotlib.axis_1">
    <g id="xtick_1">
     <g id="line2d_1">
      <defs>
       <path id="m471906d3f4" d="M 0 5 
L 0 -5 
" style="stroke: #000000; stroke-width: 2"/>
      </defs>
      <g>
       <use xlink:href="#m471906d3f4" x="107.945108" y="429.52" style="stroke: #000000; stroke-width: 2"/>
      </g>
     </g>
     <g id="line2d_2">
      <g>
       <use xlink:href="#m471906d3f4" x="107.945108" y="23.724" style="stroke: #000000; stroke-width: 2"/>
      </g>
     </g>
     <g id="text_1">
      <!-- 0.0 -->
      <g transform="translate(92.041983 453.716875) scale(0.2 -0.2)">
       <defs>
        <path id="DejaVuSans-30" d="M 2034 4250 
Q 1547 4250 1301 3770 
Q 1056 3291 1056 2328 
Q 1056 1369 1301 889 
Q 1547 409 2034 409 
Q 2525 409 2770 889 
Q 3016 1369 3016 2328 
Q 3016 3291 2770 3770 
Q 2525 4250 2034 4250 
z
M 2034 4750 
Q 2819 4750 3233 4129 
Q 3647 3509 3647 2328 
Q 3647 1150 3233 529 
Q 2819 -91 2034 -91 
Q 1250 -91 836 529 
Q 422 1150 422 2328 
Q 422 3509 836 4129 
Q 1250 4750 2034 4750 
z
" transform="scale(0.015625)"/>
        <path id="DejaVuSans-2e" d="M 684 794 
L 1344 794 
L 1344 0 
L 684 0 
L 684 794 
z
" transform="scale(0.015625)"/>
       </defs>
       <use xlink:href="#DejaVuSans-30"/>
       <use xlink:href="#DejaVuSans-2e" x="63.623047"/>
       <use xlink:href="#DejaVuSans-30" x="95.410156"/>
      </g>
     </g>
    </g>
    <g id="xtick_2">
     <g id="line2d_3">
      <g>
       <use xlink:href="#m471906d3f4" x="199.736331" y="429.52" style="stroke: #000000; stroke-width: 2"/>
      </g>
     </g>
     <g id="line2d_4">
      <g>
       <use xlink:href="#m471906d3f4" x="199.736331" y="23.724" style="stroke: #000000; stroke-width: 2"/>
      </g>
     </g>
     <g id="text_2">
      <!-- 0.5 -->
      <g transform="translate(183.833206 453.716875) scale(0.2 -0.2)">
       <defs>
        <path id="DejaVuSans-35" d="M 691 4666 
L 3169 4666 
L 3169 4134 
L 1269 4134 
L 1269 2991 
Q 1406 3038 1543 3061 
Q 1681 3084 1819 3084 
Q 2600 3084 3056 2656 
Q 3513 2228 3513 1497 
Q 3513 744 3044 326 
Q 2575 -91 1722 -91 
Q 1428 -91 1123 -41 
Q 819 9 494 109 
L 494 744 
Q 775 591 1075 516 
Q 1375 441 1709 441 
Q 2250 441 2565 725 
Q 2881 1009 2881 1497 
Q 2881 1984 2565 2268 
Q 2250 2553 1709 2553 
Q 1456 2553 1204 2497 
Q 953 2441 691 2322 
L 691 4666 
z
" transform="scale(0.015625)"/>
       </defs>
       <use xlink:href="#DejaVuSans-30"/>
       <use xlink:href="#DejaVuSans-2e" x="63.623047"/>
       <use xlink:href="#DejaVuSans-35" x="95.410156"/>
      </g>
     </g>
    </g>
    <g id="xtick_3">
     <g id="line2d_5">
      <g>
       <use xlink:href="#m471906d3f4" x="291.527554" y="429.52" style="stroke: #000000; stroke-width: 2"/>
      </g>
     </g>
     <g id="line2d_6">
      <g>
       <use xlink:href="#m471906d3f4" x="291.527554" y="23.724" style="stroke: #000000; stroke-width: 2"/>
      </g>
     </g>
     <g id="text_3">
      <!-- 1.0 -->
      <g transform="translate(275.624429 453.716875) scale(0.2 -0.2)">
       <defs>
        <path id="DejaVuSans-31" d="M 794 531 
L 1825 531 
L 1825 4091 
L 703 3866 
L 703 4441 
L 1819 4666 
L 2450 4666 
L 2450 531 
L 3481 531 
L 3481 0 
L 794 0 
L 794 531 
z
" transform="scale(0.015625)"/>
       </defs>
       <use xlink:href="#DejaVuSans-31"/>
       <use xlink:href="#DejaVuSans-2e" x="63.623047"/>
       <use xlink:href="#DejaVuSans-30" x="95.410156"/>
      </g>
     </g>
    </g>
    <g id="xtick_4">
     <g id="line2d_7">
      <g>
       <use xlink:href="#m471906d3f4" x="383.318777" y="429.52" style="stroke: #000000; stroke-width: 2"/>
      </g>
     </g>
     <g id="line2d_8">
      <g>
       <use xlink:href="#m471906d3f4" x="383.318777" y="23.724" style="stroke: #000000; stroke-width: 2"/>
      </g>
     </g>
     <g id="text_4">
      <!-- 1.5 -->
      <g transform="translate(367.415652 453.716875) scale(0.2 -0.2)">
       <use xlink:href="#DejaVuSans-31"/>
       <use xlink:href="#DejaVuSans-2e" x="63.623047"/>
       <use xlink:href="#DejaVuSans-35" x="95.410156"/>
      </g>
     </g>
    </g>
    <g id="xtick_5">
     <g id="line2d_9">
      <g>
       <use xlink:href="#m471906d3f4" x="475.11" y="429.52" style="stroke: #000000; stroke-width: 2"/>
      </g>
     </g>
     <g id="line2d_10">
      <g>
       <use xlink:href="#m471906d3f4" x="475.11" y="23.724" style="stroke: #000000; stroke-width: 2"/>
      </g>
     </g>
     <g id="text_5">
      <!-- 2.0 -->
      <g transform="translate(459.206875 453.716875) scale(0.2 -0.2)">
       <defs>
        <path id="DejaVuSans-32" d="M 1228 531 
L 3431 531 
L 3431 0 
L 469 0 
L 469 531 
Q 828 903 1448 1529 
Q 2069 2156 2228 2338 
Q 2531 2678 2651 2914 
Q 2772 3150 2772 3378 
Q 2772 3750 2511 3984 
Q 2250 4219 1831 4219 
Q 1534 4219 1204 4116 
Q 875 4013 500 3803 
L 500 4441 
Q 881 4594 1212 4672 
Q 1544 4750 1819 4750 
Q 2544 4750 2975 4387 
Q 3406 4025 3406 3419 
Q 3406 3131 3298 2873 
Q 3191 2616 2906 2266 
Q 2828 2175 2409 1742 
Q 1991 1309 1228 531 
z
" transform="scale(0.015625)"/>
       </defs>
       <use xlink:href="#DejaVuSans-32"/>
       <use xlink:href="#DejaVuSans-2e" x="63.623047"/>
       <use xlink:href="#DejaVuSans-30" x="95.410156"/>
      </g>
     </g>
    </g>
    <g id="text_6">
     <!-- $p_T\ [GeV]$ -->
     <g transform="translate(238.402554 481.87625) scale(0.25 -0.25)">
      <defs>
       <path id="DejaVuSans-70" d="M 1159 525 
L 1159 -1331 
L 581 -1331 
L 581 3500 
L 1159 3500 
L 1159 2969 
Q 1341 3281 1617 3432 
Q 1894 3584 2278 3584 
Q 2916 3584 3314 3078 
Q 3713 2572 3713 1747 
Q 3713 922 3314 415 
Q 2916 -91 2278 -91 
Q 1894 -91 1617 61 
Q 1341 213 1159 525 
z
M 3116 1747 
Q 3116 2381 2855 2742 
Q 2594 3103 2138 3103 
Q 1681 3103 1420 2742 
Q 1159 2381 1159 1747 
Q 1159 1113 1420 752 
Q 1681 391 2138 391 
Q 2594 391 2855 752 
Q 3116 1113 3116 1747 
z
" transform="scale(0.015625)"/>
       <path id="DejaVuSans-54" d="M -19 4666 
L 3928 4666 
L 3928 4134 
L 2272 4134 
L 2272 0 
L 1638 0 
L 1638 4134 
L -19 4134 
L -19 4666 
z
" transform="scale(0.015625)"/>
       <path id="DejaVuSans-5b" d="M 550 4863 
L 1875 4863 
L 1875 4416 
L 1125 4416 
L 1125 -397 
L 1875 -397 
L 1875 -844 
L 550 -844 
L 550 4863 
z
" transform="scale(0.015625)"/>
       <path id="DejaVuSans-47" d="M 3809 666 
L 3809 1919 
L 2778 1919 
L 2778 2438 
L 4434 2438 
L 4434 434 
Q 4069 175 3628 42 
Q 3188 -91 2688 -91 
Q 1594 -91 976 548 
Q 359 1188 359 2328 
Q 359 3472 976 4111 
Q 1594 4750 2688 4750 
Q 3144 4750 3555 4637 
Q 3966 4525 4313 4306 
L 4313 3634 
Q 3963 3931 3569 4081 
Q 3175 4231 2741 4231 
Q 1884 4231 1454 3753 
Q 1025 3275 1025 2328 
Q 1025 1384 1454 906 
Q 1884 428 2741 428 
Q 3075 428 3337 486 
Q 3600 544 3809 666 
z
" transform="scale(0.015625)"/>
       <path id="DejaVuSans-65" d="M 3597 1894 
L 3597 1613 
L 953 1613 
Q 991 1019 1311 708 
Q 1631 397 2203 397 
Q 2534 397 2845 478 
Q 3156 559 3463 722 
L 3463 178 
Q 3153 47 2828 -22 
Q 2503 -91 2169 -91 
Q 1331 -91 842 396 
Q 353 884 353 1716 
Q 353 2575 817 3079 
Q 1281 3584 2069 3584 
Q 2775 3584 3186 3129 
Q 3597 2675 3597 1894 
z
M 3022 2063 
Q 3016 2534 2758 2815 
Q 2500 3097 2075 3097 
Q 1594 3097 1305 2825 
Q 1016 2553 972 2059 
L 3022 2063 
z
" transform="scale(0.015625)"/>
       <path id="DejaVuSans-56" d="M 1831 0 
L 50 4666 
L 709 4666 
L 2188 738 
L 3669 4666 
L 4325 4666 
L 2547 0 
L 1831 0 
z
" transform="scale(0.015625)"/>
       <path id="DejaVuSans-5d" d="M 1947 4863 
L 1947 -844 
L 622 -844 
L 622 -397 
L 1369 -397 
L 1369 4416 
L 622 4416 
L 622 4863 
L 1947 4863 
z
" transform="scale(0.015625)"/>
      </defs>
      <use xlink:href="#DejaVuSans-70" transform="translate(0 0.015625)"/>
      <use xlink:href="#DejaVuSans-54" transform="translate(64.433594 -16.390625) scale(0.7)"/>
      <use xlink:href="#DejaVuSans-5b" transform="translate(139.190788 0.015625)"/>
      <use xlink:href="#DejaVuSans-47" transform="translate(178.20446 0.015625)"/>
      <use xlink:href="#DejaVuSans-65" transform="translate(255.694694 0.015625)"/>
      <use xlink:href="#DejaVuSans-56" transform="translate(317.218132 0.015625)"/>
      <use xlink:href="#DejaVuSans-5d" transform="translate(385.626335 0.015625)"/>
     </g>
    </g>
   </g>
   <g id="matplotlib.axis_2">
    <g id="ytick_1">
     <g id="line2d_11">
      <defs>
       <path id="m8a281c7be6" d="M 5 0 
L -5 -0 
" style="stroke: #000000; stroke-width: 2"/>
      </defs>
      <g>
       <use xlink:href="#m8a281c7be6" x="107.945108" y="429.52" style="stroke: #000000; stroke-width: 2"/>
      </g>
     </g>
     <g id="line2d_12">
      <g>
       <use xlink:href="#m8a281c7be6" x="475.11" y="429.52" style="stroke: #000000; stroke-width: 2"/>
      </g>
     </g>
     <g id="text_7">
      <!-- $\mathdefault{10^{-5}}$ -->
      <g transform="translate(51.945108 435.03875) scale(0.2 -0.2)">
       <defs>
        <path id="DejaVuSans-2212" d="M 678 2272 
L 4684 2272 
L 4684 1741 
L 678 1741 
L 678 2272 
z
" transform="scale(0.015625)"/>
       </defs>
       <use xlink:href="#DejaVuSans-31" transform="translate(0 0.684375)"/>
       <use xlink:href="#DejaVuSans-30" transform="translate(63.623047 0.684375)"/>
       <use xlink:href="#DejaVuSans-2212" transform="translate(128.203125 38.965625) scale(0.7)"/>
       <use xlink:href="#DejaVuSans-35" transform="translate(186.855469 38.965625) scale(0.7)"/>
      </g>
     </g>
    </g>
    <g id="ytick_2">
     <g id="line2d_13">
      <g>
       <use xlink:href="#m8a281c7be6" x="107.945108" y="388.9404" style="stroke: #000000; stroke-width: 2"/>
      </g>
     </g>
     <g id="line2d_14">
      <g>
       <use xlink:href="#m8a281c7be6" x="475.11" y="388.9404" style="stroke: #000000; stroke-width: 2"/>
      </g>
     </g>
     <g id="text_8">
      <!-- $\mathdefault{10^{-4}}$ -->
      <g transform="translate(51.945108 394.45915) scale(0.2 -0.2)">
       <defs>
        <path id="DejaVuSans-34" d="M 2419 4116 
L 825 1625 
L 2419 1625 
L 2419 4116 
z
M 2253 4666 
L 3047 4666 
L 3047 1625 
L 3713 1625 
L 3713 1100 
L 3047 1100 
L 3047 0 
L 2419 0 
L 2419 1100 
L 313 1100 
L 313 1709 
L 2253 4666 
z
" transform="scale(0.015625)"/>
       </defs>
       <use xlink:href="#DejaVuSans-31" transform="translate(0 0.684375)"/>
       <use xlink:href="#DejaVuSans-30" transform="translate(63.623047 0.684375)"/>
       <use xlink:href="#DejaVuSans-2212" transform="translate(128.203125 38.965625) scale(0.7)"/>
       <use xlink:href="#DejaVuSans-34" transform="translate(186.855469 38.965625) scale(0.7)"/>
      </g>
     </g>
    </g>
    <g id="ytick_3">
     <g id="line2d_15">
      <g>
       <use xlink:href="#m8a281c7be6" x="107.945108" y="348.3608" style="stroke: #000000; stroke-width: 2"/>
      </g>
     </g>
     <g id="line2d_16">
      <g>
       <use xlink:href="#m8a281c7be6" x="475.11" y="348.3608" style="stroke: #000000; stroke-width: 2"/>
      </g>
     </g>
     <g id="text_9">
      <!-- $\mathdefault{10^{-3}}$ -->
      <g transform="translate(51.945108 353.87955) scale(0.2 -0.2)">
       <defs>
        <path id="DejaVuSans-33" d="M 2597 2516 
Q 3050 2419 3304 2112 
Q 3559 1806 3559 1356 
Q 3559 666 3084 287 
Q 2609 -91 1734 -91 
Q 1441 -91 1130 -33 
Q 819 25 488 141 
L 488 750 
Q 750 597 1062 519 
Q 1375 441 1716 441 
Q 2309 441 2620 675 
Q 2931 909 2931 1356 
Q 2931 1769 2642 2001 
Q 2353 2234 1838 2234 
L 1294 2234 
L 1294 2753 
L 1863 2753 
Q 2328 2753 2575 2939 
Q 2822 3125 2822 3475 
Q 2822 3834 2567 4026 
Q 2313 4219 1838 4219 
Q 1578 4219 1281 4162 
Q 984 4106 628 3988 
L 628 4550 
Q 988 4650 1302 4700 
Q 1616 4750 1894 4750 
Q 2613 4750 3031 4423 
Q 3450 4097 3450 3541 
Q 3450 3153 3228 2886 
Q 3006 2619 2597 2516 
z
" transform="scale(0.015625)"/>
       </defs>
       <use xlink:href="#DejaVuSans-31" transform="translate(0 0.765625)"/>
       <use xlink:href="#DejaVuSans-30" transform="translate(63.623047 0.765625)"/>
       <use xlink:href="#DejaVuSans-2212" transform="translate(128.203125 39.046875) scale(0.7)"/>
       <use xlink:href="#DejaVuSans-33" transform="translate(186.855469 39.046875) scale(0.7)"/>
      </g>
     </g>
    </g>
    <g id="ytick_4">
     <g id="line2d_17">
      <g>
       <use xlink:href="#m8a281c7be6" x="107.945108" y="307.7812" style="stroke: #000000; stroke-width: 2"/>
      </g>
     </g>
     <g id="line2d_18">
      <g>
       <use xlink:href="#m8a281c7be6" x="475.11" y="307.7812" style="stroke: #000000; stroke-width: 2"/>
      </g>
     </g>
     <g id="text_10">
      <!-- $\mathdefault{10^{-2}}$ -->
      <g transform="translate(51.945108 313.29995) scale(0.2 -0.2)">
       <use xlink:href="#DejaVuSans-31" transform="translate(0 0.765625)"/>
       <use xlink:href="#DejaVuSans-30" transform="translate(63.623047 0.765625)"/>
       <use xlink:href="#DejaVuSans-2212" transform="translate(128.203125 39.046875) scale(0.7)"/>
       <use xlink:href="#DejaVuSans-32" transform="translate(186.855469 39.046875) scale(0.7)"/>
      </g>
     </g>
    </g>
    <g id="ytick_5">
     <g id="line2d_19">
      <g>
       <use xlink:href="#m8a281c7be6" x="107.945108" y="267.2016" style="stroke: #000000; stroke-width: 2"/>
      </g>
     </g>
     <g id="line2d_20">
      <g>
       <use xlink:href="#m8a281c7be6" x="475.11" y="267.2016" style="stroke: #000000; stroke-width: 2"/>
      </g>
     </g>
     <g id="text_11">
      <!-- $\mathdefault{10^{-1}}$ -->
      <g transform="translate(51.945108 272.72035) scale(0.2 -0.2)">
       <use xlink:href="#DejaVuSans-31" transform="translate(0 0.684375)"/>
       <use xlink:href="#DejaVuSans-30" transform="translate(63.623047 0.684375)"/>
       <use xlink:href="#DejaVuSans-2212" transform="translate(128.203125 38.965625) scale(0.7)"/>
       <use xlink:href="#DejaVuSans-31" transform="translate(186.855469 38.965625) scale(0.7)"/>
      </g>
     </g>
    </g>
    <g id="ytick_6">
     <g id="line2d_21">
      <g>
       <use xlink:href="#m8a281c7be6" x="107.945108" y="226.622" style="stroke: #000000; stroke-width: 2"/>
      </g>
     </g>
     <g id="line2d_22">
      <g>
       <use xlink:href="#m8a281c7be6" x="475.11" y="226.622" style="stroke: #000000; stroke-width: 2"/>
      </g>
     </g>
     <g id="text_12">
      <!-- $\mathdefault{10^{0}}$ -->
      <g transform="translate(63.745108 232.14075) scale(0.2 -0.2)">
       <use xlink:href="#DejaVuSans-31" transform="translate(0 0.765625)"/>
       <use xlink:href="#DejaVuSans-30" transform="translate(63.623047 0.765625)"/>
       <use xlink:href="#DejaVuSans-30" transform="translate(128.203125 39.046875) scale(0.7)"/>
      </g>
     </g>
    </g>
    <g id="ytick_7">
     <g id="line2d_23">
      <g>
       <use xlink:href="#m8a281c7be6" x="107.945108" y="186.0424" style="stroke: #000000; stroke-width: 2"/>
      </g>
     </g>
     <g id="line2d_24">
      <g>
       <use xlink:href="#m8a281c7be6" x="475.11" y="186.0424" style="stroke: #000000; stroke-width: 2"/>
      </g>
     </g>
     <g id="text_13">
      <!-- $\mathdefault{10^{1}}$ -->
      <g transform="translate(63.745108 191.56115) scale(0.2 -0.2)">
       <use xlink:href="#DejaVuSans-31" transform="translate(0 0.684375)"/>
       <use xlink:href="#DejaVuSans-30" transform="translate(63.623047 0.684375)"/>
       <use xlink:href="#DejaVuSans-31" transform="translate(128.203125 38.965625) scale(0.7)"/>
      </g>
     </g>
    </g>
    <g id="ytick_8">
     <g id="line2d_25">
      <g>
       <use xlink:href="#m8a281c7be6" x="107.945108" y="145.4628" style="stroke: #000000; stroke-width: 2"/>
      </g>
     </g>
     <g id="line2d_26">
      <g>
       <use xlink:href="#m8a281c7be6" x="475.11" y="145.4628" style="stroke: #000000; stroke-width: 2"/>
      </g>
     </g>
     <g id="text_14">
      <!-- $\mathdefault{10^{2}}$ -->
      <g transform="translate(63.745108 150.98155) scale(0.2 -0.2)">
       <use xlink:href="#DejaVuSans-31" transform="translate(0 0.765625)"/>
       <use xlink:href="#DejaVuSans-30" transform="translate(63.623047 0.765625)"/>
       <use xlink:href="#DejaVuSans-32" transform="translate(128.203125 39.046875) scale(0.7)"/>
      </g>
     </g>
    </g>
    <g id="ytick_9">
     <g id="line2d_27">
      <g>
       <use xlink:href="#m8a281c7be6" x="107.945108" y="104.8832" style="stroke: #000000; stroke-width: 2"/>
      </g>
     </g>
     <g id="line2d_28">
      <g>
       <use xlink:href="#m8a281c7be6" x="475.11" y="104.8832" style="stroke: #000000; stroke-width: 2"/>
      </g>
     </g>
     <g id="text_15">
      <!-- $\mathdefault{10^{3}}$ -->
      <g transform="translate(63.745108 110.40195) scale(0.2 -0.2)">
       <use xlink:href="#DejaVuSans-31" transform="translate(0 0.765625)"/>
       <use xlink:href="#DejaVuSans-30" transform="translate(63.623047 0.765625)"/>
       <use xlink:href="#DejaVuSans-33" transform="translate(128.203125 39.046875) scale(0.7)"/>
      </g>
     </g>
    </g>
    <g id="ytick_10">
     <g id="line2d_29">
      <g>
       <use xlink:href="#m8a281c7be6" x="107.945108" y="64.3036" style="stroke: #000000; stroke-width: 2"/>
      </g>
     </g>
     <g id="line2d_30">
      <g>
       <use xlink:href="#m8a281c7be6" x="475.11" y="64.3036" style="stroke: #000000; stroke-width: 2"/>
      </g>
     </g>
     <g id="text_16">
      <!-- $\mathdefault{10^{4}}$ -->
      <g transform="translate(63.745108 69.82235) scale(0.2 -0.2)">
       <use xlink:href="#DejaVuSans-31" transform="translate(0 0.684375)"/>
       <use xlink:href="#DejaVuSans-30" transform="translate(63.623047 0.684375)"/>
       <use xlink:href="#DejaVuSans-34" transform="translate(128.203125 38.965625) scale(0.7)"/>
      </g>
     </g>
    </g>
    <g id="ytick_11">
     <g id="line2d_31">
      <g>
       <use xlink:href="#m8a281c7be6" x="107.945108" y="23.724" style="stroke: #000000; stroke-width: 2"/>
      </g>
     </g>
     <g id="line2d_32">
      <g>
       <use xlink:href="#m8a281c7be6" x="475.11" y="23.724" style="stroke: #000000; stroke-width: 2"/>
      </g>
     </g>
     <g id="text_17">
      <!-- $\mathdefault{10^{5}}$ -->
      <g transform="translate(63.745108 29.24275) scale(0.2 -0.2)">
       <use xlink:href="#DejaVuSans-31" transform="translate(0 0.684375)"/>
       <use xlink:href="#DejaVuSans-30" transform="translate(63.623047 0.684375)"/>
       <use xlink:href="#DejaVuSans-35" transform="translate(128.203125 38.965625) scale(0.7)"/>
      </g>
     </g>
    </g>
    <g id="ytick_12">
     <g id="line2d_33">
      <defs>
       <path id="me5b1b06e22" d="M 1 0 
L -1 -0 
" style="stroke: #000000; stroke-width: 0.5"/>
      </defs>
      <g>
       <use xlink:href="#me5b1b06e22" x="107.945108" y="417.304323" style="stroke: #000000; stroke-width: 0.5"/>
      </g>
     </g>
     <g id="line2d_34">
      <g>
       <use xlink:href="#me5b1b06e22" x="475.11" y="417.304323" style="stroke: #000000; stroke-width: 0.5"/>
      </g>
     </g>
    </g>
    <g id="ytick_13">
     <g id="line2d_35">
      <g>
       <use xlink:href="#me5b1b06e22" x="107.945108" y="410.15861" style="stroke: #000000; stroke-width: 0.5"/>
      </g>
     </g>
     <g id="line2d_36">
      <g>
       <use xlink:href="#me5b1b06e22" x="475.11" y="410.15861" style="stroke: #000000; stroke-width: 0.5"/>
      </g>
     </g>
    </g>
    <g id="ytick_14">
     <g id="line2d_37">
      <g>
       <use xlink:href="#me5b1b06e22" x="107.945108" y="405.088646" style="stroke: #000000; stroke-width: 0.5"/>
      </g>
     </g>
     <g id="line2d_38">
      <g>
       <use xlink:href="#me5b1b06e22" x="475.11" y="405.088646" style="stroke: #000000; stroke-width: 0.5"/>
      </g>
     </g>
    </g>
    <g id="ytick_15">
     <g id="line2d_39">
      <g>
       <use xlink:href="#me5b1b06e22" x="107.945108" y="401.156077" style="stroke: #000000; stroke-width: 0.5"/>
      </g>
     </g>
     <g id="line2d_40">
      <g>
       <use xlink:href="#me5b1b06e22" x="475.11" y="401.156077" style="stroke: #000000; stroke-width: 0.5"/>
      </g>
     </g>
    </g>
    <g id="ytick_16">
     <g id="line2d_41">
      <g>
       <use xlink:href="#me5b1b06e22" x="107.945108" y="397.942934" style="stroke: #000000; stroke-width: 0.5"/>
      </g>
     </g>
     <g id="line2d_42">
      <g>
       <use xlink:href="#me5b1b06e22" x="475.11" y="397.942934" style="stroke: #000000; stroke-width: 0.5"/>
      </g>
     </g>
    </g>
    <g id="ytick_17">
     <g id="line2d_43">
      <g>
       <use xlink:href="#me5b1b06e22" x="107.945108" y="395.22626" style="stroke: #000000; stroke-width: 0.5"/>
      </g>
     </g>
     <g id="line2d_44">
      <g>
       <use xlink:href="#me5b1b06e22" x="475.11" y="395.22626" style="stroke: #000000; stroke-width: 0.5"/>
      </g>
     </g>
    </g>
    <g id="ytick_18">
     <g id="line2d_45">
      <g>
       <use xlink:href="#me5b1b06e22" x="107.945108" y="392.87297" style="stroke: #000000; stroke-width: 0.5"/>
      </g>
     </g>
     <g id="line2d_46">
      <g>
       <use xlink:href="#me5b1b06e22" x="475.11" y="392.87297" style="stroke: #000000; stroke-width: 0.5"/>
      </g>
     </g>
    </g>
    <g id="ytick_19">
     <g id="line2d_47">
      <g>
       <use xlink:href="#me5b1b06e22" x="107.945108" y="390.797221" style="stroke: #000000; stroke-width: 0.5"/>
      </g>
     </g>
     <g id="line2d_48">
      <g>
       <use xlink:href="#me5b1b06e22" x="475.11" y="390.797221" style="stroke: #000000; stroke-width: 0.5"/>
      </g>
     </g>
    </g>
    <g id="ytick_20">
     <g id="line2d_49">
      <g>
       <use xlink:href="#me5b1b06e22" x="107.945108" y="376.724723" style="stroke: #000000; stroke-width: 0.5"/>
      </g>
     </g>
     <g id="line2d_50">
      <g>
       <use xlink:href="#me5b1b06e22" x="475.11" y="376.724723" style="stroke: #000000; stroke-width: 0.5"/>
      </g>
     </g>
    </g>
    <g id="ytick_21">
     <g id="line2d_51">
      <g>
       <use xlink:href="#me5b1b06e22" x="107.945108" y="369.57901" style="stroke: #000000; stroke-width: 0.5"/>
      </g>
     </g>
     <g id="line2d_52">
      <g>
       <use xlink:href="#me5b1b06e22" x="475.11" y="369.57901" style="stroke: #000000; stroke-width: 0.5"/>
      </g>
     </g>
    </g>
    <g id="ytick_22">
     <g id="line2d_53">
      <g>
       <use xlink:href="#me5b1b06e22" x="107.945108" y="364.509046" style="stroke: #000000; stroke-width: 0.5"/>
      </g>
     </g>
     <g id="line2d_54">
      <g>
       <use xlink:href="#me5b1b06e22" x="475.11" y="364.509046" style="stroke: #000000; stroke-width: 0.5"/>
      </g>
     </g>
    </g>
    <g id="ytick_23">
     <g id="line2d_55">
      <g>
       <use xlink:href="#me5b1b06e22" x="107.945108" y="360.576477" style="stroke: #000000; stroke-width: 0.5"/>
      </g>
     </g>
     <g id="line2d_56">
      <g>
       <use xlink:href="#me5b1b06e22" x="475.11" y="360.576477" style="stroke: #000000; stroke-width: 0.5"/>
      </g>
     </g>
    </g>
    <g id="ytick_24">
     <g id="line2d_57">
      <g>
       <use xlink:href="#me5b1b06e22" x="107.945108" y="357.363334" style="stroke: #000000; stroke-width: 0.5"/>
      </g>
     </g>
     <g id="line2d_58">
      <g>
       <use xlink:href="#me5b1b06e22" x="475.11" y="357.363334" style="stroke: #000000; stroke-width: 0.5"/>
      </g>
     </g>
    </g>
    <g id="ytick_25">
     <g id="line2d_59">
      <g>
       <use xlink:href="#me5b1b06e22" x="107.945108" y="354.64666" style="stroke: #000000; stroke-width: 0.5"/>
      </g>
     </g>
     <g id="line2d_60">
      <g>
       <use xlink:href="#me5b1b06e22" x="475.11" y="354.64666" style="stroke: #000000; stroke-width: 0.5"/>
      </g>
     </g>
    </g>
    <g id="ytick_26">
     <g id="line2d_61">
      <g>
       <use xlink:href="#me5b1b06e22" x="107.945108" y="352.29337" style="stroke: #000000; stroke-width: 0.5"/>
      </g>
     </g>
     <g id="line2d_62">
      <g>
       <use xlink:href="#me5b1b06e22" x="475.11" y="352.29337" style="stroke: #000000; stroke-width: 0.5"/>
      </g>
     </g>
    </g>
    <g id="ytick_27">
     <g id="line2d_63">
      <g>
       <use xlink:href="#me5b1b06e22" x="107.945108" y="350.217621" style="stroke: #000000; stroke-width: 0.5"/>
      </g>
     </g>
     <g id="line2d_64">
      <g>
       <use xlink:href="#me5b1b06e22" x="475.11" y="350.217621" style="stroke: #000000; stroke-width: 0.5"/>
      </g>
     </g>
    </g>
    <g id="ytick_28">
     <g id="line2d_65">
      <g>
       <use xlink:href="#me5b1b06e22" x="107.945108" y="336.145123" style="stroke: #000000; stroke-width: 0.5"/>
      </g>
     </g>
     <g id="line2d_66">
      <g>
       <use xlink:href="#me5b1b06e22" x="475.11" y="336.145123" style="stroke: #000000; stroke-width: 0.5"/>
      </g>
     </g>
    </g>
    <g id="ytick_29">
     <g id="line2d_67">
      <g>
       <use xlink:href="#me5b1b06e22" x="107.945108" y="328.99941" style="stroke: #000000; stroke-width: 0.5"/>
      </g>
     </g>
     <g id="line2d_68">
      <g>
       <use xlink:href="#me5b1b06e22" x="475.11" y="328.99941" style="stroke: #000000; stroke-width: 0.5"/>
      </g>
     </g>
    </g>
    <g id="ytick_30">
     <g id="line2d_69">
      <g>
       <use xlink:href="#me5b1b06e22" x="107.945108" y="323.929446" style="stroke: #000000; stroke-width: 0.5"/>
      </g>
     </g>
     <g id="line2d_70">
      <g>
       <use xlink:href="#me5b1b06e22" x="475.11" y="323.929446" style="stroke: #000000; stroke-width: 0.5"/>
      </g>
     </g>
    </g>
    <g id="ytick_31">
     <g id="line2d_71">
      <g>
       <use xlink:href="#me5b1b06e22" x="107.945108" y="319.996877" style="stroke: #000000; stroke-width: 0.5"/>
      </g>
     </g>
     <g id="line2d_72">
      <g>
       <use xlink:href="#me5b1b06e22" x="475.11" y="319.996877" style="stroke: #000000; stroke-width: 0.5"/>
      </g>
     </g>
    </g>
    <g id="ytick_32">
     <g id="line2d_73">
      <g>
       <use xlink:href="#me5b1b06e22" x="107.945108" y="316.783734" style="stroke: #000000; stroke-width: 0.5"/>
      </g>
     </g>
     <g id="line2d_74">
      <g>
       <use xlink:href="#me5b1b06e22" x="475.11" y="316.783734" style="stroke: #000000; stroke-width: 0.5"/>
      </g>
     </g>
    </g>
    <g id="ytick_33">
     <g id="line2d_75">
      <g>
       <use xlink:href="#me5b1b06e22" x="107.945108" y="314.06706" style="stroke: #000000; stroke-width: 0.5"/>
      </g>
     </g>
     <g id="line2d_76">
      <g>
       <use xlink:href="#me5b1b06e22" x="475.11" y="314.06706" style="stroke: #000000; stroke-width: 0.5"/>
      </g>
     </g>
    </g>
    <g id="ytick_34">
     <g id="line2d_77">
      <g>
       <use xlink:href="#me5b1b06e22" x="107.945108" y="311.71377" style="stroke: #000000; stroke-width: 0.5"/>
      </g>
     </g>
     <g id="line2d_78">
      <g>
       <use xlink:href="#me5b1b06e22" x="475.11" y="311.71377" style="stroke: #000000; stroke-width: 0.5"/>
      </g>
     </g>
    </g>
    <g id="ytick_35">
     <g id="line2d_79">
      <g>
       <use xlink:href="#me5b1b06e22" x="107.945108" y="309.638021" style="stroke: #000000; stroke-width: 0.5"/>
      </g>
     </g>
     <g id="line2d_80">
      <g>
       <use xlink:href="#me5b1b06e22" x="475.11" y="309.638021" style="stroke: #000000; stroke-width: 0.5"/>
      </g>
     </g>
    </g>
    <g id="ytick_36">
     <g id="line2d_81">
      <g>
       <use xlink:href="#me5b1b06e22" x="107.945108" y="295.565523" style="stroke: #000000; stroke-width: 0.5"/>
      </g>
     </g>
     <g id="line2d_82">
      <g>
       <use xlink:href="#me5b1b06e22" x="475.11" y="295.565523" style="stroke: #000000; stroke-width: 0.5"/>
      </g>
     </g>
    </g>
    <g id="ytick_37">
     <g id="line2d_83">
      <g>
       <use xlink:href="#me5b1b06e22" x="107.945108" y="288.41981" style="stroke: #000000; stroke-width: 0.5"/>
      </g>
     </g>
     <g id="line2d_84">
      <g>
       <use xlink:href="#me5b1b06e22" x="475.11" y="288.41981" style="stroke: #000000; stroke-width: 0.5"/>
      </g>
     </g>
    </g>
    <g id="ytick_38">
     <g id="line2d_85">
      <g>
       <use xlink:href="#me5b1b06e22" x="107.945108" y="283.349846" style="stroke: #000000; stroke-width: 0.5"/>
      </g>
     </g>
     <g id="line2d_86">
      <g>
       <use xlink:href="#me5b1b06e22" x="475.11" y="283.349846" style="stroke: #000000; stroke-width: 0.5"/>
      </g>
     </g>
    </g>
    <g id="ytick_39">
     <g id="line2d_87">
      <g>
       <use xlink:href="#me5b1b06e22" x="107.945108" y="279.417277" style="stroke: #000000; stroke-width: 0.5"/>
      </g>
     </g>
     <g id="line2d_88">
      <g>
       <use xlink:href="#me5b1b06e22" x="475.11" y="279.417277" style="stroke: #000000; stroke-width: 0.5"/>
      </g>
     </g>
    </g>
    <g id="ytick_40">
     <g id="line2d_89">
      <g>
       <use xlink:href="#me5b1b06e22" x="107.945108" y="276.204134" style="stroke: #000000; stroke-width: 0.5"/>
      </g>
     </g>
     <g id="line2d_90">
      <g>
       <use xlink:href="#me5b1b06e22" x="475.11" y="276.204134" style="stroke: #000000; stroke-width: 0.5"/>
      </g>
     </g>
    </g>
    <g id="ytick_41">
     <g id="line2d_91">
      <g>
       <use xlink:href="#me5b1b06e22" x="107.945108" y="273.48746" style="stroke: #000000; stroke-width: 0.5"/>
      </g>
     </g>
     <g id="line2d_92">
      <g>
       <use xlink:href="#me5b1b06e22" x="475.11" y="273.48746" style="stroke: #000000; stroke-width: 0.5"/>
      </g>
     </g>
    </g>
    <g id="ytick_42">
     <g id="line2d_93">
      <g>
       <use xlink:href="#me5b1b06e22" x="107.945108" y="271.13417" style="stroke: #000000; stroke-width: 0.5"/>
      </g>
     </g>
     <g id="line2d_94">
      <g>
       <use xlink:href="#me5b1b06e22" x="475.11" y="271.13417" style="stroke: #000000; stroke-width: 0.5"/>
      </g>
     </g>
    </g>
    <g id="ytick_43">
     <g id="line2d_95">
      <g>
       <use xlink:href="#me5b1b06e22" x="107.945108" y="269.058421" style="stroke: #000000; stroke-width: 0.5"/>
      </g>
     </g>
     <g id="line2d_96">
      <g>
       <use xlink:href="#me5b1b06e22" x="475.11" y="269.058421" style="stroke: #000000; stroke-width: 0.5"/>
      </g>
     </g>
    </g>
    <g id="ytick_44">
     <g id="line2d_97">
      <g>
       <use xlink:href="#me5b1b06e22" x="107.945108" y="254.985923" style="stroke: #000000; stroke-width: 0.5"/>
      </g>
     </g>
     <g id="line2d_98">
      <g>
       <use xlink:href="#me5b1b06e22" x="475.11" y="254.985923" style="stroke: #000000; stroke-width: 0.5"/>
      </g>
     </g>
    </g>
    <g id="ytick_45">
     <g id="line2d_99">
      <g>
       <use xlink:href="#me5b1b06e22" x="107.945108" y="247.84021" style="stroke: #000000; stroke-width: 0.5"/>
      </g>
     </g>
     <g id="line2d_100">
      <g>
       <use xlink:href="#me5b1b06e22" x="475.11" y="247.84021" style="stroke: #000000; stroke-width: 0.5"/>
      </g>
     </g>
    </g>
    <g id="ytick_46">
     <g id="line2d_101">
      <g>
       <use xlink:href="#me5b1b06e22" x="107.945108" y="242.770246" style="stroke: #000000; stroke-width: 0.5"/>
      </g>
     </g>
     <g id="line2d_102">
      <g>
       <use xlink:href="#me5b1b06e22" x="475.11" y="242.770246" style="stroke: #000000; stroke-width: 0.5"/>
      </g>
     </g>
    </g>
    <g id="ytick_47">
     <g id="line2d_103">
      <g>
       <use xlink:href="#me5b1b06e22" x="107.945108" y="238.837677" style="stroke: #000000; stroke-width: 0.5"/>
      </g>
     </g>
     <g id="line2d_104">
      <g>
       <use xlink:href="#me5b1b06e22" x="475.11" y="238.837677" style="stroke: #000000; stroke-width: 0.5"/>
      </g>
     </g>
    </g>
    <g id="ytick_48">
     <g id="line2d_105">
      <g>
       <use xlink:href="#me5b1b06e22" x="107.945108" y="235.624534" style="stroke: #000000; stroke-width: 0.5"/>
      </g>
     </g>
     <g id="line2d_106">
      <g>
       <use xlink:href="#me5b1b06e22" x="475.11" y="235.624534" style="stroke: #000000; stroke-width: 0.5"/>
      </g>
     </g>
    </g>
    <g id="ytick_49">
     <g id="line2d_107">
      <g>
       <use xlink:href="#me5b1b06e22" x="107.945108" y="232.90786" style="stroke: #000000; stroke-width: 0.5"/>
      </g>
     </g>
     <g id="line2d_108">
      <g>
       <use xlink:href="#me5b1b06e22" x="475.11" y="232.90786" style="stroke: #000000; stroke-width: 0.5"/>
      </g>
     </g>
    </g>
    <g id="ytick_50">
     <g id="line2d_109">
      <g>
       <use xlink:href="#me5b1b06e22" x="107.945108" y="230.55457" style="stroke: #000000; stroke-width: 0.5"/>
      </g>
     </g>
     <g id="line2d_110">
      <g>
       <use xlink:href="#me5b1b06e22" x="475.11" y="230.55457" style="stroke: #000000; stroke-width: 0.5"/>
      </g>
     </g>
    </g>
    <g id="ytick_51">
     <g id="line2d_111">
      <g>
       <use xlink:href="#me5b1b06e22" x="107.945108" y="228.478821" style="stroke: #000000; stroke-width: 0.5"/>
      </g>
     </g>
     <g id="line2d_112">
      <g>
       <use xlink:href="#me5b1b06e22" x="475.11" y="228.478821" style="stroke: #000000; stroke-width: 0.5"/>
      </g>
     </g>
    </g>
    <g id="ytick_52">
     <g id="line2d_113">
      <g>
       <use xlink:href="#me5b1b06e22" x="107.945108" y="214.406323" style="stroke: #000000; stroke-width: 0.5"/>
      </g>
     </g>
     <g id="line2d_114">
      <g>
       <use xlink:href="#me5b1b06e22" x="475.11" y="214.406323" style="stroke: #000000; stroke-width: 0.5"/>
      </g>
     </g>
    </g>
    <g id="ytick_53">
     <g id="line2d_115">
      <g>
       <use xlink:href="#me5b1b06e22" x="107.945108" y="207.26061" style="stroke: #000000; stroke-width: 0.5"/>
      </g>
     </g>
     <g id="line2d_116">
      <g>
       <use xlink:href="#me5b1b06e22" x="475.11" y="207.26061" style="stroke: #000000; stroke-width: 0.5"/>
      </g>
     </g>
    </g>
    <g id="ytick_54">
     <g id="line2d_117">
      <g>
       <use xlink:href="#me5b1b06e22" x="107.945108" y="202.190646" style="stroke: #000000; stroke-width: 0.5"/>
      </g>
     </g>
     <g id="line2d_118">
      <g>
       <use xlink:href="#me5b1b06e22" x="475.11" y="202.190646" style="stroke: #000000; stroke-width: 0.5"/>
      </g>
     </g>
    </g>
    <g id="ytick_55">
     <g id="line2d_119">
      <g>
       <use xlink:href="#me5b1b06e22" x="107.945108" y="198.258077" style="stroke: #000000; stroke-width: 0.5"/>
      </g>
     </g>
     <g id="line2d_120">
      <g>
       <use xlink:href="#me5b1b06e22" x="475.11" y="198.258077" style="stroke: #000000; stroke-width: 0.5"/>
      </g>
     </g>
    </g>
    <g id="ytick_56">
     <g id="line2d_121">
      <g>
       <use xlink:href="#me5b1b06e22" x="107.945108" y="195.044934" style="stroke: #000000; stroke-width: 0.5"/>
      </g>
     </g>
     <g id="line2d_122">
      <g>
       <use xlink:href="#me5b1b06e22" x="475.11" y="195.044934" style="stroke: #000000; stroke-width: 0.5"/>
      </g>
     </g>
    </g>
    <g id="ytick_57">
     <g id="line2d_123">
      <g>
       <use xlink:href="#me5b1b06e22" x="107.945108" y="192.32826" style="stroke: #000000; stroke-width: 0.5"/>
      </g>
     </g>
     <g id="line2d_124">
      <g>
       <use xlink:href="#me5b1b06e22" x="475.11" y="192.32826" style="stroke: #000000; stroke-width: 0.5"/>
      </g>
     </g>
    </g>
    <g id="ytick_58">
     <g id="line2d_125">
      <g>
       <use xlink:href="#me5b1b06e22" x="107.945108" y="189.97497" style="stroke: #000000; stroke-width: 0.5"/>
      </g>
     </g>
     <g id="line2d_126">
      <g>
       <use xlink:href="#me5b1b06e22" x="475.11" y="189.97497" style="stroke: #000000; stroke-width: 0.5"/>
      </g>
     </g>
    </g>
    <g id="ytick_59">
     <g id="line2d_127">
      <g>
       <use xlink:href="#me5b1b06e22" x="107.945108" y="187.899221" style="stroke: #000000; stroke-width: 0.5"/>
      </g>
     </g>
     <g id="line2d_128">
      <g>
       <use xlink:href="#me5b1b06e22" x="475.11" y="187.899221" style="stroke: #000000; stroke-width: 0.5"/>
      </g>
     </g>
    </g>
    <g id="ytick_60">
     <g id="line2d_129">
      <g>
       <use xlink:href="#me5b1b06e22" x="107.945108" y="173.826723" style="stroke: #000000; stroke-width: 0.5"/>
      </g>
     </g>
     <g id="line2d_130">
      <g>
       <use xlink:href="#me5b1b06e22" x="475.11" y="173.826723" style="stroke: #000000; stroke-width: 0.5"/>
      </g>
     </g>
    </g>
    <g id="ytick_61">
     <g id="line2d_131">
      <g>
       <use xlink:href="#me5b1b06e22" x="107.945108" y="166.68101" style="stroke: #000000; stroke-width: 0.5"/>
      </g>
     </g>
     <g id="line2d_132">
      <g>
       <use xlink:href="#me5b1b06e22" x="475.11" y="166.68101" style="stroke: #000000; stroke-width: 0.5"/>
      </g>
     </g>
    </g>
    <g id="ytick_62">
     <g id="line2d_133">
      <g>
       <use xlink:href="#me5b1b06e22" x="107.945108" y="161.611046" style="stroke: #000000; stroke-width: 0.5"/>
      </g>
     </g>
     <g id="line2d_134">
      <g>
       <use xlink:href="#me5b1b06e22" x="475.11" y="161.611046" style="stroke: #000000; stroke-width: 0.5"/>
      </g>
     </g>
    </g>
    <g id="ytick_63">
     <g id="line2d_135">
      <g>
       <use xlink:href="#me5b1b06e22" x="107.945108" y="157.678477" style="stroke: #000000; stroke-width: 0.5"/>
      </g>
     </g>
     <g id="line2d_136">
      <g>
       <use xlink:href="#me5b1b06e22" x="475.11" y="157.678477" style="stroke: #000000; stroke-width: 0.5"/>
      </g>
     </g>
    </g>
    <g id="ytick_64">
     <g id="line2d_137">
      <g>
       <use xlink:href="#me5b1b06e22" x="107.945108" y="154.465334" style="stroke: #000000; stroke-width: 0.5"/>
      </g>
     </g>
     <g id="line2d_138">
      <g>
       <use xlink:href="#me5b1b06e22" x="475.11" y="154.465334" style="stroke: #000000; stroke-width: 0.5"/>
      </g>
     </g>
    </g>
    <g id="ytick_65">
     <g id="line2d_139">
      <g>
       <use xlink:href="#me5b1b06e22" x="107.945108" y="151.74866" style="stroke: #000000; stroke-width: 0.5"/>
      </g>
     </g>
     <g id="line2d_140">
      <g>
       <use xlink:href="#me5b1b06e22" x="475.11" y="151.74866" style="stroke: #000000; stroke-width: 0.5"/>
      </g>
     </g>
    </g>
    <g id="ytick_66">
     <g id="line2d_141">
      <g>
       <use xlink:href="#me5b1b06e22" x="107.945108" y="149.39537" style="stroke: #000000; stroke-width: 0.5"/>
      </g>
     </g>
     <g id="line2d_142">
      <g>
       <use xlink:href="#me5b1b06e22" x="475.11" y="149.39537" style="stroke: #000000; stroke-width: 0.5"/>
      </g>
     </g>
    </g>
    <g id="ytick_67">
     <g id="line2d_143">
      <g>
       <use xlink:href="#me5b1b06e22" x="107.945108" y="147.319621" style="stroke: #000000; stroke-width: 0.5"/>
      </g>
     </g>
     <g id="line2d_144">
      <g>
       <use xlink:href="#me5b1b06e22" x="475.11" y="147.319621" style="stroke: #000000; stroke-width: 0.5"/>
      </g>
     </g>
    </g>
    <g id="ytick_68">
     <g id="line2d_145">
      <g>
       <use xlink:href="#me5b1b06e22" x="107.945108" y="133.247123" style="stroke: #000000; stroke-width: 0.5"/>
      </g>
     </g>
     <g id="line2d_146">
      <g>
       <use xlink:href="#me5b1b06e22" x="475.11" y="133.247123" style="stroke: #000000; stroke-width: 0.5"/>
      </g>
     </g>
    </g>
    <g id="ytick_69">
     <g id="line2d_147">
      <g>
       <use xlink:href="#me5b1b06e22" x="107.945108" y="126.10141" style="stroke: #000000; stroke-width: 0.5"/>
      </g>
     </g>
     <g id="line2d_148">
      <g>
       <use xlink:href="#me5b1b06e22" x="475.11" y="126.10141" style="stroke: #000000; stroke-width: 0.5"/>
      </g>
     </g>
    </g>
    <g id="ytick_70">
     <g id="line2d_149">
      <g>
       <use xlink:href="#me5b1b06e22" x="107.945108" y="121.031446" style="stroke: #000000; stroke-width: 0.5"/>
      </g>
     </g>
     <g id="line2d_150">
      <g>
       <use xlink:href="#me5b1b06e22" x="475.11" y="121.031446" style="stroke: #000000; stroke-width: 0.5"/>
      </g>
     </g>
    </g>
    <g id="ytick_71">
     <g id="line2d_151">
      <g>
       <use xlink:href="#me5b1b06e22" x="107.945108" y="117.098877" style="stroke: #000000; stroke-width: 0.5"/>
      </g>
     </g>
     <g id="line2d_152">
      <g>
       <use xlink:href="#me5b1b06e22" x="475.11" y="117.098877" style="stroke: #000000; stroke-width: 0.5"/>
      </g>
     </g>
    </g>
    <g id="ytick_72">
     <g id="line2d_153">
      <g>
       <use xlink:href="#me5b1b06e22" x="107.945108" y="113.885734" style="stroke: #000000; stroke-width: 0.5"/>
      </g>
     </g>
     <g id="line2d_154">
      <g>
       <use xlink:href="#me5b1b06e22" x="475.11" y="113.885734" style="stroke: #000000; stroke-width: 0.5"/>
      </g>
     </g>
    </g>
    <g id="ytick_73">
     <g id="line2d_155">
      <g>
       <use xlink:href="#me5b1b06e22" x="107.945108" y="111.16906" style="stroke: #000000; stroke-width: 0.5"/>
      </g>
     </g>
     <g id="line2d_156">
      <g>
       <use xlink:href="#me5b1b06e22" x="475.11" y="111.16906" style="stroke: #000000; stroke-width: 0.5"/>
      </g>
     </g>
    </g>
    <g id="ytick_74">
     <g id="line2d_157">
      <g>
       <use xlink:href="#me5b1b06e22" x="107.945108" y="108.81577" style="stroke: #000000; stroke-width: 0.5"/>
      </g>
     </g>
     <g id="line2d_158">
      <g>
       <use xlink:href="#me5b1b06e22" x="475.11" y="108.81577" style="stroke: #000000; stroke-width: 0.5"/>
      </g>
     </g>
    </g>
    <g id="ytick_75">
     <g id="line2d_159">
      <g>
       <use xlink:href="#me5b1b06e22" x="107.945108" y="106.740021" style="stroke: #000000; stroke-width: 0.5"/>
      </g>
     </g>
     <g id="line2d_160">
      <g>
       <use xlink:href="#me5b1b06e22" x="475.11" y="106.740021" style="stroke: #000000; stroke-width: 0.5"/>
      </g>
     </g>
    </g>
    <g id="ytick_76">
     <g id="line2d_161">
      <g>
       <use xlink:href="#me5b1b06e22" x="107.945108" y="92.667523" style="stroke: #000000; stroke-width: 0.5"/>
      </g>
     </g>
     <g id="line2d_162">
      <g>
       <use xlink:href="#me5b1b06e22" x="475.11" y="92.667523" style="stroke: #000000; stroke-width: 0.5"/>
      </g>
     </g>
    </g>
    <g id="ytick_77">
     <g id="line2d_163">
      <g>
       <use xlink:href="#me5b1b06e22" x="107.945108" y="85.52181" style="stroke: #000000; stroke-width: 0.5"/>
      </g>
     </g>
     <g id="line2d_164">
      <g>
       <use xlink:href="#me5b1b06e22" x="475.11" y="85.52181" style="stroke: #000000; stroke-width: 0.5"/>
      </g>
     </g>
    </g>
    <g id="ytick_78">
     <g id="line2d_165">
      <g>
       <use xlink:href="#me5b1b06e22" x="107.945108" y="80.451846" style="stroke: #000000; stroke-width: 0.5"/>
      </g>
     </g>
     <g id="line2d_166">
      <g>
       <use xlink:href="#me5b1b06e22" x="475.11" y="80.451846" style="stroke: #000000; stroke-width: 0.5"/>
      </g>
     </g>
    </g>
    <g id="ytick_79">
     <g id="line2d_167">
      <g>
       <use xlink:href="#me5b1b06e22" x="107.945108" y="76.519277" style="stroke: #000000; stroke-width: 0.5"/>
      </g>
     </g>
     <g id="line2d_168">
      <g>
       <use xlink:href="#me5b1b06e22" x="475.11" y="76.519277" style="stroke: #000000; stroke-width: 0.5"/>
      </g>
     </g>
    </g>
    <g id="ytick_80">
     <g id="line2d_169">
      <g>
       <use xlink:href="#me5b1b06e22" x="107.945108" y="73.306134" style="stroke: #000000; stroke-width: 0.5"/>
      </g>
     </g>
     <g id="line2d_170">
      <g>
       <use xlink:href="#me5b1b06e22" x="475.11" y="73.306134" style="stroke: #000000; stroke-width: 0.5"/>
      </g>
     </g>
    </g>
    <g id="ytick_81">
     <g id="line2d_171">
      <g>
       <use xlink:href="#me5b1b06e22" x="107.945108" y="70.58946" style="stroke: #000000; stroke-width: 0.5"/>
      </g>
     </g>
     <g id="line2d_172">
      <g>
       <use xlink:href="#me5b1b06e22" x="475.11" y="70.58946" style="stroke: #000000; stroke-width: 0.5"/>
      </g>
     </g>
    </g>
    <g id="ytick_82">
     <g id="line2d_173">
      <g>
       <use xlink:href="#me5b1b06e22" x="107.945108" y="68.23617" style="stroke: #000000; stroke-width: 0.5"/>
      </g>
     </g>
     <g id="line2d_174">
      <g>
       <use xlink:href="#me5b1b06e22" x="475.11" y="68.23617" style="stroke: #000000; stroke-width: 0.5"/>
      </g>
     </g>
    </g>
    <g id="ytick_83">
     <g id="line2d_175">
      <g>
       <use xlink:href="#me5b1b06e22" x="107.945108" y="66.160421" style="stroke: #000000; stroke-width: 0.5"/>
      </g>
     </g>
     <g id="line2d_176">
      <g>
       <use xlink:href="#me5b1b06e22" x="475.11" y="66.160421" style="stroke: #000000; stroke-width: 0.5"/>
      </g>
     </g>
    </g>
    <g id="ytick_84">
     <g id="line2d_177">
      <g>
       <use xlink:href="#me5b1b06e22" x="107.945108" y="52.087923" style="stroke: #000000; stroke-width: 0.5"/>
      </g>
     </g>
     <g id="line2d_178">
      <g>
       <use xlink:href="#me5b1b06e22" x="475.11" y="52.087923" style="stroke: #000000; stroke-width: 0.5"/>
      </g>
     </g>
    </g>
    <g id="ytick_85">
     <g id="line2d_179">
      <g>
       <use xlink:href="#me5b1b06e22" x="107.945108" y="44.94221" style="stroke: #000000; stroke-width: 0.5"/>
      </g>
     </g>
     <g id="line2d_180">
      <g>
       <use xlink:href="#me5b1b06e22" x="475.11" y="44.94221" style="stroke: #000000; stroke-width: 0.5"/>
      </g>
     </g>
    </g>
    <g id="ytick_86">
     <g id="line2d_181">
      <g>
       <use xlink:href="#me5b1b06e22" x="107.945108" y="39.872246" style="stroke: #000000; stroke-width: 0.5"/>
      </g>
     </g>
     <g id="line2d_182">
      <g>
       <use xlink:href="#me5b1b06e22" x="475.11" y="39.872246" style="stroke: #000000; stroke-width: 0.5"/>
      </g>
     </g>
    </g>
    <g id="ytick_87">
     <g id="line2d_183">
      <g>
       <use xlink:href="#me5b1b06e22" x="107.945108" y="35.939677" style="stroke: #000000; stroke-width: 0.5"/>
      </g>
     </g>
     <g id="line2d_184">
      <g>
       <use xlink:href="#me5b1b06e22" x="475.11" y="35.939677" style="stroke: #000000; stroke-width: 0.5"/>
      </g>
     </g>
    </g>
    <g id="ytick_88">
     <g id="line2d_185">
      <g>
       <use xlink:href="#me5b1b06e22" x="107.945108" y="32.726534" style="stroke: #000000; stroke-width: 0.5"/>
      </g>
     </g>
     <g id="line2d_186">
      <g>
       <use xlink:href="#me5b1b06e22" x="475.11" y="32.726534" style="stroke: #000000; stroke-width: 0.5"/>
      </g>
     </g>
    </g>
    <g id="ytick_89">
     <g id="line2d_187">
      <g>
       <use xlink:href="#me5b1b06e22" x="107.945108" y="30.00986" style="stroke: #000000; stroke-width: 0.5"/>
      </g>
     </g>
     <g id="line2d_188">
      <g>
       <use xlink:href="#me5b1b06e22" x="475.11" y="30.00986" style="stroke: #000000; stroke-width: 0.5"/>
      </g>
     </g>
    </g>
    <g id="ytick_90">
     <g id="line2d_189">
      <g>
       <use xlink:href="#me5b1b06e22" x="107.945108" y="27.65657" style="stroke: #000000; stroke-width: 0.5"/>
      </g>
     </g>
     <g id="line2d_190">
      <g>
       <use xlink:href="#me5b1b06e22" x="475.11" y="27.65657" style="stroke: #000000; stroke-width: 0.5"/>
      </g>
     </g>
    </g>
    <g id="ytick_91">
     <g id="line2d_191">
      <g>
       <use xlink:href="#me5b1b06e22" x="107.945108" y="25.580821" style="stroke: #000000; stroke-width: 0.5"/>
      </g>
     </g>
     <g id="line2d_192">
      <g>
       <use xlink:href="#me5b1b06e22" x="475.11" y="25.580821" style="stroke: #000000; stroke-width: 0.5"/>
      </g>
     </g>
    </g>
    <g id="text_18">
     <!-- $(2\pi p_T)^{-1}dN_{DCC}/(dp_Td\eta_p)\ [GeV^{-2}]$ -->
     <g transform="translate(39.195108 425.872) rotate(-90) scale(0.25 -0.25)">
      <defs>
       <path id="DejaVuSans-28" d="M 1984 4856 
Q 1566 4138 1362 3434 
Q 1159 2731 1159 2009 
Q 1159 1288 1364 580 
Q 1569 -128 1984 -844 
L 1484 -844 
Q 1016 -109 783 600 
Q 550 1309 550 2009 
Q 550 2706 781 3412 
Q 1013 4119 1484 4856 
L 1984 4856 
z
" transform="scale(0.015625)"/>
       <path id="DejaVuSans-3c0" d="M 231 3500 
L 3584 3500 
L 3584 2925 
L 3144 2925 
L 3144 775 
Q 3144 550 3220 451 
Q 3297 353 3469 353 
Q 3516 353 3584 361 
Q 3653 369 3675 372 
L 3675 -44 
Q 3566 -84 3450 -103 
Q 3334 -122 3219 -122 
Q 2844 -122 2700 83 
Q 2556 288 2556 838 
L 2556 2925 
L 1266 2925 
L 1266 0 
L 678 0 
L 678 2925 
L 231 2925 
L 231 3500 
z
" transform="scale(0.015625)"/>
       <path id="DejaVuSans-29" d="M 513 4856 
L 1013 4856 
Q 1481 4119 1714 3412 
Q 1947 2706 1947 2009 
Q 1947 1309 1714 600 
Q 1481 -109 1013 -844 
L 513 -844 
Q 928 -128 1133 580 
Q 1338 1288 1338 2009 
Q 1338 2731 1133 3434 
Q 928 4138 513 4856 
z
" transform="scale(0.015625)"/>
       <path id="DejaVuSans-64" d="M 2906 2969 
L 2906 4863 
L 3481 4863 
L 3481 0 
L 2906 0 
L 2906 525 
Q 2725 213 2448 61 
Q 2172 -91 1784 -91 
Q 1150 -91 751 415 
Q 353 922 353 1747 
Q 353 2572 751 3078 
Q 1150 3584 1784 3584 
Q 2172 3584 2448 3432 
Q 2725 3281 2906 2969 
z
M 947 1747 
Q 947 1113 1208 752 
Q 1469 391 1925 391 
Q 2381 391 2643 752 
Q 2906 1113 2906 1747 
Q 2906 2381 2643 2742 
Q 2381 3103 1925 3103 
Q 1469 3103 1208 2742 
Q 947 2381 947 1747 
z
" transform="scale(0.015625)"/>
       <path id="DejaVuSans-4e" d="M 628 4666 
L 1478 4666 
L 3547 763 
L 3547 4666 
L 4159 4666 
L 4159 0 
L 3309 0 
L 1241 3903 
L 1241 0 
L 628 0 
L 628 4666 
z
" transform="scale(0.015625)"/>
       <path id="DejaVuSans-44" d="M 1259 4147 
L 1259 519 
L 2022 519 
Q 2988 519 3436 956 
Q 3884 1394 3884 2338 
Q 3884 3275 3436 3711 
Q 2988 4147 2022 4147 
L 1259 4147 
z
M 628 4666 
L 1925 4666 
Q 3281 4666 3915 4102 
Q 4550 3538 4550 2338 
Q 4550 1131 3912 565 
Q 3275 0 1925 0 
L 628 0 
L 628 4666 
z
" transform="scale(0.015625)"/>
       <path id="DejaVuSans-43" d="M 4122 4306 
L 4122 3641 
Q 3803 3938 3442 4084 
Q 3081 4231 2675 4231 
Q 1875 4231 1450 3742 
Q 1025 3253 1025 2328 
Q 1025 1406 1450 917 
Q 1875 428 2675 428 
Q 3081 428 3442 575 
Q 3803 722 4122 1019 
L 4122 359 
Q 3791 134 3420 21 
Q 3050 -91 2638 -91 
Q 1578 -91 968 557 
Q 359 1206 359 2328 
Q 359 3453 968 4101 
Q 1578 4750 2638 4750 
Q 3056 4750 3426 4639 
Q 3797 4528 4122 4306 
z
" transform="scale(0.015625)"/>
       <path id="DejaVuSans-2f" d="M 1625 4666 
L 2156 4666 
L 531 -594 
L 0 -594 
L 1625 4666 
z
" transform="scale(0.015625)"/>
       <path id="DejaVuSans-3b7" d="M 3513 2113 
L 3513 -1331 
L 2938 -1331 
L 2938 2094 
Q 2938 2591 2744 2837 
Q 2550 3084 2163 3084 
Q 1697 3084 1428 2787 
Q 1159 2491 1159 1978 
L 1159 0 
L 581 0 
L 581 3500 
L 1159 3500 
L 1159 2956 
Q 1366 3272 1644 3428 
Q 1925 3584 2291 3584 
Q 2894 3584 3203 3213 
Q 3513 2838 3513 2113 
z
" transform="scale(0.015625)"/>
      </defs>
      <use xlink:href="#DejaVuSans-28" transform="translate(0 0.765625)"/>
      <use xlink:href="#DejaVuSans-32" transform="translate(39.013672 0.765625)"/>
      <use xlink:href="#DejaVuSans-3c0" transform="translate(102.636719 0.765625)"/>
      <use xlink:href="#DejaVuSans-70" transform="translate(162.841797 0.765625)"/>
      <use xlink:href="#DejaVuSans-54" transform="translate(227.275391 -15.640625) scale(0.7)"/>
      <use xlink:href="#DejaVuSans-29" transform="translate(272.768555 0.765625)"/>
      <use xlink:href="#DejaVuSans-2212" transform="translate(312.739258 39.046875) scale(0.7)"/>
      <use xlink:href="#DejaVuSans-31" transform="translate(371.391602 39.046875) scale(0.7)"/>
      <use xlink:href="#DejaVuSans-64" transform="translate(418.662109 0.765625)"/>
      <use xlink:href="#DejaVuSans-4e" transform="translate(482.138672 0.765625)"/>
      <use xlink:href="#DejaVuSans-44" transform="translate(557.900391 -15.640625) scale(0.7)"/>
      <use xlink:href="#DejaVuSans-43" transform="translate(611.801758 -15.640625) scale(0.7)"/>
      <use xlink:href="#DejaVuSans-43" transform="translate(660.678711 -15.640625) scale(0.7)"/>
      <use xlink:href="#DejaVuSans-2f" transform="translate(712.290039 0.765625)"/>
      <use xlink:href="#DejaVuSans-28" transform="translate(745.981445 0.765625)"/>
      <use xlink:href="#DejaVuSans-64" transform="translate(784.995117 0.765625)"/>
      <use xlink:href="#DejaVuSans-70" transform="translate(848.47168 0.765625)"/>
      <use xlink:href="#DejaVuSans-54" transform="translate(912.905273 -15.640625) scale(0.7)"/>
      <use xlink:href="#DejaVuSans-64" transform="translate(958.398438 0.765625)"/>
      <use xlink:href="#DejaVuSans-3b7" transform="translate(1021.875 0.765625)"/>
      <use xlink:href="#DejaVuSans-70" transform="translate(1086.210938 -15.640625) scale(0.7)"/>
      <use xlink:href="#DejaVuSans-29" transform="translate(1133.378906 0.765625)"/>
      <use xlink:href="#DejaVuSans-5b" transform="translate(1201.656608 0.765625)"/>
      <use xlink:href="#DejaVuSans-47" transform="translate(1240.67028 0.765625)"/>
      <use xlink:href="#DejaVuSans-65" transform="translate(1318.160515 0.765625)"/>
      <use xlink:href="#DejaVuSans-56" transform="translate(1379.683952 0.765625)"/>
      <use xlink:href="#DejaVuSans-2212" transform="translate(1449.049187 39.046875) scale(0.7)"/>
      <use xlink:href="#DejaVuSans-32" transform="translate(1507.70153 39.046875) scale(0.7)"/>
      <use xlink:href="#DejaVuSans-5d" transform="translate(1554.972038 0.765625)"/>
     </g>
    </g>
   </g>
  </g>
 </g>
 <defs>
  <clipPath id="p42277e54b0">
   <rect x="107.945108" y="23.724" width="367.164892" height="405.796"/>
  </clipPath>
 </defs>
</svg>
