<?xml version="1.0" encoding="utf-8" standalone="no"?>
<!DOCTYPE svg PUBLIC "-//W3C//DTD SVG 1.1//EN"
  "http://www.w3.org/Graphics/SVG/1.1/DTD/svg11.dtd">
<svg xmlns:xlink="http://www.w3.org/1999/xlink" width="504pt" height="504pt" viewBox="0 0 504 504" xmlns="http://www.w3.org/2000/svg" version="1.1">
 <metadata>
  <rdf:RDF xmlns:dc="http://purl.org/dc/elements/1.1/" xmlns:cc="http://creativecommons.org/ns#" xmlns:rdf="http://www.w3.org/1999/02/22-rdf-syntax-ns#">
   <cc:Work>
    <dc:type rdf:resource="http://purl.org/dc/dcmitype/StillImage"/>
    <dc:date>2025-01-22T14:04:51.594141</dc:date>
    <dc:format>image/svg+xml</dc:format>
    <dc:creator>
     <cc:Agent>
      <dc:title>Matplotlib v3.9.2, https://matplotlib.org/</dc:title>
     </cc:Agent>
    </dc:creator>
   </cc:Work>
  </rdf:RDF>
 </metadata>
 <defs>
  <style type="text/css">*{stroke-linejoin: round; stroke-linecap: butt}</style>
 </defs>
 <g id="figure_1">
  <g id="patch_1">
   <path d="M 0 504 
L 504 504 
L 504 0 
L 0 0 
z
" style="fill: #ffffff"/>
  </g>
  <g id="axes_1">
   <g id="patch_2">
    <path d="M 107.945108 429.52 
L 475.11 429.52 
L 475.11 23.724 
L 107.945108 23.724 
z
" style="fill: #ffffff"/>
   </g>
   <g id="line2d_1">
    <path d="M 107.945108 53.206174 
L 109.790166 53.637796 
L 111.635207 54.937369 
L 113.480265 57.11586 
L 115.325306 60.177888 
L 117.170364 64.099711 
L 119.015405 68.794196 
L 122.705504 79.609688 
L 124.550562 85.027703 
L 126.395694 90.045584 
L 135.620896 113.0869 
L 137.465899 115.773397 
L 139.310903 116.943522 
L 141.15609 117.728966 
L 143.001094 119.391416 
L 144.846097 122.461331 
L 146.691101 126.42625 
L 148.536288 129.863706 
L 150.381292 131.625425 
L 152.226295 132.334355 
L 154.071299 133.716608 
L 155.916486 136.856501 
L 157.76149 141.351289 
L 159.606493 145.263291 
L 161.451497 146.845708 
L 163.296684 147.106734 
L 165.141688 148.504291 
L 166.986691 152.191377 
L 168.831695 157.004513 
L 170.676882 159.879216 
L 172.521885 159.63738 
L 174.366889 159.093515 
L 176.211893 160.888059 
L 178.05708 164.95537 
L 179.902083 168.411083 
L 181.747087 168.487432 
L 183.592091 167.118036 
L 185.437278 167.8547 
L 187.282281 171.761337 
L 189.127285 176.703516 
L 190.972288 178.703227 
L 192.817476 177.86044 
L 194.662479 178.402207 
L 196.507483 182.615842 
L 198.352486 188.747064 
L 200.197674 191.283719 
L 202.042677 189.142581 
L 203.887681 188.001699 
L 205.732684 190.885082 
L 207.577871 195.770236 
L 209.422875 196.879755 
L 211.267879 193.712195 
L 213.112882 192.165643 
L 214.958069 195.20763 
L 216.803073 201.200322 
L 218.648077 204.265969 
L 220.49308 202.463115 
L 222.338267 201.878879 
L 224.183271 206.391974 
L 226.028274 214.193164 
L 227.873278 216.732847 
L 229.718465 212.313387 
L 231.563469 210.057038 
L 233.408472 213.430614 
L 235.253476 218.840543 
L 237.098663 218.112594 
L 238.943667 213.130064 
L 240.78867 211.881125 
L 242.633674 216.733269 
L 244.478861 224.341082 
L 246.323865 225.984103 
L 248.168868 222.598596 
L 250.013872 223.202882 
L 251.859059 230.647481 
L 253.704063 238.876995 
L 255.549066 235.323439 
L 257.39407 228.370903 
L 259.239257 227.88367 
L 261.08426 233.5461 
L 262.929264 237.167578 
L 264.774268 232.29535 
L 266.619455 227.973502 
L 268.464458 230.564148 
L 270.309462 239.908515 
L 272.154466 247.30925 
L 273.999653 243.681797 
L 275.844656 240.64341 
L 277.68966 245.930648 
L 279.534663 256.611986 
L 281.379851 254.843162 
L 283.224854 244.077726 
L 285.069858 240.198355 
L 286.914861 244.77337 
L 288.760049 251.646532 
L 290.605052 249.118606 
L 292.450974 243.096071 
L 294.295977 243.904467 
L 296.140981 253.955266 
L 297.985984 267.069163 
L 299.830988 263.828549 
L 301.675992 256.468406 
L 303.520995 258.881589 
L 305.365999 269.663366 
L 307.211002 269.542772 
L 309.056006 256.497543 
L 310.901009 250.428744 
L 312.746013 254.292198 
L 314.591017 264.322303 
L 316.43602 266.244088 
L 318.281024 259.298041 
L 320.126027 258.616986 
L 321.971031 269.415918 
L 323.816035 288.14648 
L 325.661038 282.18475 
L 327.506042 269.011745 
L 329.351045 268.324808 
L 331.196049 277.526109 
L 333.041052 278.817173 
L 334.886056 266.041009 
L 336.73106 259.239765 
L 338.576063 262.963684 
L 340.421067 275.844702 
L 342.26607 283.847016 
L 344.111074 276.304857 
L 345.956078 274.056969 
L 347.801081 285.639695 
L 349.646085 308.184489 
L 351.491088 293.799872 
L 353.336092 276.805976 
L 355.181095 274.714445 
L 357.026099 283.497497 
L 358.871103 287.667066 
L 360.716106 276.420939 
L 362.56111 269.650158 
L 364.406113 274.160047 
L 366.252953 291.059383 
L 368.097956 305.626435 
L 369.94296 293.203223 
L 371.787964 288.177975 
L 373.632967 299.573735 
L 375.477971 317.095248 
L 377.322974 295.759894 
L 379.167978 279.842989 
L 381.012981 278.267731 
L 384.702989 297.765786 
L 386.547992 289.09821 
L 388.392996 282.316719 
L 390.237999 288.271318 
L 392.083003 312.101852 
L 393.928007 333.311327 
L 395.77301 305.36735 
L 397.618014 297.299362 
L 401.308021 317.191832 
L 403.153024 297.044711 
L 404.998028 283.44557 
L 406.843032 283.140393 
L 408.688035 295.342946 
L 410.533039 312.030157 
L 412.378042 304.90466 
L 414.223046 296.956865 
L 416.06805 304.763804 
L 417.913053 338.802352 
L 419.758057 338.475486 
L 421.60306 305.284741 
L 423.448064 298.084799 
L 425.293067 306.905827 
L 427.138071 317.748254 
L 428.983075 302.9862 
L 430.828078 291.008905 
L 432.673082 292.14563 
L 434.518085 308.348465 
L 436.363089 339.167618 
L 440.054932 313.530048 
L 441.899936 323.631114 
L 443.744939 360.953552 
L 445.589943 324.904381 
L 447.434946 301.241574 
L 449.27995 296.768007 
L 451.124953 306.331566 
L 452.969957 321.348064 
L 454.814961 312.535687 
L 456.659964 301.562473 
L 458.504968 304.374942 
L 460.349971 326.583199 
L 462.194975 390.706874 
L 464.039979 335.254992 
L 465.884982 320.514125 
L 467.729986 330.542436 
L 469.574989 349.534827 
L 471.419993 320.150871 
L 473.264996 302.155374 
L 475.11 299.965471 
L 475.11 299.965471 
" clip-path="url(#p580d481a5c)" style="fill: none; stroke: #ff0000; stroke-width: 2; stroke-linecap: square"/>
   </g>
   <g id="line2d_2">
    <path d="M 107.945108 69.839983 
L 109.790166 70.506914 
L 111.635207 72.530262 
L 113.480265 75.978458 
L 115.325306 80.964616 
L 117.170364 87.628609 
L 119.015405 96.050617 
L 122.705504 115.889445 
L 124.550562 122.544659 
L 126.395694 123.53233 
L 128.240698 121.282498 
L 130.085702 119.314624 
L 131.930705 119.06329 
L 133.775892 120.365763 
L 135.620896 122.177619 
L 137.465899 123.306313 
L 141.15609 123.678611 
L 143.001094 125.031805 
L 144.846097 127.999355 
L 146.691101 131.900907 
L 148.536288 135.034804 
L 150.381292 136.160159 
L 152.226295 136.206095 
L 154.071299 137.162554 
L 155.916486 140.10402 
L 157.76149 144.464983 
L 159.606493 148.129195 
L 161.451497 149.399159 
L 163.296684 149.522431 
L 165.141688 150.987214 
L 166.986691 154.778056 
L 168.831695 159.477374 
L 170.676882 161.950357 
L 174.366889 160.983224 
L 176.211893 162.991806 
L 178.05708 167.09291 
L 179.902083 170.229566 
L 181.747087 170.036929 
L 183.592091 168.83895 
L 185.437278 169.984988 
L 187.282281 174.213726 
L 189.127285 179.087259 
L 190.972288 180.75796 
L 192.817476 179.948092 
L 194.662479 180.898106 
L 196.507483 185.520394 
L 198.352486 191.573205 
L 200.197674 193.472902 
L 202.042677 191.137728 
L 203.887681 190.357594 
L 205.732684 193.629661 
L 207.577871 198.436351 
L 209.422875 199.046902 
L 211.267879 195.8803 
L 213.112882 194.818257 
L 214.958069 198.399245 
L 216.803073 204.573527 
L 218.648077 207.27804 
L 220.49308 205.389755 
L 222.338267 205.253297 
L 224.183271 210.338094 
L 226.028274 218.188327 
L 227.873278 219.832437 
L 229.718465 215.128225 
L 231.563469 213.311587 
L 233.408472 217.141312 
L 235.253476 222.37129 
L 237.098663 220.995322 
L 238.943667 216.120601 
L 240.78867 215.476777 
L 242.633674 220.978435 
L 244.478861 228.731074 
L 246.323865 229.783362 
L 248.168868 226.374028 
L 250.013872 227.580405 
L 253.704063 243.557706 
L 255.549066 238.751285 
L 257.39407 231.877674 
L 259.239257 231.993782 
L 261.08426 238.093121 
L 262.929264 241.214186 
L 264.774268 235.84297 
L 266.619455 231.86065 
L 268.464458 235.159278 
L 270.309462 245.214181 
L 272.154466 252.264451 
L 273.999653 247.866192 
L 275.844656 245.087034 
L 277.68966 251.097204 
L 279.534663 261.958813 
L 281.379851 258.635728 
L 283.224854 247.663378 
L 285.069858 244.350614 
L 286.914861 249.596877 
L 288.760049 256.638216 
L 290.605052 253.560388 
L 292.450974 247.626421 
L 294.295977 249.081876 
L 296.140981 260.176342 
L 297.985984 273.725912 
L 299.830988 268.872903 
L 301.675992 261.366471 
L 303.520995 264.451845 
L 305.365999 275.586938 
L 307.211002 273.515714 
L 309.056006 260.019477 
L 310.901009 254.518309 
L 312.746013 259.105764 
L 314.591017 269.606087 
L 316.43602 270.893419 
L 318.281024 263.774709 
L 320.126027 263.694193 
L 321.971031 275.706035 
L 323.816035 295.72359 
L 325.661038 287.158897 
L 327.506042 273.729651 
L 329.351045 273.762389 
L 331.196049 283.763227 
L 333.041052 283.919811 
L 334.886056 270.373181 
L 336.73106 263.950654 
L 338.576063 268.461405 
L 340.421067 282.438434 
L 342.26607 290.08581 
L 344.111074 281.500859 
L 345.956078 279.614133 
L 347.801081 292.5307 
L 349.646085 316.027068 
L 351.491088 297.359935 
L 353.336092 280.626987 
L 355.181095 279.267143 
L 357.026099 288.80498 
L 358.871103 292.610105 
L 360.716106 280.793105 
L 362.56111 274.3102 
L 364.406113 279.530368 
L 366.252953 297.984505 
L 368.097956 313.715034 
L 369.94296 299.399623 
L 371.787964 294.556097 
L 373.632967 307.511308 
L 375.477971 325.025873 
L 377.322974 299.791543 
L 379.167978 284.14187 
L 381.012981 283.24593 
L 382.857985 294.028818 
L 384.702989 303.506505 
L 386.547992 293.792389 
L 388.392996 287.158347 
L 390.237999 293.853122 
L 392.083003 319.751642 
L 393.928007 340.447595 
L 395.77301 309.907109 
L 397.618014 302.452202 
L 399.463017 313.459006 
L 401.308021 323.464806 
L 403.153024 301.520058 
L 404.998028 288.077852 
L 406.843032 288.333079 
L 408.688035 301.614911 
L 410.533039 319.789275 
L 414.223046 303.116175 
L 416.06805 311.997317 
L 417.913053 351.624677 
L 419.758057 341.860909 
L 421.60306 308.98673 
L 423.448064 302.680747 
L 425.293067 312.427453 
L 427.138071 322.912196 
L 428.983075 306.893778 
L 430.828078 295.148044 
L 432.673082 296.790681 
L 434.518085 313.964316 
L 436.363089 347.86455 
L 438.208093 332.212275 
L 440.054932 319.365603 
L 441.899936 330.784341 
L 443.744939 374.413316 
L 445.589943 329.206154 
L 447.434946 305.794482 
L 449.27995 301.927884 
L 451.124953 312.481123 
L 452.969957 328.502682 
L 454.814961 318.076634 
L 456.659964 306.792337 
L 458.504968 310.069195 
L 460.349971 333.864636 
L 462.194975 411.701979 
L 464.039979 339.126717 
L 465.884982 325.31866 
L 467.729986 336.650643 
L 469.574989 355.313415 
L 471.419993 323.692788 
L 473.264996 306.086425 
L 475.11 304.336806 
L 475.11 304.336806 
" clip-path="url(#p580d481a5c)" style="fill: none; stroke: #0000ff; stroke-width: 2; stroke-linecap: square"/>
   </g>
   <g id="line2d_3">
    <path d="M 107.945108 55.628612 
L 109.790166 56.039204 
L 111.635207 57.26925 
L 113.480265 59.313916 
L 115.325306 62.16298 
L 117.170364 65.798072 
L 119.015405 70.187621 
L 120.860463 75.277516 
L 122.705504 80.979219 
L 126.395694 93.584497 
L 130.085702 106.028324 
L 131.930705 111.392925 
L 133.775892 115.913885 
L 135.620896 119.628209 
L 137.465899 122.741444 
L 148.536288 139.5432 
L 154.071299 148.279034 
L 157.76149 153.726293 
L 163.296684 161.359167 
L 170.676882 171.022713 
L 176.211893 177.952482 
L 181.747087 184.560616 
L 189.127285 192.926304 
L 196.507483 200.891525 
L 202.042677 206.559074 
L 207.577871 211.945528 
L 214.958069 218.77642 
L 222.338267 225.305353 
L 229.718465 231.541512 
L 237.098663 237.47142 
L 244.478861 243.087696 
L 251.859059 248.414346 
L 268.464458 260.001426 
L 273.999653 263.718863 
L 279.534663 267.169837 
L 285.069858 270.311467 
L 297.985984 277.429354 
L 305.365999 281.958683 
L 310.901009 285.353565 
L 314.591017 287.426115 
L 318.281024 289.266501 
L 321.971031 290.887714 
L 333.041052 295.486875 
L 336.73106 297.305575 
L 342.26607 300.398961 
L 349.646085 304.643 
L 353.336092 306.475738 
L 357.026099 307.988146 
L 360.716106 309.218417 
L 369.94296 312.074233 
L 373.632967 313.545537 
L 377.322974 315.312825 
L 382.857985 318.363571 
L 388.392996 321.35797 
L 392.083003 323.00232 
L 395.77301 324.252436 
L 399.463017 325.170428 
L 406.843032 326.805045 
L 410.533039 327.931337 
L 414.223046 329.41831 
L 417.913053 331.24218 
L 427.138071 336.143211 
L 430.828078 337.636108 
L 434.518085 338.6652 
L 438.208093 339.323286 
L 443.744939 340.139051 
L 447.434946 340.931778 
L 451.124953 342.115403 
L 454.814961 343.716522 
L 458.504968 345.631193 
L 464.039979 348.586065 
L 467.729986 350.195575 
L 469.574989 350.811535 
L 471.419993 351.293041 
L 475.11 351.90288 
L 475.11 351.90288 
" clip-path="url(#p580d481a5c)" style="fill: none; stroke: #008000; stroke-width: 2; stroke-linecap: square"/>
   </g>
   <g id="line2d_4">
    <path d="M 128.139177 83.757652 
L 131.810826 86.637894 
L 135.482475 90.264148 
L 139.154124 94.089325 
L 142.825773 96.838812 
L 149.251158 106.221398 
L 158.43028 116.096039 
L 167.609403 124.961827 
L 176.788525 133.66017 
L 185.967647 142.298972 
L 195.14677 151.966406 
L 204.325892 161.630444 
L 213.505014 170.351343 
L 222.684137 178.259403 
L 231.863259 185.880871 
L 241.042381 196.816705 
L 250.221504 202.869574 
L 259.400626 213.37093 
L 268.579748 218.204293 
L 277.75887 224.567875 
L 286.937993 228.860876 
L 300.706676 246.333199 
L 319.064921 253.208339 
L 337.423165 242.150699 
L 355.78141 243.59896 
L 374.139655 254.683562 
L 392.497899 254.683154 
L 410.856144 255.209756 
L 429.214388 258.711704 
L 447.572633 261.270295 
L 465.930878 263.068817 
L 484.289122 265.513994 
L 502.647367 267.360149 
L 505 267.825067 
" clip-path="url(#p580d481a5c)" style="fill: none; stroke: #000000; stroke-width: 2; stroke-linecap: square"/>
   </g>
   <g id="patch_3">
    <path d="M 107.945108 429.52 
L 107.945108 23.724 
" style="fill: none; stroke: #000000; stroke-width: 2; stroke-linejoin: miter; stroke-linecap: square"/>
   </g>
   <g id="patch_4">
    <path d="M 475.11 429.52 
L 475.11 23.724 
" style="fill: none; stroke: #000000; stroke-width: 2; stroke-linejoin: miter; stroke-linecap: square"/>
   </g>
   <g id="patch_5">
    <path d="M 107.945108 429.52 
L 475.11 429.52 
" style="fill: none; stroke: #000000; stroke-width: 2; stroke-linejoin: miter; stroke-linecap: square"/>
   </g>
   <g id="patch_6">
    <path d="M 107.945108 23.724 
L 475.11 23.724 
" style="fill: none; stroke: #000000; stroke-width: 2; stroke-linejoin: miter; stroke-linecap: square"/>
   </g>
   <g id="matplotlib.axis_1">
    <g id="xtick_1">
     <g id="line2d_5">
      <defs>
       <path id="md1a907033f" d="M 0 5 
L 0 -5 
" style="stroke: #000000; stroke-width: 2"/>
      </defs>
      <g>
       <use xlink:href="#md1a907033f" x="107.945108" y="429.52" style="stroke: #000000; stroke-width: 2"/>
      </g>
     </g>
     <g id="line2d_6">
      <g>
       <use xlink:href="#md1a907033f" x="107.945108" y="23.724" style="stroke: #000000; stroke-width: 2"/>
      </g>
     </g>
     <g id="text_1">
      <!-- 0.0 -->
      <g transform="translate(92.041983 453.716875) scale(0.2 -0.2)">
       <defs>
        <path id="DejaVuSans-30" d="M 2034 4250 
Q 1547 4250 1301 3770 
Q 1056 3291 1056 2328 
Q 1056 1369 1301 889 
Q 1547 409 2034 409 
Q 2525 409 2770 889 
Q 3016 1369 3016 2328 
Q 3016 3291 2770 3770 
Q 2525 4250 2034 4250 
z
M 2034 4750 
Q 2819 4750 3233 4129 
Q 3647 3509 3647 2328 
Q 3647 1150 3233 529 
Q 2819 -91 2034 -91 
Q 1250 -91 836 529 
Q 422 1150 422 2328 
Q 422 3509 836 4129 
Q 1250 4750 2034 4750 
z
" transform="scale(0.015625)"/>
        <path id="DejaVuSans-2e" d="M 684 794 
L 1344 794 
L 1344 0 
L 684 0 
L 684 794 
z
" transform="scale(0.015625)"/>
       </defs>
       <use xlink:href="#DejaVuSans-30"/>
       <use xlink:href="#DejaVuSans-2e" x="63.623047"/>
       <use xlink:href="#DejaVuSans-30" x="95.410156"/>
      </g>
     </g>
    </g>
    <g id="xtick_2">
     <g id="line2d_7">
      <g>
       <use xlink:href="#md1a907033f" x="199.736331" y="429.52" style="stroke: #000000; stroke-width: 2"/>
      </g>
     </g>
     <g id="line2d_8">
      <g>
       <use xlink:href="#md1a907033f" x="199.736331" y="23.724" style="stroke: #000000; stroke-width: 2"/>
      </g>
     </g>
     <g id="text_2">
      <!-- 0.5 -->
      <g transform="translate(183.833206 453.716875) scale(0.2 -0.2)">
       <defs>
        <path id="DejaVuSans-35" d="M 691 4666 
L 3169 4666 
L 3169 4134 
L 1269 4134 
L 1269 2991 
Q 1406 3038 1543 3061 
Q 1681 3084 1819 3084 
Q 2600 3084 3056 2656 
Q 3513 2228 3513 1497 
Q 3513 744 3044 326 
Q 2575 -91 1722 -91 
Q 1428 -91 1123 -41 
Q 819 9 494 109 
L 494 744 
Q 775 591 1075 516 
Q 1375 441 1709 441 
Q 2250 441 2565 725 
Q 2881 1009 2881 1497 
Q 2881 1984 2565 2268 
Q 2250 2553 1709 2553 
Q 1456 2553 1204 2497 
Q 953 2441 691 2322 
L 691 4666 
z
" transform="scale(0.015625)"/>
       </defs>
       <use xlink:href="#DejaVuSans-30"/>
       <use xlink:href="#DejaVuSans-2e" x="63.623047"/>
       <use xlink:href="#DejaVuSans-35" x="95.410156"/>
      </g>
     </g>
    </g>
    <g id="xtick_3">
     <g id="line2d_9">
      <g>
       <use xlink:href="#md1a907033f" x="291.527554" y="429.52" style="stroke: #000000; stroke-width: 2"/>
      </g>
     </g>
     <g id="line2d_10">
      <g>
       <use xlink:href="#md1a907033f" x="291.527554" y="23.724" style="stroke: #000000; stroke-width: 2"/>
      </g>
     </g>
     <g id="text_3">
      <!-- 1.0 -->
      <g transform="translate(275.624429 453.716875) scale(0.2 -0.2)">
       <defs>
        <path id="DejaVuSans-31" d="M 794 531 
L 1825 531 
L 1825 4091 
L 703 3866 
L 703 4441 
L 1819 4666 
L 2450 4666 
L 2450 531 
L 3481 531 
L 3481 0 
L 794 0 
L 794 531 
z
" transform="scale(0.015625)"/>
       </defs>
       <use xlink:href="#DejaVuSans-31"/>
       <use xlink:href="#DejaVuSans-2e" x="63.623047"/>
       <use xlink:href="#DejaVuSans-30" x="95.410156"/>
      </g>
     </g>
    </g>
    <g id="xtick_4">
     <g id="line2d_11">
      <g>
       <use xlink:href="#md1a907033f" x="383.318777" y="429.52" style="stroke: #000000; stroke-width: 2"/>
      </g>
     </g>
     <g id="line2d_12">
      <g>
       <use xlink:href="#md1a907033f" x="383.318777" y="23.724" style="stroke: #000000; stroke-width: 2"/>
      </g>
     </g>
     <g id="text_4">
      <!-- 1.5 -->
      <g transform="translate(367.415652 453.716875) scale(0.2 -0.2)">
       <use xlink:href="#DejaVuSans-31"/>
       <use xlink:href="#DejaVuSans-2e" x="63.623047"/>
       <use xlink:href="#DejaVuSans-35" x="95.410156"/>
      </g>
     </g>
    </g>
    <g id="xtick_5">
     <g id="line2d_13">
      <g>
       <use xlink:href="#md1a907033f" x="475.11" y="429.52" style="stroke: #000000; stroke-width: 2"/>
      </g>
     </g>
     <g id="line2d_14">
      <g>
       <use xlink:href="#md1a907033f" x="475.11" y="23.724" style="stroke: #000000; stroke-width: 2"/>
      </g>
     </g>
     <g id="text_5">
      <!-- 2.0 -->
      <g transform="translate(459.206875 453.716875) scale(0.2 -0.2)">
       <defs>
        <path id="DejaVuSans-32" d="M 1228 531 
L 3431 531 
L 3431 0 
L 469 0 
L 469 531 
Q 828 903 1448 1529 
Q 2069 2156 2228 2338 
Q 2531 2678 2651 2914 
Q 2772 3150 2772 3378 
Q 2772 3750 2511 3984 
Q 2250 4219 1831 4219 
Q 1534 4219 1204 4116 
Q 875 4013 500 3803 
L 500 4441 
Q 881 4594 1212 4672 
Q 1544 4750 1819 4750 
Q 2544 4750 2975 4387 
Q 3406 4025 3406 3419 
Q 3406 3131 3298 2873 
Q 3191 2616 2906 2266 
Q 2828 2175 2409 1742 
Q 1991 1309 1228 531 
z
" transform="scale(0.015625)"/>
       </defs>
       <use xlink:href="#DejaVuSans-32"/>
       <use xlink:href="#DejaVuSans-2e" x="63.623047"/>
       <use xlink:href="#DejaVuSans-30" x="95.410156"/>
      </g>
     </g>
    </g>
    <g id="text_6">
     <!-- $p_T\ [GeV]$ -->
     <g transform="translate(238.402554 481.87625) scale(0.25 -0.25)">
      <defs>
       <path id="DejaVuSans-70" d="M 1159 525 
L 1159 -1331 
L 581 -1331 
L 581 3500 
L 1159 3500 
L 1159 2969 
Q 1341 3281 1617 3432 
Q 1894 3584 2278 3584 
Q 2916 3584 3314 3078 
Q 3713 2572 3713 1747 
Q 3713 922 3314 415 
Q 2916 -91 2278 -91 
Q 1894 -91 1617 61 
Q 1341 213 1159 525 
z
M 3116 1747 
Q 3116 2381 2855 2742 
Q 2594 3103 2138 3103 
Q 1681 3103 1420 2742 
Q 1159 2381 1159 1747 
Q 1159 1113 1420 752 
Q 1681 391 2138 391 
Q 2594 391 2855 752 
Q 3116 1113 3116 1747 
z
" transform="scale(0.015625)"/>
       <path id="DejaVuSans-54" d="M -19 4666 
L 3928 4666 
L 3928 4134 
L 2272 4134 
L 2272 0 
L 1638 0 
L 1638 4134 
L -19 4134 
L -19 4666 
z
" transform="scale(0.015625)"/>
       <path id="DejaVuSans-5b" d="M 550 4863 
L 1875 4863 
L 1875 4416 
L 1125 4416 
L 1125 -397 
L 1875 -397 
L 1875 -844 
L 550 -844 
L 550 4863 
z
" transform="scale(0.015625)"/>
       <path id="DejaVuSans-47" d="M 3809 666 
L 3809 1919 
L 2778 1919 
L 2778 2438 
L 4434 2438 
L 4434 434 
Q 4069 175 3628 42 
Q 3188 -91 2688 -91 
Q 1594 -91 976 548 
Q 359 1188 359 2328 
Q 359 3472 976 4111 
Q 1594 4750 2688 4750 
Q 3144 4750 3555 4637 
Q 3966 4525 4313 4306 
L 4313 3634 
Q 3963 3931 3569 4081 
Q 3175 4231 2741 4231 
Q 1884 4231 1454 3753 
Q 1025 3275 1025 2328 
Q 1025 1384 1454 906 
Q 1884 428 2741 428 
Q 3075 428 3337 486 
Q 3600 544 3809 666 
z
" transform="scale(0.015625)"/>
       <path id="DejaVuSans-65" d="M 3597 1894 
L 3597 1613 
L 953 1613 
Q 991 1019 1311 708 
Q 1631 397 2203 397 
Q 2534 397 2845 478 
Q 3156 559 3463 722 
L 3463 178 
Q 3153 47 2828 -22 
Q 2503 -91 2169 -91 
Q 1331 -91 842 396 
Q 353 884 353 1716 
Q 353 2575 817 3079 
Q 1281 3584 2069 3584 
Q 2775 3584 3186 3129 
Q 3597 2675 3597 1894 
z
M 3022 2063 
Q 3016 2534 2758 2815 
Q 2500 3097 2075 3097 
Q 1594 3097 1305 2825 
Q 1016 2553 972 2059 
L 3022 2063 
z
" transform="scale(0.015625)"/>
       <path id="DejaVuSans-56" d="M 1831 0 
L 50 4666 
L 709 4666 
L 2188 738 
L 3669 4666 
L 4325 4666 
L 2547 0 
L 1831 0 
z
" transform="scale(0.015625)"/>
       <path id="DejaVuSans-5d" d="M 1947 4863 
L 1947 -844 
L 622 -844 
L 622 -397 
L 1369 -397 
L 1369 4416 
L 622 4416 
L 622 4863 
L 1947 4863 
z
" transform="scale(0.015625)"/>
      </defs>
      <use xlink:href="#DejaVuSans-70" transform="translate(0 0.015625)"/>
      <use xlink:href="#DejaVuSans-54" transform="translate(64.433594 -16.390625) scale(0.7)"/>
      <use xlink:href="#DejaVuSans-5b" transform="translate(139.190788 0.015625)"/>
      <use xlink:href="#DejaVuSans-47" transform="translate(178.20446 0.015625)"/>
      <use xlink:href="#DejaVuSans-65" transform="translate(255.694694 0.015625)"/>
      <use xlink:href="#DejaVuSans-56" transform="translate(317.218132 0.015625)"/>
      <use xlink:href="#DejaVuSans-5d" transform="translate(385.626335 0.015625)"/>
     </g>
    </g>
   </g>
   <g id="matplotlib.axis_2">
    <g id="ytick_1">
     <g id="line2d_15">
      <defs>
       <path id="m4a0a2b285d" d="M 5 0 
L -5 -0 
" style="stroke: #000000; stroke-width: 2"/>
      </defs>
      <g>
       <use xlink:href="#m4a0a2b285d" x="107.945108" y="429.52" style="stroke: #000000; stroke-width: 2"/>
      </g>
     </g>
     <g id="line2d_16">
      <g>
       <use xlink:href="#m4a0a2b285d" x="475.11" y="429.52" style="stroke: #000000; stroke-width: 2"/>
      </g>
     </g>
     <g id="text_7">
      <!-- $\mathdefault{10^{-4}}$ -->
      <g transform="translate(51.945108 435.03875) scale(0.2 -0.2)">
       <defs>
        <path id="DejaVuSans-2212" d="M 678 2272 
L 4684 2272 
L 4684 1741 
L 678 1741 
L 678 2272 
z
" transform="scale(0.015625)"/>
        <path id="DejaVuSans-34" d="M 2419 4116 
L 825 1625 
L 2419 1625 
L 2419 4116 
z
M 2253 4666 
L 3047 4666 
L 3047 1625 
L 3713 1625 
L 3713 1100 
L 3047 1100 
L 3047 0 
L 2419 0 
L 2419 1100 
L 313 1100 
L 313 1709 
L 2253 4666 
z
" transform="scale(0.015625)"/>
       </defs>
       <use xlink:href="#DejaVuSans-31" transform="translate(0 0.684375)"/>
       <use xlink:href="#DejaVuSans-30" transform="translate(63.623047 0.684375)"/>
       <use xlink:href="#DejaVuSans-2212" transform="translate(128.203125 38.965625) scale(0.7)"/>
       <use xlink:href="#DejaVuSans-34" transform="translate(186.855469 38.965625) scale(0.7)"/>
      </g>
     </g>
    </g>
    <g id="ytick_2">
     <g id="line2d_17">
      <g>
       <use xlink:href="#m4a0a2b285d" x="107.945108" y="378.7955" style="stroke: #000000; stroke-width: 2"/>
      </g>
     </g>
     <g id="line2d_18">
      <g>
       <use xlink:href="#m4a0a2b285d" x="475.11" y="378.7955" style="stroke: #000000; stroke-width: 2"/>
      </g>
     </g>
     <g id="text_8">
      <!-- $\mathdefault{10^{-3}}$ -->
      <g transform="translate(51.945108 384.31425) scale(0.2 -0.2)">
       <defs>
        <path id="DejaVuSans-33" d="M 2597 2516 
Q 3050 2419 3304 2112 
Q 3559 1806 3559 1356 
Q 3559 666 3084 287 
Q 2609 -91 1734 -91 
Q 1441 -91 1130 -33 
Q 819 25 488 141 
L 488 750 
Q 750 597 1062 519 
Q 1375 441 1716 441 
Q 2309 441 2620 675 
Q 2931 909 2931 1356 
Q 2931 1769 2642 2001 
Q 2353 2234 1838 2234 
L 1294 2234 
L 1294 2753 
L 1863 2753 
Q 2328 2753 2575 2939 
Q 2822 3125 2822 3475 
Q 2822 3834 2567 4026 
Q 2313 4219 1838 4219 
Q 1578 4219 1281 4162 
Q 984 4106 628 3988 
L 628 4550 
Q 988 4650 1302 4700 
Q 1616 4750 1894 4750 
Q 2613 4750 3031 4423 
Q 3450 4097 3450 3541 
Q 3450 3153 3228 2886 
Q 3006 2619 2597 2516 
z
" transform="scale(0.015625)"/>
       </defs>
       <use xlink:href="#DejaVuSans-31" transform="translate(0 0.765625)"/>
       <use xlink:href="#DejaVuSans-30" transform="translate(63.623047 0.765625)"/>
       <use xlink:href="#DejaVuSans-2212" transform="translate(128.203125 39.046875) scale(0.7)"/>
       <use xlink:href="#DejaVuSans-33" transform="translate(186.855469 39.046875) scale(0.7)"/>
      </g>
     </g>
    </g>
    <g id="ytick_3">
     <g id="line2d_19">
      <g>
       <use xlink:href="#m4a0a2b285d" x="107.945108" y="328.071" style="stroke: #000000; stroke-width: 2"/>
      </g>
     </g>
     <g id="line2d_20">
      <g>
       <use xlink:href="#m4a0a2b285d" x="475.11" y="328.071" style="stroke: #000000; stroke-width: 2"/>
      </g>
     </g>
     <g id="text_9">
      <!-- $\mathdefault{10^{-2}}$ -->
      <g transform="translate(51.945108 333.58975) scale(0.2 -0.2)">
       <use xlink:href="#DejaVuSans-31" transform="translate(0 0.765625)"/>
       <use xlink:href="#DejaVuSans-30" transform="translate(63.623047 0.765625)"/>
       <use xlink:href="#DejaVuSans-2212" transform="translate(128.203125 39.046875) scale(0.7)"/>
       <use xlink:href="#DejaVuSans-32" transform="translate(186.855469 39.046875) scale(0.7)"/>
      </g>
     </g>
    </g>
    <g id="ytick_4">
     <g id="line2d_21">
      <g>
       <use xlink:href="#m4a0a2b285d" x="107.945108" y="277.3465" style="stroke: #000000; stroke-width: 2"/>
      </g>
     </g>
     <g id="line2d_22">
      <g>
       <use xlink:href="#m4a0a2b285d" x="475.11" y="277.3465" style="stroke: #000000; stroke-width: 2"/>
      </g>
     </g>
     <g id="text_10">
      <!-- $\mathdefault{10^{-1}}$ -->
      <g transform="translate(51.945108 282.86525) scale(0.2 -0.2)">
       <use xlink:href="#DejaVuSans-31" transform="translate(0 0.684375)"/>
       <use xlink:href="#DejaVuSans-30" transform="translate(63.623047 0.684375)"/>
       <use xlink:href="#DejaVuSans-2212" transform="translate(128.203125 38.965625) scale(0.7)"/>
       <use xlink:href="#DejaVuSans-31" transform="translate(186.855469 38.965625) scale(0.7)"/>
      </g>
     </g>
    </g>
    <g id="ytick_5">
     <g id="line2d_23">
      <g>
       <use xlink:href="#m4a0a2b285d" x="107.945108" y="226.622" style="stroke: #000000; stroke-width: 2"/>
      </g>
     </g>
     <g id="line2d_24">
      <g>
       <use xlink:href="#m4a0a2b285d" x="475.11" y="226.622" style="stroke: #000000; stroke-width: 2"/>
      </g>
     </g>
     <g id="text_11">
      <!-- $\mathdefault{10^{0}}$ -->
      <g transform="translate(63.745108 232.14075) scale(0.2 -0.2)">
       <use xlink:href="#DejaVuSans-31" transform="translate(0 0.765625)"/>
       <use xlink:href="#DejaVuSans-30" transform="translate(63.623047 0.765625)"/>
       <use xlink:href="#DejaVuSans-30" transform="translate(128.203125 39.046875) scale(0.7)"/>
      </g>
     </g>
    </g>
    <g id="ytick_6">
     <g id="line2d_25">
      <g>
       <use xlink:href="#m4a0a2b285d" x="107.945108" y="175.8975" style="stroke: #000000; stroke-width: 2"/>
      </g>
     </g>
     <g id="line2d_26">
      <g>
       <use xlink:href="#m4a0a2b285d" x="475.11" y="175.8975" style="stroke: #000000; stroke-width: 2"/>
      </g>
     </g>
     <g id="text_12">
      <!-- $\mathdefault{10^{1}}$ -->
      <g transform="translate(63.745108 181.41625) scale(0.2 -0.2)">
       <use xlink:href="#DejaVuSans-31" transform="translate(0 0.684375)"/>
       <use xlink:href="#DejaVuSans-30" transform="translate(63.623047 0.684375)"/>
       <use xlink:href="#DejaVuSans-31" transform="translate(128.203125 38.965625) scale(0.7)"/>
      </g>
     </g>
    </g>
    <g id="ytick_7">
     <g id="line2d_27">
      <g>
       <use xlink:href="#m4a0a2b285d" x="107.945108" y="125.173" style="stroke: #000000; stroke-width: 2"/>
      </g>
     </g>
     <g id="line2d_28">
      <g>
       <use xlink:href="#m4a0a2b285d" x="475.11" y="125.173" style="stroke: #000000; stroke-width: 2"/>
      </g>
     </g>
     <g id="text_13">
      <!-- $\mathdefault{10^{2}}$ -->
      <g transform="translate(63.745108 130.69175) scale(0.2 -0.2)">
       <use xlink:href="#DejaVuSans-31" transform="translate(0 0.765625)"/>
       <use xlink:href="#DejaVuSans-30" transform="translate(63.623047 0.765625)"/>
       <use xlink:href="#DejaVuSans-32" transform="translate(128.203125 39.046875) scale(0.7)"/>
      </g>
     </g>
    </g>
    <g id="ytick_8">
     <g id="line2d_29">
      <g>
       <use xlink:href="#m4a0a2b285d" x="107.945108" y="74.4485" style="stroke: #000000; stroke-width: 2"/>
      </g>
     </g>
     <g id="line2d_30">
      <g>
       <use xlink:href="#m4a0a2b285d" x="475.11" y="74.4485" style="stroke: #000000; stroke-width: 2"/>
      </g>
     </g>
     <g id="text_14">
      <!-- $\mathdefault{10^{3}}$ -->
      <g transform="translate(63.745108 79.96725) scale(0.2 -0.2)">
       <use xlink:href="#DejaVuSans-31" transform="translate(0 0.765625)"/>
       <use xlink:href="#DejaVuSans-30" transform="translate(63.623047 0.765625)"/>
       <use xlink:href="#DejaVuSans-33" transform="translate(128.203125 39.046875) scale(0.7)"/>
      </g>
     </g>
    </g>
    <g id="ytick_9">
     <g id="line2d_31">
      <g>
       <use xlink:href="#m4a0a2b285d" x="107.945108" y="23.724" style="stroke: #000000; stroke-width: 2"/>
      </g>
     </g>
     <g id="line2d_32">
      <g>
       <use xlink:href="#m4a0a2b285d" x="475.11" y="23.724" style="stroke: #000000; stroke-width: 2"/>
      </g>
     </g>
     <g id="text_15">
      <!-- $\mathdefault{10^{4}}$ -->
      <g transform="translate(63.745108 29.24275) scale(0.2 -0.2)">
       <use xlink:href="#DejaVuSans-31" transform="translate(0 0.684375)"/>
       <use xlink:href="#DejaVuSans-30" transform="translate(63.623047 0.684375)"/>
       <use xlink:href="#DejaVuSans-34" transform="translate(128.203125 38.965625) scale(0.7)"/>
      </g>
     </g>
    </g>
    <g id="ytick_10">
     <g id="line2d_33">
      <defs>
       <path id="m213ef10b09" d="M 1 0 
L -1 -0 
" style="stroke: #000000; stroke-width: 0.5"/>
      </defs>
      <g>
       <use xlink:href="#m213ef10b09" x="107.945108" y="414.250404" style="stroke: #000000; stroke-width: 0.5"/>
      </g>
     </g>
     <g id="line2d_34">
      <g>
       <use xlink:href="#m213ef10b09" x="475.11" y="414.250404" style="stroke: #000000; stroke-width: 0.5"/>
      </g>
     </g>
    </g>
    <g id="ytick_11">
     <g id="line2d_35">
      <g>
       <use xlink:href="#m213ef10b09" x="107.945108" y="405.318263" style="stroke: #000000; stroke-width: 0.5"/>
      </g>
     </g>
     <g id="line2d_36">
      <g>
       <use xlink:href="#m213ef10b09" x="475.11" y="405.318263" style="stroke: #000000; stroke-width: 0.5"/>
      </g>
     </g>
    </g>
    <g id="ytick_12">
     <g id="line2d_37">
      <g>
       <use xlink:href="#m213ef10b09" x="107.945108" y="398.980808" style="stroke: #000000; stroke-width: 0.5"/>
      </g>
     </g>
     <g id="line2d_38">
      <g>
       <use xlink:href="#m213ef10b09" x="475.11" y="398.980808" style="stroke: #000000; stroke-width: 0.5"/>
      </g>
     </g>
    </g>
    <g id="ytick_13">
     <g id="line2d_39">
      <g>
       <use xlink:href="#m213ef10b09" x="107.945108" y="394.065096" style="stroke: #000000; stroke-width: 0.5"/>
      </g>
     </g>
     <g id="line2d_40">
      <g>
       <use xlink:href="#m213ef10b09" x="475.11" y="394.065096" style="stroke: #000000; stroke-width: 0.5"/>
      </g>
     </g>
    </g>
    <g id="ytick_14">
     <g id="line2d_41">
      <g>
       <use xlink:href="#m213ef10b09" x="107.945108" y="390.048667" style="stroke: #000000; stroke-width: 0.5"/>
      </g>
     </g>
     <g id="line2d_42">
      <g>
       <use xlink:href="#m213ef10b09" x="475.11" y="390.048667" style="stroke: #000000; stroke-width: 0.5"/>
      </g>
     </g>
    </g>
    <g id="ytick_15">
     <g id="line2d_43">
      <g>
       <use xlink:href="#m213ef10b09" x="107.945108" y="386.652824" style="stroke: #000000; stroke-width: 0.5"/>
      </g>
     </g>
     <g id="line2d_44">
      <g>
       <use xlink:href="#m213ef10b09" x="475.11" y="386.652824" style="stroke: #000000; stroke-width: 0.5"/>
      </g>
     </g>
    </g>
    <g id="ytick_16">
     <g id="line2d_45">
      <g>
       <use xlink:href="#m213ef10b09" x="107.945108" y="383.711212" style="stroke: #000000; stroke-width: 0.5"/>
      </g>
     </g>
     <g id="line2d_46">
      <g>
       <use xlink:href="#m213ef10b09" x="475.11" y="383.711212" style="stroke: #000000; stroke-width: 0.5"/>
      </g>
     </g>
    </g>
    <g id="ytick_17">
     <g id="line2d_47">
      <g>
       <use xlink:href="#m213ef10b09" x="107.945108" y="381.116526" style="stroke: #000000; stroke-width: 0.5"/>
      </g>
     </g>
     <g id="line2d_48">
      <g>
       <use xlink:href="#m213ef10b09" x="475.11" y="381.116526" style="stroke: #000000; stroke-width: 0.5"/>
      </g>
     </g>
    </g>
    <g id="ytick_18">
     <g id="line2d_49">
      <g>
       <use xlink:href="#m213ef10b09" x="107.945108" y="363.525904" style="stroke: #000000; stroke-width: 0.5"/>
      </g>
     </g>
     <g id="line2d_50">
      <g>
       <use xlink:href="#m213ef10b09" x="475.11" y="363.525904" style="stroke: #000000; stroke-width: 0.5"/>
      </g>
     </g>
    </g>
    <g id="ytick_19">
     <g id="line2d_51">
      <g>
       <use xlink:href="#m213ef10b09" x="107.945108" y="354.593763" style="stroke: #000000; stroke-width: 0.5"/>
      </g>
     </g>
     <g id="line2d_52">
      <g>
       <use xlink:href="#m213ef10b09" x="475.11" y="354.593763" style="stroke: #000000; stroke-width: 0.5"/>
      </g>
     </g>
    </g>
    <g id="ytick_20">
     <g id="line2d_53">
      <g>
       <use xlink:href="#m213ef10b09" x="107.945108" y="348.256308" style="stroke: #000000; stroke-width: 0.5"/>
      </g>
     </g>
     <g id="line2d_54">
      <g>
       <use xlink:href="#m213ef10b09" x="475.11" y="348.256308" style="stroke: #000000; stroke-width: 0.5"/>
      </g>
     </g>
    </g>
    <g id="ytick_21">
     <g id="line2d_55">
      <g>
       <use xlink:href="#m213ef10b09" x="107.945108" y="343.340596" style="stroke: #000000; stroke-width: 0.5"/>
      </g>
     </g>
     <g id="line2d_56">
      <g>
       <use xlink:href="#m213ef10b09" x="475.11" y="343.340596" style="stroke: #000000; stroke-width: 0.5"/>
      </g>
     </g>
    </g>
    <g id="ytick_22">
     <g id="line2d_57">
      <g>
       <use xlink:href="#m213ef10b09" x="107.945108" y="339.324167" style="stroke: #000000; stroke-width: 0.5"/>
      </g>
     </g>
     <g id="line2d_58">
      <g>
       <use xlink:href="#m213ef10b09" x="475.11" y="339.324167" style="stroke: #000000; stroke-width: 0.5"/>
      </g>
     </g>
    </g>
    <g id="ytick_23">
     <g id="line2d_59">
      <g>
       <use xlink:href="#m213ef10b09" x="107.945108" y="335.928324" style="stroke: #000000; stroke-width: 0.5"/>
      </g>
     </g>
     <g id="line2d_60">
      <g>
       <use xlink:href="#m213ef10b09" x="475.11" y="335.928324" style="stroke: #000000; stroke-width: 0.5"/>
      </g>
     </g>
    </g>
    <g id="ytick_24">
     <g id="line2d_61">
      <g>
       <use xlink:href="#m213ef10b09" x="107.945108" y="332.986712" style="stroke: #000000; stroke-width: 0.5"/>
      </g>
     </g>
     <g id="line2d_62">
      <g>
       <use xlink:href="#m213ef10b09" x="475.11" y="332.986712" style="stroke: #000000; stroke-width: 0.5"/>
      </g>
     </g>
    </g>
    <g id="ytick_25">
     <g id="line2d_63">
      <g>
       <use xlink:href="#m213ef10b09" x="107.945108" y="330.392026" style="stroke: #000000; stroke-width: 0.5"/>
      </g>
     </g>
     <g id="line2d_64">
      <g>
       <use xlink:href="#m213ef10b09" x="475.11" y="330.392026" style="stroke: #000000; stroke-width: 0.5"/>
      </g>
     </g>
    </g>
    <g id="ytick_26">
     <g id="line2d_65">
      <g>
       <use xlink:href="#m213ef10b09" x="107.945108" y="312.801404" style="stroke: #000000; stroke-width: 0.5"/>
      </g>
     </g>
     <g id="line2d_66">
      <g>
       <use xlink:href="#m213ef10b09" x="475.11" y="312.801404" style="stroke: #000000; stroke-width: 0.5"/>
      </g>
     </g>
    </g>
    <g id="ytick_27">
     <g id="line2d_67">
      <g>
       <use xlink:href="#m213ef10b09" x="107.945108" y="303.869263" style="stroke: #000000; stroke-width: 0.5"/>
      </g>
     </g>
     <g id="line2d_68">
      <g>
       <use xlink:href="#m213ef10b09" x="475.11" y="303.869263" style="stroke: #000000; stroke-width: 0.5"/>
      </g>
     </g>
    </g>
    <g id="ytick_28">
     <g id="line2d_69">
      <g>
       <use xlink:href="#m213ef10b09" x="107.945108" y="297.531808" style="stroke: #000000; stroke-width: 0.5"/>
      </g>
     </g>
     <g id="line2d_70">
      <g>
       <use xlink:href="#m213ef10b09" x="475.11" y="297.531808" style="stroke: #000000; stroke-width: 0.5"/>
      </g>
     </g>
    </g>
    <g id="ytick_29">
     <g id="line2d_71">
      <g>
       <use xlink:href="#m213ef10b09" x="107.945108" y="292.616096" style="stroke: #000000; stroke-width: 0.5"/>
      </g>
     </g>
     <g id="line2d_72">
      <g>
       <use xlink:href="#m213ef10b09" x="475.11" y="292.616096" style="stroke: #000000; stroke-width: 0.5"/>
      </g>
     </g>
    </g>
    <g id="ytick_30">
     <g id="line2d_73">
      <g>
       <use xlink:href="#m213ef10b09" x="107.945108" y="288.599667" style="stroke: #000000; stroke-width: 0.5"/>
      </g>
     </g>
     <g id="line2d_74">
      <g>
       <use xlink:href="#m213ef10b09" x="475.11" y="288.599667" style="stroke: #000000; stroke-width: 0.5"/>
      </g>
     </g>
    </g>
    <g id="ytick_31">
     <g id="line2d_75">
      <g>
       <use xlink:href="#m213ef10b09" x="107.945108" y="285.203824" style="stroke: #000000; stroke-width: 0.5"/>
      </g>
     </g>
     <g id="line2d_76">
      <g>
       <use xlink:href="#m213ef10b09" x="475.11" y="285.203824" style="stroke: #000000; stroke-width: 0.5"/>
      </g>
     </g>
    </g>
    <g id="ytick_32">
     <g id="line2d_77">
      <g>
       <use xlink:href="#m213ef10b09" x="107.945108" y="282.262212" style="stroke: #000000; stroke-width: 0.5"/>
      </g>
     </g>
     <g id="line2d_78">
      <g>
       <use xlink:href="#m213ef10b09" x="475.11" y="282.262212" style="stroke: #000000; stroke-width: 0.5"/>
      </g>
     </g>
    </g>
    <g id="ytick_33">
     <g id="line2d_79">
      <g>
       <use xlink:href="#m213ef10b09" x="107.945108" y="279.667526" style="stroke: #000000; stroke-width: 0.5"/>
      </g>
     </g>
     <g id="line2d_80">
      <g>
       <use xlink:href="#m213ef10b09" x="475.11" y="279.667526" style="stroke: #000000; stroke-width: 0.5"/>
      </g>
     </g>
    </g>
    <g id="ytick_34">
     <g id="line2d_81">
      <g>
       <use xlink:href="#m213ef10b09" x="107.945108" y="262.076904" style="stroke: #000000; stroke-width: 0.5"/>
      </g>
     </g>
     <g id="line2d_82">
      <g>
       <use xlink:href="#m213ef10b09" x="475.11" y="262.076904" style="stroke: #000000; stroke-width: 0.5"/>
      </g>
     </g>
    </g>
    <g id="ytick_35">
     <g id="line2d_83">
      <g>
       <use xlink:href="#m213ef10b09" x="107.945108" y="253.144763" style="stroke: #000000; stroke-width: 0.5"/>
      </g>
     </g>
     <g id="line2d_84">
      <g>
       <use xlink:href="#m213ef10b09" x="475.11" y="253.144763" style="stroke: #000000; stroke-width: 0.5"/>
      </g>
     </g>
    </g>
    <g id="ytick_36">
     <g id="line2d_85">
      <g>
       <use xlink:href="#m213ef10b09" x="107.945108" y="246.807308" style="stroke: #000000; stroke-width: 0.5"/>
      </g>
     </g>
     <g id="line2d_86">
      <g>
       <use xlink:href="#m213ef10b09" x="475.11" y="246.807308" style="stroke: #000000; stroke-width: 0.5"/>
      </g>
     </g>
    </g>
    <g id="ytick_37">
     <g id="line2d_87">
      <g>
       <use xlink:href="#m213ef10b09" x="107.945108" y="241.891596" style="stroke: #000000; stroke-width: 0.5"/>
      </g>
     </g>
     <g id="line2d_88">
      <g>
       <use xlink:href="#m213ef10b09" x="475.11" y="241.891596" style="stroke: #000000; stroke-width: 0.5"/>
      </g>
     </g>
    </g>
    <g id="ytick_38">
     <g id="line2d_89">
      <g>
       <use xlink:href="#m213ef10b09" x="107.945108" y="237.875167" style="stroke: #000000; stroke-width: 0.5"/>
      </g>
     </g>
     <g id="line2d_90">
      <g>
       <use xlink:href="#m213ef10b09" x="475.11" y="237.875167" style="stroke: #000000; stroke-width: 0.5"/>
      </g>
     </g>
    </g>
    <g id="ytick_39">
     <g id="line2d_91">
      <g>
       <use xlink:href="#m213ef10b09" x="107.945108" y="234.479324" style="stroke: #000000; stroke-width: 0.5"/>
      </g>
     </g>
     <g id="line2d_92">
      <g>
       <use xlink:href="#m213ef10b09" x="475.11" y="234.479324" style="stroke: #000000; stroke-width: 0.5"/>
      </g>
     </g>
    </g>
    <g id="ytick_40">
     <g id="line2d_93">
      <g>
       <use xlink:href="#m213ef10b09" x="107.945108" y="231.537712" style="stroke: #000000; stroke-width: 0.5"/>
      </g>
     </g>
     <g id="line2d_94">
      <g>
       <use xlink:href="#m213ef10b09" x="475.11" y="231.537712" style="stroke: #000000; stroke-width: 0.5"/>
      </g>
     </g>
    </g>
    <g id="ytick_41">
     <g id="line2d_95">
      <g>
       <use xlink:href="#m213ef10b09" x="107.945108" y="228.943026" style="stroke: #000000; stroke-width: 0.5"/>
      </g>
     </g>
     <g id="line2d_96">
      <g>
       <use xlink:href="#m213ef10b09" x="475.11" y="228.943026" style="stroke: #000000; stroke-width: 0.5"/>
      </g>
     </g>
    </g>
    <g id="ytick_42">
     <g id="line2d_97">
      <g>
       <use xlink:href="#m213ef10b09" x="107.945108" y="211.352404" style="stroke: #000000; stroke-width: 0.5"/>
      </g>
     </g>
     <g id="line2d_98">
      <g>
       <use xlink:href="#m213ef10b09" x="475.11" y="211.352404" style="stroke: #000000; stroke-width: 0.5"/>
      </g>
     </g>
    </g>
    <g id="ytick_43">
     <g id="line2d_99">
      <g>
       <use xlink:href="#m213ef10b09" x="107.945108" y="202.420263" style="stroke: #000000; stroke-width: 0.5"/>
      </g>
     </g>
     <g id="line2d_100">
      <g>
       <use xlink:href="#m213ef10b09" x="475.11" y="202.420263" style="stroke: #000000; stroke-width: 0.5"/>
      </g>
     </g>
    </g>
    <g id="ytick_44">
     <g id="line2d_101">
      <g>
       <use xlink:href="#m213ef10b09" x="107.945108" y="196.082808" style="stroke: #000000; stroke-width: 0.5"/>
      </g>
     </g>
     <g id="line2d_102">
      <g>
       <use xlink:href="#m213ef10b09" x="475.11" y="196.082808" style="stroke: #000000; stroke-width: 0.5"/>
      </g>
     </g>
    </g>
    <g id="ytick_45">
     <g id="line2d_103">
      <g>
       <use xlink:href="#m213ef10b09" x="107.945108" y="191.167096" style="stroke: #000000; stroke-width: 0.5"/>
      </g>
     </g>
     <g id="line2d_104">
      <g>
       <use xlink:href="#m213ef10b09" x="475.11" y="191.167096" style="stroke: #000000; stroke-width: 0.5"/>
      </g>
     </g>
    </g>
    <g id="ytick_46">
     <g id="line2d_105">
      <g>
       <use xlink:href="#m213ef10b09" x="107.945108" y="187.150667" style="stroke: #000000; stroke-width: 0.5"/>
      </g>
     </g>
     <g id="line2d_106">
      <g>
       <use xlink:href="#m213ef10b09" x="475.11" y="187.150667" style="stroke: #000000; stroke-width: 0.5"/>
      </g>
     </g>
    </g>
    <g id="ytick_47">
     <g id="line2d_107">
      <g>
       <use xlink:href="#m213ef10b09" x="107.945108" y="183.754824" style="stroke: #000000; stroke-width: 0.5"/>
      </g>
     </g>
     <g id="line2d_108">
      <g>
       <use xlink:href="#m213ef10b09" x="475.11" y="183.754824" style="stroke: #000000; stroke-width: 0.5"/>
      </g>
     </g>
    </g>
    <g id="ytick_48">
     <g id="line2d_109">
      <g>
       <use xlink:href="#m213ef10b09" x="107.945108" y="180.813212" style="stroke: #000000; stroke-width: 0.5"/>
      </g>
     </g>
     <g id="line2d_110">
      <g>
       <use xlink:href="#m213ef10b09" x="475.11" y="180.813212" style="stroke: #000000; stroke-width: 0.5"/>
      </g>
     </g>
    </g>
    <g id="ytick_49">
     <g id="line2d_111">
      <g>
       <use xlink:href="#m213ef10b09" x="107.945108" y="178.218526" style="stroke: #000000; stroke-width: 0.5"/>
      </g>
     </g>
     <g id="line2d_112">
      <g>
       <use xlink:href="#m213ef10b09" x="475.11" y="178.218526" style="stroke: #000000; stroke-width: 0.5"/>
      </g>
     </g>
    </g>
    <g id="ytick_50">
     <g id="line2d_113">
      <g>
       <use xlink:href="#m213ef10b09" x="107.945108" y="160.627904" style="stroke: #000000; stroke-width: 0.5"/>
      </g>
     </g>
     <g id="line2d_114">
      <g>
       <use xlink:href="#m213ef10b09" x="475.11" y="160.627904" style="stroke: #000000; stroke-width: 0.5"/>
      </g>
     </g>
    </g>
    <g id="ytick_51">
     <g id="line2d_115">
      <g>
       <use xlink:href="#m213ef10b09" x="107.945108" y="151.695763" style="stroke: #000000; stroke-width: 0.5"/>
      </g>
     </g>
     <g id="line2d_116">
      <g>
       <use xlink:href="#m213ef10b09" x="475.11" y="151.695763" style="stroke: #000000; stroke-width: 0.5"/>
      </g>
     </g>
    </g>
    <g id="ytick_52">
     <g id="line2d_117">
      <g>
       <use xlink:href="#m213ef10b09" x="107.945108" y="145.358308" style="stroke: #000000; stroke-width: 0.5"/>
      </g>
     </g>
     <g id="line2d_118">
      <g>
       <use xlink:href="#m213ef10b09" x="475.11" y="145.358308" style="stroke: #000000; stroke-width: 0.5"/>
      </g>
     </g>
    </g>
    <g id="ytick_53">
     <g id="line2d_119">
      <g>
       <use xlink:href="#m213ef10b09" x="107.945108" y="140.442596" style="stroke: #000000; stroke-width: 0.5"/>
      </g>
     </g>
     <g id="line2d_120">
      <g>
       <use xlink:href="#m213ef10b09" x="475.11" y="140.442596" style="stroke: #000000; stroke-width: 0.5"/>
      </g>
     </g>
    </g>
    <g id="ytick_54">
     <g id="line2d_121">
      <g>
       <use xlink:href="#m213ef10b09" x="107.945108" y="136.426167" style="stroke: #000000; stroke-width: 0.5"/>
      </g>
     </g>
     <g id="line2d_122">
      <g>
       <use xlink:href="#m213ef10b09" x="475.11" y="136.426167" style="stroke: #000000; stroke-width: 0.5"/>
      </g>
     </g>
    </g>
    <g id="ytick_55">
     <g id="line2d_123">
      <g>
       <use xlink:href="#m213ef10b09" x="107.945108" y="133.030324" style="stroke: #000000; stroke-width: 0.5"/>
      </g>
     </g>
     <g id="line2d_124">
      <g>
       <use xlink:href="#m213ef10b09" x="475.11" y="133.030324" style="stroke: #000000; stroke-width: 0.5"/>
      </g>
     </g>
    </g>
    <g id="ytick_56">
     <g id="line2d_125">
      <g>
       <use xlink:href="#m213ef10b09" x="107.945108" y="130.088712" style="stroke: #000000; stroke-width: 0.5"/>
      </g>
     </g>
     <g id="line2d_126">
      <g>
       <use xlink:href="#m213ef10b09" x="475.11" y="130.088712" style="stroke: #000000; stroke-width: 0.5"/>
      </g>
     </g>
    </g>
    <g id="ytick_57">
     <g id="line2d_127">
      <g>
       <use xlink:href="#m213ef10b09" x="107.945108" y="127.494026" style="stroke: #000000; stroke-width: 0.5"/>
      </g>
     </g>
     <g id="line2d_128">
      <g>
       <use xlink:href="#m213ef10b09" x="475.11" y="127.494026" style="stroke: #000000; stroke-width: 0.5"/>
      </g>
     </g>
    </g>
    <g id="ytick_58">
     <g id="line2d_129">
      <g>
       <use xlink:href="#m213ef10b09" x="107.945108" y="109.903404" style="stroke: #000000; stroke-width: 0.5"/>
      </g>
     </g>
     <g id="line2d_130">
      <g>
       <use xlink:href="#m213ef10b09" x="475.11" y="109.903404" style="stroke: #000000; stroke-width: 0.5"/>
      </g>
     </g>
    </g>
    <g id="ytick_59">
     <g id="line2d_131">
      <g>
       <use xlink:href="#m213ef10b09" x="107.945108" y="100.971263" style="stroke: #000000; stroke-width: 0.5"/>
      </g>
     </g>
     <g id="line2d_132">
      <g>
       <use xlink:href="#m213ef10b09" x="475.11" y="100.971263" style="stroke: #000000; stroke-width: 0.5"/>
      </g>
     </g>
    </g>
    <g id="ytick_60">
     <g id="line2d_133">
      <g>
       <use xlink:href="#m213ef10b09" x="107.945108" y="94.633808" style="stroke: #000000; stroke-width: 0.5"/>
      </g>
     </g>
     <g id="line2d_134">
      <g>
       <use xlink:href="#m213ef10b09" x="475.11" y="94.633808" style="stroke: #000000; stroke-width: 0.5"/>
      </g>
     </g>
    </g>
    <g id="ytick_61">
     <g id="line2d_135">
      <g>
       <use xlink:href="#m213ef10b09" x="107.945108" y="89.718096" style="stroke: #000000; stroke-width: 0.5"/>
      </g>
     </g>
     <g id="line2d_136">
      <g>
       <use xlink:href="#m213ef10b09" x="475.11" y="89.718096" style="stroke: #000000; stroke-width: 0.5"/>
      </g>
     </g>
    </g>
    <g id="ytick_62">
     <g id="line2d_137">
      <g>
       <use xlink:href="#m213ef10b09" x="107.945108" y="85.701667" style="stroke: #000000; stroke-width: 0.5"/>
      </g>
     </g>
     <g id="line2d_138">
      <g>
       <use xlink:href="#m213ef10b09" x="475.11" y="85.701667" style="stroke: #000000; stroke-width: 0.5"/>
      </g>
     </g>
    </g>
    <g id="ytick_63">
     <g id="line2d_139">
      <g>
       <use xlink:href="#m213ef10b09" x="107.945108" y="82.305824" style="stroke: #000000; stroke-width: 0.5"/>
      </g>
     </g>
     <g id="line2d_140">
      <g>
       <use xlink:href="#m213ef10b09" x="475.11" y="82.305824" style="stroke: #000000; stroke-width: 0.5"/>
      </g>
     </g>
    </g>
    <g id="ytick_64">
     <g id="line2d_141">
      <g>
       <use xlink:href="#m213ef10b09" x="107.945108" y="79.364212" style="stroke: #000000; stroke-width: 0.5"/>
      </g>
     </g>
     <g id="line2d_142">
      <g>
       <use xlink:href="#m213ef10b09" x="475.11" y="79.364212" style="stroke: #000000; stroke-width: 0.5"/>
      </g>
     </g>
    </g>
    <g id="ytick_65">
     <g id="line2d_143">
      <g>
       <use xlink:href="#m213ef10b09" x="107.945108" y="76.769526" style="stroke: #000000; stroke-width: 0.5"/>
      </g>
     </g>
     <g id="line2d_144">
      <g>
       <use xlink:href="#m213ef10b09" x="475.11" y="76.769526" style="stroke: #000000; stroke-width: 0.5"/>
      </g>
     </g>
    </g>
    <g id="ytick_66">
     <g id="line2d_145">
      <g>
       <use xlink:href="#m213ef10b09" x="107.945108" y="59.178904" style="stroke: #000000; stroke-width: 0.5"/>
      </g>
     </g>
     <g id="line2d_146">
      <g>
       <use xlink:href="#m213ef10b09" x="475.11" y="59.178904" style="stroke: #000000; stroke-width: 0.5"/>
      </g>
     </g>
    </g>
    <g id="ytick_67">
     <g id="line2d_147">
      <g>
       <use xlink:href="#m213ef10b09" x="107.945108" y="50.246763" style="stroke: #000000; stroke-width: 0.5"/>
      </g>
     </g>
     <g id="line2d_148">
      <g>
       <use xlink:href="#m213ef10b09" x="475.11" y="50.246763" style="stroke: #000000; stroke-width: 0.5"/>
      </g>
     </g>
    </g>
    <g id="ytick_68">
     <g id="line2d_149">
      <g>
       <use xlink:href="#m213ef10b09" x="107.945108" y="43.909308" style="stroke: #000000; stroke-width: 0.5"/>
      </g>
     </g>
     <g id="line2d_150">
      <g>
       <use xlink:href="#m213ef10b09" x="475.11" y="43.909308" style="stroke: #000000; stroke-width: 0.5"/>
      </g>
     </g>
    </g>
    <g id="ytick_69">
     <g id="line2d_151">
      <g>
       <use xlink:href="#m213ef10b09" x="107.945108" y="38.993596" style="stroke: #000000; stroke-width: 0.5"/>
      </g>
     </g>
     <g id="line2d_152">
      <g>
       <use xlink:href="#m213ef10b09" x="475.11" y="38.993596" style="stroke: #000000; stroke-width: 0.5"/>
      </g>
     </g>
    </g>
    <g id="ytick_70">
     <g id="line2d_153">
      <g>
       <use xlink:href="#m213ef10b09" x="107.945108" y="34.977167" style="stroke: #000000; stroke-width: 0.5"/>
      </g>
     </g>
     <g id="line2d_154">
      <g>
       <use xlink:href="#m213ef10b09" x="475.11" y="34.977167" style="stroke: #000000; stroke-width: 0.5"/>
      </g>
     </g>
    </g>
    <g id="ytick_71">
     <g id="line2d_155">
      <g>
       <use xlink:href="#m213ef10b09" x="107.945108" y="31.581324" style="stroke: #000000; stroke-width: 0.5"/>
      </g>
     </g>
     <g id="line2d_156">
      <g>
       <use xlink:href="#m213ef10b09" x="475.11" y="31.581324" style="stroke: #000000; stroke-width: 0.5"/>
      </g>
     </g>
    </g>
    <g id="ytick_72">
     <g id="line2d_157">
      <g>
       <use xlink:href="#m213ef10b09" x="107.945108" y="28.639712" style="stroke: #000000; stroke-width: 0.5"/>
      </g>
     </g>
     <g id="line2d_158">
      <g>
       <use xlink:href="#m213ef10b09" x="475.11" y="28.639712" style="stroke: #000000; stroke-width: 0.5"/>
      </g>
     </g>
    </g>
    <g id="ytick_73">
     <g id="line2d_159">
      <g>
       <use xlink:href="#m213ef10b09" x="107.945108" y="26.045026" style="stroke: #000000; stroke-width: 0.5"/>
      </g>
     </g>
     <g id="line2d_160">
      <g>
       <use xlink:href="#m213ef10b09" x="475.11" y="26.045026" style="stroke: #000000; stroke-width: 0.5"/>
      </g>
     </g>
    </g>
    <g id="text_16">
     <!-- $(2\pi p_T)^{-1}dN_{DCC}/(dp_Td\eta_p)\ [GeV^{-2}]$ -->
     <g transform="translate(39.195108 425.872) rotate(-90) scale(0.25 -0.25)">
      <defs>
       <path id="DejaVuSans-28" d="M 1984 4856 
Q 1566 4138 1362 3434 
Q 1159 2731 1159 2009 
Q 1159 1288 1364 580 
Q 1569 -128 1984 -844 
L 1484 -844 
Q 1016 -109 783 600 
Q 550 1309 550 2009 
Q 550 2706 781 3412 
Q 1013 4119 1484 4856 
L 1984 4856 
z
" transform="scale(0.015625)"/>
       <path id="DejaVuSans-3c0" d="M 231 3500 
L 3584 3500 
L 3584 2925 
L 3144 2925 
L 3144 775 
Q 3144 550 3220 451 
Q 3297 353 3469 353 
Q 3516 353 3584 361 
Q 3653 369 3675 372 
L 3675 -44 
Q 3566 -84 3450 -103 
Q 3334 -122 3219 -122 
Q 2844 -122 2700 83 
Q 2556 288 2556 838 
L 2556 2925 
L 1266 2925 
L 1266 0 
L 678 0 
L 678 2925 
L 231 2925 
L 231 3500 
z
" transform="scale(0.015625)"/>
       <path id="DejaVuSans-29" d="M 513 4856 
L 1013 4856 
Q 1481 4119 1714 3412 
Q 1947 2706 1947 2009 
Q 1947 1309 1714 600 
Q 1481 -109 1013 -844 
L 513 -844 
Q 928 -128 1133 580 
Q 1338 1288 1338 2009 
Q 1338 2731 1133 3434 
Q 928 4138 513 4856 
z
" transform="scale(0.015625)"/>
       <path id="DejaVuSans-64" d="M 2906 2969 
L 2906 4863 
L 3481 4863 
L 3481 0 
L 2906 0 
L 2906 525 
Q 2725 213 2448 61 
Q 2172 -91 1784 -91 
Q 1150 -91 751 415 
Q 353 922 353 1747 
Q 353 2572 751 3078 
Q 1150 3584 1784 3584 
Q 2172 3584 2448 3432 
Q 2725 3281 2906 2969 
z
M 947 1747 
Q 947 1113 1208 752 
Q 1469 391 1925 391 
Q 2381 391 2643 752 
Q 2906 1113 2906 1747 
Q 2906 2381 2643 2742 
Q 2381 3103 1925 3103 
Q 1469 3103 1208 2742 
Q 947 2381 947 1747 
z
" transform="scale(0.015625)"/>
       <path id="DejaVuSans-4e" d="M 628 4666 
L 1478 4666 
L 3547 763 
L 3547 4666 
L 4159 4666 
L 4159 0 
L 3309 0 
L 1241 3903 
L 1241 0 
L 628 0 
L 628 4666 
z
" transform="scale(0.015625)"/>
       <path id="DejaVuSans-44" d="M 1259 4147 
L 1259 519 
L 2022 519 
Q 2988 519 3436 956 
Q 3884 1394 3884 2338 
Q 3884 3275 3436 3711 
Q 2988 4147 2022 4147 
L 1259 4147 
z
M 628 4666 
L 1925 4666 
Q 3281 4666 3915 4102 
Q 4550 3538 4550 2338 
Q 4550 1131 3912 565 
Q 3275 0 1925 0 
L 628 0 
L 628 4666 
z
" transform="scale(0.015625)"/>
       <path id="DejaVuSans-43" d="M 4122 4306 
L 4122 3641 
Q 3803 3938 3442 4084 
Q 3081 4231 2675 4231 
Q 1875 4231 1450 3742 
Q 1025 3253 1025 2328 
Q 1025 1406 1450 917 
Q 1875 428 2675 428 
Q 3081 428 3442 575 
Q 3803 722 4122 1019 
L 4122 359 
Q 3791 134 3420 21 
Q 3050 -91 2638 -91 
Q 1578 -91 968 557 
Q 359 1206 359 2328 
Q 359 3453 968 4101 
Q 1578 4750 2638 4750 
Q 3056 4750 3426 4639 
Q 3797 4528 4122 4306 
z
" transform="scale(0.015625)"/>
       <path id="DejaVuSans-2f" d="M 1625 4666 
L 2156 4666 
L 531 -594 
L 0 -594 
L 1625 4666 
z
" transform="scale(0.015625)"/>
       <path id="DejaVuSans-3b7" d="M 3513 2113 
L 3513 -1331 
L 2938 -1331 
L 2938 2094 
Q 2938 2591 2744 2837 
Q 2550 3084 2163 3084 
Q 1697 3084 1428 2787 
Q 1159 2491 1159 1978 
L 1159 0 
L 581 0 
L 581 3500 
L 1159 3500 
L 1159 2956 
Q 1366 3272 1644 3428 
Q 1925 3584 2291 3584 
Q 2894 3584 3203 3213 
Q 3513 2838 3513 2113 
z
" transform="scale(0.015625)"/>
      </defs>
      <use xlink:href="#DejaVuSans-28" transform="translate(0 0.765625)"/>
      <use xlink:href="#DejaVuSans-32" transform="translate(39.013672 0.765625)"/>
      <use xlink:href="#DejaVuSans-3c0" transform="translate(102.636719 0.765625)"/>
      <use xlink:href="#DejaVuSans-70" transform="translate(162.841797 0.765625)"/>
      <use xlink:href="#DejaVuSans-54" transform="translate(227.275391 -15.640625) scale(0.7)"/>
      <use xlink:href="#DejaVuSans-29" transform="translate(272.768555 0.765625)"/>
      <use xlink:href="#DejaVuSans-2212" transform="translate(312.739258 39.046875) scale(0.7)"/>
      <use xlink:href="#DejaVuSans-31" transform="translate(371.391602 39.046875) scale(0.7)"/>
      <use xlink:href="#DejaVuSans-64" transform="translate(418.662109 0.765625)"/>
      <use xlink:href="#DejaVuSans-4e" transform="translate(482.138672 0.765625)"/>
      <use xlink:href="#DejaVuSans-44" transform="translate(557.900391 -15.640625) scale(0.7)"/>
      <use xlink:href="#DejaVuSans-43" transform="translate(611.801758 -15.640625) scale(0.7)"/>
      <use xlink:href="#DejaVuSans-43" transform="translate(660.678711 -15.640625) scale(0.7)"/>
      <use xlink:href="#DejaVuSans-2f" transform="translate(712.290039 0.765625)"/>
      <use xlink:href="#DejaVuSans-28" transform="translate(745.981445 0.765625)"/>
      <use xlink:href="#DejaVuSans-64" transform="translate(784.995117 0.765625)"/>
      <use xlink:href="#DejaVuSans-70" transform="translate(848.47168 0.765625)"/>
      <use xlink:href="#DejaVuSans-54" transform="translate(912.905273 -15.640625) scale(0.7)"/>
      <use xlink:href="#DejaVuSans-64" transform="translate(958.398438 0.765625)"/>
      <use xlink:href="#DejaVuSans-3b7" transform="translate(1021.875 0.765625)"/>
      <use xlink:href="#DejaVuSans-70" transform="translate(1086.210938 -15.640625) scale(0.7)"/>
      <use xlink:href="#DejaVuSans-29" transform="translate(1133.378906 0.765625)"/>
      <use xlink:href="#DejaVuSans-5b" transform="translate(1201.656608 0.765625)"/>
      <use xlink:href="#DejaVuSans-47" transform="translate(1240.67028 0.765625)"/>
      <use xlink:href="#DejaVuSans-65" transform="translate(1318.160515 0.765625)"/>
      <use xlink:href="#DejaVuSans-56" transform="translate(1379.683952 0.765625)"/>
      <use xlink:href="#DejaVuSans-2212" transform="translate(1449.049187 39.046875) scale(0.7)"/>
      <use xlink:href="#DejaVuSans-32" transform="translate(1507.70153 39.046875) scale(0.7)"/>
      <use xlink:href="#DejaVuSans-5d" transform="translate(1554.972038 0.765625)"/>
     </g>
    </g>
   </g>
   <g id="legend_1">
    <g id="patch_7">
     <path d="M 244.91 157.149 
L 461.11 157.149 
Q 465.11 157.149 465.11 153.149 
L 465.11 37.724 
Q 465.11 33.724 461.11 33.724 
L 244.91 33.724 
Q 240.91 33.724 240.91 37.724 
L 240.91 153.149 
Q 240.91 157.149 244.91 157.149 
z
" style="fill: #ffffff; opacity: 0.85; stroke: #000000; stroke-linejoin: miter"/>
    </g>
    <g id="line2d_161">
     <path d="M 254.91 49.920875 
L 282.91 49.920875 
" style="fill: none; stroke: #ff0000; stroke-width: 2; stroke-linecap: square"/>
    </g>
    <g id="text_17">
     <!-- Type A -->
     <g transform="translate(304.91 56.920875) scale(0.2 -0.2)">
      <defs>
       <path id="DejaVuSans-79" d="M 2059 -325 
Q 1816 -950 1584 -1140 
Q 1353 -1331 966 -1331 
L 506 -1331 
L 506 -850 
L 844 -850 
Q 1081 -850 1212 -737 
Q 1344 -625 1503 -206 
L 1606 56 
L 191 3500 
L 800 3500 
L 1894 763 
L 2988 3500 
L 3597 3500 
L 2059 -325 
z
" transform="scale(0.015625)"/>
       <path id="DejaVuSans-20" transform="scale(0.015625)"/>
       <path id="DejaVuSans-41" d="M 2188 4044 
L 1331 1722 
L 3047 1722 
L 2188 4044 
z
M 1831 4666 
L 2547 4666 
L 4325 0 
L 3669 0 
L 3244 1197 
L 1141 1197 
L 716 0 
L 50 0 
L 1831 4666 
z
" transform="scale(0.015625)"/>
      </defs>
      <use xlink:href="#DejaVuSans-54"/>
      <use xlink:href="#DejaVuSans-79" x="45.458984"/>
      <use xlink:href="#DejaVuSans-70" x="104.638672"/>
      <use xlink:href="#DejaVuSans-65" x="168.115234"/>
      <use xlink:href="#DejaVuSans-20" x="229.638672"/>
      <use xlink:href="#DejaVuSans-41" x="261.425781"/>
     </g>
    </g>
    <g id="line2d_162">
     <path d="M 254.91 79.277125 
L 282.91 79.277125 
" style="fill: none; stroke: #0000ff; stroke-width: 2; stroke-linecap: square"/>
    </g>
    <g id="text_18">
     <!-- Type B -->
     <g transform="translate(304.91 86.277125) scale(0.2 -0.2)">
      <defs>
       <path id="DejaVuSans-42" d="M 1259 2228 
L 1259 519 
L 2272 519 
Q 2781 519 3026 730 
Q 3272 941 3272 1375 
Q 3272 1813 3026 2020 
Q 2781 2228 2272 2228 
L 1259 2228 
z
M 1259 4147 
L 1259 2741 
L 2194 2741 
Q 2656 2741 2882 2914 
Q 3109 3088 3109 3444 
Q 3109 3797 2882 3972 
Q 2656 4147 2194 4147 
L 1259 4147 
z
M 628 4666 
L 2241 4666 
Q 2963 4666 3353 4366 
Q 3744 4066 3744 3513 
Q 3744 3084 3544 2831 
Q 3344 2578 2956 2516 
Q 3422 2416 3680 2098 
Q 3938 1781 3938 1306 
Q 3938 681 3513 340 
Q 3088 0 2303 0 
L 628 0 
L 628 4666 
z
" transform="scale(0.015625)"/>
      </defs>
      <use xlink:href="#DejaVuSans-54"/>
      <use xlink:href="#DejaVuSans-79" x="45.458984"/>
      <use xlink:href="#DejaVuSans-70" x="104.638672"/>
      <use xlink:href="#DejaVuSans-65" x="168.115234"/>
      <use xlink:href="#DejaVuSans-20" x="229.638672"/>
      <use xlink:href="#DejaVuSans-42" x="261.425781"/>
     </g>
    </g>
    <g id="line2d_163">
     <path d="M 254.91 108.633375 
L 282.91 108.633375 
" style="fill: none; stroke: #008000; stroke-width: 2; stroke-linecap: square"/>
    </g>
    <g id="text_19">
     <!-- Type C -->
     <g transform="translate(304.91 115.633375) scale(0.2 -0.2)">
      <use xlink:href="#DejaVuSans-54"/>
      <use xlink:href="#DejaVuSans-79" x="45.458984"/>
      <use xlink:href="#DejaVuSans-70" x="104.638672"/>
      <use xlink:href="#DejaVuSans-65" x="168.115234"/>
      <use xlink:href="#DejaVuSans-20" x="229.638672"/>
      <use xlink:href="#DejaVuSans-43" x="261.425781"/>
     </g>
    </g>
    <g id="line2d_164">
     <path d="M 254.91 137.989625 
L 282.91 137.989625 
" style="fill: none; stroke: #000000; stroke-width: 2; stroke-linecap: square"/>
    </g>
    <g id="text_20">
     <!-- ALICE$-$FluiduM -->
     <g transform="translate(304.91 144.989625) scale(0.2 -0.2)">
      <defs>
       <path id="DejaVuSans-4c" d="M 628 4666 
L 1259 4666 
L 1259 531 
L 3531 531 
L 3531 0 
L 628 0 
L 628 4666 
z
" transform="scale(0.015625)"/>
       <path id="DejaVuSans-49" d="M 628 4666 
L 1259 4666 
L 1259 0 
L 628 0 
L 628 4666 
z
" transform="scale(0.015625)"/>
       <path id="DejaVuSans-45" d="M 628 4666 
L 3578 4666 
L 3578 4134 
L 1259 4134 
L 1259 2753 
L 3481 2753 
L 3481 2222 
L 1259 2222 
L 1259 531 
L 3634 531 
L 3634 0 
L 628 0 
L 628 4666 
z
" transform="scale(0.015625)"/>
       <path id="DejaVuSans-46" d="M 628 4666 
L 3309 4666 
L 3309 4134 
L 1259 4134 
L 1259 2759 
L 3109 2759 
L 3109 2228 
L 1259 2228 
L 1259 0 
L 628 0 
L 628 4666 
z
" transform="scale(0.015625)"/>
       <path id="DejaVuSans-6c" d="M 603 4863 
L 1178 4863 
L 1178 0 
L 603 0 
L 603 4863 
z
" transform="scale(0.015625)"/>
       <path id="DejaVuSans-75" d="M 544 1381 
L 544 3500 
L 1119 3500 
L 1119 1403 
Q 1119 906 1312 657 
Q 1506 409 1894 409 
Q 2359 409 2629 706 
Q 2900 1003 2900 1516 
L 2900 3500 
L 3475 3500 
L 3475 0 
L 2900 0 
L 2900 538 
Q 2691 219 2414 64 
Q 2138 -91 1772 -91 
Q 1169 -91 856 284 
Q 544 659 544 1381 
z
M 1991 3584 
L 1991 3584 
z
" transform="scale(0.015625)"/>
       <path id="DejaVuSans-69" d="M 603 3500 
L 1178 3500 
L 1178 0 
L 603 0 
L 603 3500 
z
M 603 4863 
L 1178 4863 
L 1178 4134 
L 603 4134 
L 603 4863 
z
" transform="scale(0.015625)"/>
       <path id="DejaVuSans-4d" d="M 628 4666 
L 1569 4666 
L 2759 1491 
L 3956 4666 
L 4897 4666 
L 4897 0 
L 4281 0 
L 4281 4097 
L 3078 897 
L 2444 897 
L 1241 4097 
L 1241 0 
L 628 0 
L 628 4666 
z
" transform="scale(0.015625)"/>
      </defs>
      <use xlink:href="#DejaVuSans-41" transform="translate(0 0.015625)"/>
      <use xlink:href="#DejaVuSans-4c" transform="translate(68.408203 0.015625)"/>
      <use xlink:href="#DejaVuSans-49" transform="translate(124.121094 0.015625)"/>
      <use xlink:href="#DejaVuSans-43" transform="translate(153.613281 0.015625)"/>
      <use xlink:href="#DejaVuSans-45" transform="translate(223.4375 0.015625)"/>
      <use xlink:href="#DejaVuSans-2212" transform="translate(286.621094 0.015625)"/>
      <use xlink:href="#DejaVuSans-46" transform="translate(370.410156 0.015625)"/>
      <use xlink:href="#DejaVuSans-6c" transform="translate(427.929688 0.015625)"/>
      <use xlink:href="#DejaVuSans-75" transform="translate(455.712891 0.015625)"/>
      <use xlink:href="#DejaVuSans-69" transform="translate(519.091797 0.015625)"/>
      <use xlink:href="#DejaVuSans-64" transform="translate(546.875 0.015625)"/>
      <use xlink:href="#DejaVuSans-75" transform="translate(610.351562 0.015625)"/>
      <use xlink:href="#DejaVuSans-4d" transform="translate(673.730469 0.015625)"/>
     </g>
    </g>
   </g>
  </g>
 </g>
 <defs>
  <clipPath id="p580d481a5c">
   <rect x="107.945108" y="23.724" width="367.164892" height="405.796"/>
  </clipPath>
 </defs>
</svg>
